<?xml version="1.0" standalone="no"?>
<!DOCTYPE svg PUBLIC "-//W3C//DTD SVG 1.1//EN" "http://www.w3.org/Graphics/SVG/1.1/DTD/svg11.dtd" >
<svg xmlns="http://www.w3.org/2000/svg">
<metadata></metadata>
<defs>
<font id="hanken_sansextrabold_italic" horiz-adv-x="1202" >
<font-face units-per-em="2048" ascent="1638" descent="-410" />
<missing-glyph horiz-adv-x="481" />
<glyph unicode="&#xfb01;" horiz-adv-x="1216" d="M86 815l39 184h184l23 107q33 154 128 230.5t261 76.5h145l-47 -219h-108q-36 0 -65 -32.5t-40 -84.5l-16 -78h600l-213 -999h-283l174 815h-317l-174 -815h-283l174 815h-182zM940 1151l55 262h283l-55 -262h-283z" />
<glyph unicode="&#xfb02;" horiz-adv-x="1234" d="M86 815l39 184h184l23 107q33 154 128 230.5t261 76.5h166l-47 -219h-129q-36 0 -65 -32.5t-40 -84.5l-16 -78h209l-39 -184h-209l-174 -815h-283l174 815h-182zM711 0l301 1413h282l-301 -1413h-282z" />
<glyph horiz-adv-x="0" />
<glyph horiz-adv-x="682" />
<glyph unicode=" "  horiz-adv-x="481" />
<glyph unicode="&#x09;" horiz-adv-x="481" />
<glyph unicode="&#xa0;" horiz-adv-x="481" />
<glyph unicode="!" horiz-adv-x="604" d="M49 0l62 291h292l-61 -291h-293zM184 444l183 992h268l-240 -992h-211z" />
<glyph unicode="&#x22;" horiz-adv-x="841" d="M190 840l123 573h232l-123 -573h-232zM555 840l123 573h237l-122 -573h-238z" />
<glyph unicode="#" horiz-adv-x="1394" d="M51 401l41 199h270l101 234h-238l43 208h279l178 392h225l-190 -437h219l184 437h226l-183 -402h230l-41 -198h-269l-102 -234h238l-43 -209h-277l-176 -391h-223l184 436h-217l-182 -436h-224l177 401h-230zM584 600h219l100 234h-217z" />
<glyph unicode="$" horiz-adv-x="1095" d="M8 395l244 33q-9 -115 54.5 -170t178.5 -55q123 0 201.5 55t101.5 164q11 54 -17.5 95.5t-82 71t-120 58t-131.5 64.5t-115 81.5t-72 118.5t-2 166q30 140 139 233t256 120l53 229h191l-53 -229q219 -28 294 -234l-217 -100q-39 127 -196 127q-80 0 -148.5 -50.5 t-83.5 -125.5q-8 -40 8 -72.5t50.5 -56t80.5 -46.5t97.5 -44t102.5 -49.5t94 -62t73 -81.5t39.5 -108t-6.5 -142q-36 -168 -170 -276t-315 -127l-54 -228h-190l55 236q-155 28 -251 134.5t-89 270.5z" />
<glyph unicode="%" horiz-adv-x="1599" d="M152 -33l1124 1503h252l-1125 -1503h-251zM213 1024q1 45 10 88q8 39 24 79.5t45 85.5t66.5 79.5t93 57t119.5 22.5q62 0 110 -22.5t74 -59.5t42 -85t14 -99t-10 -101q-12 -56 -39.5 -109.5t-69 -100.5t-103 -76t-132.5 -29q-69 0 -119.5 25t-76 63t-37.5 87.5t-11 94.5z M416 1071q-11 -53 4 -85t51 -32q40 0 79 46t54 112q10 56 -4 89.5t-47 33.5q-44 0 -83 -46t-54 -118zM877 258.5q1 46.5 10 91.5q9 40 25 81t46 87.5t67.5 82t93.5 58.5t120 23q63 0 110.5 -23t73.5 -60.5t41 -86.5t12.5 -100.5t-10.5 -102.5q-12 -57 -39.5 -111t-69 -102.5 t-103 -78t-132.5 -29.5q-69 0 -119.5 24.5t-76.5 62.5t-38 87.5t-11 96zM1081 309q-11 -55 3.5 -89t52.5 -34q39 0 78.5 49t54.5 117q12 58 -2 92.5t-47 34.5q-43 0 -83 -48t-57 -122z" />
<glyph unicode="&#x26;" horiz-adv-x="1482" d="M45 397q22 101 93 188.5t157.5 130t155.5 27.5l24 29q-81 38 -120.5 118.5t-12.5 205.5q18 87 68 154t118 105.5t142 57.5t151 19q83 0 152.5 -23.5t120.5 -68.5t71.5 -118t1.5 -165q-21 -99 -85.5 -173.5t-180.5 -140.5l-139 170q116 69 135 168q11 49 -15.5 82 t-82.5 33q-64 0 -117.5 -46t-67.5 -112q-8 -39 8 -79t58 -95l278 -342l189 217h340l-383 -399l266 -340h-379l-104 133q-178 -160 -426 -160q-100 0 -184 27.5t-144 79t-84.5 133.5t-3.5 184zM344 377q-16 -79 29.5 -122.5t124.5 -43.5q122 0 245 123l-192 254 q-176 -67 -207 -211z" />
<glyph unicode="'" horiz-adv-x="468" d="M197 868l122 574h232l-123 -574h-231z" />
<glyph unicode="(" horiz-adv-x="659" d="M50 38q-16 245 54 589q69 326 183 548.5t241 325.5l283 -14q-192 -181 -304.5 -396.5t-182.5 -541.5q-36 -168 -46.5 -293.5t5.5 -229.5t46 -183.5t85 -180.5l-256 16q-92 115 -108 360z" />
<glyph unicode=")" horiz-adv-x="661" d="M-92 -328q194 181 306.5 396.5t180.5 541.5q36 168 46.5 293.5t-4.5 229.5t-45 184t-85 180l256 -16q90 -116 106 -360t-55 -589q-68 -326 -181 -548.5t-240 -325.5z" />
<glyph unicode="*" horiz-adv-x="817" d="M180 1114l115 193l180 -80l14 186h230l-68 -186l213 80l31 -193l-227 -29l123 -139l-205 -115l-64 197l-145 -197l-164 115l176 139z" />
<glyph unicode="+" horiz-adv-x="1382" d="M133 518l45 213h457l88 412h211l-88 -412h457l-46 -213h-456l-88 -412h-211l88 412h-457z" />
<glyph unicode="," horiz-adv-x="573" d="M-47 -307l166 307h-123l65 311h345l-64 -311l-238 -307h-151z" />
<glyph unicode="-" horiz-adv-x="733" d="M39 391l53 252h610l-53 -252h-610z" />
<glyph unicode="." horiz-adv-x="550" d="M-2 0l65 311h345l-66 -311h-344z" />
<glyph unicode="/" horiz-adv-x="1212" d="M31 -156l970 1567h261l-971 -1567h-260z" />
<glyph unicode="0" horiz-adv-x="1187" d="M68.5 445q-1.5 76 6.5 144t23 138q20 97 50.5 186t86.5 187.5t126.5 170t176.5 118.5t232 47q121 0 209 -44t136.5 -117t70.5 -171.5t18 -203t-28 -216.5q-23 -106 -60 -203.5t-96 -190t-132.5 -160.5t-173.5 -109t-214 -41q-96 0 -170.5 25.5t-122.5 68.5t-79.5 103.5 t-44.5 126t-14.5 141.5zM352 520q-5 -73 5.5 -140.5t52.5 -104.5t114 -37q74 0 135 41.5t104 114.5t72 155t50 180q15 74 22 134t4 120t-20.5 100.5t-55.5 65.5t-96 25q-60 0 -111.5 -27.5t-89.5 -72.5t-69.5 -109.5t-53 -132t-38.5 -146.5q-20 -93 -25 -166z" />
<glyph unicode="1" horiz-adv-x="927" d="M182 918l60 294l374 201h281l-301 -1413h-287l242 1122z" />
<glyph unicode="2" horiz-adv-x="1228" d="M39 0l47 223q22 103 76.5 183t124.5 130.5t151 91.5t160 75.5t146.5 71t116 90t63.5 122.5q37 184 -142 184q-100 0 -184 -75t-113 -226l-274 39q51 243 208 383t406 140q213 0 319.5 -128.5t63.5 -328.5q-22 -102 -75.5 -184t-123 -135.5t-149 -96.5t-157.5 -75.5 t-143.5 -63t-112 -69t-58.5 -83.5l-2 -8h698l-55 -260h-991z" />
<glyph unicode="3" horiz-adv-x="1130" d="M42.5 257.5q-22.5 92.5 2.5 215.5l279 -6q-25 -119 22 -177.5t152 -58.5t187 59.5t106 168.5q18 87 -28.5 130.5t-150.5 43.5h-88l49 233h76q74 0 126 46t69 126q15 73 -21.5 107.5t-122.5 34.5q-103 0 -165.5 -55.5t-85.5 -153.5l-267 37q29 136 111.5 234t193 145 t238.5 47q96 0 176.5 -29t136 -81t78 -131.5t2.5 -174.5q-21 -98 -84.5 -164t-146.5 -92l-15 -6q102 -19 159 -107.5t30 -236.5q-23 -108 -82.5 -192.5t-141 -135.5t-175.5 -77.5t-193 -26.5q-106 0 -193.5 31t-149 92.5t-84 154z" />
<glyph unicode="4" horiz-adv-x="1187" d="M23 315l55 267l803 831h241l-184 -862h176l-49 -236h-176l-68 -315h-289l68 315h-577zM332 551h317l96 436z" />
<glyph unicode="5" horiz-adv-x="1187" d="M37 395l280 60q8 -95 61 -151t138 -56q101 0 190.5 77t112.5 189q21 94 -30 153.5t-146 59.5q-70 0 -137.5 -34t-116.5 -83l-258 74l289 729h825l-55 -260h-606l-101 -264l-20 -31l4 4q106 115 303 115q187 0 285.5 -143t54.5 -357q-47 -217 -225 -357t-396 -140 q-193 0 -315.5 116t-136.5 299z" />
<glyph unicode="6" horiz-adv-x="1134" d="M50.5 291q-23.5 93 0.5 198q52 242 236.5 482t441.5 448l383 -12q-118 -69 -309.5 -239t-263.5 -289q81 43 202 43q115 0 201.5 -58.5t124 -163.5t10.5 -233q-44 -200 -220 -343.5t-392 -143.5q-105 0 -193 40t-143 109t-78.5 162zM332 465q-19 -87 31.5 -148t138.5 -61 q101 0 187.5 73t109.5 177q19 88 -32 147.5t-144 59.5q-97 0 -182.5 -72.5t-108.5 -175.5z" />
<glyph unicode="7" horiz-adv-x="987" d="M90 10q36 139 106.5 298.5t165 316.5t217 296t248.5 220l4 2h-632l57 270h887l-64 -317q-516 -431 -661 -1106z" />
<glyph unicode="8" horiz-adv-x="1169" d="M49 440q25 114 120.5 205t219.5 117l17 6q-89 14 -133 102.5t-19 208.5q34 155 178 255t336 100q202 0 310 -112.5t73 -283.5q-20 -94 -93 -171t-169 -103l-15 -6q119 -20 180 -122t33 -237q-40 -184 -210 -301.5t-396 -117.5q-151 0 -260 59t-154.5 164.5t-17.5 236.5z M326 420q-17 -76 36.5 -124t153.5 -48q107 0 191 60.5t104 152.5q15 74 -38.5 121t-151.5 47q-108 0 -192 -59.5t-103 -149.5zM510 1004q-12 -57 27.5 -93.5t111.5 -36.5q82 0 147.5 49t80.5 121q11 57 -28.5 93.5t-111.5 36.5q-82 0 -147 -49t-80 -121z" />
<glyph unicode="9" horiz-adv-x="1132" d="M111 6q118 69 309.5 239.5t263.5 289.5q-81 -43 -203 -43q-86 0 -158 34t-117.5 94.5t-64 144t3.5 181.5q44 200 220.5 344t392.5 144q140 0 245.5 -68.5t151 -186t16.5 -255.5q-27 -125 -92.5 -254.5t-159 -248t-199.5 -224t-228 -203.5zM424 907q-19 -88 32 -147.5 t144 -59.5q97 0 182.5 72.5t108.5 175.5q19 87 -31.5 148t-138.5 61q-101 0 -187.5 -73t-109.5 -177z" />
<glyph unicode=":" horiz-adv-x="548" d="M-111 0l66 311h344l-66 -311h-344zM37 688l65 311h344l-65 -311h-344z" />
<glyph unicode=";" horiz-adv-x="604" d="M-113 -307l166 307h-123l66 311h344l-64 -311l-237 -307h-152zM78 688l65 311h344l-65 -311h-344z" />
<glyph unicode="&#x3c;" horiz-adv-x="1396" d="M166 674l1130 532l76 -202l-754 -330l619 -330l-158 -203z" />
<glyph unicode="=" horiz-adv-x="1114" d="M100 369l52 235h856l-52 -235h-856zM180 739l49 236h856l-49 -236h-856z" />
<glyph unicode="&#x3e;" horiz-adv-x="1396" d="M98 344l748 330l-613 330l158 202l914 -532l-1131 -533z" />
<glyph unicode="?" horiz-adv-x="976" d="M160 975q17 78 43 144t68 125.5t96.5 100.5t130 65t166.5 24q86 0 157 -23.5t123.5 -73t71 -126.5t-1.5 -183q-16 -75 -51.5 -134t-76.5 -92.5t-87.5 -65t-85.5 -55t-69.5 -59t-39.5 -79.5l-20 -103h-230l27 125q15 71 43 123.5t60.5 82.5t69.5 53t73 42.5t67.5 41 t55.5 57.5t34 86q34 153 -143 153q-196 0 -250 -250zM236 0l61 291h283l-62 -291h-282z" />
<glyph unicode="@" horiz-adv-x="1976" d="M85 355q0 100 21 208q37 177 139.5 337.5t245 277t322 185.5t363.5 69q109 0 209 -24.5t181 -69.5t149 -109t113.5 -142.5t73.5 -169.5t29 -191.5t-20 -207.5q-18 -85 -52 -169t-87 -163.5t-118 -140t-150.5 -97t-178.5 -36.5q-126 0 -190.5 63t-59.5 164 q-145 -108 -303 -108q-87 0 -149 36.5t-90.5 97t-36 140t13.5 166.5q25 115 89 224.5t147 190t180.5 130t187.5 51.5q146 3 238 -121l37 78l223 -10q-29 -70 -112.5 -249.5t-141 -317.5t-74.5 -222q-16 -72 4 -95.5t70 -18.5q110 8 211.5 128.5t138.5 301.5q33 147 3 273 t-103.5 218.5t-191 144.5t-257.5 52q-193 0 -376.5 -96t-310.5 -257.5t-167 -349.5q-21 -109 -10.5 -207t57 -181t116 -144t167 -95t209.5 -34q115 0 239 43l47 -207q-146 -49 -309 -49q-109 0 -207 24t-178 69t-146 108t-109 141.5t-69.5 169.5t-26.5 191zM698 418 q-17 -86 9.5 -127t103.5 -41q76 0 149 40t127.5 104t94 141.5t55.5 154.5q18 85 -7 124.5t-102 39.5q-78 0 -152 -40.5t-129 -105t-93.5 -140t-55.5 -150.5z" />
<glyph unicode="A" horiz-adv-x="1374" d="M-102 0l790 1413h383l189 -1413h-310l-32 315h-531l-170 -315h-319zM516 551h377l-53 516q-1 5 -3.5 23t-3 26t0 21.5t4.5 25.5h-15q-3 -19 -8 -37.5t-8.5 -27t-12 -28t-10.5 -23.5z" />
<glyph unicode="B" horiz-adv-x="1320" d="M55 0l301 1413h564q56 0 106.5 -8.5t99.5 -27.5t84.5 -50t61.5 -76t30 -105q1 -13 1 -28q0 -50 -11 -110q-21 -96 -91 -170.5t-167 -87.5v-13q110 -13 170 -101q40 -59 39 -144q0 -43 -10 -93q-27 -126 -111.5 -218.5t-196 -136.5t-235.5 -44h-635zM403 260h314 q92 0 157 56.5t87 156.5q4 19 4 35q-1 43 -29 69q-40 35 -131 35h-326zM532 862h308q71 0 126 48t72 126q3 14 3 26q0 36 -25 60q-33 30 -103 31h-319z" />
<glyph unicode="C" horiz-adv-x="1339" d="M93 534q3 92 24 193q24 115 68 218t112 193.5t154.5 156t200 103.5t243.5 38q222 0 353 -110.5t159 -317.5l-291 -86q-1 127 -69 190.5t-185 63.5q-166 0 -291 -129t-172 -353q-18 -86 -18 -158q1 -104 39 -175q66 -121 217 -121q118 0 221.5 74.5t171.5 205.5l252 -131 q-113 -204 -284 -306.5t-388 -102.5q-111 0 -200 28t-149 78.5t-99.5 119t-55.5 152.5q-13 71 -13 148v28z" />
<glyph unicode="D" horiz-adv-x="1400" d="M55 0l301 1413h420q365 1 517 -191q103 -129 103 -330q0 -96 -24 -208q-71 -331 -298 -507.5t-589 -176.5h-430zM403 260h101q242 0 390 119t198 350q15 71 15 130q0 117 -59 188q-89 106 -319 106h-135z" />
<glyph unicode="E" horiz-adv-x="1214" d="M55 0l301 1413h953l-56 -260h-659l-68 -315h609l-56 -260h-608l-68 -316h660l-55 -262h-953z" />
<glyph unicode="F" horiz-adv-x="1177" d="M55 0l301 1413h979l-55 -260h-686l-68 -315h598l-55 -260h-598l-123 -578h-293z" />
<glyph unicode="G" horiz-adv-x="1511" d="M95 540q1 94 22 193q24 114 71.5 217.5t119 192t161 154t204 102.5t240.5 37q237 0 383 -122t162 -306l-264 -82q-21 262 -291 262q-103 0 -190.5 -40t-148.5 -110t-102.5 -157.5t-62.5 -190.5q-18 -74 -18 -141q0 -17 1 -35q6 -82 35 -144t95.5 -98t163.5 -36 q161 0 278 91t148 220h-303l49 235h590l-166 -782h-248l41 217h-18q-69 -118 -187.5 -177.5t-269.5 -59.5q-99 0 -181.5 28t-140.5 79t-98 121t-58 154q-17 79 -17 168v10z" />
<glyph unicode="H" horiz-adv-x="1488" d="M55 0l301 1411h293l-123 -573h580l123 573h293l-301 -1411h-293l123 578h-580l-123 -578h-293z" />
<glyph unicode="I" horiz-adv-x="616" d="M55 0l301 1413h293l-301 -1413h-293z" />
<glyph unicode="J" horiz-adv-x="796" d="M-70 2l45 264q82 -18 148 -18q107 0 171.5 63.5t92.5 194.5l193 905h292l-210 -991q-44 -207 -180.5 -323.5t-350.5 -116.5q-131 0 -201 22z" />
<glyph unicode="K" horiz-adv-x="1437" d="M55 0l301 1411h293l-139 -649l700 649h375l-745 -663l479 -748h-361l-378 631h-97l-135 -631h-293z" />
<glyph unicode="L" horiz-adv-x="1079" d="M55 0l301 1411h293l-246 -1151h605l-56 -260h-897z" />
<glyph unicode="M" horiz-adv-x="1900" d="M55 0l301 1411h422l158 -952l567 952h430l-301 -1411h-293l230 1081h-25q-7 -63 -39 -129l-499 -829h-271l-141 850q-4 32 -4 59.5t4 48.5h-23l-227 -1081h-289z" />
<glyph unicode="N" horiz-adv-x="1556" d="M55 0l301 1413h314l377 -891q21 -44 30 -100h8l211 991h293l-301 -1413h-317l-375 891q-25 56 -31 110h-4l-213 -1001h-293z" />
<glyph unicode="O" horiz-adv-x="1486" d="M117 727q69 325 287.5 516t521.5 191q316 0 461 -204q96 -135 96 -329q0 -100 -25 -215q-69 -325 -289 -515.5t-528 -190.5q-313 0 -455 203q-94 134 -94 329q0 99 25 215zM422 686q-17 -81 -17 -148q-1 -106 41 -180q68 -120 226 -120q172 0 303 133t178 356 q16 79 16 146q-1 108 -43 182q-70 121 -231 121q-167 0 -296.5 -133.5t-176.5 -356.5z" />
<glyph unicode="P" horiz-adv-x="1251" d="M55 0l301 1413h553q225 0 329 -133q71 -91 71 -223q0 -61 -15 -131q-43 -204 -192.5 -318t-376.5 -114h-274l-105 -494h-291zM506 754h242q102 0 173 60t93 161q6 26 6 48q0 50 -30 83q-43 47 -144 47h-254z" />
<glyph unicode="Q" horiz-adv-x="1619" d="M117 727q69 325 287.5 516t521.5 191q316 0 461 -204q96 -134 96 -329q0 -100 -25 -215q-52 -245 -194 -420l188 -235l-188 -162l-185 235q-189 -124 -438 -124q-312 0 -455 203q-94 134 -94 329q0 99 25 215zM422 686q-17 -81 -17 -148q0 -106 41 -180q68 -120 226 -120 q131 0 239 79l-100 129l184 156l78 -96q52 94 80 221q16 79 16 146q0 107 -43 182q-69 121 -231 121q-167 0 -296.5 -133.5t-176.5 -356.5z" />
<glyph unicode="R" horiz-adv-x="1298" d="M55 -2l301 1415h572q207 -1 316 -119q79 -86 79 -211q0 -49 -12 -104q-28 -128 -118 -220t-220 -145l196 -616h-346l-159 580h-193l-123 -580h-293zM526 825h277q94 5 152 50.5t75 128.5q6 25 6 46q0 42 -24 64q-34 34 -127 35h-291z" />
<glyph unicode="S" horiz-adv-x="1136" d="M23 459l299 -21q-4 -20 -3 -37q0 -63 44 -99q57 -46 155 -46q99 0 170 49.5t88 128.5q3 14 3 28q0 20 -7 36q-12 28 -44.5 49.5t-65 36.5t-85.5 36q-23 8 -34 13q-37 12 -63.5 21.5t-61.5 24t-59.5 29t-52.5 35t-46.5 42t-34.5 50.5t-23 61.5t-7 72.5t10 86 q25 120 104 207.5t188.5 129.5t237.5 42q267 0 424 -224l-201 -168q-51 72 -120 106t-138 34q-74 0 -131 -39t-69 -99q-5 -21 2 -39t19.5 -31t38 -26.5t48.5 -23.5t59 -24q25 -10 38 -15q39 -14 66.5 -24t65.5 -27t64 -32.5t57 -39t51 -47.5t38 -56.5t25.5 -68.5t7.5 -81 t-11 -95q-41 -196 -204.5 -313t-387.5 -117q-157 0 -271 62t-162 171q-31 69 -31 148q0 45 10 94z" />
<glyph unicode="T" horiz-adv-x="1191" d="M160 1153l55 260h1151l-55 -260h-430l-246 -1153h-293l246 1153h-428z" />
<glyph unicode="U" horiz-adv-x="1423" d="M160 541l186 872h293l-193 -899q-11 -52 -11 -93q0 -67 30 -107q48 -64 178 -64q280 0 344 285l187 878h292l-188 -883q-56 -267 -224.5 -408.5t-443.5 -141.5q-279 0 -392 148q-76 100 -76 253q0 74 18 160z" />
<glyph unicode="V" horiz-adv-x="1400" d="M209 1413h299l149 -1132l621 1132h307l-790 -1413h-396z" />
<glyph unicode="W" horiz-adv-x="1959" d="M215 1413h299l2 -1089q0 -49 -10 -82h22q4 23 9.5 42.5t12 37.5t7.5 22l428 930h313l33 -950q0 -51 -8 -82h23q7 44 24 102l461 1069h307l-635 -1413h-416l-16 924l-407 -924h-416z" />
<glyph unicode="X" horiz-adv-x="1372" d="M-104 0l626 707l-319 706h344l219 -530l444 530h353l-629 -706l326 -707h-345l-221 522l-446 -522h-352z" />
<glyph unicode="Y" horiz-adv-x="1409" d="M201 1413h327l244 -596l494 596h336l-742 -862l-119 -551h-288l118 551z" />
<glyph unicode="Z" horiz-adv-x="1236" d="M-66 0l39 195l947 946h-697l58 272h1110l-43 -209l-936 -944h733l-55 -260h-1156z" />
<glyph unicode="[" horiz-adv-x="604" d="M-35 -328l387 1823h434l-47 -223h-196l-291 -1372h197l-50 -228h-434z" />
<glyph unicode="\" horiz-adv-x="1212" d="M344 1411h252l303 -1567h-252z" />
<glyph unicode="]" horiz-adv-x="604" d="M-147 -328l49 228h196l291 1372h-196l47 223h434l-387 -1823h-434z" />
<glyph unicode="^" horiz-adv-x="933" d="M74 791l606 733l299 -733h-274l-111 288l-238 -288h-282z" />
<glyph unicode="_" horiz-adv-x="876" d="M-152 -211l46 211h876l-45 -211h-877z" />
<glyph unicode="a" d="M58 350.5q0 80.5 16 169.5q30 139 102.5 251.5t183 180.5t236.5 68q96 0 162.5 -45t93.5 -123h10l31 147h283l-213 -999h-277l27 127h-15q-104 -147 -295 -147q-82 0 -147.5 28t-106.5 77.5t-66 117t-25 148zM352 481q-10 -46 -10 -83q0 -59 25 -96q41 -60 139 -60 q105 0 184 76t107 204q9 42 9 78q0 60 -26 102q-42 66 -137 66q-105 0 -183.5 -76.5t-107.5 -210.5z" />
<glyph unicode="b" d="M27 0l301 1413h282l-114 -545h4q116 152 303 152q100 0 174.5 -43t113.5 -117t51 -172q4 -31 4 -63q0 -70 -18 -146q-46 -213 -189.5 -356t-336.5 -143q-90 0 -157.5 39t-92.5 124h-18l-31 -143h-276zM406 481q-9 -42 -9 -77q0 -59 26 -99q42 -63 138 -63q106 0 183 73 t106 207q10 47 10 85q0 59 -24 97q-40 64 -138 64q-104 0 -184 -79.5t-108 -207.5z" />
<glyph unicode="c" horiz-adv-x="1050" d="M59 350v10q0 75 15 158q22 103 71 192.5t121.5 158t172.5 108t216 39.5q169 0 268 -83.5t128 -230.5l-258 -77q-13 81 -53 112t-105 31q-110 0 -183 -80.5t-102 -212.5q-10 -47 -10 -86q0 -55 20 -95q34 -66 134 -67q151 0 243 164l219 -112q-168 -299 -495 -299 q-97 0 -173.5 28t-123.5 77.5t-75.5 117t-29.5 147.5z" />
<glyph unicode="d" d="M58 350.5q0 80.5 16 169.5q30 139 102.5 251.5t183 180.5t236.5 68q96 0 162.5 -45t93.5 -123h12l117 561h283l-301 -1413h-277l27 127h-15q-104 -147 -295 -147q-82 0 -147.5 28t-106.5 77.5t-66 117t-25 148zM352 481q-10 -46 -10 -83q0 -59 25 -96q41 -60 139 -60 q105 0 184 76t107 204q9 42 9 78q0 60 -26 102q-42 66 -137 66q-105 0 -183.5 -76.5t-107.5 -210.5z" />
<glyph unicode="e" horiz-adv-x="1077" d="M72 506q49 232 211 369t376 137q209 0 308 -134q68 -91 67 -223q0 -61 -14 -131q0 -1 -11 -41.5t-18 -60.5l-649 10q-6 -35 -6 -64q0 -145 153 -145q75 0 144.5 38.5t116.5 107.5l206 -127q-93 -124 -222.5 -189t-280.5 -65q-221 0 -327 138q-71 93 -71 232q0 68 17 148z M387 614h367q5 25 5 47q0 44 -21 74q-32 45 -117 45q-86 0 -144.5 -47t-89.5 -119z" />
<glyph unicode="f" horiz-adv-x="722" d="M86 815l39 184h184l23 107q33 154 128 230.5t261 76.5h166l-47 -219h-129q-36 0 -65 -32.5t-40 -84.5l-16 -78h209l-39 -184h-209l-174 -815h-283l174 815h-182z" />
<glyph unicode="g" horiz-adv-x="1198" d="M-51 -150l194 156q80 -125 273 -125q38 0 72.5 7t68.5 23.5t61 42.5t49 66.5t33 92.5l21 88q-103 -144 -297 -144q-198 0 -294 137q-65 92 -65 223q0 67 17 144q46 212 187.5 334.5t318.5 122.5q109 0 179.5 -45t92.5 -111h10l29 137h272l-192 -907 q-33 -152 -120.5 -254.5t-205 -147t-262.5 -44.5q-300 0 -442 204zM360 522q-8 -35 -8 -66q0 -58 28 -98q43 -59 138 -59q104 0 183.5 72t105.5 192q7 35 7 64q0 59 -28 98q-44 59 -139 59q-105 0 -183.5 -72t-103.5 -190z" />
<glyph unicode="h" horiz-adv-x="1157" d="M27 0l301 1413h282l-116 -541h8q112 152 307 152q157 0 225 -106q45 -71 44 -167q0 -48 -11 -102l-139 -649h-283l133 621q6 30 6 54q0 43 -19 71q-30 42 -101 42q-87 0 -149.5 -59.5t-80.5 -146.5l-125 -582h-282z" />
<glyph unicode="i" horiz-adv-x="548" d="M27 0l213 999h282l-213 -999h-282zM272 1151l56 262h282l-55 -262h-283z" />
<glyph unicode="j" horiz-adv-x="550" d="M-248 -334l51 234h103q44 0 80 30.5t45 75.5l211 993h282l-217 -1015q-31 -147 -126 -232.5t-253 -85.5h-176zM274 1153l56 260h282l-55 -260h-283z" />
<glyph unicode="k" horiz-adv-x="1142" d="M27 0l301 1413h282l-168 -784l428 370h371l-481 -389l295 -610h-334l-219 498h-86l-107 -498h-282z" />
<glyph unicode="l" horiz-adv-x="552" d="M29 0l301 1413h282l-301 -1413h-282z" />
<glyph unicode="m" horiz-adv-x="1712" d="M27 0l213 999h278l-29 -137h17q61 82 129.5 119t155.5 37q191 0 233 -180h14q54 94 141.5 136t180.5 42q64 0 115 -23t81.5 -61t49.5 -88t19 -104v-6q0 -52 -9 -105l-133 -629h-283l127 598q8 36 8 64q1 42 -17 68q-30 44 -97 44q-71 0 -126.5 -51.5t-74.5 -138.5 l-125 -584h-283l127 598q8 36 8 65q-1 41 -17 67q-28 44 -95 44q-71 0 -126.5 -51.5t-74.5 -138.5l-125 -584h-282z" />
<glyph unicode="n" horiz-adv-x="1157" d="M27 0l213 999h278l-29 -127h13q112 152 307 152q157 0 225 -106q45 -71 44 -167q0 -48 -11 -102l-139 -649h-283l133 621q6 30 6 54q0 43 -19 71q-30 42 -101 42q-87 0 -149.5 -59.5t-80.5 -146.5l-125 -582h-282z" />
<glyph unicode="o" horiz-adv-x="1142" d="M64 286q-7 39 -7 82q0 69 17 148q34 160 122.5 273.5t208.5 168t263 54.5q226 0 340 -142q76 -96 77 -242q0 -71 -18 -153q-51 -238 -213 -366.5t-381 -128.5q-110 0 -196 35t-141 103t-72 168zM348 475q-11 -54 -11 -97q0 -163 161 -163q106 0 185.5 75t111.5 226 q11 53 11 96q0 164 -163 164q-104 0 -183.5 -75t-111.5 -226z" />
<glyph unicode="p" d="M-45 -334l285 1333h276l-27 -118h13q50 61 133.5 100t165.5 39q100 0 175.5 -43t114.5 -116.5t51 -172.5q4 -31 4 -63q0 -70 -18 -146q-46 -213 -189.5 -356t-336.5 -143q-87 0 -155.5 36t-96.5 107h-16l-96 -457h-283zM406 481q-8 -36 -8 -68q0 -60 28 -104 q44 -67 135 -67q100 0 181 76t108 204q9 41 9 76q0 62 -27 104q-43 66 -134 66q-99 0 -182.5 -82.5t-109.5 -204.5z" />
<glyph unicode="q" d="M58 350.5q0 80.5 16 169.5q22 104 69.5 194t114.5 158.5t157 108t191 39.5q80 0 154 -39.5t102 -108.5h12l25 127h277l-285 -1333h-283l99 449h-11q-100 -135 -286 -135q-85 0 -152 28t-109 77.5t-66.5 117t-24.5 148zM352 479q-9 -39 -9 -72q0 -61 29 -101 q43 -64 134 -64q100 0 183 79t108 199q8 38 8 71q0 62 -28 107q-43 70 -134 70q-100 0 -182 -79.5t-109 -209.5z" />
<glyph unicode="r" horiz-adv-x="780" d="M27 0l213 999h274l-39 -172h8q63 107 133 147t150 40q44 0 92 -19l-47 -280q-61 20 -127 20q-106 0 -177.5 -72.5t-100.5 -213.5l-97 -449h-282z" />
<glyph unicode="s" horiz-adv-x="962" d="M-16 145l159 187q54 -56 139 -88.5t162 -34.5h9q57 0 97 24q44 26 54 74q7 33 -20 47.5t-104 34.5q-34 9 -54 14q-32 7 -57 14t-54 17t-50.5 20.5t-44 25.5t-38 31.5t-28 39t-18 47.5t-5.5 57t8 68q22 100 90 168.5t161 98.5t206 30q226 0 379 -141l-150 -168 q-45 39 -116.5 62t-139.5 26h-15q-60 0 -100 -21q-46 -24 -55 -69q-3 -13 1.5 -21.5t22 -15.5t36 -11.5t58.5 -14.5t75 -21q69 -16 120 -37.5t97 -59.5t63 -100q8 -31 8 -66.5t-8 -76.5q-32 -145 -149 -225t-285 -80q-126 0 -252.5 45t-201.5 120z" />
<glyph unicode="t" horiz-adv-x="710" d="M88 815l39 184h39q60 0 101 37t52 97l37 176h283l-66 -310h191l-39 -184h-190l-115 -536q-6 -32 6.5 -45t50.5 -13h127l-47 -221h-235q-113 0 -163 72q-33 47 -33 115q0 36 9 77l117 551h-164z" />
<glyph unicode="u" horiz-adv-x="1157" d="M90 350l139 649h283l-127 -600q-7 -31 -6 -57q-1 -42 17 -68q30 -43 102 -43q87 0 149 59.5t82 147.5l119 561h282l-212 -999h-279l29 127l-15 -8q-115 -144 -305 -144q-156 1 -224 107q-45 71 -45 166q0 48 11 102z" />
<glyph unicode="v" horiz-adv-x="1073" d="M119 999h301l59 -757l385 757h307l-573 -999h-332z" />
<glyph unicode="w" horiz-adv-x="1601" d="M119 999h295l-6 -770l368 770h256l39 -770l326 770h303l-473 -999h-369l-27 643l-299 -647h-368z" />
<glyph unicode="x" horiz-adv-x="1099" d="M-98 0l452 504l-235 495h338l129 -315l264 315h348l-457 -495l240 -504h-340l-123 322l-270 -322h-346z" />
<glyph unicode="y" horiz-adv-x="1003" d="M-94 -334l51 236h119q47 0 86.5 28.5t64.5 79.5l21 25l-150 964h299l58 -559q2 -20 2 -40q0 -50 -11 -101h25q15 100 47 162l297 538h307l-671 -1144q-58 -99 -130.5 -144t-170.5 -45h-244z" />
<glyph unicode="z" horiz-adv-x="1034" d="M-49 0l41 199l663 577h-530l47 223h891l-43 -211l-627 -565h525l-48 -223h-919z" />
<glyph unicode="{" horiz-adv-x="694" d="M72 455l28 192q38 13 53 19t40.5 18.5t36 24.5t22 31.5t16.5 45.5l94 443q30 141 108.5 210.5t213.5 69.5h51q23 0 60.5 -4.5t46.5 -5.5l-33 -207q-29 12 -64.5 12t-60.5 -12q-25 -5 -45.5 -27.5t-26.5 -54.5l-98 -462q-9 -42 -26 -76.5t-42.5 -61.5t-44 -43t-47.5 -37 q41 -26 63.5 -78t10.5 -106l-80 -375q-9 -54 -2.5 -78.5t29.5 -33.5q40 -4 123 24l-35 -219q-16 2 -55.5 -2t-55.5 -4h-71q-67 0 -116 41t-65 100q-34 47 -2 191l80 372q3 17 -0.5 29.5t-17 22.5t-23 15t-33.5 14z" />
<glyph unicode="|" horiz-adv-x="542" d="M29 -156l358 1690h207l-358 -1690h-207z" />
<glyph unicode="}" horiz-adv-x="681" d="M-113 -340l33 215q55 -23 105 -4q35 5 62.5 37t37.5 84l80 375q12 55 53 104.5t100 83.5q-95 84 -67 213l98 463q13 56 -18 80q-37 8 -140 -27l35 215q9 1 48.5 5.5t62.5 4.5h51q134 0 187.5 -79.5t23.5 -221.5l-94 -442q-3 -13 -4 -24t-1.5 -19.5t3 -16.5t5 -13t9 -11 t11 -9t15 -8.5t16.5 -8t20 -8.5t22 -9l-29 -193q-5 -2 -27 -9.5t-30 -11t-26.5 -11.5t-27 -14t-20.5 -15.5t-18 -20t-8 -22.5l-80 -373q-18 -84 -35 -126.5t-41 -80.5q-43 -44 -103 -74t-126 -30h-72q-11 0 -58.5 2.5t-52.5 -0.5z" />
<glyph unicode="~" horiz-adv-x="942" d="M33 416q28 129 99 182t181 53q79 0 140 -11t89.5 -24.5t54.5 -24.5t42 -11q39 0 55 16t25 59l201 -20q-28 -133 -101.5 -194.5t-204.5 -61.5q-71 0 -128.5 12t-86 26t-56.5 26t-46 12q-36 0 -51 -13.5t-21 -46.5z" />
<glyph unicode="&#xa1;" horiz-adv-x="604" d="M-31 -436l240 991h211l-182 -991h-269zM201 709l61 290h293l-61 -290h-293z" />
<glyph unicode="&#xa2;" horiz-adv-x="1048" d="M57.5 371q0.5 71 16.5 147q19 88 58.5 168.5t98.5 149t142 116.5t180 66l45 182h207l-47 -186q127 -22 192.5 -98.5t98.5 -215.5l-258 -75q-4 101 -38.5 137.5t-121.5 36.5q-121 0 -201.5 -91t-110.5 -231q-27 -127 10 -203.5t150 -76.5q94 0 152 46.5t106 147.5 l211 -112q-79 -136 -172.5 -207.5t-224.5 -94.5l-45 -182h-207l45 187q-74 14 -130 50.5t-89.5 87.5t-50.5 115.5t-16.5 135.5z" />
<glyph unicode="&#xa3;" horiz-adv-x="1226" d="M-27 0l47 221q11 4 29 11t66 33.5t87.5 58t77 83.5t50.5 109q10 49 2 90l-228 -10l48 223l176 10q0 1 -2 13.5t-3 23t-2 31t0 40.5t5 48.5t10 58.5q28 132 102.5 224t174 135t216.5 43q74 0 134.5 -19t101 -49.5t70 -73t45.5 -86.5t24 -94l-217 -57q-19 88 -59 123 t-123 35q-98 0 -161.5 -55.5t-90.5 -180.5q-19 -87 -4 -180l383 10l-47 -223l-328 -10q-4 -53 -16 -105q-14 -67 -36 -118.5t-43 -77t-40.5 -41.5t-31.5 -20l-11 -3l768 2l-47 -223h-1127z" />
<glyph unicode="&#xa4;" horiz-adv-x="1396" d="M35 223l252 205q-40 92 -11 221q24 116 91 191l-179 176l263 209l120 -195q111 54 228 57q115 -3 211 -65l211 203l184 -209l-264 -193q36 -86 10 -215q-24 -117 -92 -196l160 -189l-265 -207l-102 209q-101 -52 -223 -55q-115 3 -207 68l-201 -222zM518 608 q-19 -90 17 -139.5t120 -52.5q95 3 163 65t91 168q19 90 -17.5 140t-121.5 53q-94 -3 -161.5 -65.5t-90.5 -168.5z" />
<glyph unicode="&#xa5;" horiz-adv-x="1384" d="M201 141l45 211h299l26 129h-299l45 215h203l-319 717h280l260 -657l547 657h289l-627 -721h199l-45 -211h-299l-27 -129h299l-45 -211h-299l-37 -170h-233l37 170h-299z" />
<glyph unicode="&#xa6;" horiz-adv-x="575" d="M29 -156l129 605h239l-129 -605h-239zM225 768l137 643h240l-137 -643h-240z" />
<glyph unicode="&#xa7;" horiz-adv-x="1138" d="M94 313l254 43q7 -38 15.5 -62t26.5 -46.5t49.5 -32.5t78.5 -10q81 0 145 34.5t76 88.5q6 28 -15.5 47t-61.5 28.5t-91.5 19.5t-105.5 20.5t-103 32.5t-84 54.5t-49 86t2 128.5q11 58 40 104.5t79 98.5q-59 72 -33 193q19 94 92.5 162.5t165 99.5t187.5 31 q233 0 325 -213l-194 -99q-14 25 -24.5 39.5t-28 30t-42 22.5t-57.5 7q-48 0 -88.5 -16t-64.5 -39.5t-38 -46.5t-18 -42q-5 -23 17.5 -38.5t63 -23t92 -16.5t105.5 -20t102.5 -33t83.5 -56.5t49 -89.5t-3 -132q-22 -108 -110 -199q53 -72 29 -193q-17 -78 -67 -137 t-118.5 -92t-141.5 -49t-147 -16q-167 0 -274 86t-119 245zM455 715q-5 -26 7 -44.5t51 -33t66.5 -21t93.5 -20.5q25 -5 38 -8q90 32 108 117q5 14 3 25.5t-3.5 20.5t-9.5 17t-15 14t-20.5 11t-25.5 9t-30 8t-34 7.5t-38 7.5q-55 10 -85 17q-38 -19 -68.5 -54.5t-37.5 -72.5 z" />
<glyph unicode="&#xa9;" horiz-adv-x="1710" d="M129 709q0 155 61.5 297.5t165 246t246 165t297.5 61.5t297.5 -61.5t246 -165t165 -246t61.5 -297.5t-61.5 -297.5t-165 -246t-246 -165t-297.5 -61.5t-297.5 61.5t-246 165t-165 246t-61.5 297.5zM252 709q0 -130 51.5 -250t138.5 -207t207 -139t250 -52t250 52t207 139 t138.5 207t51.5 250q0 174 -87.5 323t-236.5 236.5t-323 87.5t-323 -87.5t-236.5 -236.5t-87.5 -323zM500 705q0 91 25 171t73.5 144t128 101.5t180.5 37.5q131 0 219 -66t148 -202l-195 -78q-41 72 -76 99.5t-94 27.5q-100 0 -148 -64t-48 -174q0 -107 47 -169t147 -62 q63 0 96.5 27.5t73.5 99.5l197 -78q-60 -140 -148 -205t-217 -65q-102 0 -182 37.5t-128.5 102t-73.5 144.5t-25 171z" />
<glyph unicode="&#xaa;" horiz-adv-x="755" d="M102 1094q30 147 128.5 244.5t228.5 97.5q65 0 110.5 -31t63.5 -84h8l21 100h192l-145 -682h-189l17 86h-9q-72 -100 -200 -100q-138 0 -198.5 106.5t-27.5 262.5zM291 1069q-17 -82 11 -123t95 -41q71 0 125 51.5t74 139.5q17 77 -12 122.5t-95 45.5q-71 0 -124.5 -52 t-73.5 -143z" />
<glyph unicode="&#xab;" horiz-adv-x="1024" d="M113 510l528 369l-45 -234l-209 -135l148 -133l-46 -234zM475 510l529 369l-46 -234l-208 -135l147 -133l-45 -234z" />
<glyph unicode="&#xac;" horiz-adv-x="1232" d="M139 549l54 248h974l-108 -506h-273l56 258h-703z" />
<glyph unicode="&#xad;" horiz-adv-x="733" d="M39 391l53 252h610l-53 -252h-610z" />
<glyph unicode="&#xae;" horiz-adv-x="1304" d="M123 893q0 147 70.5 271.5t192 197t265.5 72.5t266.5 -72.5t193.5 -197t71 -271.5t-71 -271.5t-193.5 -197t-266.5 -72.5t-265.5 72.5t-192 197t-70.5 271.5zM229 893q0 -175 124.5 -301.5t297.5 -126.5t298.5 126.5t125.5 301.5t-125.5 302.5t-298.5 127.5 t-297.5 -127.5t-124.5 -302.5zM457 592v592h237q99 0 154 -49t55 -136q0 -113 -94 -172l141 -235h-170l-123 215h-49v-215h-151zM600 936h94q70 0 70 63q0 62 -70 62h-94v-125z" />
<glyph unicode="&#xb0;" horiz-adv-x="808" d="M201 1124q29 135 139 222.5t252 87.5q150 0 227.5 -100t46.5 -251q-29 -136 -139.5 -223.5t-251.5 -87.5q-152 0 -229 99.5t-45 252.5zM383 1083q-12 -55 18.5 -88.5t90.5 -33.5q68 0 122.5 46.5t69.5 116.5q10 54 -20 87.5t-89 33.5q-69 0 -123.5 -46.5t-68.5 -115.5z " />
<glyph unicode="&#xb1;" horiz-adv-x="1382" d="M-20 -211l45 211h1120l-45 -211h-1120zM133 518l45 213h457l88 412h211l-88 -412h457l-46 -213h-456l-88 -412h-211l88 412h-457z" />
<glyph unicode="&#xb5;" horiz-adv-x="1067" d="M-27 -266l269 1265h254l-125 -589q-12 -58 -11 -101.5t29 -68.5t84 -25q101 0 196.5 74t114.5 166l117 544h254l-213 -999h-254l19 66q-134 -89 -275 -89q-68 0 -147 23l-80 -266h-232z" />
<glyph unicode="&#xb6;" horiz-adv-x="1191" d="M197 1038q25 116 107 203t191 129.5t228 42.5h176l-362 -1700h-170l200 910q-88 0 -164 29t-129 80.5t-75 131.5t-2 174zM717 -287l362 1700h172l-362 -1700h-172z" />
<glyph unicode="&#xb7;" horiz-adv-x="522" d="M170 809q13 61 63 100t115 39q69 0 106.5 -51.5t20.5 -128.5q-12 -56 -61 -94.5t-109 -38.5q-74 0 -112 51t-23 123z" />
<glyph unicode="&#xba;" horiz-adv-x="829" d="M176 1098q30 143 150.5 241.5t279.5 98.5q161 0 243.5 -111.5t49.5 -269.5q-31 -144 -150.5 -243t-271.5 -99q-168 0 -252 111.5t-49 271.5zM350 1053q-16 -82 15 -131.5t122 -49.5q93 0 153.5 62.5t82.5 159.5q16 81 -13.5 130.5t-113.5 49.5q-100 0 -162 -61.5 t-84 -159.5z" />
<glyph unicode="&#xbb;" horiz-adv-x="1024" d="M37 143l45 234l209 133l-148 135l45 234l377 -369zM399 143l45 234l209 133l-147 135l45 234l377 -369z" />
<glyph unicode="&#xbf;" horiz-adv-x="991" d="M-31 0q18 87 57.5 153.5t85 103t96 66t92 46t72 39t36.5 49.5l20 102h234l-27 -125q-15 -70 -44.5 -122.5t-65.5 -83t-77 -54t-80.5 -42.5t-73.5 -40.5t-59.5 -55.5t-35.5 -81q-17 -82 28 -121t144 -39q102 0 176 56t96 151l238 -20q-43 -196 -189.5 -306t-335.5 -110 q-95 0 -174.5 28.5t-135 81.5t-77 136.5t-0.5 187.5zM428 709l61 290h293l-61 -290h-293z" />
<glyph unicode="&#xc0;" horiz-adv-x="1374" d="M-102 0l790 1413h383l189 -1413h-310l-32 315h-531l-170 -315h-319zM516 551h377l-53 516q-1 5 -3.5 23t-3 26t0 21.5t4.5 25.5h-15q-3 -19 -8 -37.5t-8.5 -27t-12 -28t-10.5 -23.5zM543 1825h284l164 -307h-176z" />
<glyph unicode="&#xc1;" horiz-adv-x="1374" d="M-102 0l790 1413h383l189 -1413h-310l-32 315h-531l-170 -315h-319zM516 551h377l-53 516q-1 5 -3.5 23t-3 26t0 21.5t4.5 25.5h-15q-3 -19 -8 -37.5t-8.5 -27t-12 -28t-10.5 -23.5zM805 1516l293 309h295l-387 -309h-201z" />
<glyph unicode="&#xc2;" horiz-adv-x="1374" d="M-102 0l790 1413h383l189 -1413h-310l-32 315h-531l-170 -315h-319zM516 551h377l-53 516q-1 5 -3.5 23t-3 26t0 21.5t4.5 25.5h-15q-3 -19 -8 -37.5t-8.5 -27t-12 -28t-10.5 -23.5zM582 1518l372 309h25l244 -309h-211l-82 108l-131 -108h-217z" />
<glyph unicode="&#xc3;" horiz-adv-x="1374" d="M-102 0l790 1413h383l189 -1413h-310l-32 315h-531l-170 -315h-319zM512 1561q59 278 303 278q48 0 84 -12.5t56 -30.5t36 -36.5t32.5 -31t35.5 -12.5q41 0 73.5 34.5t45.5 94.5l194 -20q-29 -134 -106.5 -205.5t-190.5 -71.5q-55 0 -94 13.5t-59.5 33t-35 39.5 t-30.5 33.5t-37 13.5q-44 0 -75 -37t-46 -104zM516 551h377l-53 516q-1 5 -3.5 23t-3 26t0 21.5t4.5 25.5h-15q-3 -19 -8 -37.5t-8.5 -27t-12 -28t-10.5 -23.5z" />
<glyph unicode="&#xc4;" horiz-adv-x="1374" d="M-102 0l790 1413h383l189 -1413h-310l-32 315h-531l-170 -315h-319zM516 551h377l-53 516q-1 5 -3.5 23t-3 26t0 21.5t4.5 25.5h-15q-3 -19 -8 -37.5t-8.5 -27t-12 -28t-10.5 -23.5zM608 1585l51 240h238l-51 -240h-238zM991 1585l51 240h238l-51 -240h-238z" />
<glyph unicode="&#xc5;" horiz-adv-x="1374" d="M-102 0l786 1407q-23 60 -8 131q17 84 90 142.5t162 58.5q97 0 151.5 -71t32.5 -171q-8 -46 -41 -90l189 -1407h-310l-32 315h-531l-170 -315h-319zM516 551h377l-53 516q-1 5 -3.5 23t-3 26t0 21.5t4.5 25.5h-15q-3 -19 -8 -37.5t-8.5 -27t-12 -28t-10.5 -23.5z M791 1499q-7 -37 11.5 -59.5t55.5 -22.5q48 0 88.5 35.5t50.5 87.5q8 34 -11 55t-60 21q-49 0 -86.5 -33.5t-48.5 -83.5z" />
<glyph unicode="&#xc6;" horiz-adv-x="1888" d="M-102 0l872 1413h1212l-55 -260h-747l-68 -315h660l-56 -260h-659l-68 -318h748l-56 -260h-1015l63 297h-364l-179 -297h-288zM506 532h272l142 662h-19z" />
<glyph unicode="&#xc7;" horiz-adv-x="1339" d="M92 514.5q1 101.5 25 212.5q24 115 68 218t112 193.5t154.5 156t200 103.5t243.5 38q222 0 353 -110.5t159 -317.5l-291 -86q-1 127 -69 190.5t-185 63.5q-166 0 -291 -129t-172 -353q-45 -212 20.5 -333t217.5 -121q118 0 221.5 74.5t171.5 205.5l252 -131 q-199 -361 -573 -403l-115 -113q71 -19 108.5 -71.5t22.5 -123.5q-15 -73 -89 -125.5t-159 -52.5q-77 0 -126.5 45t-59.5 107l153 49q2 -37 48 -37q27 0 51 19t30 47q3 10 -6.5 15t-44.5 15l-151 43l141 183q-109 14 -191.5 60.5t-131.5 115.5t-73.5 160t-23.5 192.5z" />
<glyph unicode="&#xc8;" horiz-adv-x="1214" d="M55 0l301 1413h953l-56 -260h-659l-68 -315h609l-56 -260h-608l-68 -316h660l-55 -262h-953zM494 1825h284l164 -307h-176z" />
<glyph unicode="&#xc9;" horiz-adv-x="1214" d="M55 0l301 1413h953l-56 -260h-659l-68 -315h609l-56 -260h-608l-68 -316h660l-55 -262h-953zM756 1516l293 309h294l-387 -309h-200z" />
<glyph unicode="&#xca;" horiz-adv-x="1214" d="M55 0l301 1413h953l-56 -260h-659l-68 -315h609l-56 -260h-608l-68 -316h660l-55 -262h-953zM532 1518l373 309h25l244 -309h-211l-82 108l-131 -108h-218z" />
<glyph unicode="&#xcb;" horiz-adv-x="1214" d="M55 0l301 1413h953l-56 -260h-659l-68 -315h609l-56 -260h-608l-68 -316h660l-55 -262h-953zM559 1585l51 240h238l-51 -240h-238zM942 1585l51 240h238l-51 -240h-238z" />
<glyph unicode="&#xcc;" horiz-adv-x="616" d="M55 0l301 1413h293l-301 -1413h-293zM160 1825h284l164 -307h-176z" />
<glyph unicode="&#xcd;" horiz-adv-x="616" d="M55 0l301 1413h293l-301 -1413h-293zM422 1516l293 309h295l-387 -309h-201z" />
<glyph unicode="&#xce;" horiz-adv-x="616" d="M55 0l301 1413h293l-301 -1413h-293zM199 1518l372 309h25l244 -309h-211l-82 108l-131 -108h-217z" />
<glyph unicode="&#xcf;" horiz-adv-x="616" d="M55 0l301 1413h293l-301 -1413h-293zM225 1585l51 240h238l-51 -240h-238zM608 1585l51 240h238l-51 -240h-238z" />
<glyph unicode="&#xd0;" horiz-adv-x="1390" d="M39 0l135 631h-113l35 164h113l131 618h408q364 0 522.5 -192t83.5 -545q-69 -324 -302.5 -500t-594.5 -176h-418zM352 246h121q120 0 221 27.5t184 84.5t141 150t85 219q48 228 -45.5 335t-353.5 107h-156l-80 -374h360l-34 -164h-361z" />
<glyph unicode="&#xd1;" horiz-adv-x="1556" d="M55 0l301 1413h314l377 -891q21 -44 30 -100h8l211 991h293l-301 -1413h-317l-375 891q-25 56 -31 110h-4l-213 -1001h-293zM600 1561q59 278 303 278q48 0 84 -12.5t56 -30.5t36 -36.5t32.5 -31t35.5 -12.5q41 0 73.5 34.5t45.5 94.5l194 -20q-29 -134 -106.5 -205.5 t-190.5 -71.5q-55 0 -94 13.5t-59.5 33t-35 39.5t-30.5 33.5t-37 13.5q-44 0 -75 -37t-46 -104z" />
<glyph unicode="&#xd2;" horiz-adv-x="1486" d="M117 727q69 325 287.5 516t521.5 191q316 0 461 -203.5t71 -544.5q-69 -325 -289 -515.5t-528 -190.5q-312 0 -454.5 203t-69.5 544zM422 686q-43 -207 24.5 -327.5t225.5 -120.5q172 0 303 133t178 356q43 207 -26.5 328t-231.5 121q-167 0 -296.5 -133.5t-176.5 -356.5 zM594 1825h285l163 -307h-176z" />
<glyph unicode="&#xd3;" horiz-adv-x="1486" d="M117 727q69 325 287.5 516t521.5 191q316 0 461 -203.5t71 -544.5q-69 -325 -289 -515.5t-528 -190.5q-312 0 -454.5 203t-69.5 544zM422 686q-43 -207 24.5 -327.5t225.5 -120.5q172 0 303 133t178 356q43 207 -26.5 328t-231.5 121q-167 0 -296.5 -133.5t-176.5 -356.5 zM856 1516l293 309h295l-387 -309h-201z" />
<glyph unicode="&#xd4;" horiz-adv-x="1486" d="M117 727q69 325 287.5 516t521.5 191q316 0 461 -203.5t71 -544.5q-69 -325 -289 -515.5t-528 -190.5q-312 0 -454.5 203t-69.5 544zM422 686q-43 -207 24.5 -327.5t225.5 -120.5q172 0 303 133t178 356q43 207 -26.5 328t-231.5 121q-167 0 -296.5 -133.5t-176.5 -356.5 zM633 1518l373 309h24l244 -309h-211l-82 108l-131 -108h-217z" />
<glyph unicode="&#xd5;" horiz-adv-x="1486" d="M117 727q69 325 287.5 516t521.5 191q316 0 461 -203.5t71 -544.5q-69 -325 -289 -515.5t-528 -190.5q-312 0 -454.5 203t-69.5 544zM422 686q-43 -207 24.5 -327.5t225.5 -120.5q172 0 303 133t178 356q43 207 -26.5 328t-231.5 121q-167 0 -296.5 -133.5t-176.5 -356.5 zM563 1561q59 278 303 278q48 0 84 -12.5t56 -30.5t36 -36.5t32.5 -31t35.5 -12.5q41 0 73.5 34.5t45.5 94.5l194 -20q-29 -134 -106.5 -205.5t-190.5 -71.5q-55 0 -94 13.5t-59.5 33t-35 39.5t-30.5 33.5t-37 13.5q-88 0 -120 -141z" />
<glyph unicode="&#xd6;" horiz-adv-x="1486" d="M117 727q69 325 287.5 516t521.5 191q316 0 461 -203.5t71 -544.5q-69 -325 -289 -515.5t-528 -190.5q-312 0 -454.5 203t-69.5 544zM422 686q-43 -207 24.5 -327.5t225.5 -120.5q172 0 303 133t178 356q43 207 -26.5 328t-231.5 121q-167 0 -296.5 -133.5t-176.5 -356.5 zM659 1585l52 240h237l-51 -240h-238zM1042 1585l52 240h237l-51 -240h-238z" />
<glyph unicode="&#xd7;" horiz-adv-x="1013" d="M31 336l352 291l-231 295l176 147l233 -293l354 293l119 -156l-350 -288l231 -297l-174 -148l-235 295l-356 -295z" />
<glyph unicode="&#xd8;" horiz-adv-x="1486" d="M-12 152l149 122q-78 186 -20 453q69 325 287.5 516t521.5 191q275 0 424 -158l127 106l100 -120l-141 -117q79 -191 22 -459q-69 -325 -289 -515.5t-528 -190.5q-277 0 -420 159l-133 -108zM408 498l702 581q-72 97 -215 97q-167 0 -296.5 -133.5t-176.5 -356.5 q-20 -101 -14 -188zM459 338q68 -100 213 -100q172 0 303 133t178 356q20 108 14 195z" />
<glyph unicode="&#xd9;" horiz-adv-x="1423" d="M160 541l186 872h293l-193 -899q-29 -137 19 -200.5t178 -63.5q280 0 344 285l187 878h292l-188 -883q-56 -267 -224.5 -408.5t-443.5 -141.5q-279 0 -392 148.5t-58 412.5zM567 1825h285l164 -307h-176z" />
<glyph unicode="&#xda;" horiz-adv-x="1423" d="M160 541l186 872h293l-193 -899q-29 -137 19 -200.5t178 -63.5q280 0 344 285l187 878h292l-188 -883q-56 -267 -224.5 -408.5t-443.5 -141.5q-279 0 -392 148.5t-58 412.5zM829 1516l293 309h295l-387 -309h-201z" />
<glyph unicode="&#xdb;" horiz-adv-x="1423" d="M160 541l186 872h293l-193 -899q-29 -137 19 -200.5t178 -63.5q280 0 344 285l187 878h292l-188 -883q-56 -267 -224.5 -408.5t-443.5 -141.5q-279 0 -392 148.5t-58 412.5zM606 1518l373 309h25l243 -309h-211l-82 108l-131 -108h-217z" />
<glyph unicode="&#xdc;" horiz-adv-x="1423" d="M160 541l186 872h293l-193 -899q-29 -137 19 -200.5t178 -63.5q280 0 344 285l187 878h292l-188 -883q-56 -267 -224.5 -408.5t-443.5 -141.5q-279 0 -392 148.5t-58 412.5zM633 1585l51 240h238l-52 -240h-237zM1016 1585l51 240h238l-52 -240h-237z" />
<glyph unicode="&#xdd;" horiz-adv-x="1409" d="M201 1413h327l244 -596l494 596h336l-742 -862l-119 -551h-288l118 551zM821 1516l293 309h295l-387 -309h-201z" />
<glyph unicode="&#xde;" horiz-adv-x="1157" d="M55 0l301 1413h258l-32 -151h223q95 0 172 -30.5t129.5 -91t69.5 -150.5t-7 -208q-27 -127 -109 -219t-192.5 -136t-236.5 -44h-236l-82 -383h-258zM446 629h224q99 0 165.5 55t88.5 154q38 174 -160 174h-236z" />
<glyph unicode="&#xdf;" horiz-adv-x="1185" d="M29 0l217 1016q21 100 74 181t125 132t154.5 78t166.5 27q85 0 162 -28t134.5 -78t83 -128.5t5.5 -171.5q-14 -64 -48 -112t-74 -73.5t-78 -43.5t-65.5 -35t-31.5 -37q-3 -14 16 -32.5t49.5 -39t64.5 -52.5t60.5 -72t38 -97t-3.5 -129q-30 -145 -156 -234t-292 -89 q-77 0 -168 26l43 264q63 -43 145 -43q64 0 110 38t56 87q5 24 -6.5 48.5t-32.5 45.5t-47.5 46.5t-52 52t-44.5 62t-26 76.5t4 95q11 53 42 92t67.5 61.5t72.5 42.5t64.5 47.5t36.5 63.5q9 42 -22.5 76.5t-114.5 34.5q-99 0 -164.5 -57t-85.5 -146l-211 -995h-268z" />
<glyph unicode="&#xe0;" d="M58 350.5q0 80.5 16 169.5q30 139 102.5 251.5t183 180.5t236.5 68q96 0 162.5 -45t93.5 -123h10l31 147h283l-213 -999h-277l27 127h-15q-104 -147 -295 -147q-82 0 -147.5 28t-106.5 77.5t-66 117t-25 148zM352 481q-26 -119 15 -179t139 -60q105 0 184 76t107 204 q25 113 -17 179.5t-137 66.5q-105 0 -183.5 -76.5t-107.5 -210.5zM373 1413h284l164 -307h-176z" />
<glyph unicode="&#xe1;" d="M58 350.5q0 80.5 16 169.5q30 139 102.5 251.5t183 180.5t236.5 68q96 0 162.5 -45t93.5 -123h10l31 147h283l-213 -999h-277l27 127h-15q-104 -147 -295 -147q-82 0 -147.5 28t-106.5 77.5t-66 117t-25 148zM352 481q-26 -119 15 -179t139 -60q105 0 184 76t107 204 q25 113 -17 179.5t-137 66.5q-105 0 -183.5 -76.5t-107.5 -210.5zM635 1104l293 309h295l-387 -309h-201z" />
<glyph unicode="&#xe2;" d="M58 350.5q0 80.5 16 169.5q30 139 102.5 251.5t183 180.5t236.5 68q96 0 162.5 -45t93.5 -123h10l31 147h283l-213 -999h-277l27 127h-15q-104 -147 -295 -147q-82 0 -147.5 28t-106.5 77.5t-66 117t-25 148zM352 481q-26 -119 15 -179t139 -60q105 0 184 76t107 204 q25 113 -17 179.5t-137 66.5q-105 0 -183.5 -76.5t-107.5 -210.5zM412 1106l372 309h25l244 -309h-211l-82 108l-131 -108h-217z" />
<glyph unicode="&#xe3;" d="M58 350.5q0 80.5 16 169.5q30 139 102.5 251.5t183 180.5t236.5 68q96 0 162.5 -45t93.5 -123h10l31 147h283l-213 -999h-277l27 127h-15q-104 -147 -295 -147q-82 0 -147.5 28t-106.5 77.5t-66 117t-25 148zM342 1149q59 278 303 278q48 0 84 -12.5t56 -30.5t36 -36 t32.5 -30.5t35.5 -12.5q41 0 73.5 34.5t45.5 94.5l194 -21q-29 -134 -106.5 -205t-190.5 -71q-55 0 -94 13.5t-59.5 33.5t-35 39.5t-30.5 33t-37 13.5q-44 0 -75 -37.5t-46 -104.5zM352 481q-26 -119 15 -179t139 -60q105 0 184 76t107 204q25 113 -17 179.5t-137 66.5 q-105 0 -183.5 -76.5t-107.5 -210.5z" />
<glyph unicode="&#xe4;" d="M58 350.5q0 80.5 16 169.5q30 139 102.5 251.5t183 180.5t236.5 68q96 0 162.5 -45t93.5 -123h10l31 147h283l-213 -999h-277l27 127h-15q-104 -147 -295 -147q-82 0 -147.5 28t-106.5 77.5t-66 117t-25 148zM352 481q-26 -119 15 -179t139 -60q105 0 184 76t107 204 q25 113 -17 179.5t-137 66.5q-105 0 -183.5 -76.5t-107.5 -210.5zM438 1174l51 239h238l-51 -239h-238zM821 1174l51 239h238l-51 -239h-238z" />
<glyph unicode="&#xe5;" d="M58 350.5q0 80.5 16 169.5q30 139 102.5 251.5t183 180.5t236.5 68q96 0 162.5 -45t93.5 -123h10l31 147h283l-213 -999h-277l27 127h-15q-104 -147 -295 -147q-82 0 -147.5 28t-106.5 77.5t-66 117t-25 148zM352 481q-26 -119 15 -179t139 -60q105 0 184 76t107 204 q25 113 -17 179.5t-137 66.5q-105 0 -183.5 -76.5t-107.5 -210.5zM561 1337q17 84 90 142.5t162 58.5q97 0 151.5 -71t32.5 -171q-19 -86 -92 -144t-162 -58q-99 0 -151.5 71t-30.5 172zM676 1298q-7 -36 11.5 -58.5t55.5 -22.5q48 0 89 35t51 87q8 34 -11.5 55t-60.5 21 q-49 0 -86.5 -33.5t-48.5 -83.5z" />
<glyph unicode="&#xe6;" horiz-adv-x="1720" d="M23 274q19 91 80.5 148t160.5 96q40 12 175 42.5t186 55.5q43 14 72 40t36 61q7 36 -32 51.5t-99 15.5q-83 0 -148.5 -37.5t-129.5 -103.5l-179 154q107 114 222 166.5t258 52.5q233 0 297 -146q161 142 381 142q209 0 307.5 -133.5t52.5 -354.5q0 -1 -11 -41.5 t-18 -60.5l-649 10q-18 -101 18.5 -155t129.5 -54q75 0 144 38.5t116 107.5l206 -127q-93 -124 -222.5 -189t-280.5 -65q-126 0 -217.5 46t-137.5 134q-174 -188 -424 -188q-160 0 -242 78t-52 216zM299 242q9 -29 43.5 -41.5t81.5 -7.5q93 5 174.5 78t110.5 198q0 9 4 25 q-39 -35 -94.5 -58.5t-101.5 -33t-92 -24t-67 -32.5q-22 -8 -40.5 -38t-18.5 -66zM1030 614h367q16 76 -16 121t-117 45q-86 0 -144.5 -47t-89.5 -119z" />
<glyph unicode="&#xe7;" horiz-adv-x="1050" d="M60 327.5q-10 91.5 14 190.5q22 103 71 192.5t121.5 158t172.5 108t216 39.5q169 0 268 -83.5t128 -230.5l-258 -77q-13 81 -53 112t-105 31q-110 0 -183 -80.5t-102 -212.5q-24 -115 10.5 -181.5t133.5 -66.5q151 0 243 164l219 -112q-136 -240 -370 -287l-121 -119 q71 -19 108.5 -71.5t22.5 -123.5q-15 -73 -89 -125.5t-159 -52.5q-77 0 -126.5 45t-59.5 107l153 49q2 -37 47 -37q27 0 51.5 19t30.5 47q3 10 -6.5 15t-44.5 15l-151 43l141 181q-99 14 -171 62t-107 119t-45 162.5z" />
<glyph unicode="&#xe8;" horiz-adv-x="1077" d="M72 506q49 232 211 369t376 137q209 0 308 -133.5t53 -354.5q0 -1 -11 -41.5t-18 -60.5l-649 10q-37 -209 147 -209q75 0 144.5 38.5t116.5 107.5l206 -127q-93 -124 -222.5 -189t-280.5 -65q-222 0 -327.5 138.5t-53.5 379.5zM301 1413h285l164 -307h-177zM387 614h367 q16 76 -16 121t-117 45q-86 0 -144.5 -47t-89.5 -119z" />
<glyph unicode="&#xe9;" horiz-adv-x="1077" d="M72 506q49 232 211 369t376 137q209 0 308 -133.5t53 -354.5q0 -1 -11 -41.5t-18 -60.5l-649 10q-37 -209 147 -209q75 0 144.5 38.5t116.5 107.5l206 -127q-93 -124 -222.5 -189t-280.5 -65q-222 0 -327.5 138.5t-53.5 379.5zM387 614h367q16 76 -16 121t-117 45 q-86 0 -144.5 -47t-89.5 -119zM563 1104l293 309h295l-387 -309h-201z" />
<glyph unicode="&#xea;" horiz-adv-x="1077" d="M72 506q49 232 211 369t376 137q209 0 308 -133.5t53 -354.5q0 -1 -11 -41.5t-18 -60.5l-649 10q-37 -209 147 -209q75 0 144.5 38.5t116.5 107.5l206 -127q-93 -124 -222.5 -189t-280.5 -65q-222 0 -327.5 138.5t-53.5 379.5zM340 1106l373 309h24l244 -309h-211 l-82 108l-131 -108h-217zM387 614h367q16 76 -16 121t-117 45q-86 0 -144.5 -47t-89.5 -119z" />
<glyph unicode="&#xeb;" horiz-adv-x="1077" d="M72 506q49 232 211 369t376 137q209 0 308 -133.5t53 -354.5q0 -1 -11 -41.5t-18 -60.5l-649 10q-37 -209 147 -209q75 0 144.5 38.5t116.5 107.5l206 -127q-93 -124 -222.5 -189t-280.5 -65q-222 0 -327.5 138.5t-53.5 379.5zM367 1174l51 239h237l-51 -239h-237z M387 614h367q16 76 -16 121t-117 45q-86 0 -144.5 -47t-89.5 -119zM750 1174l51 239h237l-51 -239h-237z" />
<glyph unicode="&#xec;" horiz-adv-x="552" d="M29 0l213 999h282l-213 -999h-282zM43 1413h285l164 -307h-177z" />
<glyph unicode="&#xed;" horiz-adv-x="552" d="M29 0l213 999h282l-213 -999h-282zM305 1104l293 309h295l-387 -309h-201z" />
<glyph unicode="&#xee;" horiz-adv-x="552" d="M29 0l213 999h282l-213 -999h-282zM82 1106l373 309h24l244 -309h-211l-82 108l-131 -108h-217z" />
<glyph unicode="&#xef;" horiz-adv-x="552" d="M29 0l213 999h282l-213 -999h-282zM109 1174l51 239h237l-51 -239h-237zM492 1174l51 239h237l-51 -239h-237z" />
<glyph unicode="&#xf0;" horiz-adv-x="1171" d="M64.5 368.5q-2.5 80.5 13.5 168.5q22 102 74.5 193.5t129.5 163t183 113.5t225 42q35 0 100 -7t72 -8q-37 102 -168 193l-82 -97l-94 66l76 88q-55 30 -125 51l137 176q76 -29 133 -61l95 109l92 -62l-92 -106q203 -144 269 -365t-1 -530q-22 -101 -75.5 -193 t-132 -163.5t-184.5 -113.5t-223 -42q-99 0 -179 30t-129.5 81.5t-80.5 122t-33.5 151zM360 496q-24 -111 17 -195t137 -84q100 0 188 97t115 223q24 114 -19.5 196t-131.5 82q-105 0 -192.5 -96t-113.5 -223z" />
<glyph unicode="&#xf1;" horiz-adv-x="1157" d="M27 0l213 999h278l-29 -127h13q112 152 307 152q157 0 224.5 -106.5t33.5 -268.5l-139 -649h-283l133 621q17 82 -13 124.5t-101 42.5q-87 0 -149.5 -59.5t-80.5 -146.5l-125 -582h-282zM315 1139q59 278 303 278q48 0 84 -12.5t56 -30.5t36 -36.5t32.5 -31t35.5 -12.5 q41 0 73.5 34.5t45.5 94.5l195 -20q-29 -134 -106.5 -205.5t-190.5 -71.5q-55 0 -94 14t-59.5 33.5t-35 39t-30.5 33.5t-37 14q-44 0 -75 -37.5t-46 -104.5z" />
<glyph unicode="&#xf2;" horiz-adv-x="1142" d="M64 285.5q-17 100.5 10 230.5q34 160 122.5 273.5t208.5 168t263 54.5q227 0 340.5 -142t58.5 -395q-51 -238 -213 -366.5t-381 -128.5q-110 0 -196 35t-141 102.5t-72 168zM338 1413h285l163 -307h-176zM348 475q-53 -260 150 -260q106 0 185.5 75t111.5 226 q53 260 -152 260q-104 0 -183.5 -75t-111.5 -226z" />
<glyph unicode="&#xf3;" horiz-adv-x="1142" d="M64 285.5q-17 100.5 10 230.5q34 160 122.5 273.5t208.5 168t263 54.5q227 0 340.5 -142t58.5 -395q-51 -238 -213 -366.5t-381 -128.5q-110 0 -196 35t-141 102.5t-72 168zM348 475q-53 -260 150 -260q106 0 185.5 75t111.5 226q53 260 -152 260q-104 0 -183.5 -75 t-111.5 -226zM600 1104l293 309h295l-387 -309h-201z" />
<glyph unicode="&#xf4;" horiz-adv-x="1142" d="M64 285.5q-17 100.5 10 230.5q34 160 122.5 273.5t208.5 168t263 54.5q227 0 340.5 -142t58.5 -395q-51 -238 -213 -366.5t-381 -128.5q-110 0 -196 35t-141 102.5t-72 168zM348 475q-53 -260 150 -260q106 0 185.5 75t111.5 226q53 260 -152 260q-104 0 -183.5 -75 t-111.5 -226zM377 1106l373 309h24l244 -309h-211l-82 108l-131 -108h-217z" />
<glyph unicode="&#xf5;" horiz-adv-x="1142" d="M64 285.5q-17 100.5 10 230.5q34 160 122.5 273.5t208.5 168t263 54.5q227 0 340.5 -142t58.5 -395q-51 -238 -213 -366.5t-381 -128.5q-110 0 -196 35t-141 102.5t-72 168zM307 1149q59 278 303 278q48 0 84 -12.5t56 -30.5t36 -36t32.5 -30.5t35.5 -12.5 q41 0 73.5 34.5t45.5 94.5l194 -21q-29 -134 -106.5 -205t-190.5 -71q-55 0 -94 13.5t-59.5 33.5t-35 39.5t-30.5 33t-37 13.5q-43 0 -74 -37.5t-46 -104.5zM348 475q-53 -260 150 -260q106 0 185.5 75t111.5 226q53 260 -152 260q-104 0 -183.5 -75t-111.5 -226z" />
<glyph unicode="&#xf6;" horiz-adv-x="1142" d="M64 285.5q-17 100.5 10 230.5q34 160 122.5 273.5t208.5 168t263 54.5q227 0 340.5 -142t58.5 -395q-51 -238 -213 -366.5t-381 -128.5q-110 0 -196 35t-141 102.5t-72 168zM348 475q-53 -260 150 -260q106 0 185.5 75t111.5 226q53 260 -152 260q-104 0 -183.5 -75 t-111.5 -226zM403 1174l52 239h237l-51 -239h-238zM786 1174l52 239h237l-51 -239h-238z" />
<glyph unicode="&#xf7;" horiz-adv-x="1515" d="M111 414l45 211h1257l-45 -211h-1257zM512 35l61 291h295l-61 -291h-295zM653 698l62 291h295l-62 -291h-295z" />
<glyph unicode="&#xf8;" horiz-adv-x="1142" d="M8 106l88 74q-64 135 -22 336q34 160 122.5 273.5t208.5 168t263 54.5q196 0 307 -105l88 72l72 -86l-93 -76q70 -139 25 -342q-51 -238 -213 -366.5t-381 -128.5q-204 0 -311 110l-82 -67zM338 379l428 354q-40 43 -123 43q-104 0 -183.5 -75t-111.5 -226 q-10 -46 -10 -96zM371 264q41 -49 127 -49q106 0 185.5 75t111.5 226q13 65 10 105z" />
<glyph unicode="&#xf9;" horiz-adv-x="1157" d="M90 350l139 649h283l-127 -600q-18 -82 11.5 -125t101.5 -43q87 0 149 59.5t82 147.5l119 561h282l-212 -999h-279l29 127l-15 -8q-115 -144 -305 -144q-157 0 -224.5 106.5t-33.5 268.5zM340 1413h285l163 -307h-176z" />
<glyph unicode="&#xfa;" horiz-adv-x="1157" d="M90 350l139 649h283l-127 -600q-18 -82 11.5 -125t101.5 -43q87 0 149 59.5t82 147.5l119 561h282l-212 -999h-279l29 127l-15 -8q-115 -144 -305 -144q-157 0 -224.5 106.5t-33.5 268.5zM602 1104l293 309h295l-387 -309h-201z" />
<glyph unicode="&#xfb;" horiz-adv-x="1157" d="M90 350l139 649h283l-127 -600q-18 -82 11.5 -125t101.5 -43q87 0 149 59.5t82 147.5l119 561h282l-212 -999h-279l29 127l-15 -8q-115 -144 -305 -144q-157 0 -224.5 106.5t-33.5 268.5zM379 1106l373 309h24l244 -309h-211l-82 108l-131 -108h-217z" />
<glyph unicode="&#xfc;" horiz-adv-x="1157" d="M90 350l139 649h283l-127 -600q-18 -82 11.5 -125t101.5 -43q87 0 149 59.5t82 147.5l119 561h282l-212 -999h-279l29 127l-15 -8q-115 -144 -305 -144q-157 0 -224.5 106.5t-33.5 268.5zM406 1174l51 239h237l-51 -239h-237zM788 1174l52 239h237l-51 -239h-238z" />
<glyph unicode="&#xfd;" horiz-adv-x="1003" d="M-94 -334l51 236h119q47 0 86.5 28.5t64.5 79.5l21 25l-150 964h299l58 -559q6 -70 -9 -141h25q15 100 47 162l297 538h307l-671 -1144q-58 -99 -130.5 -144t-170.5 -45h-244zM532 1104l293 309h295l-387 -309h-201z" />
<glyph unicode="&#xfe;" horiz-adv-x="1175" d="M-45 -334l373 1745h286l-114 -530l4 8q51 67 132 99t157 32q105 0 182.5 -44.5t115.5 -119t50 -172.5t-13 -205q-22 -100 -69 -189.5t-114 -159t-158 -110t-191 -40.5q-79 0 -149 36t-97 107l-16 -8l-96 -449h-283zM406 479q-24 -113 13.5 -175t141.5 -62q108 0 185 76 t104 202q24 110 -15 179t-137 69q-113 0 -188.5 -80t-103.5 -209z" />
<glyph unicode="&#xff;" horiz-adv-x="1003" d="M-94 -334l51 236h119q47 0 86.5 28.5t64.5 79.5l21 25l-150 964h299l58 -559q6 -70 -9 -141h25q15 100 47 162l297 538h307l-671 -1144q-58 -99 -130.5 -144t-170.5 -45h-244zM336 1174l51 239h238l-52 -239h-237zM719 1174l51 239h238l-52 -239h-237z" />
<glyph unicode="&#x152;" horiz-adv-x="2324" d="M101 535.5q1 92.5 22 191.5q30 143 97.5 268t170 224.5t249 157t318.5 57.5q84 0 158.5 -24t122.5 -60.5t77.5 -70.5t41.5 -62l20 8l41 186h1000l-56 -260h-747l-68 -313h660l-56 -260h-659l-68 -318h748l-55 -260h-1000l41 186l-12 -8q-34 -37 -95.5 -79t-167.5 -80.5 t-210 -38.5q-119 0 -215.5 28t-162.5 78.5t-111 119.5t-65 153t-19 176.5zM392 517q8 -78 40 -135.5t103 -90.5t174 -33q211 0 344.5 130t179.5 339q22 91 13 169t-42.5 135.5t-105 90.5t-174.5 33q-210 0 -341 -129.5t-177 -339.5q-22 -91 -14 -169z" />
<glyph unicode="&#x153;" horiz-adv-x="1804" d="M64 285.5q-17 100.5 10 230.5q34 160 122.5 273.5t208.5 168t263 54.5q227 0 340 -140q162 140 378 140q209 0 308 -133.5t53 -354.5q0 -1 -11 -41.5t-18 -60.5l-649 10q-18 -101 18.5 -155t129.5 -54q75 0 144 38.5t116 107.5l206 -127q-93 -124 -222.5 -189t-280.5 -65 q-213 0 -318 127q-159 -135 -389 -135q-110 0 -196 35t-141 102.5t-72 168zM348 475q-53 -260 150 -260q106 0 185.5 75t111.5 226q53 260 -152 260q-104 0 -183.5 -75t-111.5 -226zM1114 614h367q16 76 -16 121t-117 45q-86 0 -144.5 -47t-89.5 -119z" />
<glyph unicode="&#x178;" horiz-adv-x="1409" d="M201 1413h327l244 -596l494 596h336l-742 -862l-119 -551h-288l118 551zM625 1585l51 240h237l-51 -240h-237zM1008 1585l51 240h237l-51 -240h-237z" />
<glyph unicode="&#x2000;" horiz-adv-x="922" />
<glyph unicode="&#x2001;" horiz-adv-x="1845" />
<glyph unicode="&#x2002;" horiz-adv-x="922" />
<glyph unicode="&#x2003;" horiz-adv-x="1845" />
<glyph unicode="&#x2004;" horiz-adv-x="615" />
<glyph unicode="&#x2005;" horiz-adv-x="461" />
<glyph unicode="&#x2006;" horiz-adv-x="307" />
<glyph unicode="&#x2007;" horiz-adv-x="307" />
<glyph unicode="&#x2008;" horiz-adv-x="230" />
<glyph unicode="&#x2009;" horiz-adv-x="369" />
<glyph unicode="&#x200a;" horiz-adv-x="102" />
<glyph unicode="&#x2010;" horiz-adv-x="733" d="M39 391l53 252h610l-53 -252h-610z" />
<glyph unicode="&#x2011;" horiz-adv-x="733" d="M39 391l53 252h610l-53 -252h-610z" />
<glyph unicode="&#x2012;" horiz-adv-x="733" d="M39 391l53 252h610l-53 -252h-610z" />
<glyph unicode="&#x2013;" horiz-adv-x="876" d="M18 391l54 252h794l-53 -252h-795z" />
<glyph unicode="&#x2014;" horiz-adv-x="2048" d="M-23 391l54 252h2048l-54 -252h-2048z" />
<glyph unicode="&#x2018;" horiz-adv-x="571" d="M188 795l64 311l237 307h152l-166 -307h123l-66 -311h-344z" />
<glyph unicode="&#x2019;" horiz-adv-x="575" d="M188 795l166 307h-123l66 311h344l-63 -311l-238 -307h-152z" />
<glyph unicode="&#x201a;" horiz-adv-x="573" d="M-47 -307l166 307h-123l65 311h345l-64 -311l-238 -307h-151z" />
<glyph unicode="&#x201c;" horiz-adv-x="1015" d="M188 795l64 311l237 307h152l-166 -307h123l-66 -311h-344zM633 795l63 311l238 307h151l-165 -307h122l-65 -311h-344z" />
<glyph unicode="&#x201d;" horiz-adv-x="1026" d="M188 795l166 307h-123l66 311h344l-63 -311l-238 -307h-152zM639 795l166 307h-123l66 311h344l-64 -311l-237 -307h-152z" />
<glyph unicode="&#x201e;" horiz-adv-x="1024" d="M-47 -307l166 307h-123l65 311h345l-64 -311l-238 -307h-151zM403 -307l166 307h-123l66 311h344l-63 -311l-238 -307h-152z" />
<glyph unicode="&#x2022;" horiz-adv-x="997" d="M80 522q37 167 182.5 285.5t315.5 118.5q178 0 278 -131t62 -314q-35 -167 -181 -285t-315 -118q-118 0 -205.5 59.5t-124.5 162t-12 222.5z" />
<glyph unicode="&#x2026;" horiz-adv-x="1730" d="M-2 0l65 311h345l-66 -311h-344zM588 0l65 311h344l-65 -311h-344zM1178 0l65 311h344l-65 -311h-344z" />
<glyph unicode="&#x202f;" horiz-adv-x="369" />
<glyph unicode="&#x2039;" horiz-adv-x="628" d="M90 510l528 369l-45 -234l-208 -135l147 -133l-45 -234z" />
<glyph unicode="&#x203a;" horiz-adv-x="628" d="M14 143l45 234l209 133l-147 135l45 234l377 -369z" />
<glyph unicode="&#x205f;" horiz-adv-x="461" />
<glyph unicode="&#x20ac;" horiz-adv-x="1357" d="M-12 449l139 204h115q8 51 14 80l12 49l-202 -2l139 205h139q102 205 279.5 328t412.5 123q233 0 377 -131l-137 -228q-54 123 -258 123q-271 0 -416 -215h610l-118 -199l-586 -4l-19 -73q-8 -34 -10 -56h531l-123 -204h-408q23 -110 99 -172t210 -62q171 0 322 133 l141 -188q-212 -180 -495 -180q-238 0 -369 128t-151 341h-248z" />
<glyph unicode="&#x2122;" horiz-adv-x="1318" d="M170 1247l35 166h469l-35 -166h-145l-80 -370h-178l79 370h-145zM657 877l115 536h250l25 -248l131 248h254l-115 -536h-180l77 364l-153 -283h-103l-43 293l-79 -374h-179z" />
<glyph unicode="&#x25fc;" horiz-adv-x="1003" d="M0 0v1004h1004v-1004h-1004z" />
<glyph unicode="&#xfb03;" horiz-adv-x="1802" d="M86 815l39 184h184l23 107q33 154 128 230.5t261 76.5h166l-47 -219h-129q-36 0 -65 -32.5t-40 -84.5l-16 -78h209h108l23 107q33 154 128 230.5t261 76.5h145l-47 -219h-108q-36 0 -65 -32.5t-40 -84.5l-16 -78h588l-213 -999h-283l174 815h-305l-174 -815h-283l174 815 h-182h-133l-174 -815h-283l174 815h-182zM1526 1151l55 262h283l-56 -262h-282z" />
<glyph unicode="&#xfb04;" horiz-adv-x="1822" d="M86 815l39 184h184l23 107q33 154 128 230.5t261 76.5h166l-47 -219h-129q-36 0 -65 -32.5t-40 -84.5l-16 -78h209h119l22 107q33 154 128 230.5t261 76.5h166l-47 -219h-129q-36 0 -65 -32.5t-40 -84.5l-16 -78h209l-39 -184h-209l-174 -815h-283l175 815h-183h-143 l-174 -815h-283l174 815h-182zM1298 0l301 1413h283l-301 -1413h-283z" />
</font>
</defs>
</svg>
