<?xml version="1.0" standalone="no"?>
<!DOCTYPE svg PUBLIC "-//W3C//DTD SVG 1.1//EN" "http://www.w3.org/Graphics/SVG/1.1/DTD/svg11.dtd" >
<svg xmlns="http://www.w3.org/2000/svg">
<metadata></metadata>
<defs>
<font id="hanken_sanslight" horiz-adv-x="1071" >
<font-face units-per-em="2048" ascent="1638" descent="-410" />
<missing-glyph horiz-adv-x="468" />
<glyph unicode="&#xfb01;" d="M29 891v108h182v170q0 112 80 178t186 66h109v-121h-107q-69 0 -104 -32.5t-35 -92.5v-168h553v-999h-127v891h-426v-891h-129v891h-182zM754 1231v182h149v-182h-149z" />
<glyph unicode="&#xfb02;" horiz-adv-x="1062" d="M29 891v108h182v170q0 112 80 178t186 66h129v-121h-127q-69 0 -104 -32.5t-35 -92.5v-168h266v-108h-266v-891h-129v891h-182zM768 0v1413h127v-1413h-127z" />
<glyph horiz-adv-x="0" />
<glyph horiz-adv-x="682" />
<glyph unicode=" "  horiz-adv-x="468" />
<glyph unicode="&#x09;" horiz-adv-x="468" />
<glyph unicode="&#xa0;" horiz-adv-x="468" />
<glyph unicode="!" horiz-adv-x="518" d="M170 0v176h178v-176h-178zM182 1413h154l-29 -1042h-96z" />
<glyph unicode="&#x22;" horiz-adv-x="692" d="M145 874v539h117v-539h-117zM436 874v539h115v-539h-115z" />
<glyph unicode="#" horiz-adv-x="1280" d="M72 446v95h262l69 352h-249v90h270l90 430h100l-88 -416h338l88 416h101l-86 -426h241v-94h-262l-69 -352h249v-90h-270l-92 -451h-102l92 436h-338l-90 -436h-103l90 446h-241zM436 541h338l70 352h-338z" />
<glyph unicode="$" horiz-adv-x="1077" d="M70 360l127 43q11 -96 63 -163.5t126 -98t165 -30.5q132 0 212.5 68t80.5 198q0 60 -23.5 109t-62.5 83t-90 63t-107.5 54t-113 50.5t-107.5 57t-90 69.5t-62.5 93.5t-23.5 122.5q0 143 91.5 238t233.5 113v229h82v-227q234 -16 347 -220l-101 -71q-43 85 -117.5 129.5 t-160.5 44.5q-98 0 -170 -61.5t-72 -157.5q0 -73 37.5 -129t97.5 -92t132.5 -68t145 -67t132.5 -78t97.5 -112t37.5 -159q0 -177 -114 -288t-292 -117v-232h-82v234q-162 16 -278 112.5t-141 259.5z" />
<glyph unicode="%" horiz-adv-x="1507" d="M92 1118q0 54 12.5 106t38.5 101.5t76 80t117 30.5q81 0 140 -48.5t85.5 -118.5t26.5 -151q0 -80 -26 -150t-83.5 -117.5t-136.5 -47.5q-69 0 -120 30t-78 79t-39.5 100.5t-12.5 105.5zM203 1118q0 -83 34.5 -148t100.5 -65t100.5 66t34.5 149t-35 145t-102 62 q-65 0 -99 -63t-34 -146zM301 2l756 1409h133l-754 -1409h-135zM920 315q0 42 7 83.5t24.5 84.5t44.5 76t70 53.5t97 20.5q81 0 140 -48t85.5 -118.5t26.5 -151.5q0 -80 -26 -149.5t-83.5 -116.5t-136.5 -47q-55 0 -99.5 20.5t-72 52.5t-45.5 74.5t-25 83.5t-7 82zM1030 315 q0 -82 34.5 -145.5t102.5 -63.5q65 0 99 64.5t34 146.5q0 85 -34.5 148t-102.5 63q-65 0 -99 -64.5t-34 -148.5z" />
<glyph unicode="&#x26;" horiz-adv-x="1323" d="M94 365q0 77 35 153t87 129.5t116 83.5t119 23l4 22q-78 19 -141.5 115t-63.5 203q0 154 97.5 242.5t240.5 88.5q139 0 230 -85.5t91 -235.5q0 -100 -61 -182t-158 -138l-78 86q172 93 172 238q0 91 -55.5 151t-140.5 60q-89 0 -147 -61t-58 -158q0 -67 45 -140.5 t102 -132.5l398 -415l186 329h152l-248 -424l301 -317h-189l-190 203q-83 -115 -182.5 -171.5t-239.5 -56.5q-116 0 -211.5 45t-154 135t-58.5 210zM231 360q0 -117 87.5 -194.5t199.5 -77.5q111 0 186.5 50t143.5 159l-361 385q-128 -58 -192 -132t-64 -190z" />
<glyph unicode="'" horiz-adv-x="407" d="M145 903v539h117v-539h-117z" />
<glyph unicode="(" horiz-adv-x="507" d="M113 586q0 223 58 469.5t177 439.5h98q-112 -188 -172.5 -422.5t-60.5 -476.5q0 -235 59.5 -480t171.5 -425h-94q-108 151 -172.5 417t-64.5 478z" />
<glyph unicode=")" horiz-adv-x="503" d="M53 1497h101q118 -191 175.5 -430.5t57.5 -466.5q0 -210 -64 -482t-173 -425h-93q112 183 172 422t60 475q0 239 -61.5 480.5t-174.5 426.5z" />
<glyph unicode="*" horiz-adv-x="692" d="M68 1161l28 99l236 -103l-31 256h94l-35 -256l238 103l27 -99l-252 -39l178 -211l-76 -59l-127 240l-127 -240l-76 59l181 211z" />
<glyph unicode="+" horiz-adv-x="1308" d="M150 578v94h456v471h96v-471h457v-94h-457v-472h-96v472h-456z" />
<glyph unicode="," horiz-adv-x="534" d="M129 -313l84 313h-70v197h191v-197l-117 -313h-88z" />
<glyph unicode="-" horiz-adv-x="618" d="M61 469v84h496v-84h-496z" />
<glyph unicode="." horiz-adv-x="415" d="M125 0v197h190v-197h-190z" />
<glyph unicode="/" horiz-adv-x="1046" d="M166 -156l604 1569h135l-606 -1569h-133z" />
<glyph unicode="0" horiz-adv-x="1085" d="M78 707q0 85 8.5 165t28 165t54.5 154.5t84 125.5t122.5 87.5t163.5 31.5q98 0 178 -41t133.5 -110.5t89.5 -164.5t52 -199t16 -219q0 -143 -26.5 -268.5t-79 -229t-142.5 -164t-207 -60.5q-81 0 -148 24t-115.5 64.5t-86 98t-60.5 121t-38 137t-21 142t-6 140.5z M209 707q0 -69 5 -131t17.5 -133.5t37 -129t60.5 -106t91.5 -75t126.5 -26.5q79 0 138 40.5t92.5 101.5t53.5 146t26.5 159t6.5 156q0 58 -3 111.5t-12.5 115t-24 112.5t-39.5 100t-58.5 82.5t-81.5 54t-106 20.5q-59 0 -108 -20.5t-82.5 -54.5t-59 -83t-40.5 -100.5 t-24.5 -113t-12.5 -115t-3 -111.5z" />
<glyph unicode="1" horiz-adv-x="774" d="M82 1071v141l348 201h119v-1413h-135v1262z" />
<glyph unicode="2" horiz-adv-x="1081" d="M113 0v141q0 90 24.5 165t65.5 128t94 97.5t112 79.5t118 67.5t112 68t94 75.5t65.5 95t24.5 121q0 120 -75.5 197.5t-192.5 77.5q-138 0 -217.5 -97.5t-69.5 -254.5l-137 12q0 214 113.5 336.5t310.5 122.5q177 0 291.5 -113t114.5 -287q0 -76 -24.5 -140.5t-66 -111.5 t-95.5 -88t-113 -75.5t-118.5 -68t-113.5 -70.5t-95.5 -78.5t-66 -97.5t-24.5 -122v-61h745v-119h-876z" />
<glyph unicode="3" horiz-adv-x="1103" d="M78 389l125 14q0 -142 102.5 -224.5t245.5 -82.5q67 0 129.5 20t112.5 56.5t80 95.5t30 131t-27.5 128.5t-74.5 90t-105.5 51t-124.5 17.5h-108v127h108q113 0 182.5 65t69.5 181q0 117 -84 186.5t-213 69.5t-212.5 -70.5t-84.5 -189.5l-123 16q0 168 117 265.5t305 97.5 q185 0 302.5 -96.5t117.5 -264.5q0 -115 -63.5 -200t-147.5 -107v-18q135 -24 210 -113t79 -238q0 -135 -64.5 -231t-170 -141t-240.5 -45q-134 0 -239 44.5t-169.5 138.5t-64.5 226z" />
<glyph unicode="4" horiz-adv-x="1081" d="M61 389v98l648 926h125v-905h241v-119h-241v-389h-132v389h-641zM211 508h491v702z" />
<glyph unicode="5" horiz-adv-x="1081" d="M113 375l118 39q28 -140 123 -232t211 -92q140 0 230 103t90 262q0 151 -90.5 248.5t-229.5 97.5q-82 0 -165.5 -46t-125.5 -116l-110 61l121 713h678v-119h-572l-76 -450l-14 -41l8 -2q38 47 120 80.5t155 33.5q195 0 318.5 -130.5t123.5 -333.5q0 -205 -130 -338 t-333 -133q-161 0 -289.5 112t-160.5 283z" />
<glyph unicode="6" horiz-adv-x="1079" d="M78 449q0 241 132.5 485.5t385.5 478.5h201q-154 -111 -314 -297t-204 -330h8q45 51 118.5 85t163.5 34q118 0 216 -57.5t157 -163.5t59 -240q0 -123 -58.5 -229t-165 -170.5t-236.5 -64.5q-193 0 -328 137t-135 332zM211 442q0 -151 93 -247.5t239 -96.5q145 0 237 96.5 t92 247.5q0 152 -92 248t-237 96q-146 0 -239 -96t-93 -248z" />
<glyph unicode="7" horiz-adv-x="903" d="M35 1294v119h831v-113q-99 -123 -176.5 -261t-125 -262t-82.5 -269t-52 -257t-31 -251h-137q17 137 35 247t54.5 258.5t84 272t124 260.5t173.5 252v4h-698z" />
<glyph unicode="8" horiz-adv-x="1089" d="M76 383q0 134 79.5 239.5t202.5 133.5v10q-92 32 -151.5 120.5t-59.5 192.5q0 154 112.5 254.5t285.5 100.5t285 -100.5t112 -254.5q0 -107 -59.5 -195.5t-151.5 -117.5v-10q123 -32 203 -137.5t80 -235.5q0 -175 -132 -289t-335 -114q-204 0 -337.5 114t-133.5 289z M207 395q0 -134 95 -220.5t241 -86.5t241 86.5t95 220.5q0 132 -95 218.5t-241 86.5t-241 -86.5t-95 -218.5zM281 1065q0 -116 76 -190t194 -74q116 0 191 73t75 187t-75 187t-191 73q-118 0 -194 -72.5t-76 -183.5z" />
<glyph unicode="9" horiz-adv-x="1079" d="M78 969q0 123 58.5 229t165.5 171t237 65q193 0 327.5 -137t134.5 -332q0 -241 -132.5 -486t-385.5 -479h-200q154 111 314 297t204 330h-8q-45 -51 -119 -85t-164 -34q-118 0 -216 57.5t-157 163.5t-59 240zM207 971q0 -152 92.5 -248t237.5 -96q146 0 238.5 96 t92.5 248q0 151 -92.5 247.5t-238.5 96.5q-145 0 -237.5 -96.5t-92.5 -247.5z" />
<glyph unicode=":" horiz-adv-x="448" d="M127 776v197h190v-197h-190zM129 0v197h190v-197h-190z" />
<glyph unicode=";" horiz-adv-x="544" d="M117 -313l84 313h-70v197h191v-197l-117 -313h-88zM133 776v197h191v-197h-191z" />
<glyph unicode="&#x3c;" horiz-adv-x="1232" d="M150 674l876 497l57 -98l-721 -399l721 -400l-57 -98z" />
<glyph unicode="=" horiz-adv-x="1040" d="M150 442v119h741v-119h-741zM150 782v119h741v-119h-741z" />
<glyph unicode="&#x3e;" horiz-adv-x="1232" d="M150 274l724 400l-724 399l57 98l876 -497l-876 -498z" />
<glyph unicode="?" horiz-adv-x="952" d="M70 1079q1 106 56.5 188t144.5 124.5t194 42.5q176 0 290.5 -94t114.5 -261q0 -67 -19 -119t-48.5 -83t-66 -55.5t-73 -44t-66 -40t-48.5 -52t-19 -73.5v-245h-118v247q0 57 18.5 99t47.5 67t65 45t71.5 40t64.5 45.5t47.5 69.5t18.5 103q0 116 -77 176t-195 60 q-110 0 -192.5 -64.5t-83.5 -175.5h-127zM385 0v176h178v-176h-178z" />
<glyph unicode="@" horiz-adv-x="1976" d="M127 543q0 181 67 345t181 283.5t274 190t338 70.5t341.5 -70.5t281.5 -189.5t188 -282t70 -341q0 -111 -27 -214.5t-79 -189.5t-138 -138t-194 -52q-136 0 -202.5 77.5t-45.5 203.5q-56 -76 -143.5 -119t-180.5 -43q-148 0 -227.5 104t-79.5 262q0 76 18 157t56 159 t90.5 139.5t128 99t162.5 37.5q108 0 184.5 -55t89.5 -148l29 152h137q-11 -55 -51 -216.5t-66 -296.5t-26 -224q0 -78 24 -110.5t90 -33.5q72 -1 129.5 30t92 79t57 112t31 123t8.5 117q0 146 -59.5 283t-159.5 237.5t-239 161t-290 60.5q-152 0 -287 -60t-231.5 -161.5 t-152.5 -241t-56 -293.5q0 -205 95 -379t261.5 -275.5t366.5 -101.5q120 0 248 39l47 -127q-142 -51 -293 -51q-177 0 -336.5 71t-273.5 190.5t-181 284t-67 345.5zM678 436q0 -107 48.5 -168t147.5 -61q69 0 129 30t101 78.5t70.5 109.5t43 123.5t13.5 121.5 q0 106 -49.5 166.5t-149.5 60.5q-85 0 -155 -44.5t-112 -114t-64.5 -148.5t-22.5 -154z" />
<glyph unicode="A" horiz-adv-x="1140" d="M12 0l467 1413h189l465 -1413h-146l-102 322h-629l-100 -322h-144zM293 436h557l-258 813q-17 57 -19 70h-4q-1 -6 -20 -70z" />
<glyph unicode="B" horiz-adv-x="1271" d="M205 0v1413h471q200 0 316 -101.5t116 -273.5q0 -125 -78 -210q-74 -80 -134 -80h-7v-21h11q106 0 190 -96q88 -101 88 -248q0 -176 -116.5 -279.5t-303.5 -103.5h-553zM338 129h403q151 0 225 69t74 193q0 122 -88 193t-211 71h-403v-526zM338 782h311q130 0 221 70 t91 192q0 244 -291 244h-332v-506z" />
<glyph unicode="C" horiz-adv-x="1347" d="M94 707q0 171 47.5 309.5t133 230t203 140.5t257.5 49q184 0 338.5 -103t212.5 -268l-110 -53q-49 136 -164.5 215.5t-278.5 79.5q-231 0 -368.5 -160.5t-137.5 -429.5q0 -277 139 -442.5t373 -165.5q148 0 266 80.5t171 213.5l110 -51q-57 -165 -211 -268.5t-338 -103.5 q-141 0 -259.5 49t-203.5 140.5t-132.5 229t-47.5 308.5z" />
<glyph unicode="D" horiz-adv-x="1355" d="M205 0v1413h352q340 0 522.5 -184t182.5 -535q0 -333 -185.5 -513.5t-521.5 -180.5h-350zM340 127h190q300 0 446 143t146 437t-140.5 437.5t-428.5 143.5h-213v-1161z" />
<glyph unicode="E" horiz-adv-x="1224" d="M205 0v1413h909v-123h-774v-522h676v-123h-676v-522h774v-123h-909z" />
<glyph unicode="F" horiz-adv-x="1179" d="M205 0v1413h901v-123h-766v-522h678v-123h-678v-645h-135z" />
<glyph unicode="G" horiz-adv-x="1497" d="M94 711q0 118 24 224.5t75 198.5t124.5 159t178.5 105t231 38q394 0 569 -371l-125 -51q-75 150 -185.5 219.5t-260.5 69.5q-127 0 -224.5 -47t-156 -129t-88 -185.5t-29.5 -224.5q0 -99 18.5 -187.5t58 -165.5t96 -133t137.5 -88t178 -32q198 0 330 124t145 353h-328 v117h455v-705h-109l-4 299h-6q-23 -62 -60.5 -115.5t-94.5 -101t-142 -75t-188 -27.5q-147 0 -266 57.5t-195.5 157t-117 232t-40.5 284.5z" />
<glyph unicode="H" horiz-adv-x="1417" d="M205 0v1413h135v-647h737v647h135v-1413h-135v647h-737v-647h-135z" />
<glyph unicode="I" horiz-adv-x="544" d="M205 0v1413h135v-1413h-135z" />
<glyph unicode="J" horiz-adv-x="739" d="M31 0v127q87 -31 151 -31q271 0 271 385v932h135v-917q0 -516 -412 -516q-73 0 -145 20z" />
<glyph unicode="K" horiz-adv-x="1214" d="M205 0v1413h135v-674l616 674h168l-577 -620l657 -793h-178l-582 723h-104v-723h-135z" />
<glyph unicode="L" horiz-adv-x="964" d="M205 0v1413h135v-1290h604v-123h-739z" />
<glyph unicode="M" horiz-adv-x="1691" d="M205 0v1413h223l418 -1186l418 1186h223v-1413h-135v1303h-6q0 -36 -25 -109l-383 -1071h-184l-385 1096q-23 66 -23 81h-6v-1300h-135z" />
<glyph unicode="N" horiz-adv-x="1478" d="M205 0v1413h211l665 -1188l47 -84h11v1272h135v-1413h-215l-656 1169q-33 60 -57 117h-6v-1286h-135z" />
<glyph unicode="O" horiz-adv-x="1449" d="M94 707q0 333 171.5 530t461.5 197q287 0 458 -197t171 -530t-171 -530t-458 -197q-290 0 -461.5 197t-171.5 530zM223 707q0 -276 136 -438.5t368 -162.5q229 0 364.5 163t135.5 438t-135.5 437.5t-364.5 162.5q-232 0 -368 -162.5t-136 -437.5z" />
<glyph unicode="P" horiz-adv-x="1175" d="M205 0v1413h444q216 0 340.5 -112t124.5 -320q0 -200 -120.5 -308t-344.5 -108h-309v-565h-135zM340 688h322q159 0 238 71t79 218q0 149 -80 231t-237 82h-322v-602z" />
<glyph unicode="Q" horiz-adv-x="1458" d="M94 707q0 333 171.5 530t461.5 197q287 0 458 -197t171 -530q0 -175 -50 -316.5t-143 -236.5l201 -201l-80 -82l-207 209q-145 -100 -350 -100q-290 0 -461.5 197t-171.5 530zM223 707q0 -276 136 -438.5t368 -162.5q144 0 256 70l-268 273l73 77l283 -280 q156 166 156 461q0 275 -135.5 437.5t-364.5 162.5q-232 0 -368 -162.5t-136 -437.5z" />
<glyph unicode="R" horiz-adv-x="1220" d="M205 -2v1415h465q199 0 320.5 -105t121.5 -282q0 -145 -83 -240.5t-224 -123.5l344 -664h-152l-327 647h-330v-647h-135zM342 768h360q137 6 206 72t69 186q0 126 -79 195t-226 69h-330v-522z" />
<glyph unicode="S" horiz-adv-x="1085" d="M70 440h135q0 -86 29.5 -151.5t80.5 -102.5t110.5 -55t127.5 -18q131 0 213 64.5t82 180.5q0 38 -10 71.5t-24.5 59t-41.5 50.5t-51 42t-62.5 37t-66 32.5t-72.5 31.5q-160 67 -225 109q-156 101 -167 263q-1 13 -1 27q0 158 109 255.5t284 97.5q246 0 404 -213l-90 -84 q-131 172 -316 172q-111 0 -182.5 -60t-71.5 -157q0 -45 20 -84t41.5 -64t76 -56.5t81 -44t98.5 -44.5q9 -4 13 -6q52 -23 82 -36.5t77 -39t75 -47t61.5 -54t52 -66t31 -78.5t12.5 -95q0 -173 -123.5 -283t-314.5 -110q-69 0 -135 15t-129 50t-110 86t-75 129 q-28 76 -28 169v7z" />
<glyph unicode="T" horiz-adv-x="1148" d="M20 1292v121h1108v-121h-485v-1292h-135v1292h-488z" />
<glyph unicode="U" horiz-adv-x="1323" d="M180 487v926h135v-932q0 -177 93 -278t256 -101q160 0 252 101t92 278v932h135v-915q0 -243 -129 -380.5t-350 -137.5q-224 0 -354 134.5t-130 372.5z" />
<glyph unicode="V" horiz-adv-x="1157" d="M20 1413h140l418 -1319l417 1319h142l-461 -1413h-193z" />
<glyph unicode="W" horiz-adv-x="1808" d="M20 1413h140l289 -1237v-33h10l-2 19l348 1112h196l347 -1112l-2 -19h12v33l289 1237h141l-342 -1413h-164l-375 1161l-383 -1161h-162z" />
<glyph unicode="X" horiz-adv-x="1118" d="M20 0l465 707l-462 706h161l375 -596l375 596h162l-463 -706l465 -707h-162l-379 586l-375 -586h-162z" />
<glyph unicode="Y" horiz-adv-x="1325" d="M10 1413h162l485 -739l496 739h162l-586 -860v-553h-137v553z" />
<glyph unicode="Z" horiz-adv-x="1150" d="M35 0v115l911 1175h-866v123h1036v-119l-921 -1171h921v-123h-1081z" />
<glyph unicode="[" horiz-adv-x="550" d="M160 -326v1821h352v-63h-248v-1692h248v-66h-352z" />
<glyph unicode="\" horiz-adv-x="1046" d="M141 1413h133l607 -1569h-136z" />
<glyph unicode="]" horiz-adv-x="550" d="M39 -260h248v1692h-248v63h352v-1821h-352v66z" />
<glyph unicode="^" horiz-adv-x="743" d="M25 850l346 561l348 -561h-133l-215 342l-211 -342h-135z" />
<glyph unicode="_" horiz-adv-x="761" d="M0 0h762v-96h-762v96z" />
<glyph unicode="a" horiz-adv-x="1044" d="M92 268q0 100 52.5 160.5t150.5 93.5q54 18 162.5 39t124.5 25q87 22 137.5 57.5t50.5 97.5q0 72 -65 115t-170 43q-97 0 -179.5 -39t-134.5 -112l-102 69q72 96 178.5 147.5t232.5 51.5q156 0 259.5 -77t103.5 -218v-535l29 -186h-123l-23 170h-10q-41 -86 -130.5 -138 t-213.5 -52q-151 0 -240.5 78t-89.5 210zM229 266q0 -79 59 -122.5t152 -43.5q44 0 87 10t88 35.5t78.5 64t55 102.5t21.5 145v104h-8q-52 -44 -132 -70t-168 -43.5t-126 -33.5q-107 -45 -107 -148z" />
<glyph unicode="b" horiz-adv-x="1089" d="M168 0v1413h127v-532h10q121 139 303 139q102 0 180 -40t125.5 -111.5t71 -164t23.5 -204.5q0 -111 -24 -204t-71 -164.5t-124.5 -111.5t-178.5 -40q-186 0 -307 139h-8v-119h-127zM285 500q0 -186 79 -295t214 -109q150 0 225.5 106.5t75.5 297.5q0 188 -75.5 293.5 t-225.5 105.5q-135 0 -214 -108t-79 -291z" />
<glyph unicode="c" horiz-adv-x="958" d="M82 498q0 105 27 197.5t78 164.5t133 114t184 42q130 0 229 -67t154 -189l-111 -45q-34 88 -107 138t-165 50q-78 0 -137 -37t-91.5 -98t-48.5 -129t-16 -141t16 -141.5t48.5 -129.5t91.5 -98t137 -37q95 0 168 53t108 136l107 -43q-54 -124 -152 -191t-229 -67 q-103 0 -185 42t-133.5 114.5t-78.5 165t-27 196.5z" />
<glyph unicode="d" horiz-adv-x="1089" d="M82 500q0 151 40.5 265t132 184.5t226.5 70.5q182 0 303 -139h11v532h127v-1413h-127v119h-9q-121 -139 -307 -139q-101 0 -178 40t-124.5 111.5t-71 164.5t-23.5 204zM211 500q0 -191 75.5 -297.5t225.5 -106.5q135 0 214 109t79 295q0 183 -79 291t-214 108 q-150 0 -225.5 -105.5t-75.5 -293.5z" />
<glyph unicode="e" horiz-adv-x="1011" d="M82 500q0 78 14.5 149.5t48 138.5t83 116t124.5 78.5t168 29.5q95 0 169 -32t118.5 -82t73 -120.5t39 -139.5t10.5 -146l-2 -43h-715q6 -71 26.5 -130t59.5 -108.5t102.5 -77t147.5 -27.5q168 0 272 91l72 -86q-139 -123 -344 -123q-98 0 -177.5 28.5t-132.5 76.5 t-89 114t-52 139t-16 154zM209 555h600q-5 154 -79 247t-216 93q-79 0 -138.5 -29t-94 -79t-52 -107.5t-20.5 -124.5z" />
<glyph unicode="f" horiz-adv-x="630" d="M29 891v108h182v129q0 131 77.5 208t209.5 77h108v-110h-106q-74 0 -118 -45t-44 -121v-138h268v-108h-268v-891h-127v891h-182z" />
<glyph unicode="g" horiz-adv-x="1089" d="M82 518q0 82 15 154.5t47.5 136.5t81 110t119 72.5t157.5 26.5q180 0 274 -137h17v118h129v-976q0 -170 -108.5 -273.5t-293.5 -103.5q-153 0 -272 68.5t-152 179.5l144 34q21 -75 97 -124.5t181 -49.5q126 0 201.5 75t75.5 194v141q-108 -154 -312 -154q-99 0 -177 41.5 t-126 112.5t-73 161t-25 193zM211 516q0 -65 10.5 -122.5t34 -107.5t58 -86.5t85.5 -57.5t113 -21q78 0 136 28.5t91.5 80.5t49.5 118t16 148t-16 153t-49.5 130.5t-91.5 93.5t-136 34q-77 0 -136.5 -31.5t-94.5 -86t-52.5 -123.5t-17.5 -150z" />
<glyph unicode="h" d="M168 0v1413h127v-567h12q97 168 289 168q151 0 239.5 -98.5t88.5 -268.5v-647h-127v635q0 256 -219 256q-122 0 -202.5 -85.5t-80.5 -217.5v-588h-127z" />
<glyph unicode="i" horiz-adv-x="485" d="M168 1231v182h149v-182h-149zM180 0v999h127v-999h-127z" />
<glyph unicode="j" horiz-adv-x="487" d="M-37 -223h109q62 0 86 33.5t24 93.5v1095h127v-1077q0 -136 -54.5 -196t-186.5 -60h-105v111zM170 1229v184h149v-184h-149z" />
<glyph unicode="k" horiz-adv-x="964" d="M168 0v1413h127v-858l461 444h159l-419 -409l487 -590h-164l-432 532l-92 -4v-528h-127z" />
<glyph unicode="l" horiz-adv-x="462" d="M168 0v1413h127v-1413h-127z" />
<glyph unicode="m" horiz-adv-x="1615" d="M168 0v999h127v-139h6q40 73 108.5 115.5t161.5 42.5q92 0 165.5 -46t111.5 -141h10q51 97 122 141t177 44q311 0 311 -367v-649h-127v645q0 115 -52 185.5t-165 70.5q-84 0 -140 -43.5t-79.5 -111.5t-23.5 -158v-588h-127v649q0 252 -211 252q-127 0 -187.5 -87 t-60.5 -226v-588h-127z" />
<glyph unicode="n" d="M168 0v999h129v-153h8q46 79 119 123.5t168 44.5q155 0 243.5 -98t88.5 -269v-647h-127v635q0 264 -211 264q-128 0 -209.5 -86t-81.5 -225v-588h-127z" />
<glyph unicode="o" horiz-adv-x="1052" d="M82 496q0 245 121 380.5t321 135.5q199 0 323 -136t124 -380t-124 -380t-323 -136q-200 0 -321 135.5t-121 380.5zM207 496q0 -197 84.5 -298.5t234.5 -101.5t235 101.5t85 298.5t-85 299t-235 102t-234.5 -102t-84.5 -299z" />
<glyph unicode="p" horiz-adv-x="1087" d="M168 -334v1333h123v-125h12q109 146 305 146q186 0 292 -147t106 -373t-106 -373t-292 -147q-190 0 -307 145h-6v-459h-127zM281 500q0 -190 78.5 -300t215.5 -110q140 0 222 110.5t82 299.5q0 188 -82 297.5t-222 109.5q-137 0 -215.5 -109t-78.5 -298z" />
<glyph unicode="q" horiz-adv-x="1087" d="M82 500q0 147 45 263.5t136.5 186.5t215.5 70q195 0 305 -146h13v125h123v-1333h-127v459h-7q-117 -145 -307 -145q-124 0 -215.5 70t-136.5 186.5t-45 263.5zM209 500q0 -189 81.5 -299.5t221.5 -110.5q137 0 216 110t79 300q0 189 -79 298t-216 109q-140 0 -221.5 -109 t-81.5 -298z" />
<glyph unicode="r" horiz-adv-x="714" d="M168 0v999h131v-174h6q31 82 102.5 135.5t170.5 53.5q46 0 106 -17v-123q-53 21 -100 21q-55 0 -105 -23t-92 -68.5t-67 -124.5t-25 -181v-498h-127z" />
<glyph unicode="s" horiz-adv-x="921" d="M72 219l114 62q26 -73 100.5 -128t192.5 -55q104 0 177 45.5t73 130.5q0 27 -9.5 49.5t-21 38.5t-38.5 31t-43.5 23t-56 19.5t-57 15.5t-63.5 14q-43 10 -70.5 17t-66.5 19.5t-64 25.5t-53 33.5t-44 44t-27 56t-11 70.5q0 86 50.5 151.5t129 97.5t169.5 32 q120 0 213.5 -56t138.5 -137l-88 -63q-99 149 -264 149q-96 0 -163 -45.5t-67 -114.5q0 -49 43 -84t84.5 -48.5t134.5 -36.5q18 -5 27 -7q46 -11 73.5 -18.5t68 -21t65 -27t53.5 -35t44.5 -46t26.5 -58.5t11 -74q0 -98 -58.5 -170t-143.5 -105.5t-181 -33.5 q-141 0 -253 70.5t-146 168.5z" />
<glyph unicode="t" horiz-adv-x="643" d="M35 891v108h82q34 0 52.5 18t18.5 52v242h127v-312h277v-108h-277v-598q0 -105 34.5 -146t123.5 -41h90v-106h-112q-135 0 -199 65t-64 203v623h-153z" />
<glyph unicode="u" d="M147 352v647h127v-634q0 -254 211 -254q128 0 209.5 84.5t81.5 216.5v587h127v-999h-129v154h-14q-97 -168 -281 -168q-155 0 -243.5 98t-88.5 268z" />
<glyph unicode="v" horiz-adv-x="878" d="M41 999h139l260 -936l260 936h138l-301 -999h-195z" />
<glyph unicode="w" horiz-adv-x="1349" d="M41 999h137l170 -925l268 925h115l273 -917l167 917h138l-213 -999h-183l-239 831l-238 -829h-182z" />
<glyph unicode="x" horiz-adv-x="817" d="M20 0l334 504l-334 495h138l250 -385l251 385h138l-332 -495l332 -504h-138l-251 391l-250 -391h-138z" />
<glyph unicode="y" horiz-adv-x="851" d="M31 999h139l236 -731q24 -70 24 -121h6q0 33 25 123l233 729h137l-374 -1128q-35 -105 -99.5 -155t-164.5 -50h-127v111h139q95 0 127 96l43 129z" />
<glyph unicode="z" horiz-adv-x="864" d="M51 0v98l617 787h-594v114h745v-110l-612 -774h606v-115h-762z" />
<glyph unicode="{" horiz-adv-x="548" d="M84 506v100q131 34 131 158v555q0 98 45 148.5t154 50.5h51h37v-64q-35 0 -51 2q-123 6 -123 -51v-653q0 -71 -44.5 -118t-148.5 -85q97 -32 145 -69t48 -95v-494q0 -80 40 -125t109 -28q8 2 25 2v-62q-7 -2 -39 -2h-72q-90 0 -145 72q-31 39 -31 135v498q0 45 -39 77 t-92 48z" />
<glyph unicode="|" horiz-adv-x="501" d="M205 -156v1690h92v-1690h-92z" />
<glyph unicode="}" horiz-adv-x="552" d="M47 -260q4 0 13 -1t14 -1q147 0 147 153v494q0 58 48 95t145 69q-103 38 -148 85.5t-45 117.5v653q0 63 -121 51q-18 -2 -53 -2v64q6 1 12.5 1t13.5 -0.5t11 -0.5h51q110 0 154.5 -50t44.5 -149v-555q0 -124 131 -158v-100q-53 -16 -92 -48t-39 -77v-498q0 -96 -31 -135 q-28 -35 -61 -53.5t-84 -18.5h-72q-32 0 -39 2v62z" />
<glyph unicode="~" horiz-adv-x="845" d="M51 406q0 109 49 177t142 68q54 0 98.5 -17.5t74 -42t55 -49t54.5 -42t60 -17.5q58 0 80 41t22 121h109q0 -126 -57 -196t-160 -70q-45 0 -85 17.5t-69 43t-56.5 51t-59 43t-64.5 17.5q-96 0 -92 -145h-101z" />
<glyph unicode="&#xa1;" horiz-adv-x="518" d="M170 823v176h178v-176h-178zM182 -436l29 1065h96l29 -1065h-154z" />
<glyph unicode="&#xa2;" horiz-adv-x="958" d="M82 498q0 98 23.5 185t69.5 157.5t119.5 115.5t166.5 54v190h92v-190q109 -11 199.5 -77.5t134.5 -170.5l-129 -53q-22 81 -91.5 130.5t-158.5 49.5q-76 0 -134 -35t-90 -93.5t-47.5 -124.5t-15.5 -138q0 -73 15 -139t47 -124.5t90 -93.5t135 -35q87 0 157.5 51t92.5 132 l116 -51q-37 -108 -122.5 -176.5t-198.5 -75.5v-191h-92v191q-92 10 -165 55t-119.5 115t-70.5 157.5t-24 184.5z" />
<glyph unicode="&#xa3;" horiz-adv-x="1091" d="M61 0v96q10 8 26.5 21.5t58.5 56.5t74 86.5t58.5 104.5t26.5 116q0 82 -26 162h-216v117h185q0 1 -5.5 15.5t-9 25t-9 29.5t-9.5 37t-8 40.5t-6 47t-2 49.5q0 116 44.5 212.5t132.5 156t204 59.5q134 0 228 -78t140 -205l-108 -37q-33 93 -99 149t-161 56 q-119 0 -193 -85t-74 -231q0 -131 54 -241h473v-117h-443q23 -62 23 -162q0 -64 -19 -125t-46 -102.5t-54 -73.5t-46 -48l-19 -15h835v-117h-1010z" />
<glyph unicode="&#xa4;" horiz-adv-x="1177" d="M57 1026l127 133l160 -213q97 82 238 82q133 0 237 -80l174 197l129 -131l-225 -140q76 -107 76 -245q0 -135 -76 -244l225 -168l-127 -131l-174 223q-108 -80 -239 -80q-135 0 -240 82l-141 -225l-129 131l194 168q-78 110 -78 244q0 132 78 245zM326 629 q0 -118 71 -195.5t185 -77.5t184 77t70 196t-70 195.5t-184 76.5t-185 -77t-71 -195z" />
<glyph unicode="&#xa5;" horiz-adv-x="1148" d="M10 1413h123l442 -711l441 711h123l-477 -774h274v-98h-301v-252h301v-101h-301v-170h-121v170h-303v101h303v252h-303v96h274z" />
<glyph unicode="&#xa6;" horiz-adv-x="495" d="M201 -156v643h94v-643h-94zM201 758v655h94v-655h-94z" />
<glyph unicode="&#xa7;" horiz-adv-x="1026" d="M131 260l105 37q54 -199 294 -199q65 0 117.5 13.5t91.5 52.5t39 100q0 56 -33 92t-85.5 53.5t-116.5 30.5t-128 29.5t-116.5 42.5t-85.5 77.5t-33 127.5q0 144 109 229q-107 65 -107 201q0 131 101.5 209t240.5 78q131 0 233 -73t136 -212l-127 -14q-22 93 -87.5 136.5 t-156.5 43.5q-99 0 -162 -47t-63 -123q0 -52 33 -86t85.5 -50.5t116.5 -28.5t128 -29t116.5 -43.5t85.5 -80t33 -131.5q0 -146 -100 -223q100 -69 100 -205q0 -96 -53.5 -162.5t-133.5 -95t-178 -28.5q-148 0 -252.5 70.5t-146.5 207.5zM297 733q0 -48 27 -83t73.5 -55 t90.5 -32t98.5 -23t75.5 -18q116 49 116 168q0 42 -20 75.5t-49 53t-71.5 35t-77.5 22.5t-78 15.5t-62 13.5q-60 -24 -91.5 -71.5t-31.5 -100.5z" />
<glyph unicode="&#xa9;" horiz-adv-x="1675" d="M94 707q0 154 59 294t158.5 241t237 160.5t287.5 59.5q202 0 373.5 -101t271.5 -275t100 -379q0 -154 -59 -294t-159 -241t-238 -161t-289 -60q-150 0 -287.5 60t-237 161t-158.5 241t-59 294zM195 707q0 -174 87.5 -325.5t235.5 -241t318 -89.5q129 0 248.5 53 t205.5 142t137.5 210t51.5 251q0 174 -86.5 325t-235 240.5t-321.5 89.5q-127 0 -245.5 -53t-205 -141.5t-138.5 -209.5t-52 -251zM510 705q0 172 89.5 283.5t254.5 111.5q96 0 177 -46.5t120 -127.5l-96 -43q-24 55 -79 85.5t-122 30.5q-121 0 -183.5 -85t-62.5 -209 q0 -123 61.5 -208t182.5 -85q65 0 121 30t80 86l98 -43q-39 -81 -120 -128.5t-177 -47.5q-165 0 -254.5 111.5t-89.5 284.5z" />
<glyph unicode="&#xaa;" horiz-adv-x="700" d="M63 922q0 129 138 174q28 9 61.5 16.5t76.5 15.5t58 11q60 16 94.5 40t34.5 66q0 49 -44.5 79t-116.5 30q-65 0 -121.5 -27.5t-91.5 -77.5l-70 49q102 136 280 136q106 0 177 -53t71 -150v-365l19 -127h-84l-15 117h-8q-27 -59 -88 -95t-145 -36q-103 0 -164.5 54 t-61.5 143zM156 922q0 -54 40.5 -84.5t104.5 -30.5q39 0 75.5 12t71.5 38t56.5 76t21.5 118v71h-6q-36 -30 -91 -47.5t-114.5 -29.5t-85.5 -23q-73 -28 -73 -100z" />
<glyph unicode="&#xab;" horiz-adv-x="1028" d="M154 512l354 317v-147l-197 -170l197 -172v-150zM516 512l354 317v-147l-196 -170l196 -172v-150z" />
<glyph unicode="&#xac;" horiz-adv-x="1159" d="M150 682v115h860v-506h-115v391h-745z" />
<glyph unicode="&#xad;" horiz-adv-x="618" d="M61 469v84h496v-84h-496z" />
<glyph unicode="&#xae;" horiz-adv-x="1259" d="M100 893q0 147 70.5 271.5t192.5 197t266 72.5t266 -72.5t193 -197t71 -271.5t-71 -271.5t-193 -197t-266 -72.5t-266 72.5t-192.5 197t-70.5 271.5zM172 893q0 -123 62 -230t167.5 -170t227.5 -63t227.5 63t168 170t62.5 230t-62.5 230.5t-168 171t-227.5 63.5 t-227.5 -63.5t-167.5 -171t-62 -230.5zM451 606v563h217q94 0 143 -42t49 -119q0 -68 -33.5 -107t-83.5 -51l144 -244h-109l-127 236h-106v-236h-94zM537 922h131q106 0 106 86t-106 86h-131v-172z" />
<glyph unicode="&#xb0;" horiz-adv-x="747" d="M82 1143q0 121 85.5 206t205.5 85q122 0 207.5 -85t85.5 -206q0 -123 -85.5 -208t-207.5 -85q-121 0 -206 85t-85 208zM182 1143q0 -81 56 -137t135 -56t135.5 56t56.5 137q0 79 -57 135.5t-135 56.5t-134.5 -56.5t-56.5 -135.5z" />
<glyph unicode="&#xb1;" horiz-adv-x="1308" d="M150 578v94h456v471h96v-471h457v-94h-457v-472h-96v472h-456zM152 0h1007v-96h-1007v96z" />
<glyph unicode="&#xb5;" horiz-adv-x="995" d="M168 -266v1265h139v-598q0 -59 9.5 -108.5t32 -95t66 -71.5t105.5 -26q126 0 216.5 98t90.5 228v573h140v-999h-140v186q-32 -78 -121.5 -143.5t-201.5 -65.5q-110 0 -195 58l-22 -301h-119z" />
<glyph unicode="&#xb6;" horiz-adv-x="1101" d="M82 1018q0 120 65.5 212t167 137.5t220.5 45.5h108v-1700h-108v910q-119 0 -220.5 45.5t-167 137.5t-65.5 212zM823 -287v1700h111v-1700h-111z" />
<glyph unicode="&#xb7;" horiz-adv-x="489" d="M125 831q0 49 33.5 83t83.5 34q51 0 87 -34t36 -83q0 -51 -36 -86.5t-87 -35.5q-48 0 -82.5 35.5t-34.5 86.5z" />
<glyph unicode="&#xba;" horiz-adv-x="784" d="M63 1077q0 152 92.5 256.5t235.5 104.5q144 0 237 -104.5t93 -256.5q0 -153 -93 -257.5t-237 -104.5q-143 0 -235.5 104.5t-92.5 257.5zM174 1079q0 -119 53.5 -197.5t163.5 -78.5q111 0 165 78.5t54 197.5q0 55 -12.5 103t-37.5 87t-68.5 62t-100.5 23q-109 0 -163 -79 t-54 -196z" />
<glyph unicode="&#xbb;" horiz-adv-x="1028" d="M154 190v150l196 172l-196 170v147l354 -317zM516 190v150l197 172l-197 170v147l354 -317z" />
<glyph unicode="&#xbf;" horiz-adv-x="882" d="M82 -80q0 67 19 119t48.5 83t66 55.5t73 44t66 40t48.5 52t19 73.5v246h119v-248q0 -57 -18.5 -99t-48 -67t-65 -45l-71 -40t-65 -45.5t-48 -69.5t-18.5 -103q0 -116 77 -175.5t195 -59.5q71 0 132.5 26.5t102.5 82t42 130.5h127q-1 -106 -56.5 -188t-145 -124 t-194.5 -42q-176 0 -290.5 93.5t-114.5 260.5zM389 823v176h178v-176h-178z" />
<glyph unicode="&#xc0;" horiz-adv-x="1140" d="M12 0l467 1413h189l465 -1413h-146l-102 322h-629l-100 -322h-144zM236 1827h188l215 -271h-129zM293 436h557l-258 813q-17 57 -19 70h-4q-1 -6 -20 -70z" />
<glyph unicode="&#xc1;" horiz-adv-x="1140" d="M12 0l467 1413h189l465 -1413h-146l-102 322h-629l-100 -322h-144zM293 436h557l-258 813q-17 57 -19 70h-4q-1 -6 -20 -70zM520 1559l217 268h187l-295 -268h-109z" />
<glyph unicode="&#xc2;" horiz-adv-x="1140" d="M12 0l467 1413h189l465 -1413h-146l-102 322h-629l-100 -322h-144zM293 436h557l-258 813q-17 57 -19 70h-4q-1 -6 -20 -70zM305 1497l258 322h23l260 -322h-117l-154 186l-151 -186h-119z" />
<glyph unicode="&#xc3;" horiz-adv-x="1140" d="M12 0l467 1413h189l465 -1413h-146l-102 322h-629l-100 -322h-144zM227 1608q0 98 43 158.5t127 60.5q53 0 97.5 -16.5t73.5 -40t54.5 -47t54 -40t58.5 -16.5q56 0 76 39.5t20 116.5h91q0 -118 -51.5 -178t-149.5 -60q-50 0 -97.5 24t-78.5 53t-71 53t-77 24 q-92 0 -88 -131h-82zM293 436h557l-258 813q-17 57 -19 70h-4q-1 -6 -20 -70z" />
<glyph unicode="&#xc4;" horiz-adv-x="1140" d="M12 0l467 1413h189l465 -1413h-146l-102 322h-629l-100 -322h-144zM293 436h557l-258 813q-17 57 -19 70h-4q-1 -6 -20 -70zM344 1642v185h141v-185h-141zM664 1642v185h141v-185h-141z" />
<glyph unicode="&#xc5;" horiz-adv-x="1140" d="M12 0l449 1356q-80 57 -80 157q0 79 56 135t136 56q79 0 136 -55t57 -136q0 -97 -80 -157l447 -1356h-146l-102 322h-629l-100 -322h-144zM293 436h557l-258 813q-17 57 -19 70h-4q-1 -6 -20 -70zM475 1511q0 -44 28 -71t70 -27q40 0 70.5 28.5t30.5 69.5 q0 42 -29.5 71.5t-71.5 29.5q-44 0 -71 -27.5t-27 -73.5z" />
<glyph unicode="&#xc6;" horiz-adv-x="1757" d="M12 0l525 1413h1110v-119h-748v-528h662v-119h-662v-520h748v-127h-889v311h-473l-113 -311h-160zM332 442h426v840h-123z" />
<glyph unicode="&#xc7;" horiz-adv-x="1347" d="M94 707q0 171 47.5 309.5t133 230t203 140.5t257.5 49q184 0 338.5 -103t212.5 -268l-110 -53q-49 136 -164.5 215.5t-278.5 79.5q-231 0 -368.5 -160.5t-137.5 -429.5q0 -277 139 -442.5t373 -165.5q148 0 266 80.5t171 213.5l110 -51q-50 -148 -181 -248t-294 -120 l-72 -115q102 -28 149.5 -68t47.5 -100q0 -85 -57.5 -143t-130.5 -58q-60 0 -105.5 34t-67.5 87l78 43q6 -31 31.5 -54.5t60.5 -23.5q39 0 69 30t30 73q0 65 -96 98l-111 37l82 156q-138 3 -252.5 53.5t-197.5 142t-129 227.5t-46 304z" />
<glyph unicode="&#xc8;" horiz-adv-x="1224" d="M205 0v1413h909v-123h-774v-522h676v-123h-676v-522h774v-123h-909zM322 1827h188l215 -271h-129z" />
<glyph unicode="&#xc9;" horiz-adv-x="1224" d="M205 0v1413h909v-123h-774v-522h676v-123h-676v-522h774v-123h-909zM606 1559l217 268h187l-295 -268h-109z" />
<glyph unicode="&#xca;" horiz-adv-x="1224" d="M205 0v1413h909v-123h-774v-522h676v-123h-676v-522h774v-123h-909zM391 1497l258 322h23l260 -322h-117l-153 186l-152 -186h-119z" />
<glyph unicode="&#xcb;" horiz-adv-x="1224" d="M205 0v1413h909v-123h-774v-522h676v-123h-676v-522h774v-123h-909zM430 1642v185h141v-185h-141zM750 1642v185h141v-185h-141z" />
<glyph unicode="&#xcc;" horiz-adv-x="544" d="M-66 1827h189l215 -271h-129zM205 0v1413h135v-1413h-135z" />
<glyph unicode="&#xcd;" horiz-adv-x="544" d="M205 0v1413h135v-1413h-135zM219 1559l217 268h187l-295 -268h-109z" />
<glyph unicode="&#xce;" horiz-adv-x="544" d="M4 1497l258 322h23l260 -322h-117l-154 186l-151 -186h-119zM205 0v1413h135v-1413h-135z" />
<glyph unicode="&#xcf;" horiz-adv-x="544" d="M43 1642v185h141v-185h-141zM205 0v1413h135v-1413h-135zM362 1642v185h142v-185h-142z" />
<glyph unicode="&#xd0;" horiz-adv-x="1327" d="M68 657v111h112v645h355q342 0 522 -183.5t180 -533.5q0 -336 -183 -516t-522 -180h-352v657h-112zM326 131h182q101 0 187.5 21t159.5 66.5t125 112.5t81 162.5t29 213.5q0 283 -140.5 430t-419.5 147h-204v-516h360v-111h-360v-526z" />
<glyph unicode="&#xd1;" horiz-adv-x="1478" d="M205 0v1413h211l665 -1188l47 -84h11v1272h135v-1413h-215l-656 1169q-33 60 -57 117h-6v-1286h-135zM393 1608q0 98 43 158.5t127 60.5q53 0 97.5 -16.5t73.5 -40t54.5 -47t54 -40t58.5 -16.5q56 0 76 39.5t20 116.5h90q0 -118 -51.5 -178t-148.5 -60q-50 0 -97.5 24 t-78.5 53t-71 53t-77 24q-92 0 -88 -131h-82z" />
<glyph unicode="&#xd2;" horiz-adv-x="1449" d="M94 707q0 333 171.5 530t461.5 197q287 0 458 -197t171 -530t-171 -530t-458 -197q-290 0 -461.5 197t-171.5 530zM223 707q0 -276 136 -438.5t368 -162.5q229 0 364.5 163t135.5 438t-135.5 437.5t-364.5 162.5q-232 0 -368 -162.5t-136 -437.5zM387 1827h188l216 -271 h-129z" />
<glyph unicode="&#xd3;" horiz-adv-x="1449" d="M94 707q0 333 171.5 530t461.5 197q287 0 458 -197t171 -530t-171 -530t-458 -197q-290 0 -461.5 197t-171.5 530zM223 707q0 -276 136 -438.5t368 -162.5q229 0 364.5 163t135.5 438t-135.5 437.5t-364.5 162.5q-232 0 -368 -162.5t-136 -437.5zM672 1559l217 268h186 l-295 -268h-108z" />
<glyph unicode="&#xd4;" horiz-adv-x="1449" d="M94 707q0 333 171.5 530t461.5 197q287 0 458 -197t171 -530t-171 -530t-458 -197q-290 0 -461.5 197t-171.5 530zM223 707q0 -276 136 -438.5t368 -162.5q229 0 364.5 163t135.5 438t-135.5 437.5t-364.5 162.5q-232 0 -368 -162.5t-136 -437.5zM457 1497l258 322h22 l260 -322h-116l-154 186l-152 -186h-118z" />
<glyph unicode="&#xd5;" horiz-adv-x="1449" d="M94 707q0 333 171.5 530t461.5 197q287 0 458 -197t171 -530t-171 -530t-458 -197q-290 0 -461.5 197t-171.5 530zM223 707q0 -276 136 -438.5t368 -162.5q229 0 364.5 163t135.5 438t-135.5 437.5t-364.5 162.5q-232 0 -368 -162.5t-136 -437.5zM379 1608q0 98 43 158.5 t127 60.5q53 0 97.5 -16.5t73.5 -40t54.5 -47t54 -40t58.5 -16.5q56 0 76 39.5t20 116.5h90q0 -118 -51.5 -178t-149.5 -60q-50 0 -97.5 24t-78 53t-70.5 53t-77 24q-92 0 -88 -131h-82z" />
<glyph unicode="&#xd6;" horiz-adv-x="1449" d="M94 707q0 333 171.5 530t461.5 197q287 0 458 -197t171 -530t-171 -530t-458 -197q-290 0 -461.5 197t-171.5 530zM223 707q0 -276 136 -438.5t368 -162.5q229 0 364.5 163t135.5 438t-135.5 437.5t-364.5 162.5q-232 0 -368 -162.5t-136 -437.5zM496 1642v185h141v-185 h-141zM815 1642v185h141v-185h-141z" />
<glyph unicode="&#xd7;" horiz-adv-x="970" d="M82 295l330 330l-326 323l74 74l325 -324l330 330l74 -74l-330 -329l324 -324l-76 -74l-324 324l-327 -330z" />
<glyph unicode="&#xd8;" horiz-adv-x="1449" d="M82 123l129 129q-117 183 -117 455q0 333 171.5 530t461.5 197q291 0 463 -203l123 123l61 -64l-131 -131q113 -187 113 -452q0 -333 -171 -530t-458 -197q-293 0 -465 200l-121 -121zM223 707q0 -212 82 -361l791 791q-134 170 -369 170q-232 0 -368 -162.5t-136 -437.5 zM356 272q135 -166 371 -166q229 0 364.5 163t135.5 438q0 205 -80 356z" />
<glyph unicode="&#xd9;" horiz-adv-x="1323" d="M180 487v926h135v-932q0 -177 93 -278t256 -101q160 0 252 101t92 278v932h135v-915q0 -243 -129 -380.5t-350 -137.5q-224 0 -354 134.5t-130 372.5zM322 1827h188l215 -271h-129z" />
<glyph unicode="&#xda;" horiz-adv-x="1323" d="M180 487v926h135v-932q0 -177 93 -278t256 -101q160 0 252 101t92 278v932h135v-915q0 -243 -129 -380.5t-350 -137.5q-224 0 -354 134.5t-130 372.5zM606 1559l217 268h187l-295 -268h-109z" />
<glyph unicode="&#xdb;" horiz-adv-x="1323" d="M180 487v926h135v-932q0 -177 93 -278t256 -101q160 0 252 101t92 278v932h135v-915q0 -243 -129 -380.5t-350 -137.5q-224 0 -354 134.5t-130 372.5zM391 1497l258 322h23l260 -322h-117l-153 186l-152 -186h-119z" />
<glyph unicode="&#xdc;" horiz-adv-x="1323" d="M180 487v926h135v-932q0 -177 93 -278t256 -101q160 0 252 101t92 278v932h135v-915q0 -243 -129 -380.5t-350 -137.5q-224 0 -354 134.5t-130 372.5zM430 1642v185h141v-185h-141zM750 1642v185h141v-185h-141z" />
<glyph unicode="&#xdd;" horiz-adv-x="1325" d="M10 1413h162l485 -739l496 739h162l-586 -860v-553h-137v553zM608 1559l217 268h187l-295 -268h-109z" />
<glyph unicode="&#xde;" horiz-adv-x="1099" d="M205 0v1413h143v-215h232q212 0 335 -101t123 -276q0 -182 -121 -280.5t-337 -98.5h-232v-442h-143zM348 569h232q153 0 234 63t81 185q0 121 -82 187.5t-233 66.5h-232v-502z" />
<glyph unicode="&#xdf;" horiz-adv-x="1118" d="M172 0v1073q0 164 110.5 262.5t272.5 98.5q159 0 277 -91t118 -227q0 -57 -24 -99t-58 -67t-67.5 -48t-57.5 -55t-24 -75q0 -48 32.5 -89.5t78.5 -76.5t92.5 -73.5t79 -98.5t32.5 -135q0 -138 -94 -227.5t-235 -89.5q-87 0 -203 38v136q113 -52 200 -52q80 0 131.5 50 t51.5 129q0 46 -16 85t-42 67.5t-57.5 55.5t-62.5 55t-57 59.5t-42 75t-16 95.5q0 45 12 79.5t31 56.5t42 40.5t45.5 35t41.5 35t31 47t12 65.5q0 86 -63 137t-169 51q-127 0 -197.5 -69.5t-70.5 -184.5v-1069h-135z" />
<glyph unicode="&#xe0;" horiz-adv-x="1044" d="M92 268q0 100 52.5 160.5t150.5 93.5q54 18 162.5 39t124.5 25q87 22 137.5 57.5t50.5 97.5q0 72 -65 115t-170 43q-97 0 -179.5 -39t-134.5 -112l-102 69q72 96 178.5 147.5t232.5 51.5q156 0 259.5 -77t103.5 -218v-535l29 -186h-123l-23 170h-10q-41 -86 -130.5 -138 t-213.5 -52q-151 0 -240.5 78t-89.5 210zM178 1413h189l215 -270h-129zM229 266q0 -79 59 -122.5t152 -43.5q44 0 87 10t88 35.5t78.5 64t55 102.5t21.5 145v104h-8q-52 -44 -132 -70t-168 -43.5t-126 -33.5q-107 -45 -107 -148z" />
<glyph unicode="&#xe1;" horiz-adv-x="1044" d="M92 268q0 100 52.5 160.5t150.5 93.5q54 18 162.5 39t124.5 25q87 22 137.5 57.5t50.5 97.5q0 72 -65 115t-170 43q-97 0 -179.5 -39t-134.5 -112l-102 69q72 96 178.5 147.5t232.5 51.5q156 0 259.5 -77t103.5 -218v-535l29 -186h-123l-23 170h-10q-41 -86 -130.5 -138 t-213.5 -52q-151 0 -240.5 78t-89.5 210zM229 266q0 -79 59 -122.5t152 -43.5q44 0 87 10t88 35.5t78.5 64t55 102.5t21.5 145v104h-8q-52 -44 -132 -70t-168 -43.5t-126 -33.5q-107 -45 -107 -148zM463 1145l217 268h186l-295 -268h-108z" />
<glyph unicode="&#xe2;" horiz-adv-x="1044" d="M92 268q0 100 52.5 160.5t150.5 93.5q54 18 162.5 39t124.5 25q87 22 137.5 57.5t50.5 97.5q0 72 -65 115t-170 43q-97 0 -179.5 -39t-134.5 -112l-102 69q72 96 178.5 147.5t232.5 51.5q156 0 259.5 -77t103.5 -218v-535l29 -186h-123l-23 170h-10q-41 -86 -130.5 -138 t-213.5 -52q-151 0 -240.5 78t-89.5 210zM229 266q0 -79 59 -122.5t152 -43.5q44 0 87 10t88 35.5t78.5 64t55 102.5t21.5 145v104h-8q-52 -44 -132 -70t-168 -43.5t-126 -33.5q-107 -45 -107 -148zM248 1083l258 322h22l260 -322h-116l-154 187l-151 -187h-119z" />
<glyph unicode="&#xe3;" horiz-adv-x="1044" d="M92 268q0 100 52.5 160.5t150.5 93.5q54 18 162.5 39t124.5 25q87 22 137.5 57.5t50.5 97.5q0 72 -65 115t-170 43q-97 0 -179.5 -39t-134.5 -112l-102 69q72 96 178.5 147.5t232.5 51.5q156 0 259.5 -77t103.5 -218v-535l29 -186h-123l-23 170h-10q-41 -86 -130.5 -138 t-213.5 -52q-151 0 -240.5 78t-89.5 210zM170 1194q0 98 43 158.5t127 60.5q53 0 97.5 -16.5t73.5 -40t54.5 -47t54 -40t58.5 -16.5q56 0 76 39.5t20 116.5h90q0 -118 -51.5 -178t-148.5 -60q-50 0 -97.5 24t-78.5 53t-71 53t-77 24q-92 0 -88 -131h-82zM229 266 q0 -79 59 -122.5t152 -43.5q44 0 87 10t88 35.5t78.5 64t55 102.5t21.5 145v104h-8q-52 -44 -132 -70t-168 -43.5t-126 -33.5q-107 -45 -107 -148z" />
<glyph unicode="&#xe4;" horiz-adv-x="1044" d="M92 268q0 100 52.5 160.5t150.5 93.5q54 18 162.5 39t124.5 25q87 22 137.5 57.5t50.5 97.5q0 72 -65 115t-170 43q-97 0 -179.5 -39t-134.5 -112l-102 69q72 96 178.5 147.5t232.5 51.5q156 0 259.5 -77t103.5 -218v-535l29 -186h-123l-23 170h-10q-41 -86 -130.5 -138 t-213.5 -52q-151 0 -240.5 78t-89.5 210zM229 266q0 -79 59 -122.5t152 -43.5q44 0 87 10t88 35.5t78.5 64t55 102.5t21.5 145v104h-8q-52 -44 -132 -70t-168 -43.5t-126 -33.5q-107 -45 -107 -148zM287 1229v184h141v-184h-141zM606 1229v184h142v-184h-142z" />
<glyph unicode="&#xe5;" horiz-adv-x="1044" d="M92 268q0 100 52.5 160.5t150.5 93.5q54 18 162.5 39t124.5 25q87 22 137.5 57.5t50.5 97.5q0 72 -65 115t-170 43q-97 0 -179.5 -39t-134.5 -112l-102 69q72 96 178.5 147.5t232.5 51.5q156 0 259.5 -77t103.5 -218v-535l29 -186h-123l-23 170h-10q-41 -86 -130.5 -138 t-213.5 -52q-151 0 -240.5 78t-89.5 210zM229 266q0 -79 59 -122.5t152 -43.5q44 0 87 10t88 35.5t78.5 64t55 102.5t21.5 145v104h-8q-52 -44 -132 -70t-168 -43.5t-126 -33.5q-107 -45 -107 -148zM324 1270q0 79 56 134.5t136 55.5q79 0 136 -54.5t57 -135.5 q0 -80 -57 -137.5t-136 -57.5q-81 0 -136.5 56.5t-55.5 138.5zM418 1268q0 -44 28 -71.5t70 -27.5q40 0 70 29t30 70q0 42 -29 71t-71 29q-44 0 -71 -27t-27 -73z" />
<glyph unicode="&#xe6;" horiz-adv-x="1724" d="M92 268q0 95 49 162t138 98q32 12 72.5 19t70.5 9t79.5 4.5t73.5 4.5q43 3 71.5 10t57.5 23t43.5 46.5t14.5 76.5q0 87 -55 140.5t-168 53.5q-105 0 -188 -44t-124 -105l-86 72q89 92 179 137t217 45q139 0 216 -56.5t103 -175.5q115 224 377 224q95 0 169 -32t118 -82 t72.5 -120.5t39 -139.5t10.5 -146l-2 -43h-714q6 -71 26.5 -130t59.5 -108.5t102.5 -77t147.5 -27.5q168 0 272 91l72 -86q-139 -123 -344 -123q-170 0 -277.5 78.5t-153.5 209.5q-129 -296 -411 -296q-156 0 -242 80t-86 208zM201 272q-5 -77 46 -126.5t146 -53.5 q155 -6 266.5 110t135.5 283v15q0 37 2 57q-40 -47 -119 -66t-180.5 -26.5t-145.5 -20.5q-70 -20 -109 -66t-42 -106zM922 555h600q-5 154 -79 247t-216 93q-79 0 -138.5 -29t-94 -79t-52 -107.5t-20.5 -124.5z" />
<glyph unicode="&#xe7;" horiz-adv-x="958" d="M82 498q0 105 27 197.5t78 164.5t133 114t184 42q130 0 229 -67t154 -189l-111 -45q-34 88 -107 138t-165 50q-78 0 -137 -37t-91.5 -98t-48.5 -129t-16 -141t16 -141.5t48.5 -129.5t91.5 -98t137 -37q95 0 168 53t108 136l107 -43q-46 -105 -124.5 -170t-180.5 -82 l-74 -117q102 -28 149.5 -68t47.5 -100q0 -85 -58 -143t-131 -58q-60 0 -105 34t-67 87l78 43q6 -31 31.5 -54.5t60.5 -23.5q39 0 68.5 30t29.5 73q0 65 -96 98l-110 37l81 156q-98 4 -176.5 47.5t-127.5 115t-75 162.5t-26 193z" />
<glyph unicode="&#xe8;" horiz-adv-x="1011" d="M82 500q0 78 14.5 149.5t48 138.5t83 116t124.5 78.5t168 29.5q95 0 169 -32t118.5 -82t73 -120.5t39 -139.5t10.5 -146l-2 -43h-715q6 -71 26.5 -130t59.5 -108.5t102.5 -77t147.5 -27.5q168 0 272 91l72 -86q-139 -123 -344 -123q-98 0 -177.5 28.5t-132.5 76.5 t-89 114t-52 139t-16 154zM162 1413h188l215 -270h-129zM209 555h600q-5 154 -79 247t-216 93q-79 0 -138.5 -29t-94 -79t-52 -107.5t-20.5 -124.5z" />
<glyph unicode="&#xe9;" horiz-adv-x="1011" d="M82 500q0 78 14.5 149.5t48 138.5t83 116t124.5 78.5t168 29.5q95 0 169 -32t118.5 -82t73 -120.5t39 -139.5t10.5 -146l-2 -43h-715q6 -71 26.5 -130t59.5 -108.5t102.5 -77t147.5 -27.5q168 0 272 91l72 -86q-139 -123 -344 -123q-98 0 -177.5 28.5t-132.5 76.5 t-89 114t-52 139t-16 154zM209 555h600q-5 154 -79 247t-216 93q-79 0 -138.5 -29t-94 -79t-52 -107.5t-20.5 -124.5zM446 1145l218 268h186l-295 -268h-109z" />
<glyph unicode="&#xea;" horiz-adv-x="1011" d="M82 500q0 78 14.5 149.5t48 138.5t83 116t124.5 78.5t168 29.5q95 0 169 -32t118.5 -82t73 -120.5t39 -139.5t10.5 -146l-2 -43h-715q6 -71 26.5 -130t59.5 -108.5t102.5 -77t147.5 -27.5q168 0 272 91l72 -86q-139 -123 -344 -123q-98 0 -177.5 28.5t-132.5 76.5 t-89 114t-52 139t-16 154zM209 555h600q-5 154 -79 247t-216 93q-79 0 -138.5 -29t-94 -79t-52 -107.5t-20.5 -124.5zM231 1083l258 322h23l260 -322h-117l-153 187l-152 -187h-119z" />
<glyph unicode="&#xeb;" horiz-adv-x="1011" d="M82 500q0 78 14.5 149.5t48 138.5t83 116t124.5 78.5t168 29.5q95 0 169 -32t118.5 -82t73 -120.5t39 -139.5t10.5 -146l-2 -43h-715q6 -71 26.5 -130t59.5 -108.5t102.5 -77t147.5 -27.5q168 0 272 91l72 -86q-139 -123 -344 -123q-98 0 -177.5 28.5t-132.5 76.5 t-89 114t-52 139t-16 154zM209 555h600q-5 154 -79 247t-216 93q-79 0 -138.5 -29t-94 -79t-52 -107.5t-20.5 -124.5zM270 1229v184h142v-184h-142zM590 1229v184h141v-184h-141z" />
<glyph unicode="&#xec;" horiz-adv-x="460" d="M-111 1413h189l215 -270h-129zM168 0v999h125v-999h-125z" />
<glyph unicode="&#xed;" horiz-adv-x="460" d="M168 0v999h125v-999h-125zM174 1145l217 268h187l-295 -268h-109z" />
<glyph unicode="&#xee;" horiz-adv-x="460" d="M-41 1083l258 322h23l260 -322h-117l-154 187l-151 -187h-119zM168 0v999h125v-999h-125z" />
<glyph unicode="&#xef;" horiz-adv-x="460" d="M-2 1229v184h141v-184h-141zM168 0v999h125v-999h-125zM317 1229v184h142v-184h-142z" />
<glyph unicode="&#xf0;" horiz-adv-x="1118" d="M88 516q0 84 20 163t60 146t95.5 117t132 78.5t163.5 28.5q81 0 152.5 -35t103.5 -86q-22 126 -92.5 211t-190.5 155l-92 -141l-69 43l90 135q-56 31 -172 82l67 103q105 -40 176 -76l80 119l66 -39l-76 -117q122 -69 204 -154.5t130.5 -195.5t69 -238.5t20.5 -298.5 q0 -106 -31.5 -201.5t-89.5 -169.5t-147.5 -117.5t-198.5 -43.5q-88 0 -164 28.5t-131.5 78t-95.5 116.5t-60 146t-20 163zM221 516q0 -80 20 -151t59.5 -129t106 -92.5t152.5 -34.5t152.5 34.5t105.5 93t58.5 129t19.5 150.5q0 82 -20.5 154t-60.5 129.5t-105.5 91 t-149.5 33.5q-86 0 -152.5 -34.5t-106 -93t-59.5 -129.5t-20 -151z" />
<glyph unicode="&#xf1;" d="M168 0v999h129v-153h8q46 79 119 123.5t168 44.5q155 0 243.5 -98t88.5 -269v-647h-127v635q0 264 -211 264q-128 0 -209.5 -86t-81.5 -225v-588h-127zM174 1196q0 98 43 158.5t127 60.5q53 0 97.5 -16.5t73.5 -40t54.5 -47t54 -40t58.5 -16.5q56 0 76 39.5t20 116.5h90 q0 -118 -51 -177.5t-149 -59.5q-50 0 -97.5 24t-78.5 52.5t-71 52.5t-77 24q-92 0 -88 -131h-82z" />
<glyph unicode="&#xf2;" horiz-adv-x="1052" d="M82 496q0 245 121 380.5t321 135.5q199 0 323 -136t124 -380t-124 -380t-323 -136q-200 0 -321 135.5t-121 380.5zM184 1413h189l215 -270h-129zM207 496q0 -197 84.5 -298.5t234.5 -101.5t235 101.5t85 298.5t-85 299t-235 102t-234.5 -102t-84.5 -299z" />
<glyph unicode="&#xf3;" horiz-adv-x="1052" d="M82 496q0 245 121 380.5t321 135.5q199 0 323 -136t124 -380t-124 -380t-323 -136q-200 0 -321 135.5t-121 380.5zM207 496q0 -197 84.5 -298.5t234.5 -101.5t235 101.5t85 298.5t-85 299t-235 102t-234.5 -102t-84.5 -299zM469 1145l217 268h186l-294 -268h-109z" />
<glyph unicode="&#xf4;" horiz-adv-x="1052" d="M82 496q0 245 121 380.5t321 135.5q199 0 323 -136t124 -380t-124 -380t-323 -136q-200 0 -321 135.5t-121 380.5zM207 496q0 -197 84.5 -298.5t234.5 -101.5t235 101.5t85 298.5t-85 299t-235 102t-234.5 -102t-84.5 -299zM254 1083l258 322h23l260 -322h-117l-154 187 l-151 -187h-119z" />
<glyph unicode="&#xf5;" horiz-adv-x="1052" d="M82 496q0 245 121 380.5t321 135.5q199 0 323 -136t124 -380t-124 -380t-323 -136q-200 0 -321 135.5t-121 380.5zM176 1194q0 98 43 158.5t127 60.5q53 0 97.5 -16.5t73.5 -40t54.5 -47t54 -40t58.5 -16.5q56 0 76 39.5t20 116.5h90q0 -118 -51.5 -178t-148.5 -60 q-50 0 -97.5 24t-78.5 53t-71 53t-77 24q-92 0 -88 -131h-82zM207 496q0 -197 84.5 -298.5t234.5 -101.5t235 101.5t85 298.5t-85 299t-235 102t-234.5 -102t-84.5 -299z" />
<glyph unicode="&#xf6;" horiz-adv-x="1052" d="M82 496q0 245 121 380.5t321 135.5q199 0 323 -136t124 -380t-124 -380t-323 -136q-200 0 -321 135.5t-121 380.5zM207 496q0 -197 84.5 -298.5t234.5 -101.5t235 101.5t85 298.5t-85 299t-235 102t-234.5 -102t-84.5 -299zM293 1229v184h141v-184h-141zM612 1229v184 h142v-184h-142z" />
<glyph unicode="&#xf7;" horiz-adv-x="897" d="M150 428v96h598v-96h-598zM358 -10v176h179v-176h-179zM358 768v176h179v-176h-179z" />
<glyph unicode="&#xf8;" horiz-adv-x="1052" d="M70 88l88 88q-76 127 -76 320q0 245 121 380.5t321 135.5q205 0 328 -142l84 84l43 -45l-90 -90q82 -127 82 -323q0 -244 -124 -380t-323 -136q-211 0 -329 145l-82 -82zM207 496q0 -141 43 -228l518 518q-82 111 -242 111q-150 0 -234.5 -102t-84.5 -299zM281 211 q83 -115 245 -115q150 0 235 101.5t85 298.5q0 140 -45 235z" />
<glyph unicode="&#xf9;" d="M147 352v647h127v-634q0 -254 211 -254q128 0 209.5 84.5t81.5 216.5v587h127v-999h-129v154h-14q-97 -168 -281 -168q-155 0 -243.5 98t-88.5 268zM186 1413h189l215 -270h-129z" />
<glyph unicode="&#xfa;" d="M147 352v647h127v-634q0 -254 211 -254q128 0 209.5 84.5t81.5 216.5v587h127v-999h-129v154h-14q-97 -168 -281 -168q-155 0 -243.5 98t-88.5 268zM471 1145l217 268h186l-294 -268h-109z" />
<glyph unicode="&#xfb;" d="M147 352v647h127v-634q0 -254 211 -254q128 0 209.5 84.5t81.5 216.5v587h127v-999h-129v154h-14q-97 -168 -281 -168q-155 0 -243.5 98t-88.5 268zM256 1083l258 322h23l260 -322h-117l-154 187l-151 -187h-119z" />
<glyph unicode="&#xfc;" d="M147 352v647h127v-634q0 -254 211 -254q128 0 209.5 84.5t81.5 216.5v587h127v-999h-129v154h-14q-97 -168 -281 -168q-155 0 -243.5 98t-88.5 268zM295 1229v184h141v-184h-141zM614 1229v184h142v-184h-142z" />
<glyph unicode="&#xfd;" horiz-adv-x="851" d="M31 999h139l236 -731q24 -70 24 -121h6q0 33 25 123l233 729h137l-374 -1128q-35 -105 -99.5 -155t-164.5 -50h-127v111h139q95 0 127 96l43 129zM373 1145l217 268h186l-295 -268h-108z" />
<glyph unicode="&#xfe;" horiz-adv-x="1112" d="M168 -334v1747h127v-539h10q57 70 130 108t177 38q123 0 214.5 -70t136.5 -186.5t45 -263.5t-45 -263.5t-136.5 -186.5t-214.5 -70q-192 0 -309 145h-6v-459h-129zM283 500q0 -83 17.5 -155t52 -130t92.5 -91.5t133 -33.5q101 0 171.5 59t101 149t30.5 202q0 82 -18 154 t-54 129t-95.5 90.5t-135.5 33.5q-99 0 -167.5 -58.5t-98 -148t-29.5 -200.5z" />
<glyph unicode="&#xff;" horiz-adv-x="851" d="M31 999h139l236 -731q24 -70 24 -121h6q0 33 25 123l233 729h137l-374 -1128q-35 -105 -99.5 -155t-164.5 -50h-127v111h139q95 0 127 96l43 129zM197 1229v184h141v-184h-141zM516 1229v184h141v-184h-141z" />
<glyph unicode="&#x152;" horiz-adv-x="2195" d="M92 707q0 152 38.5 281.5t113.5 230t196.5 158t276.5 57.5q170 0 280 -59.5t183 -188.5h37v227h868v-119h-748v-528h660v-119h-660v-520h748v-127h-868v219h-43q-74 -125 -182 -182t-275 -57q-155 0 -276.5 57.5t-196.5 158.5t-113.5 230.5t-38.5 280.5zM227 707 q0 -96 17 -183.5t55.5 -165.5t94.5 -135t139 -90t184 -33t183 33.5t137.5 90t93 134.5t54.5 165.5t17 183.5t-17 183t-54.5 165t-93 135t-137.5 90t-183 33q-126 0 -222.5 -50t-153.5 -136.5t-85.5 -192.5t-28.5 -227z" />
<glyph unicode="&#x153;" horiz-adv-x="1800" d="M82 496q0 245 121 380.5t321 135.5q135 0 239 -64.5t157 -185.5q49 114 146 182t243 68q95 0 169 -32t118 -82t72.5 -120.5t39 -139.5t10.5 -146l-2 -43h-715q6 -71 26.5 -130t59.5 -108.5t102.5 -77t147.5 -27.5q169 0 273 91l71 -86q-139 -123 -344 -123 q-155 0 -257.5 66.5t-155.5 181.5q-53 -123 -158.5 -189.5t-241.5 -66.5q-200 0 -321 135.5t-121 380.5zM207 496q0 -197 84.5 -298.5t234.5 -101.5t235 101.5t85 298.5t-85 299t-235 102t-234.5 -102t-84.5 -299zM997 555h600q-5 154 -78.5 247t-215.5 93q-79 0 -138.5 -29 t-94 -79t-52.5 -107.5t-21 -124.5z" />
<glyph unicode="&#x178;" horiz-adv-x="1325" d="M10 1413h162l485 -739l496 739h162l-586 -860v-553h-137v553zM432 1642v185h141v-185h-141zM752 1642v185h141v-185h-141z" />
<glyph unicode="&#x2000;" horiz-adv-x="913" />
<glyph unicode="&#x2001;" horiz-adv-x="1827" />
<glyph unicode="&#x2002;" horiz-adv-x="913" />
<glyph unicode="&#x2003;" horiz-adv-x="1827" />
<glyph unicode="&#x2004;" horiz-adv-x="609" />
<glyph unicode="&#x2005;" horiz-adv-x="456" />
<glyph unicode="&#x2006;" horiz-adv-x="304" />
<glyph unicode="&#x2007;" horiz-adv-x="304" />
<glyph unicode="&#x2008;" horiz-adv-x="228" />
<glyph unicode="&#x2009;" horiz-adv-x="365" />
<glyph unicode="&#x200a;" horiz-adv-x="101" />
<glyph unicode="&#x2010;" horiz-adv-x="618" d="M61 469v84h496v-84h-496z" />
<glyph unicode="&#x2011;" horiz-adv-x="618" d="M61 469v84h496v-84h-496z" />
<glyph unicode="&#x2012;" horiz-adv-x="618" d="M61 469v84h496v-84h-496z" />
<glyph unicode="&#x2013;" horiz-adv-x="761" d="M41 469v84h680v-84h-680z" />
<glyph unicode="&#x2014;" horiz-adv-x="2048" d="M0 469v84h2048v-84h-2048z" />
<glyph unicode="&#x2018;" horiz-adv-x="475" d="M117 903v197l116 313h89l-84 -313h69v-197h-190z" />
<glyph unicode="&#x2019;" horiz-adv-x="475" d="M145 903l84 314h-69v196h190v-196l-117 -314h-88z" />
<glyph unicode="&#x201a;" horiz-adv-x="534" d="M129 -313l84 313h-70v197h191v-197l-117 -313h-88z" />
<glyph unicode="&#x201c;" horiz-adv-x="839" d="M117 903v197l116 313h89l-84 -313h69v-197h-190zM481 903v197l117 313h88l-84 -313h70v-197h-191z" />
<glyph unicode="&#x201d;" horiz-adv-x="864" d="M145 903l84 314h-69v196h190v-196l-117 -314h-88zM535 903l83 314h-69v196h190v-196l-116 -314h-88z" />
<glyph unicode="&#x201e;" horiz-adv-x="923" d="M129 -313l84 313h-70v197h191v-197l-117 -313h-88zM518 -313l84 313h-70v197h191v-197l-117 -313h-88z" />
<glyph unicode="&#x2022;" horiz-adv-x="712" d="M74 713q0 117 82.5 199.5t199.5 82.5t200 -82.5t83 -199.5t-83 -201t-200 -84t-199.5 84t-82.5 201z" />
<glyph unicode="&#x2026;" horiz-adv-x="1595" d="M125 0v197h190v-197h-190zM715 0v197h190v-197h-190zM1305 0v197h190v-197h-190z" />
<glyph unicode="&#x202f;" horiz-adv-x="365" />
<glyph unicode="&#x2039;" horiz-adv-x="557" d="M102 510l355 321v-149l-197 -172l197 -170v-150z" />
<glyph unicode="&#x203a;" horiz-adv-x="557" d="M102 190v150l197 170l-197 172v149l355 -321z" />
<glyph unicode="&#x205f;" horiz-adv-x="456" />
<glyph unicode="&#x20ac;" horiz-adv-x="1310" d="M-47 791l49 100h229q20 117 67 215t119.5 172.5t177.5 116t232 41.5q215 0 363 -123l-39 -111q-147 127 -326 127q-186 0 -301 -121.5t-155 -316.5h657l-49 -105l-623 2q-4 -62 -4 -96q0 -28 4 -86h551l-41 -100h-495q38 -185 153.5 -297.5t313.5 -112.5q211 0 331 123 l82 -67q-156 -172 -422 -172q-246 0 -397.5 143.5t-196.5 382.5h-243l49 100h180q-4 62 -4 96q0 32 4 86z" />
<glyph unicode="&#x2122;" horiz-adv-x="1167" d="M12 1331v82h434v-82h-174v-454h-86v454h-174zM532 877v536h115l141 -352l148 352h108v-536h-86v399l-127 -303h-81l-132 311v-407h-86z" />
<glyph unicode="&#x25fc;" horiz-adv-x="1003" d="M0 0v1004h1004v-1004h-1004z" />
<glyph unicode="&#xfb03;" horiz-adv-x="1665" d="M29 891v108h182v129q0 131 77.5 208t209.5 77h108v-110h-106q-74 0 -118 -45t-44 -121v-138h268h176v170q0 112 80 178t185 66h131v-121h-127q-69 0 -104.5 -32.5t-35.5 -92.5v-168h576v-999h-127v891h-449v-891h-129v891h-182h-262v-891h-127v891h-182zM1348 1231v182 h149v-182h-149z" />
<glyph unicode="&#xfb04;" horiz-adv-x="1609" d="M29 891v108h182v129q0 131 77.5 208t209.5 77h108v-110h-106q-74 0 -118 -45t-44 -121v-138h268h148v170q0 112 80 178t186 66h129v-121h-127q-69 0 -104 -32.5t-35 -92.5v-168h266v-108h-266v-891h-129v891h-183h-233v-891h-127v891h-182zM1315 0v1413h127v-1413h-127z " />
</font>
</defs>
</svg>
