<?xml version="1.0" standalone="no"?>
<!DOCTYPE svg PUBLIC "-//W3C//DTD SVG 1.1//EN" "http://www.w3.org/Graphics/SVG/1.1/DTD/svg11.dtd" >
<svg xmlns="http://www.w3.org/2000/svg">
<metadata></metadata>
<defs>
<font id="hanken_sansblack" horiz-adv-x="1181" >
<font-face units-per-em="2048" ascent="1638" descent="-410" />
<missing-glyph horiz-adv-x="468" />
<glyph unicode="&#xfb01;" horiz-adv-x="1300" d="M2 764v235h186v48q0 185 83 275.5t288 90.5h160v-285h-119q-31 0 -31 -94v-35h639v-999h-387v764h-252v-764h-385v764h-182zM821 1118v295h387v-295h-387z" />
<glyph unicode="&#xfb02;" horiz-adv-x="1370" d="M2 764v235h186v48q0 185 83 275.5t288 90.5h180v-285h-139q-31 0 -31 -94v-35h170v-235h-170v-764h-385v764h-182zM881 0v1413h387v-1413h-387z" />
<glyph horiz-adv-x="0" />
<glyph horiz-adv-x="682" />
<glyph unicode=" "  horiz-adv-x="468" />
<glyph unicode="&#x09;" horiz-adv-x="468" />
<glyph unicode="&#xa0;" horiz-adv-x="468" />
<glyph unicode="!" horiz-adv-x="638" d="M135 0v367h369v-367h-369zM147 1413h345l-29 -919h-287z" />
<glyph unicode="&#x22;" horiz-adv-x="919" d="M90 817v596h307v-596h-307zM504 817v596h319v-596h-319z" />
<glyph unicode="#" horiz-adv-x="1351" d="M72 385v242h241l35 178h-198v235h247l78 373h250l-76 -358h191l75 358h248l-73 -369h190v-239h-240l-34 -178h198v-238h-248l-79 -389h-252l80 377h-191l-78 -377h-252l78 385h-190zM563 627h191l34 178h-190z" />
<glyph unicode="$" horiz-adv-x="1114" d="M12 401l307 60q17 -97 84.5 -147t171.5 -50q111 0 161 36.5t50 117.5q0 42 -37.5 75.5t-97.5 58.5t-132.5 51.5t-145 63t-132.5 83.5t-97.5 122t-37.5 170q0 148 92 248.5t234 134.5v234h262v-227q223 -38 340 -234l-268 -145q-57 108 -203 108q-60 0 -101.5 -32.5 t-41.5 -79.5q0 -39 37.5 -69.5t97.5 -54.5t132.5 -49.5t145 -63.5t132.5 -87t97.5 -128.5t37.5 -180.5q0 -174 -114.5 -289.5t-291.5 -144.5v-228h-262v234q-162 35 -277 142t-143 271z" />
<glyph unicode="%" horiz-adv-x="1640" d="M82 1073q0 43 8.5 88t31.5 95.5t58.5 89.5t94.5 64.5t133 25.5q68 0 124 -23.5t92 -60.5t61 -86t35.5 -98t10.5 -97t-10.5 -95t-35 -93.5t-60 -82t-90 -57.5t-121.5 -22q-75 0 -135.5 26t-96 65t-59 88.5t-32.5 92t-9 80.5zM233 -55l838 1564h324l-840 -1564h-322z M346 1073q0 -46 19 -66t45 -20q16 0 34.5 21.5t18.5 64.5q0 52 -18.5 76.5t-36.5 24.5q-25 0 -43.5 -24t-18.5 -77zM909 340q0 43 8.5 89.5t31.5 99t58.5 92.5t94.5 67t133 27q68 0 124.5 -24t92.5 -62.5t61 -89t35.5 -100.5t10.5 -99q0 -61 -18 -122t-54 -116.5t-100 -90 t-146 -34.5q-63 0 -116 17.5t-88 48t-61 67.5t-40 79t-20.5 79t-6.5 72zM1174 340q0 -51 19 -75.5t46 -24.5q8 0 19 9.5t21.5 34t10.5 58.5q0 37 -11 62t-22.5 33.5t-21.5 8.5q-22 0 -41.5 -25t-19.5 -81z" />
<glyph unicode="&#x26;" horiz-adv-x="1523" d="M39 385q0 109 52 199.5t128.5 132t149.5 22.5l4 23q-39 21 -63.5 36.5t-52 41t-42.5 54.5t-25 72t-10 97q0 81 29 146t76.5 106.5t110.5 69.5t127.5 39.5t131.5 11.5q89 0 171 -22t151.5 -65.5t111 -118.5t41.5 -171q0 -109 -43.5 -184t-150.5 -148l-225 205q45 42 45 98 q0 33 -25.5 58.5t-68.5 25.5q-40 0 -67.5 -25t-27.5 -57q0 -33 13.5 -54.5t68.5 -74.5l318 -307l108 141h459l-324 -383l365 -354h-514l-98 100q-64 -57 -162 -93t-221 -36q-84 0 -161.5 15.5t-147 48.5t-121 81t-81.5 117t-30 152zM453 422q0 -66 39.5 -97.5t103.5 -31.5 q28 0 66.5 15.5t62.5 35.5l-184 188q-34 -9 -61 -37t-27 -73z" />
<glyph unicode="'" horiz-adv-x="487" d="M90 846v596h307v-596h-307z" />
<glyph unicode="(" horiz-adv-x="741" d="M45 621q0 174 16 320t41 242.5t58.5 166t66 103t64.5 42.5h399q-124 -119 -191.5 -239.5t-97.5 -286t-30 -418.5q0 -113 6 -204t15.5 -159.5t29.5 -128.5t38 -101t51.5 -88t60.5 -80t73 -85q28 -32 43 -49h-385q-119 85 -188.5 322t-69.5 643z" />
<glyph unicode=")" horiz-adv-x="745" d="M98 -354q124 120 191 238t98 284t31 422q0 133 -7 233.5t-25 180t-37.5 134t-57 111.5t-69 96t-87.5 103q-21 23 -31 35h381q110 -54 185 -309.5t75 -651.5q0 -736 -243 -876h-404z" />
<glyph unicode="*" horiz-adv-x="747" d="M31 1069l61 209l207 -90l-27 225h211l-30 -225l209 90l55 -209l-217 -35l153 -182l-166 -129l-110 209l-111 -209l-166 129l156 182z" />
<glyph unicode="+" horiz-adv-x="1409" d="M104 479v291h457v373h287v-373h457v-291h-457v-373h-287v373h-457z" />
<glyph unicode="," horiz-adv-x="577" d="M63 0v387h447v-387l-209 -303h-186l110 303h-162z" />
<glyph unicode="-" horiz-adv-x="788" d="M51 340v362h686v-362h-686z" />
<glyph unicode="." horiz-adv-x="620" d="M80 0v387h446v-387h-446z" />
<glyph unicode="/" horiz-adv-x="1302" d="M166 -156l659 1565h336l-657 -1565h-338z" />
<glyph unicode="0" horiz-adv-x="1234" d="M20 707q0 352 151.5 540.5t432.5 188.5q293 0 450.5 -188.5t157.5 -540.5q0 -350 -154 -538.5t-440 -188.5q-289 0 -443.5 188.5t-154.5 538.5zM414 707q0 -184 51.5 -282.5t146.5 -98.5q94 0 144.5 99.5t50.5 283.5q0 182 -52.5 279t-150.5 97q-92 0 -141 -97.5 t-49 -280.5z" />
<glyph unicode="1" horiz-adv-x="1009" d="M88 856v356l322 201h385v-1413h-389v1071z" />
<glyph unicode="2" horiz-adv-x="1306" d="M106 850q0 127 34 231.5t102.5 183.5t181 123t260.5 44q229 0 370.5 -128t141.5 -333q0 -105 -32 -190.5t-84 -140.5t-115.5 -97.5t-130 -68.5t-122.5 -45.5t-98 -38t-53 -36.5h664v-354h-1069v260q0 95 36 169t93 119.5t126 81t138.5 64t126.5 57.5t93 71.5t36 97.5 q0 75 -37 116t-104 41q-85 0 -130 -65t-45 -185z" />
<glyph unicode="3" horiz-adv-x="1126" d="M23 512l380 14q0 -94 44.5 -149t119.5 -55q69 0 110.5 38.5t41.5 104.5q0 61 -40 97t-108 36h-65v303h65q38 0 61 24.5t23 65.5q0 45 -30 72t-82 27q-57 0 -91 -43t-36 -115l-375 16q0 92 26 171t72.5 136.5t108.5 98t135 60.5t152 20q96 0 185.5 -29t160 -81t113 -132.5 t42.5 -175.5q0 -183 -166 -250v-2q39 -6 77 -27t73.5 -57t58.5 -94.5t25 -130.5q0 -118 -46.5 -211t-123.5 -149.5t-171 -85.5t-196 -29q-107 0 -203 32.5t-173 95.5t-122.5 167.5t-45.5 236.5z" />
<glyph unicode="4" horiz-adv-x="1236" d="M51 266v379l613 768h317v-833h131v-314h-131v-266h-395v266h-535zM379 580h207v258z" />
<glyph unicode="5" horiz-adv-x="1239" d="M10 391l375 109q29 -68 79 -108t118 -40q67 0 123.5 49.5t56.5 118.5t-53.5 113.5t-126.5 44.5q-96 0 -170 -74l-377 70l143 739h922v-334h-627l-27 -161l-12 -23l4 -6q129 108 295 108q177 0 303.5 -132t126.5 -337q0 -158 -78 -284.5t-208 -195t-283 -68.5 q-210 0 -363.5 111t-220.5 300z" />
<glyph unicode="6" horiz-adv-x="1150" d="M27 483q0 109 28.5 221.5t73.5 208t108.5 191t123.5 168t128 141.5h496q-73 -41 -241 -227t-205 -287l10 -6q71 39 168 39q166 0 288.5 -120.5t122.5 -295.5q0 -144 -73 -267t-202.5 -196t-285.5 -73q-144 0 -268 67t-198 183t-74 253zM416 514q0 -66 43.5 -110 t109.5 -44q72 0 119 44t47 110q0 65 -47 107.5t-119 42.5q-66 0 -109.5 -42.5t-43.5 -107.5z" />
<glyph unicode="7" horiz-adv-x="1024" d="M70 1042v371h923v-440q-85 -74 -152 -157.5t-110.5 -165.5t-74.5 -169t-43 -167.5t-16.5 -161.5t5.5 -152h-463q-2 172 68.5 391t194.5 403t257 236v12h-589z" />
<glyph unicode="8" horiz-adv-x="1200" d="M41 424q0 246 278 338v4q-89 12 -149.5 88t-60.5 190q0 169 137.5 279.5t349.5 110.5q213 0 352 -110.5t139 -279.5q0 -97 -59 -175t-151 -103v-4q137 -30 209.5 -119.5t72.5 -218.5q0 -133 -73 -234.5t-202 -155.5t-294 -54q-242 0 -395.5 122t-153.5 322zM422 463 q0 -66 48.5 -107t125.5 -41q75 0 123.5 41t48.5 107q0 61 -48.5 101t-123.5 40q-76 0 -125 -39.5t-49 -101.5zM475 1016q0 -38 34 -65t83 -27q51 0 85 28t34 68t-34 68t-85 28q-50 0 -83.5 -28.5t-33.5 -71.5z" />
<glyph unicode="9" horiz-adv-x="1146" d="M20 897q0 144 73 267t203 196.5t286 73.5q144 0 268 -67t198 -183.5t74 -253.5q0 -109 -29 -221.5t-74 -208t-108 -191t-123.5 -168t-128.5 -141.5h-495q73 41 241 227t205 287l-10 6q-71 -39 -168 -39q-166 0 -289 120.5t-123 295.5zM414 899q0 -65 47 -107t119 -42 q66 0 109.5 42.5t43.5 106.5q0 66 -43.5 110t-109.5 44q-72 0 -119 -44t-47 -110z" />
<glyph unicode=":" horiz-adv-x="595" d="M74 0v387h446v-387h-446zM78 688v387h446v-387h-446z" />
<glyph unicode=";" horiz-adv-x="583" d="M119 688v387h446v-387h-446zM139 0v387h447v-387l-209 -303h-187l111 303h-162z" />
<glyph unicode="&#x3c;" horiz-adv-x="1484" d="M104 674l1119 555l157 -273l-663 -282l663 -283l-157 -272z" />
<glyph unicode="=" horiz-adv-x="1140" d="M104 319v314h932v-314h-932zM104 711v313h932v-313h-932z" />
<glyph unicode="&#x3e;" horiz-adv-x="1484" d="M104 391l650 283l-650 282l156 273l1120 -555l-1120 -555z" />
<glyph unicode="?" horiz-adv-x="972" d="M43 889q0 91 13.5 169.5t45 148.5t80 119.5t123.5 78.5t170 29q84 0 158.5 -22t138.5 -68t101.5 -127t37.5 -189q0 -75 -15.5 -129.5t-40 -85t-54.5 -53.5t-60 -42.5t-54.5 -43t-40 -63.5t-15.5 -97v-25h-303v27q0 79 15.5 139.5t40 95.5t54 61t59 45t54 39t40 50 t15.5 72q0 48 -27 79t-85 31q-45 0 -74.5 -16.5t-44 -50.5t-20 -73.5t-5.5 -98.5h-307zM303 0v367h352v-367h-352z" />
<glyph unicode="@" horiz-adv-x="1955" d="M59 543q0 181 71.5 345t194 283.5t294 190t362.5 70.5q193 0 368.5 -72.5t300.5 -194t199 -287t74 -346.5q0 -89 -17 -177.5t-55.5 -174t-94 -151t-139.5 -106t-185 -40.5q-219 0 -322 185q-142 -66 -256 -66q-93 0 -165.5 38t-116.5 102.5t-66.5 145t-22.5 171.5 q0 134 48 253.5t124.5 201t172.5 129t192 47.5q130 0 223 -78l8 41h138q-178 127 -404 127q-183 0 -338 -87t-243.5 -232t-88.5 -312q0 -169 89.5 -315t244 -233t336.5 -87q55 0 117 10l72 -252q-87 -20 -191 -20q-193 0 -365.5 71t-294.5 191t-193 284t-71 345zM733 440 q0 -84 32.5 -122.5t102.5 -38.5q87 0 156 57.5t104 146t35 187.5q0 84 -29 119.5t-98 35.5q-92 0 -163 -59.5t-105.5 -146t-34.5 -179.5zM1358 248q0 -73 28 -108.5t78 -22.5q20 6 43 19t52.5 42.5t52.5 69t39 105t16 143.5q0 264 -164 452q-11 -47 -45.5 -187t-51 -209.5 t-32.5 -161.5t-16 -142z" />
<glyph unicode="A" horiz-adv-x="1509" d="M-8 0l504 1413h514l506 -1413h-426l-101 311h-465l-102 -311h-430zM629 627h258l-96 301q-2 7 -9 26t-9.5 28.5t-5.5 26t-3 33.5h-10q1 -17 -1.5 -34t-5 -25.5t-9.5 -29t-9 -25.5z" />
<glyph unicode="B" horiz-adv-x="1333" d="M123 0v1413h635q226 0 346.5 -101t120.5 -290q0 -97 -46 -169t-132 -110v-6q120 -28 183.5 -111t63.5 -212q0 -199 -127.5 -306.5t-363.5 -107.5h-680zM522 348h244q69 0 105 33.5t36 91.5q0 52 -36 81.5t-105 29.5h-244v-236zM522 866h242q46 0 76 29t30 72 q0 41 -30 68.5t-76 27.5h-242v-197z" />
<glyph unicode="C" horiz-adv-x="1312" d="M39 707q0 106 18 204t64 195.5t116 169t184 116t259 44.5q241 0 390.5 -108.5t227.5 -340.5l-387 -143q-16 124 -79.5 183.5t-153.5 59.5q-114 0 -179 -96t-65 -278q0 -180 67 -282.5t169 -102.5q187 0 250 254l383 -152q-76 -232 -228 -341t-397 -109q-143 0 -256 44 t-183.5 115t-117 168.5t-64.5 195.5t-18 204z" />
<glyph unicode="D" horiz-adv-x="1409" d="M123 0v1413h475q380 0 576 -186.5t196 -515.5q0 -343 -196.5 -527t-577.5 -184h-473zM520 348h51q202 0 305 93.5t103 269.5q0 169 -96.5 260.5t-288.5 91.5h-74v-715z" />
<glyph unicode="E" horiz-adv-x="1187" d="M123 0v1413h981v-352h-584v-176h563v-353h-563v-178h584v-354h-981z" />
<glyph unicode="F" horiz-adv-x="1155" d="M123 0v1413h1030v-352h-633v-176h545v-353h-545v-532h-397z" />
<glyph unicode="G" horiz-adv-x="1460" d="M39 715q0 145 44.5 274t128 229t214 159t291.5 59q125 0 239 -35.5t197 -94t139.5 -133t75.5 -153.5l-332 -129q-24 104 -98 162.5t-190 58.5q-83 0 -145 -32t-98 -89.5t-53.5 -128t-17.5 -155.5q0 -84 17 -152t53 -122t99 -84t149 -30q130 0 202 63t70 138h-295v314h639 v-834h-301l-12 162q-114 -182 -393 -182q-116 0 -217 40t-174.5 110t-126 163t-79 200.5t-26.5 221.5z" />
<glyph unicode="H" horiz-adv-x="1515" d="M123 0v1409h397v-524h475v524h398v-1409h-398v530h-475v-530h-397z" />
<glyph unicode="I" horiz-adv-x="643" d="M123 0v1413h397v-1413h-397z" />
<glyph unicode="J" horiz-adv-x="813" d="M20 0v362q13 -1 73 -7.5t89 -6.5q24 0 34.5 0.5t30 3t28.5 8t22 17t18.5 28t10 42t4.5 59.5v903h397v-1022q0 -185 -126.5 -296t-346.5 -111q-170 0 -234 20z" />
<glyph unicode="K" horiz-adv-x="1566" d="M123 0v1409h397v-631l529 631h505l-618 -692l631 -717h-537l-473 580h-37v-580h-397z" />
<glyph unicode="L" horiz-adv-x="1134" d="M123 0v1413h397v-1061h604v-352h-1001z" />
<glyph unicode="M" horiz-adv-x="2019" d="M123 0v1409h557l326 -797l325 797h565v-1409h-397v915l-14 3q-5 -41 -35 -109l-281 -686h-327l-279 670q-24 59 -33 125h-16v-918h-391z" />
<glyph unicode="N" horiz-adv-x="1587" d="M123 0v1413h385l481 -647q21 -29 44 -77t26 -81h8v805h397v-1413h-389l-483 657q-60 81 -60 154h-12v-811h-397z" />
<glyph unicode="O" horiz-adv-x="1488" d="M39 707q0 333 189 530t509 197q327 0 520 -197t193 -530t-193 -530t-520 -197q-320 0 -509 197t-189 530zM479 707q0 -174 70.5 -277.5t187.5 -103.5q126 0 200.5 103t74.5 278t-74.5 277.5t-200.5 102.5q-117 0 -187.5 -103t-70.5 -277z" />
<glyph unicode="P" horiz-adv-x="1280" d="M123 0v1413h635q232 0 363.5 -135.5t131.5 -353.5q0 -222 -132.5 -350t-362.5 -128h-240v-446h-395zM518 797h199q64 0 103.5 42.5t39.5 100.5q0 54 -39.5 87.5t-103.5 33.5h-199v-264z" />
<glyph unicode="Q" horiz-adv-x="1529" d="M39 707q0 333 189 530t509 197q327 0 520 -197t193 -530q0 -274 -131 -455l172 -170l-213 -215l-186 188q-153 -75 -355 -75q-320 0 -509 197t-189 530zM479 707q0 -174 70.5 -277.5t187.5 -103.5q41 0 78 12l-106 106l206 209l82 -82q15 62 15 136q0 175 -74.5 277.5 t-200.5 102.5q-117 0 -187.5 -103t-70.5 -277z" />
<glyph unicode="R" horiz-adv-x="1329" d="M123 -2v1415h653q211 0 348.5 -116.5t137.5 -315.5q0 -259 -236 -391l328 -592h-484l-252 534h-98v-534h-397zM522 864h252q46 3 75.5 30t29.5 67q0 41 -29.5 67.5t-75.5 26.5h-252v-191z" />
<glyph unicode="S" horiz-adv-x="1155" d="M12 455h391q8 -53 63.5 -89t131.5 -36q77 0 120.5 32t43.5 80q0 29 -18.5 52t-58 41t-76 30t-96.5 28q-13 3 -19 5q-53 15 -86 25.5t-83 30.5t-82 40t-69 51.5t-58 68t-35.5 87t-14.5 109.5q0 137 69 234.5t180 143.5t250 46q136 0 257 -50t235 -167l-213 -236 q-68 65 -146 99t-139 34q-50 0 -81.5 -16.5t-31.5 -44.5q0 -19 10.5 -33.5t44 -28.5t52 -20t77.5 -23q18 -5 27 -8q57 -16 94.5 -28t93 -34.5t92.5 -45.5t79 -60t67 -79t41.5 -100.5t16.5 -127.5q0 -221 -150.5 -351t-398.5 -130q-131 0 -242 40t-183.5 106.5t-113 150.5 t-41.5 174z" />
<glyph unicode="T" horiz-adv-x="1200" d="M10 1061v352h1180v-352h-393v-1061h-398v1061h-389z" />
<glyph unicode="U" horiz-adv-x="1470" d="M123 559v854h397v-866q0 -99 54 -152t155 -53q106 0 163.5 53.5t57.5 151.5v866h398v-844q0 -589 -619 -589q-309 0 -457.5 150t-148.5 429z" />
<glyph unicode="V" horiz-adv-x="1542" d="M-4 1413h412l370 -1010l357 1010h411l-510 -1413h-530z" />
<glyph unicode="W" horiz-adv-x="2039" d="M6 1413h412l198 -975q13 -80 13 -114h20q0 23 4 46t10.5 46.5t8.5 32.5l153 825h392l157 -825q1 -9 6.5 -32t9 -46.5t3.5 -46.5h18q0 46 14 114l197 975h412l-330 -1413h-584l-104 766l-96 -766h-586z" />
<glyph unicode="X" horiz-adv-x="1521" d="M-16 0l481 707l-479 706h493l285 -446l280 446h492l-483 -706l485 -707h-491l-285 438l-285 -438h-493z" />
<glyph unicode="Y" horiz-adv-x="1443" d="M-10 1413h444l299 -500l277 500h444l-536 -864v-549h-392v549z" />
<glyph unicode="Z" horiz-adv-x="1273" d="M35 0v248l635 792h-590v373h1159v-268l-616 -793h616v-352h-1204z" />
<glyph unicode="[" horiz-adv-x="620" d="M119 -330v1825h489v-330h-164v-1159h164v-336h-489z" />
<glyph unicode="\" horiz-adv-x="1302" d="M141 1409h338l658 -1565h-336z" />
<glyph unicode="]" horiz-adv-x="620" d="M12 6h162v1159h-162v330h490v-1825h-490v336z" />
<glyph unicode="^" horiz-adv-x="1042" d="M-2 752l524 847l522 -847h-376l-146 252l-149 -252h-375z" />
<glyph unicode="_" horiz-adv-x="931" d="M-10 0h952v-287h-952v287z" />
<glyph unicode="a" horiz-adv-x="1116" d="M41 791q75 98 204.5 161.5t293.5 63.5q79 0 149 -12t133.5 -40t109 -69t72.5 -103t27 -139v-653h-323l-35 78q-83 -59 -148 -78.5t-143 -19.5q-151 0 -241.5 71.5t-90.5 200.5q0 194 201 266q37 13 82.5 22.5t105.5 19t88 15.5q74 16 108 33t34 51q0 56 -113 56 q-63 0 -143.5 -38t-120.5 -89zM453 303q0 -10 1.5 -16.5t7 -16t21 -15t39.5 -5.5q71 0 123.5 35t52.5 104v35h-10q-44 -37 -125 -53q-7 -2 -24.5 -5.5t-24.5 -5.5t-19.5 -5.5t-18 -7.5t-12 -10.5t-9 -14.5t-2.5 -19z" />
<glyph unicode="b" horiz-adv-x="1249" d="M92 0v1413h387v-539q38 65 119.5 105.5t173.5 40.5q186 0 306 -147t120 -373t-122.5 -373t-311.5 -147q-101 0 -184 46.5t-111 118.5v-145h-377zM475 504q0 -72 46.5 -119t117.5 -47q73 0 120.5 47t47.5 119q0 77 -47.5 126.5t-120.5 49.5q-71 0 -117.5 -50t-46.5 -126z " />
<glyph unicode="c" horiz-adv-x="1091" d="M51 498q0 109 34 202.5t99 164t167 111t231 40.5q367 0 499 -334l-336 -135q-28 79 -63.5 105t-85.5 26q-78 0 -116 -41.5t-38 -142.5q0 -99 37.5 -138t112.5 -39q63 0 95 31.5t52 100.5l328 -125q-106 -344 -483 -344q-129 0 -232 40.5t-168 111.5t-99 164.5t-34 201.5z " />
<glyph unicode="d" horiz-adv-x="1249" d="M51 500q0 226 120 373t306 147q92 0 173.5 -40.5t119.5 -105.5v539h387v-1413h-377v145q-28 -72 -111 -118.5t-184 -46.5q-189 0 -311.5 147t-122.5 373zM442 504q0 -72 47.5 -119t120.5 -47q71 0 117.5 47t46.5 119q0 76 -46.5 126t-117.5 50q-73 0 -120.5 -49.5 t-47.5 -126.5z" />
<glyph unicode="e" horiz-adv-x="1099" d="M51 475q0 135 42 240.5t114.5 168.5t162 95.5t191.5 32.5q73 0 141.5 -14t134 -47t114.5 -81.5t78.5 -123t29.5 -166.5q0 -94 -12 -158h-605q4 -62 35.5 -91.5t81.5 -29.5q99 0 154 86l354 -72q-63 -151 -201.5 -239t-326.5 -88q-97 0 -182 27.5t-155 84t-110.5 153 t-40.5 222.5zM444 592h234q1 8 1 16q-1 38 -25 65q-30 32 -93 32q-60 0 -87.5 -31.5t-29.5 -81.5z" />
<glyph unicode="f" horiz-adv-x="763" d="M2 764v235h186v74q0 171 85.5 255.5t273.5 84.5h192v-291h-133q-11 0 -18 -3t-10.5 -5.5t-5 -11.5t-1.5 -12v-15v-76h168v-235h-168v-764h-387v764h-182z" />
<glyph unicode="g" horiz-adv-x="1251" d="M51 555q0 94 25 173t66.5 131.5t96.5 89t113.5 53t118.5 16.5q104 0 182 -38.5t113 -90.5v110h385v-843q0 -110 -30 -197t-81.5 -145t-125 -96.5t-156.5 -55t-180 -16.5q-154 0 -271 40t-241 121l184 265q38 -32 82 -54.5t73.5 -32.5t73 -15t54 -5h42.5q33 0 63 8.5 t60 28t48 59.5t18 95v57q-17 -47 -88 -86t-166 -39q-93 0 -174.5 28.5t-145.5 84.5t-101.5 147t-37.5 207zM442 535q0 -72 46 -119t116 -47q74 0 122 47t48 119q0 70 -48 116.5t-122 46.5q-70 0 -116 -46t-46 -117z" />
<glyph unicode="h" horiz-adv-x="1245" d="M92 0v1413h387v-522h4q47 70 132 104.5t186 34.5q86 0 154 -29t110.5 -79.5t65 -115t22.5 -138.5v-668h-385v594q0 50 -43 88.5t-109 38.5q-72 0 -104.5 -35.5t-32.5 -91.5v-594h-387z" />
<glyph unicode="i" horiz-adv-x="571" d="M92 0v999h387v-999h-387zM92 1118v295h387v-295h-387z" />
<glyph unicode="j" horiz-adv-x="571" d="M-102 -18h108q34 0 60 19.5t26 55.5v942h387v-958q0 -73 -23 -139t-67.5 -119.5t-116 -85t-161.5 -31.5h-213v316zM92 1122v291h387v-291h-387z" />
<glyph unicode="k" horiz-adv-x="1232" d="M92 0v1413h387v-733l277 319h504l-379 -374l385 -625h-455l-315 569h-17v-569h-387z" />
<glyph unicode="l" horiz-adv-x="591" d="M102 0v1413h387v-1413h-387z" />
<glyph unicode="m" horiz-adv-x="1744" d="M92 0v999h379v-135h6q93 154 279 154q97 0 156 -41.5t100 -118.5h20q47 76 113 117t168 41q159 0 249.5 -106.5t90.5 -276.5v-633h-387v569q0 58 -26.5 89.5t-72.5 31.5q-102 0 -102 -121v-569h-387v567q0 59 -26 91t-72 32q-101 0 -101 -121v-569h-387z" />
<glyph unicode="n" horiz-adv-x="1245" d="M92 0v999h379v-108h12q43 63 125 101t193 38q155 0 253.5 -101.5t98.5 -260.5v-668h-385v594q0 55 -38 88t-103 33q-66 0 -107 -33t-41 -88v-594h-387z" />
<glyph unicode="o" d="M51 496q0 124 41.5 223.5t115.5 162.5t171.5 96.5t212.5 33.5q156 0 276 -57t191 -175.5t71 -283.5t-71 -283.5t-191 -175.5t-276 -57q-115 0 -212.5 33.5t-171.5 96.5t-115.5 162.5t-41.5 223.5zM442 496q0 -201 150 -201q151 0 151 201q0 200 -151 200 q-150 0 -150 -200z" />
<glyph unicode="p" horiz-adv-x="1249" d="M92 -334v1333h387v-125q39 65 120 105.5t175 40.5q183 0 303.5 -147.5t120.5 -372.5q0 -226 -122.5 -373t-307.5 -147q-106 0 -189.5 46.5t-109.5 120.5v-481h-377zM475 506q0 -74 46.5 -121t119.5 -47q72 0 119 47.5t47 120.5q0 74 -47 124t-119 50t-119 -49.5 t-47 -124.5z" />
<glyph unicode="q" horiz-adv-x="1249" d="M51 500q0 225 120.5 372.5t303.5 147.5q95 0 175.5 -40.5t119.5 -105.5v125h387v-1333h-377v481q-26 -74 -109.5 -120.5t-189.5 -46.5q-185 0 -307.5 147t-122.5 373zM442 506q0 -73 47 -120.5t119 -47.5t119 47t47 121q0 75 -47 124.5t-119 49.5t-119 -50t-47 -124z" />
<glyph unicode="r" horiz-adv-x="823" d="M92 0v999h371v-170h6q22 50 48.5 86t49.5 54.5t52 29t48.5 13t45.5 2.5q47 0 80 -13v-397q-98 25 -162 25q-90 0 -121 -46.5t-31 -150.5v-432h-387z" />
<glyph unicode="s" horiz-adv-x="1003" d="M41 86l131 291q121 -71 270 -96q52 -9 85 -9q55 0 55 25q0 18 -31.5 29.5t-126.5 33.5q-57 13 -100.5 27.5t-92 41t-80 59.5t-52.5 84t-21 114q0 92 34 159t96 106t138.5 57t171.5 18q135 0 232.5 -32t191.5 -87l-137 -258q-82 58 -227 99q-43 11 -69 15t-46 1.5 t-29 -14.5q-5 -6 -5 -13q0 -22 62 -44q18 -7 156 -43q9 -3 17 -5q292 -81 292 -315q0 -167 -102 -258.5t-315 -91.5q-127 0 -264.5 26.5t-233.5 79.5z" />
<glyph unicode="t" horiz-adv-x="733" d="M0 764v235h20q150 0 150 158v150h387v-308h133v-235h-133v-442q0 -13 7 -19t14 -6h141v-297h-328q-98 0 -159.5 68t-61.5 176v520h-170z" />
<glyph unicode="u" horiz-adv-x="1267" d="M115 332v667h387v-559q0 -52 42.5 -90.5t110.5 -38.5q70 0 103 36t33 91v561h385v-999h-377v109h-15q-47 -70 -131.5 -105t-185.5 -35q-112 0 -193.5 51t-120 132t-38.5 180z" />
<glyph unicode="v" d="M-20 999h415l197 -647l196 647h414l-399 -999h-424z" />
<glyph unicode="w" horiz-adv-x="1748" d="M-20 999h407l145 -663l166 663h351l161 -667l152 667h407l-290 -999h-494l-115 494l-110 -502h-492z" />
<glyph unicode="x" horiz-adv-x="1269" d="M-6 0l350 504l-350 495h479l164 -268l156 268h483l-361 -495l361 -504h-483l-156 274l-164 -274h-479z" />
<glyph unicode="y" horiz-adv-x="1085" d="M-47 999h412l122 -381q11 -38 24 -105t13 -95h21q0 26 13.5 95.5t25.5 104.5l129 381h413l-464 -1138q-75 -195 -265 -195h-311v320h117q102 0 123 43l30 63z" />
<glyph unicode="z" horiz-adv-x="1126" d="M49 705v294h987v-278l-434 -426h473v-295h-1024v266l486 439h-488z" />
<glyph unicode="{" horiz-adv-x="770" d="M59 414v254q20 9 45.5 17.5t38 13.5t25 14.5t17.5 26.5t5 44v367q0 171 81.5 261.5t234.5 90.5h51q31 0 86 -7.5t70 -8.5v-309q-30 14 -69 23.5t-70 7t-31 -20.5l-2 -30q-2 -31 -2 -60v-336q0 -56 -19.5 -107t-33.5 -78.5t-7 -37.5q22 -31 41 -92t19 -109v-297 q0 -43 2.5 -59t13.5 -23q47 -33 158 12v-319q-23 5 -81.5 -0.5t-76.5 -5.5h-72q-79 0 -148 47t-102 110q-16 30 -21.5 44t-13.5 66t-8 130v291q0 19 -13 32.5t-29 19t-44.5 13.5t-44.5 15z" />
<glyph unicode="|" horiz-adv-x="548" d="M133 -156v1690h283v-1690h-283z" />
<glyph unicode="}" horiz-adv-x="747" d="M57 -29q138 -57 160 -14q14 28 14 84v297q0 48 19 109t41 92q6 10 -8 37.5t-33 78.5t-19 107v336q0 86 -6 92q-16 16 -46 17.5t-60.5 -6.5t-61.5 -23v309q15 1 70 8.5t86 7.5h51q153 0 234.5 -90.5t81.5 -261.5v-367q0 -27 5 -44t17.5 -26.5t25 -14.5t38 -13.5 t45.5 -17.5v-254q-16 -7 -44.5 -15t-44.5 -13.5t-29 -19t-13 -32.5v-291q0 -78 -7 -129.5t-13 -67t-21 -43.5q-35 -63 -105 -110t-147 -47h-72q-18 0 -76.5 5.5t-81.5 0.5v319z" />
<glyph unicode="~" horiz-adv-x="962" d="M115 385q-8 140 52 223.5t169 83.5q61 0 110.5 -17.5t79.5 -42.5t54 -50t48.5 -42.5t49.5 -17.5q41 0 58 37.5t14 126.5h170q8 -152 -58.5 -240t-189.5 -88q-50 0 -94 17.5t-74.5 43t-57 51t-54 43t-54.5 17.5q-37 0 -51 -34.5t-8 -110.5h-164z" />
<glyph unicode="&#xa1;" horiz-adv-x="638" d="M135 633v366h369v-366h-369zM147 -436l29 942h287l29 -942h-345z" />
<glyph unicode="&#xa2;" horiz-adv-x="1087" d="M51 498q0 88 23 169.5t68.5 152t119 123.5t168.5 77v180h283v-180q63 -12 111 -33.5t82 -47t65 -69t53 -85t53 -109.5l-323 -125q-17 66 -27 96t-30 54.5t-47 31t-75 6.5q-97 0 -145.5 -62t-48.5 -179q0 -242 194 -242q32 0 54.5 3t39.5 13.5t27.5 20t20.5 33.5t15.5 42 t16.5 56q3 12 5 18l309 -118q-61 -158 -138.5 -237t-211.5 -112v-180h-283v180q-97 23 -171.5 75.5t-119 124t-66.5 153t-22 170.5z" />
<glyph unicode="&#xa3;" horiz-adv-x="1296" d="M82 0v322q1 2 14 0t35.5 2t48.5 9t52.5 19t48.5 32.5t35.5 50t13.5 71.5q0 30 -15 59h-227v293h164q-29 87 -29 180q0 114 36.5 198t101.5 130.5t142 68t169 21.5q104 0 187.5 -29t139 -79.5t90 -104.5t58.5 -119l-277 -104q-41 87 -81.5 115t-120.5 28q-33 0 -51 -2 t-38 -9.5t-29.5 -23t-15.5 -43t-6 -69.5q0 -63 27 -158h315v-293h-247q-5 -20 -5 -49q0 -196 -45 -221h713v-295h-1204z" />
<glyph unicode="&#xa4;" horiz-adv-x="1521" d="M82 1010l287 258l168 -189q115 44 208 47q99 -3 211 -49l158 201l285 -260l-215 -215q24 -38 31.5 -76.5t7.5 -97.5q0 -63 -7 -103.5t-32 -83.5l188 -215l-291 -258l-133 211q-94 -46 -203 -49q-98 3 -200 47l-156 -209l-289 258l207 215q-17 31 -25.5 64.5t-10 55.5 t-1.5 67q0 115 37 174zM600 629q0 -162 145 -174q74 6 112 48t38 126t-38 126t-112 48q-145 -12 -145 -174z" />
<glyph unicode="&#xa5;" horiz-adv-x="1521" d="M-10 1413h393l373 -622l383 622h393l-471 -686h151v-244h-297v-129h297v-243h-297v-170h-309v170h-297v243h297v129h-297v252h152z" />
<glyph unicode="&#xa6;" horiz-adv-x="606" d="M135 -156v578h336v-578h-336zM135 774v635h336v-635h-336z" />
<glyph unicode="&#xa7;" horiz-adv-x="1193" d="M129 305l346 72q11 -48 40.5 -74.5t105.5 -26.5q66 0 104.5 20t38.5 42q0 14 -20.5 23.5t-55 15.5t-79.5 12t-94.5 15.5t-99 23t-94.5 38.5t-79.5 58.5t-55 86t-20.5 118.5q0 16 1.5 32.5t3 27.5t6.5 27t6 22t9 23t9 19.5t11 21.5l9 20q-53 87 -53 180q0 81 38.5 145.5 t102 104.5t142 61t163.5 21q121 0 198 -39.5t142 -112.5l-215 -182q-47 57 -137 57q-34 0 -59.5 -8.5t-38 -19.5t-19.5 -25t-8.5 -21.5t-1.5 -11.5q0 -11 20.5 -17.5t55 -11t79.5 -9t94.5 -14t99 -24t94.5 -40.5t79.5 -61.5t55 -90.5t20.5 -123q0 -94 -49 -186 q49 -85 49 -179q0 -87 -43.5 -154t-114 -104.5t-147.5 -56t-156 -18.5q-168 0 -298 82t-185 241zM475 737q0 -64 248 -108q11 0 18.5 2t15 15.5t7.5 37.5q0 45 -35.5 62t-179.5 48q-27 6 -41 9q-33 -38 -33 -66z" />
<glyph unicode="&#xa9;" horiz-adv-x="1652" d="M39 711q0 208 106.5 387.5t288.5 285t393 105.5q158 0 304 -62.5t251.5 -167t168.5 -248.5t63 -300q0 -157 -63 -301.5t-169 -249.5t-251.5 -167.5t-303.5 -62.5q-127 0 -247 40t-217 112.5t-170.5 169t-113.5 215t-40 244.5zM176 711q0 -174 87.5 -322t237.5 -234.5 t326 -86.5q131 0 251.5 51t208.5 137t140 205.5t52 249.5t-52 249t-140 204.5t-208.5 136.5t-251.5 51q-132 0 -252.5 -51t-207.5 -136.5t-139 -204.5t-52 -249zM379 705q0 95 27.5 181.5t80.5 157t141.5 112.5t200.5 42q155 0 248 -78t166 -252l-260 -102q-10 15 -25.5 40 t-21 33.5t-16.5 23.5t-17.5 19t-17.5 10t-22.5 7.5t-28.5 1.5q-87 0 -125.5 -50t-38.5 -151q0 -97 37 -143.5t124 -46.5q28 0 45.5 4t31 17t20.5 24t23.5 40t29.5 50l262 -102q-74 -180 -166.5 -256t-242.5 -76q-92 0 -168 28t-128.5 75t-89 111t-53 134.5t-16.5 145.5z" />
<glyph unicode="&#xaa;" horiz-adv-x="772" d="M27 1280q50 66 138.5 110t201.5 44q91 0 164 -23.5t122 -81t49 -143.5v-447h-221l-24 52q-58 -39 -102.5 -52.5t-96.5 -13.5q-104 0 -165.5 48.5t-61.5 137.5q0 135 137 183q26 8 56 14.5t74.5 14t59.5 10.5q50 10 73.5 22t23.5 35q0 37 -78 37q-42 0 -97.5 -26 t-82.5 -60zM307 946q0 -37 47 -37q49 0 85 24t36 73v22h-8q-29 -27 -84 -35l-17.5 -3.5t-17 -4t-13 -4t-12 -5.5t-8.5 -7t-6.5 -10t-1.5 -13z" />
<glyph unicode="&#xab;" horiz-adv-x="1185" d="M51 508l518 403v-290l-166 -113l166 -107v-288zM618 508l519 403v-290l-166 -113l166 -107v-288z" />
<glyph unicode="&#xac;" horiz-adv-x="1259" d="M104 461v336h1051v-506h-377v170h-674z" />
<glyph unicode="&#xad;" horiz-adv-x="788" d="M51 340v362h686v-362h-686z" />
<glyph unicode="&#xae;" horiz-adv-x="1312" d="M127 893q0 147 70.5 271.5t192 197t265.5 72.5t266.5 -72.5t193.5 -197t71 -271.5t-71 -271.5t-193.5 -197t-266.5 -72.5t-265.5 72.5t-192 197t-70.5 271.5zM256 893q0 -168 117 -287t282 -119q143 0 256 95h-141l-119 202h-12v-202h-188v612h249q103 0 162.5 -54.5 t59.5 -146.5q0 -107 -80 -180l114 -188q101 119 101 268q0 167 -118 287t-284 120q-165 0 -282 -119.5t-117 -287.5zM631 946h69q25 0 35 11.5t10 35.5q0 23 -10 34t-35 11h-69v-92z" />
<glyph unicode="&#xb0;" horiz-adv-x="827" d="M47 1077q0 159 102 258t267 99q162 0 263 -99t101 -258q0 -158 -100.5 -257t-263.5 -99q-165 0 -267 98.5t-102 257.5zM297 1077q0 -51 32 -80.5t87 -29.5q54 0 84 29.5t30 80.5q0 50 -30.5 79.5t-83.5 29.5q-55 0 -87 -29.5t-32 -79.5z" />
<glyph unicode="&#xb1;" horiz-adv-x="1409" d="M104 479v291h457v373h287v-373h457v-291h-457v-373h-287v373h-457zM106 0h1197v-287h-1197v287z" />
<glyph unicode="&#xb5;" horiz-adv-x="1093" d="M102 -266v1265h330v-567q0 -74 27.5 -107.5t93.5 -33.5q78 0 143.5 50t65.5 116v542h330v-999h-310v119q-84 -142 -245 -142h-113l-14 -243h-308z" />
<glyph unicode="&#xb6;" horiz-adv-x="1230" d="M72 1018q0 120 65 212t166.5 137.5t220.5 45.5h211v-1700h-211v910q-119 0 -220.5 45.5t-166.5 137.5t-65 212zM915 -287v1700h213v-1700h-213z" />
<glyph unicode="&#xb7;" horiz-adv-x="522" d="M80 760q0 83 52.5 135.5t135.5 52.5q72 0 123 -52.5t51 -135.5q0 -71 -50.5 -122.5t-123.5 -51.5q-84 0 -136 50.5t-52 123.5z" />
<glyph unicode="&#xba;" horiz-adv-x="837" d="M29 1077q0 151 110.5 256t288.5 105q165 0 273 -106t108 -255q0 -151 -107.5 -256.5t-273.5 -105.5q-178 0 -288.5 105t-110.5 257zM262 1069q0 -149 166 -149q74 0 110.5 40t36.5 109q0 70 -36.5 111t-110.5 41q-166 0 -166 -152z" />
<glyph unicode="&#xbb;" horiz-adv-x="1208" d="M72 113v288l166 107l-166 113v290l518 -403zM639 113v288l166 107l-166 113v290l518 -403z" />
<glyph unicode="&#xbf;" horiz-adv-x="1042" d="M123 -29q0 75 15.5 129.5t40 85t54.5 53.5t60 42.5t54.5 43t40 63.5t15.5 97v25h304v-27q0 -79 -15.5 -139.5t-40 -95.5t-54.5 -61t-59.5 -44.5t-54 -38.5t-40 -50t-15.5 -72q0 -48 27.5 -79.5t85.5 -31.5q45 0 74 16.5t43.5 51t20 74t5.5 98.5h307q0 -91 -13.5 -169.5 t-45 -148.5t-80 -119.5t-123.5 -78.5t-170 -29q-66 0 -127 13t-118 43.5t-99 76.5t-67 115.5t-25 156.5zM379 633v366h352v-366h-352z" />
<glyph unicode="&#xc0;" horiz-adv-x="1509" d="M-8 0l504 1413h514l506 -1413h-426l-101 311h-465l-102 -311h-430zM264 1823h357l237 -291h-213zM629 627h258l-96 301q-2 7 -9 26t-9.5 28.5t-5.5 26t-3 33.5h-10q1 -17 -1.5 -34t-5 -25.5t-9.5 -29t-9 -25.5z" />
<glyph unicode="&#xc1;" horiz-adv-x="1509" d="M-8 0l504 1413h514l506 -1413h-426l-101 311h-465l-102 -311h-430zM627 1528l233 295h361l-338 -295h-256zM629 627h258l-96 301q-2 7 -9 26t-9.5 28.5t-5.5 26t-3 33.5h-10q1 -17 -1.5 -34t-5 -25.5t-9.5 -29t-9 -25.5z" />
<glyph unicode="&#xc2;" horiz-adv-x="1509" d="M-8 0l504 1413h514l506 -1413h-426l-101 311h-465l-102 -311h-430zM397 1532l238 301h231l240 -301h-281l-75 158l-76 -158h-277zM629 627h258l-96 301q-2 7 -9 26t-9.5 28.5t-5.5 26t-3 33.5h-10q1 -17 -1.5 -34t-5 -25.5t-9.5 -29t-9 -25.5z" />
<glyph unicode="&#xc3;" horiz-adv-x="1509" d="M-8 0l504 1413h514l506 -1413h-426l-101 311h-465l-102 -311h-430zM317 1511q0 172 84 254t230 82q50 0 89 -15.5t58 -33.5t40 -33.5t38 -15.5q25 0 45.5 21.5t20.5 72.5h270q0 -148 -76 -233.5t-207 -85.5q-60 0 -103 12t-63.5 29.5t-34 35t-27 29.5t-30.5 12 q-32 0 -49.5 -29t-21.5 -102h-263zM629 627h258l-96 301q-2 7 -9 26t-9.5 28.5t-5.5 26t-3 33.5h-10q1 -17 -1.5 -34t-5 -25.5t-9.5 -29t-9 -25.5z" />
<glyph unicode="&#xc4;" horiz-adv-x="1509" d="M-8 0l504 1413h514l506 -1413h-426l-101 311h-465l-102 -311h-430zM430 1567v256h260v-256h-260zM629 627h258l-96 301q-2 7 -9 26t-9.5 28.5t-5.5 26t-3 33.5h-10q1 -17 -1.5 -34t-5 -25.5t-9.5 -29t-9 -25.5zM815 1567v256h260v-256h-260z" />
<glyph unicode="&#xc5;" horiz-adv-x="1509" d="M-8 0l504 1413h39q-23 51 -23 103q0 99 69 170t171 71q101 0 172 -70.5t71 -170.5q0 -54 -22 -103h37l506 -1413h-426l-101 311h-465l-102 -311h-430zM629 627h258l-96 301q-2 7 -9 26t-9.5 28.5t-5.5 26t-3 33.5h-10q1 -17 -1.5 -34t-5 -25.5t-9.5 -29t-9 -25.5z M653 1522q0 -44 29 -75.5t70 -31.5q45 0 72.5 29.5t27.5 77.5q0 42 -26 67t-74 25q-44 0 -71.5 -26.5t-27.5 -65.5z" />
<glyph unicode="&#xc6;" horiz-adv-x="1955" d="M-8 0l602 1413h1278v-354h-748v-174h658v-355h-658v-182h748v-348h-1100v287h-295l-117 -287h-368zM600 592h172v426z" />
<glyph unicode="&#xc7;" horiz-adv-x="1312" d="M39 707q0 106 18 204t64 195.5t116 169t184 116t259 44.5q241 0 390.5 -108.5t227.5 -340.5l-387 -143q-16 124 -79.5 183.5t-153.5 59.5q-114 0 -179 -96t-65 -278q0 -180 67 -282.5t169 -102.5q187 0 250 254l383 -152q-66 -198 -186 -306t-306 -136l-92 -109 q58 -13 101.5 -63.5t43.5 -118.5q0 -93 -60.5 -145t-162.5 -52q-85 0 -157.5 46t-96.5 110l170 76q7 -25 25.5 -39.5t38.5 -16.5q14 -2 24 6t10 21q0 26 -41 37l-184 49l121 201q-114 18 -204 69.5t-146.5 121.5t-94 160.5t-52.5 180t-15 185.5z" />
<glyph unicode="&#xc8;" horiz-adv-x="1187" d="M123 0v1413h981v-352h-584v-176h563v-353h-563v-178h584v-354h-981zM125 1823h356l238 -291h-213z" />
<glyph unicode="&#xc9;" horiz-adv-x="1187" d="M123 0v1413h981v-352h-584v-176h563v-353h-563v-178h584v-354h-981zM487 1528l234 295h360l-338 -295h-256z" />
<glyph unicode="&#xca;" horiz-adv-x="1187" d="M123 0v1413h981v-352h-584v-176h563v-353h-563v-178h584v-354h-981zM258 1532l238 301h231l240 -301h-281l-76 158l-75 -158h-277z" />
<glyph unicode="&#xcb;" horiz-adv-x="1187" d="M123 0v1413h981v-352h-584v-176h563v-353h-563v-178h584v-354h-981zM291 1567v256h260v-256h-260zM676 1567v256h260v-256h-260z" />
<glyph unicode="&#xcc;" horiz-adv-x="643" d="M-174 1823h356l238 -291h-213zM123 0v1413h397v-1413h-397z" />
<glyph unicode="&#xcd;" horiz-adv-x="643" d="M123 0v1413h397v-1413h-397zM188 1528l234 295h360l-338 -295h-256z" />
<glyph unicode="&#xce;" horiz-adv-x="643" d="M-41 1532l238 301h231l240 -301h-281l-76 158l-75 -158h-277zM123 0v1413h397v-1413h-397z" />
<glyph unicode="&#xcf;" horiz-adv-x="643" d="M-8 1567v256h260v-256h-260zM123 0v1413h397v-1413h-397zM377 1567v256h260v-256h-260z" />
<glyph unicode="&#xd0;" horiz-adv-x="1413" d="M0 612v201h113v600h452q380 0 587.5 -187t207.5 -530q0 -329 -210.5 -512.5t-586.5 -183.5h-450v612h-113zM449 322h90q238 0 360.5 89.5t122.5 295.5q0 203 -106.5 295t-354.5 92h-112v-281h360v-201h-360v-290z" />
<glyph unicode="&#xd1;" horiz-adv-x="1587" d="M123 0v1413h385l481 -647q21 -29 44 -77t26 -81h8v805h397v-1413h-389l-483 657q-60 81 -60 154h-12v-811h-397zM352 1511q0 172 84 254t230 82q50 0 89 -15.5t58 -33.5t40 -33.5t38 -15.5q25 0 45 21.5t20 72.5h271q0 -148 -76 -233.5t-207 -85.5q-60 0 -103 12 t-63.5 29.5t-34 35t-27 29.5t-30.5 12q-33 0 -50.5 -29t-21.5 -102h-262z" />
<glyph unicode="&#xd2;" horiz-adv-x="1488" d="M39 707q0 333 189 530t509 197q327 0 520 -197t193 -530t-193 -530t-520 -197q-320 0 -509 197t-189 530zM248 1823h356l238 -291h-213zM479 707q0 -174 70.5 -277.5t187.5 -103.5q126 0 200.5 103t74.5 278t-74.5 277.5t-200.5 102.5q-117 0 -187.5 -103t-70.5 -277z " />
<glyph unicode="&#xd3;" horiz-adv-x="1488" d="M39 707q0 333 189 530t509 197q327 0 520 -197t193 -530t-193 -530t-520 -197q-320 0 -509 197t-189 530zM479 707q0 -174 70.5 -277.5t187.5 -103.5q126 0 200.5 103t74.5 278t-74.5 277.5t-200.5 102.5q-117 0 -187.5 -103t-70.5 -277zM610 1528l234 295h360l-338 -295 h-256z" />
<glyph unicode="&#xd4;" horiz-adv-x="1488" d="M39 707q0 333 189 530t509 197q327 0 520 -197t193 -530t-193 -530t-520 -197q-320 0 -509 197t-189 530zM381 1532l237 301h232l240 -301h-281l-76 158l-76 -158h-276zM479 707q0 -174 70.5 -277.5t187.5 -103.5q126 0 200.5 103t74.5 278t-74.5 277.5t-200.5 102.5 q-117 0 -187.5 -103t-70.5 -277z" />
<glyph unicode="&#xd5;" horiz-adv-x="1488" d="M39 707q0 333 189 530t509 197q327 0 520 -197t193 -530t-193 -530t-520 -197q-320 0 -509 197t-189 530zM301 1511q0 172 83.5 254t229.5 82q50 0 89.5 -15.5t58.5 -33.5t40 -33.5t38 -15.5q25 0 45 21.5t20 72.5h271q0 -148 -76 -233.5t-207 -85.5q-60 0 -103 12 t-63.5 29.5t-34 35t-27 29.5t-30.5 12q-33 0 -50.5 -29t-21.5 -102h-262zM479 707q0 -174 70.5 -277.5t187.5 -103.5q126 0 200.5 103t74.5 278t-74.5 277.5t-200.5 102.5q-117 0 -187.5 -103t-70.5 -277z" />
<glyph unicode="&#xd6;" horiz-adv-x="1488" d="M39 707q0 333 189 530t509 197q327 0 520 -197t193 -530t-193 -530t-520 -197q-320 0 -509 197t-189 530zM414 1567v256h260v-256h-260zM479 707q0 -174 70.5 -277.5t187.5 -103.5q126 0 200.5 103t74.5 278t-74.5 277.5t-200.5 102.5q-117 0 -187.5 -103t-70.5 -277z M799 1567v256h260v-256h-260z" />
<glyph unicode="&#xd7;" horiz-adv-x="1021" d="M35 903l201 197l274 -273l268 269l197 -209l-262 -262l276 -279l-196 -196l-279 274l-272 -270l-197 208l264 267z" />
<glyph unicode="&#xd8;" horiz-adv-x="1488" d="M37 170l110 111q-108 177 -108 426q0 333 189 530t509 197q259 0 437 -127l94 94l164 -158l-101 -100q119 -179 119 -436q0 -333 -193 -530t-520 -197q-257 0 -436 131l-98 -99zM479 707q0 -49 6 -89l412 412q-66 57 -160 57q-117 0 -187.5 -103t-70.5 -277zM582 391 q62 -65 155 -65q126 0 200.5 103t74.5 278q0 61 -8 108z" />
<glyph unicode="&#xd9;" horiz-adv-x="1470" d="M123 559v854h397v-866q0 -99 54 -152t155 -53q106 0 163.5 53.5t57.5 151.5v866h398v-844q0 -589 -619 -589q-309 0 -457.5 150t-148.5 429zM248 1823h356l238 -291h-213z" />
<glyph unicode="&#xda;" horiz-adv-x="1470" d="M123 559v854h397v-866q0 -99 54 -152t155 -53q106 0 163.5 53.5t57.5 151.5v866h398v-844q0 -589 -619 -589q-309 0 -457.5 150t-148.5 429zM610 1528l234 295h360l-338 -295h-256z" />
<glyph unicode="&#xdb;" horiz-adv-x="1470" d="M123 559v854h397v-866q0 -99 54 -152t155 -53q106 0 163.5 53.5t57.5 151.5v866h398v-844q0 -589 -619 -589q-309 0 -457.5 150t-148.5 429zM381 1532l237 301h232l240 -301h-281l-76 158l-76 -158h-276z" />
<glyph unicode="&#xdc;" horiz-adv-x="1470" d="M123 559v854h397v-866q0 -99 54 -152t155 -53q106 0 163.5 53.5t57.5 151.5v866h398v-844q0 -589 -619 -589q-309 0 -457.5 150t-148.5 429zM414 1567v256h260v-256h-260zM799 1567v256h260v-256h-260z" />
<glyph unicode="&#xdd;" horiz-adv-x="1443" d="M-10 1413h444l299 -500l277 500h444l-536 -864v-549h-392v549zM594 1528l233 295h361l-338 -295h-256z" />
<glyph unicode="&#xde;" horiz-adv-x="1173" d="M123 0v1413h334v-108h229q69 0 135 -19.5t125.5 -60.5t104 -100.5t70.5 -145.5t26 -188q0 -105 -41 -192t-107.5 -141.5t-147.5 -84t-165 -29.5h-229v-344h-334zM457 668h229q63 0 95 39t32 110q0 75 -32 115.5t-95 40.5h-229v-305z" />
<glyph unicode="&#xdf;" horiz-adv-x="1210" d="M100 0v961q0 112 42 204t111.5 149.5t155 88.5t177.5 31q86 0 172.5 -27.5t161 -78.5t121 -135.5t46.5 -188.5q0 -43 -8 -79.5t-21.5 -62t-31.5 -47t-37.5 -34.5t-38.5 -23t-37 -15t-31.5 -7.5t-21.5 -3.5l-8 -1l11 -4q11 -4 29 -12t41.5 -20t50 -30.5t52.5 -40 t49.5 -51.5t41.5 -63t29 -76t11 -90q0 -162 -121 -262t-311 -100q-70 0 -145 14v364q60 -47 133 -47q24 0 43 6.5t28.5 16.5t14 18.5t4.5 14.5q0 15 -22 35.5t-55 42t-71.5 53.5t-71.5 66t-55 82.5t-22 101.5t22.5 92.5t55 62t64.5 39.5t54.5 36t22.5 42q0 9 -4.5 21.5 t-16 30t-41 29t-71.5 11.5q-73 0 -109 -40.5t-36 -110.5v-963h-357z" />
<glyph unicode="&#xe0;" horiz-adv-x="1116" d="M37 1413h356l238 -291h-213zM41 791q75 98 204.5 161.5t293.5 63.5q79 0 149 -12t133.5 -40t109 -69t72.5 -103t27 -139v-653h-323l-35 78q-83 -59 -148 -78.5t-143 -19.5q-151 0 -241.5 71.5t-90.5 200.5q0 194 201 266q37 13 82.5 22.5t105.5 19t88 15.5q74 16 108 33 t34 51q0 56 -113 56q-63 0 -143.5 -38t-120.5 -89zM453 303q0 -10 1.5 -16.5t7 -16t21 -15t39.5 -5.5q71 0 123.5 35t52.5 104v35h-10q-44 -37 -125 -53q-7 -2 -24.5 -5.5t-24.5 -5.5t-19.5 -5.5t-18 -7.5t-12 -10.5t-9 -14.5t-2.5 -19z" />
<glyph unicode="&#xe1;" horiz-adv-x="1116" d="M41 791q75 98 204.5 161.5t293.5 63.5q79 0 149 -12t133.5 -40t109 -69t72.5 -103t27 -139v-653h-323l-35 78q-83 -59 -148 -78.5t-143 -19.5q-151 0 -241.5 71.5t-90.5 200.5q0 194 201 266q37 13 82.5 22.5t105.5 19t88 15.5q74 16 108 33t34 51q0 56 -113 56 q-63 0 -143.5 -38t-120.5 -89zM399 1118l234 295h360l-338 -295h-256zM453 303q0 -10 1.5 -16.5t7 -16t21 -15t39.5 -5.5q71 0 123.5 35t52.5 104v35h-10q-44 -37 -125 -53q-7 -2 -24.5 -5.5t-24.5 -5.5t-19.5 -5.5t-18 -7.5t-12 -10.5t-9 -14.5t-2.5 -19z" />
<glyph unicode="&#xe2;" horiz-adv-x="1116" d="M41 791q75 98 204.5 161.5t293.5 63.5q79 0 149 -12t133.5 -40t109 -69t72.5 -103t27 -139v-653h-323l-35 78q-83 -59 -148 -78.5t-143 -19.5q-151 0 -241.5 71.5t-90.5 200.5q0 194 201 266q37 13 82.5 22.5t105.5 19t88 15.5q74 16 108 33t34 51q0 56 -113 56 q-63 0 -143.5 -38t-120.5 -89zM170 1122l238 301h231l240 -301h-281l-76 158l-76 -158h-276zM453 303q0 -10 1.5 -16.5t7 -16t21 -15t39.5 -5.5q71 0 123.5 35t52.5 104v35h-10q-44 -37 -125 -53q-7 -2 -24.5 -5.5t-24.5 -5.5t-19.5 -5.5t-18 -7.5t-12 -10.5t-9 -14.5 t-2.5 -19z" />
<glyph unicode="&#xe3;" horiz-adv-x="1116" d="M41 791q75 98 204.5 161.5t293.5 63.5q79 0 149 -12t133.5 -40t109 -69t72.5 -103t27 -139v-653h-323l-35 78q-83 -59 -148 -78.5t-143 -19.5q-151 0 -241.5 71.5t-90.5 200.5q0 194 201 266q37 13 82.5 22.5t105.5 19t88 15.5q74 16 108 33t34 51q0 56 -113 56 q-63 0 -143.5 -38t-120.5 -89zM90 1102q0 172 83.5 254t229.5 82q50 0 89.5 -15.5t58.5 -34t40 -34t38 -15.5q24 0 44.5 22t20.5 73h271q0 -148 -76 -234t-207 -86q-60 0 -103 12.5t-63.5 30t-34 34.5t-27 29.5t-30.5 12.5q-33 0 -50.5 -29t-21.5 -102h-262zM453 303 q0 -10 1.5 -16.5t7 -16t21 -15t39.5 -5.5q71 0 123.5 35t52.5 104v35h-10q-44 -37 -125 -53q-7 -2 -24.5 -5.5t-24.5 -5.5t-19.5 -5.5t-18 -7.5t-12 -10.5t-9 -14.5t-2.5 -19z" />
<glyph unicode="&#xe4;" horiz-adv-x="1116" d="M41 791q75 98 204.5 161.5t293.5 63.5q79 0 149 -12t133.5 -40t109 -69t72.5 -103t27 -139v-653h-323l-35 78q-83 -59 -148 -78.5t-143 -19.5q-151 0 -241.5 71.5t-90.5 200.5q0 194 201 266q37 13 82.5 22.5t105.5 19t88 15.5q74 16 108 33t34 51q0 56 -113 56 q-63 0 -143.5 -38t-120.5 -89zM203 1157v256h260v-256h-260zM453 303q0 -10 1.5 -16.5t7 -16t21 -15t39.5 -5.5q71 0 123.5 35t52.5 104v35h-10q-44 -37 -125 -53q-7 -2 -24.5 -5.5t-24.5 -5.5t-19.5 -5.5t-18 -7.5t-12 -10.5t-9 -14.5t-2.5 -19zM588 1157v256h260v-256 h-260z" />
<glyph unicode="&#xe5;" horiz-adv-x="1116" d="M41 791q75 98 204.5 161.5t293.5 63.5q79 0 149 -12t133.5 -40t109 -69t72.5 -103t27 -139v-653h-323l-35 78q-83 -59 -148 -78.5t-143 -19.5q-151 0 -241.5 71.5t-90.5 200.5q0 194 201 266q37 13 82.5 22.5t105.5 19t88 15.5q74 16 108 33t34 51q0 56 -113 56 q-63 0 -143.5 -38t-120.5 -89zM285 1348q0 100 68.5 170.5t170.5 70.5q101 0 172.5 -70.5t71.5 -170.5q0 -103 -70.5 -172.5t-173.5 -69.5t-171 71t-68 171zM426 1354q0 -44 28.5 -75.5t69.5 -31.5q45 0 73 29.5t28 77.5q0 42 -26.5 67t-74.5 25q-43 0 -70.5 -26.5 t-27.5 -65.5zM453 303q0 -10 1.5 -16.5t7 -16t21 -15t39.5 -5.5q71 0 123.5 35t52.5 104v35h-10q-44 -37 -125 -53q-7 -2 -24.5 -5.5t-24.5 -5.5t-19.5 -5.5t-18 -7.5t-12 -10.5t-9 -14.5t-2.5 -19z" />
<glyph unicode="&#xe6;" horiz-adv-x="1695" d="M41 756q84 133 199 195.5t272 62.5q207 0 315 -111q136 109 330 109q73 0 141.5 -14t134 -47t114.5 -81.5t78.5 -123t29.5 -166.5q0 -89 -13 -158h-604q4 -62 35.5 -91.5t81.5 -29.5q99 0 154 86l354 -72q-63 -151 -201.5 -239t-326.5 -88q-214 0 -347 121 q-136 -129 -382 -129q-157 0 -258 66t-101 198q0 70 30.5 121.5t72.5 79t106 53.5q39 15 126.5 39.5t148 49t87.5 56.5q19 20 12 42q-2 2 -3 -5q0 25 -29 35t-74 4q-63 -7 -123.5 -45.5t-83.5 -98.5zM410 309q-6 -61 53 -78q42 -11 84.5 0t75.5 39q28 25 41 54 q-15 75 -17 133q-39 -31 -100 -57t-97.5 -45.5t-39.5 -45.5zM1040 592h234q6 49 -23.5 81t-93.5 32q-60 0 -87.5 -31.5t-29.5 -81.5z" />
<glyph unicode="&#xe7;" horiz-adv-x="1091" d="M51 498q0 109 34 202.5t99 164t167 111t231 40.5q367 0 499 -334l-336 -135q-28 79 -63.5 105t-85.5 26q-78 0 -116 -41.5t-38 -142.5q0 -99 37.5 -138t112.5 -39q63 0 95 31.5t52 100.5l328 -125q-79 -261 -315 -324h10l-103 -121q59 -13 102.5 -63.5t43.5 -118.5 q0 -93 -60.5 -145t-162.5 -52q-85 0 -157.5 46t-96.5 110l170 76q7 -25 25 -39.5t38 -16.5q14 -2 24.5 6t10.5 21q0 26 -41 37l-184 49l118 197q-142 19 -242.5 92.5t-148 180.5t-47.5 239z" />
<glyph unicode="&#xe8;" horiz-adv-x="1099" d="M51 475q0 135 42 240.5t114.5 168.5t162 95.5t191.5 32.5q73 0 141.5 -14t134 -47t114.5 -81.5t78.5 -123t29.5 -166.5q0 -94 -12 -158h-605q4 -62 35.5 -91.5t81.5 -29.5q99 0 154 86l354 -72q-63 -151 -201.5 -239t-326.5 -88q-97 0 -182 27.5t-155 84t-110.5 153 t-40.5 222.5zM57 1413h357l237 -291h-213zM444 592h234q6 49 -23.5 81t-93.5 32q-60 0 -87.5 -31.5t-29.5 -81.5z" />
<glyph unicode="&#xe9;" horiz-adv-x="1099" d="M51 475q0 135 42 240.5t114.5 168.5t162 95.5t191.5 32.5q73 0 141.5 -14t134 -47t114.5 -81.5t78.5 -123t29.5 -166.5q0 -94 -12 -158h-605q4 -62 35.5 -91.5t81.5 -29.5q99 0 154 86l354 -72q-63 -151 -201.5 -239t-326.5 -88q-97 0 -182 27.5t-155 84t-110.5 153 t-40.5 222.5zM420 1118l233 295h361l-338 -295h-256zM444 592h234q6 49 -23.5 81t-93.5 32q-60 0 -87.5 -31.5t-29.5 -81.5z" />
<glyph unicode="&#xea;" horiz-adv-x="1099" d="M51 475q0 135 42 240.5t114.5 168.5t162 95.5t191.5 32.5q73 0 141.5 -14t134 -47t114.5 -81.5t78.5 -123t29.5 -166.5q0 -94 -12 -158h-605q4 -62 35.5 -91.5t81.5 -29.5q99 0 154 86l354 -72q-63 -151 -201.5 -239t-326.5 -88q-97 0 -182 27.5t-155 84t-110.5 153 t-40.5 222.5zM190 1122l238 301h231l240 -301h-281l-75 158l-76 -158h-277zM444 592h234q6 49 -23.5 81t-93.5 32q-60 0 -87.5 -31.5t-29.5 -81.5z" />
<glyph unicode="&#xeb;" horiz-adv-x="1099" d="M51 475q0 135 42 240.5t114.5 168.5t162 95.5t191.5 32.5q73 0 141.5 -14t134 -47t114.5 -81.5t78.5 -123t29.5 -166.5q0 -94 -12 -158h-605q4 -62 35.5 -91.5t81.5 -29.5q99 0 154 86l354 -72q-63 -151 -201.5 -239t-326.5 -88q-97 0 -182 27.5t-155 84t-110.5 153 t-40.5 222.5zM223 1157v256h260v-256h-260zM444 592h234q6 49 -23.5 81t-93.5 32q-60 0 -87.5 -31.5t-29.5 -81.5zM608 1157v256h260v-256h-260z" />
<glyph unicode="&#xec;" horiz-adv-x="591" d="M-193 1413h357l237 -291h-213zM102 0v999h387v-999h-387z" />
<glyph unicode="&#xed;" horiz-adv-x="591" d="M102 0v999h387v-999h-387zM170 1118l233 295h361l-338 -295h-256z" />
<glyph unicode="&#xee;" horiz-adv-x="591" d="M-59 1122l237 301h232l239 -301h-280l-76 158l-76 -158h-276zM102 0v999h387v-999h-387z" />
<glyph unicode="&#xef;" horiz-adv-x="591" d="M-27 1157v256h260v-256h-260zM102 0v999h387v-999h-387zM358 1157v256h260v-256h-260z" />
<glyph unicode="&#xf0;" horiz-adv-x="1187" d="M47 516q0 104 35 200t98.5 170t160.5 118.5t212 44.5q83 0 147 -27t101 -72q-95 143 -266 238l-72 -109l-127 80l59 88q-63 23 -121 33l140 236q21 -7 127 -54l90 133l123 -75l-86 -129q232 -146 353.5 -368.5t121.5 -506.5q0 -104 -38 -199.5t-106.5 -170t-173.5 -118.5 t-231 -44q-130 0 -236 44t-172.5 118.5t-102.5 169.5t-36 200zM442 516q0 -104 41.5 -165.5t110.5 -61.5q68 0 107.5 61.5t39.5 165.5t-39.5 165.5t-107.5 61.5q-69 0 -110.5 -61.5t-41.5 -165.5z" />
<glyph unicode="&#xf1;" horiz-adv-x="1245" d="M92 0v999h379v-108h12q43 63 125 101t193 38q155 0 253.5 -101.5t98.5 -260.5v-668h-385v594q0 55 -38 88t-103 33q-66 0 -107 -33t-41 -88v-594h-387zM195 1083q0 172 83.5 254t229.5 82q50 0 89 -15.5t58 -33.5t40 -33.5t38 -15.5q25 0 45.5 21.5t20.5 72.5h270 q0 -148 -76 -233.5t-207 -85.5q-60 0 -103 12t-63.5 29.5t-34 35t-27 29.5t-30.5 12q-32 0 -49.5 -29t-21.5 -102h-262z" />
<glyph unicode="&#xf2;" d="M51 496q0 124 41.5 223.5t115.5 162.5t171.5 96.5t212.5 33.5q156 0 276 -57t191 -175.5t71 -283.5t-71 -283.5t-191 -175.5t-276 -57q-115 0 -212.5 33.5t-171.5 96.5t-115.5 162.5t-41.5 223.5zM102 1413h357l237 -291h-213zM442 496q0 -201 150 -201q151 0 151 201 q0 200 -151 200q-150 0 -150 -200z" />
<glyph unicode="&#xf3;" d="M51 496q0 124 41.5 223.5t115.5 162.5t171.5 96.5t212.5 33.5q156 0 276 -57t191 -175.5t71 -283.5t-71 -283.5t-191 -175.5t-276 -57q-115 0 -212.5 33.5t-171.5 96.5t-115.5 162.5t-41.5 223.5zM442 496q0 -201 150 -201q151 0 151 201q0 200 -151 200 q-150 0 -150 -200zM465 1118l233 295h361l-338 -295h-256z" />
<glyph unicode="&#xf4;" d="M51 496q0 124 41.5 223.5t115.5 162.5t171.5 96.5t212.5 33.5q156 0 276 -57t191 -175.5t71 -283.5t-71 -283.5t-191 -175.5t-276 -57q-115 0 -212.5 33.5t-171.5 96.5t-115.5 162.5t-41.5 223.5zM236 1122l237 301h232l239 -301h-280l-76 158l-76 -158h-276zM442 496 q0 -201 150 -201q151 0 151 201q0 200 -151 200q-150 0 -150 -200z" />
<glyph unicode="&#xf5;" d="M51 496q0 124 41.5 223.5t115.5 162.5t171.5 96.5t212.5 33.5q156 0 276 -57t191 -175.5t71 -283.5t-71 -283.5t-191 -175.5t-276 -57q-115 0 -212.5 33.5t-171.5 96.5t-115.5 162.5t-41.5 223.5zM156 1102q0 172 83.5 254t229.5 82q50 0 89 -15.5t58 -34t40 -34 t38 -15.5q25 0 45.5 22t20.5 73h270q0 -148 -76 -234t-206 -86q-60 0 -103 12.5t-63.5 30t-34.5 34.5t-27.5 29.5t-30.5 12.5q-32 0 -49.5 -29t-21.5 -102h-262zM442 496q0 -201 150 -201q151 0 151 201q0 200 -151 200q-150 0 -150 -200z" />
<glyph unicode="&#xf6;" d="M51 496q0 124 41.5 223.5t115.5 162.5t171.5 96.5t212.5 33.5q156 0 276 -57t191 -175.5t71 -283.5t-71 -283.5t-191 -175.5t-276 -57q-115 0 -212.5 33.5t-171.5 96.5t-115.5 162.5t-41.5 223.5zM268 1157v256h260v-256h-260zM442 496q0 -201 150 -201q151 0 151 201 q0 200 -151 200q-150 0 -150 -200zM653 1157v256h260v-256h-260z" />
<glyph unicode="&#xf7;" horiz-adv-x="1906" d="M104 584v288h1698v-288h-1698zM768 0v367h373v-367h-373zM768 1077v369h373v-369h-373z" />
<glyph unicode="&#xf8;" d="M51 496q0 124 41.5 223.5t115.5 162.5t171.5 96.5t212.5 33.5q182 0 315 -80l60 59l116 -110l-55 -56q102 -127 102 -329q0 -165 -71 -283.5t-191 -175.5t-276 -57q-188 0 -324 83l-55 -55l-119 113l53 53q-96 129 -96 322zM442 469l215 215q-27 12 -65 12 q-150 0 -150 -200v-27zM516 313q35 -18 76 -18q151 0 151 201q0 29 -2 43z" />
<glyph unicode="&#xf9;" horiz-adv-x="1267" d="M115 332v667h387v-559q0 -52 42.5 -90.5t110.5 -38.5q70 0 103 36t33 91v561h385v-999h-377v109h-15q-47 -70 -131.5 -105t-185.5 -35q-112 0 -193.5 51t-120 132t-38.5 180zM156 1413h356l238 -291h-213z" />
<glyph unicode="&#xfa;" horiz-adv-x="1267" d="M115 332v667h387v-559q0 -52 42.5 -90.5t110.5 -38.5q70 0 103 36t33 91v561h385v-999h-377v109h-15q-47 -70 -131.5 -105t-185.5 -35q-112 0 -193.5 51t-120 132t-38.5 180zM518 1118l234 295h360l-338 -295h-256z" />
<glyph unicode="&#xfb;" horiz-adv-x="1267" d="M115 332v667h387v-559q0 -52 42.5 -90.5t110.5 -38.5q70 0 103 36t33 91v561h385v-999h-377v109h-15q-47 -70 -131.5 -105t-185.5 -35q-112 0 -193.5 51t-120 132t-38.5 180zM289 1122l237 301h232l239 -301h-280l-76 158l-76 -158h-276z" />
<glyph unicode="&#xfc;" horiz-adv-x="1267" d="M115 332v667h387v-559q0 -52 42.5 -90.5t110.5 -38.5q70 0 103 36t33 91v561h385v-999h-377v109h-15q-47 -70 -131.5 -105t-185.5 -35q-112 0 -193.5 51t-120 132t-38.5 180zM322 1157v256h260v-256h-260zM707 1157v256h260v-256h-260z" />
<glyph unicode="&#xfd;" horiz-adv-x="1085" d="M-47 999h412l122 -381q11 -38 24 -105t13 -95h21q0 26 13.5 95.5t25.5 104.5l129 381h413l-464 -1138q-75 -195 -265 -195h-311v320h117q102 0 123 43l30 63zM418 1118l233 295h361l-338 -295h-256z" />
<glyph unicode="&#xfe;" horiz-adv-x="1198" d="M100 -334v1743h394v-524q14 37 46.5 65.5t71 42.5t71 20.5t56.5 6.5q109 0 199.5 -44t147.5 -117.5t88.5 -166t31.5 -192.5t-31.5 -192.5t-88.5 -166t-147.5 -117.5t-199.5 -44q-23 0 -50.5 4.5t-65 16.5t-71.5 40t-54 68h-13v-443h-385zM485 500q0 -85 41 -121.5 t127 -36.5q74 0 117 38.5t43 119.5q0 82 -44 129t-116 47q-168 0 -168 -176z" />
<glyph unicode="&#xff;" horiz-adv-x="1085" d="M-47 999h412l122 -381q11 -38 24 -105t13 -95h21q0 26 13.5 95.5t25.5 104.5l129 381h413l-464 -1138q-75 -195 -265 -195h-311v320h117q102 0 123 43l30 63zM221 1157v256h260v-256h-260zM606 1157v256h260v-256h-260z" />
<glyph unicode="&#x152;" horiz-adv-x="2390" d="M51 707q0 114 27.5 219t87 198t146 161.5t211.5 108.5t276 40q66 0 133.5 -19.5t116.5 -46.5t89 -54.5t61 -45.5t22 -17v158h1085v-354h-747v-170h659v-355h-659v-182h747v-348h-1085v162q-2 -1 -26 -20t-48 -36.5t-65.5 -41.5t-82.5 -41.5t-94.5 -30t-105.5 -12.5 q-151 0 -276 39.5t-211.5 108t-146 161.5t-87 198t-27.5 220zM449 707q0 -345 350 -345q182 0 272 91t90 254t-90 253.5t-272 90.5q-350 0 -350 -344zM1223 164h2h-2z" />
<glyph unicode="&#x153;" horiz-adv-x="1882" d="M51 496q0 124 41.5 223.5t115.5 162.5t171.5 96.5t212.5 33.5q245 0 389 -135q141 135 362 135q73 0 141.5 -14t134 -47t114.5 -81.5t78.5 -123t29.5 -166.5q0 -94 -12 -158h-604q4 -62 35 -91.5t81 -29.5q99 0 154 86l354 -72q-63 -151 -201.5 -239t-326.5 -88 q-216 0 -346 121q-144 -129 -383 -129q-115 0 -212.5 33.5t-171.5 96.5t-115.5 162.5t-41.5 223.5zM442 496q0 -201 150 -201q151 0 151 201q0 200 -151 200q-150 0 -150 -200zM1227 592h233q6 49 -23.5 81t-93.5 32q-60 0 -87 -31.5t-29 -81.5z" />
<glyph unicode="&#x178;" horiz-adv-x="1443" d="M-10 1413h444l299 -500l277 500h444l-536 -864v-549h-392v549zM397 1567v256h260v-256h-260zM782 1567v256h260v-256h-260z" />
<glyph unicode="&#x2000;" horiz-adv-x="923" />
<glyph unicode="&#x2001;" horiz-adv-x="1847" />
<glyph unicode="&#x2002;" horiz-adv-x="923" />
<glyph unicode="&#x2003;" horiz-adv-x="1847" />
<glyph unicode="&#x2004;" horiz-adv-x="615" />
<glyph unicode="&#x2005;" horiz-adv-x="461" />
<glyph unicode="&#x2006;" horiz-adv-x="307" />
<glyph unicode="&#x2007;" horiz-adv-x="307" />
<glyph unicode="&#x2008;" horiz-adv-x="230" />
<glyph unicode="&#x2009;" horiz-adv-x="369" />
<glyph unicode="&#x200a;" horiz-adv-x="102" />
<glyph unicode="&#x2010;" horiz-adv-x="788" d="M51 340v362h686v-362h-686z" />
<glyph unicode="&#x2011;" horiz-adv-x="788" d="M51 340v362h686v-362h-686z" />
<glyph unicode="&#x2012;" horiz-adv-x="788" d="M51 340v362h686v-362h-686z" />
<glyph unicode="&#x2013;" horiz-adv-x="931" d="M31 340v362h870v-362h-870z" />
<glyph unicode="&#x2014;" horiz-adv-x="2027" d="M-10 340v362h2048v-362h-2048z" />
<glyph unicode="&#x2018;" horiz-adv-x="481" d="M4 723v387l209 303h186l-110 -303h162v-387h-447z" />
<glyph unicode="&#x2019;" horiz-adv-x="550" d="M53 1026v387h447v-387l-209 -303h-187l111 303h-162z" />
<glyph unicode="&#x201a;" horiz-adv-x="577" d="M63 0v387h447v-387l-209 -303h-186l110 303h-162z" />
<glyph unicode="&#x201c;" horiz-adv-x="1060" d="M4 723v387l209 303h186l-110 -303h162v-387h-447zM584 723v387l209 303h186l-111 -303h162v-387h-446z" />
<glyph unicode="&#x201d;" horiz-adv-x="1124" d="M53 1026v387h447v-387l-209 -303h-187l111 303h-162zM627 1026v387h446v-387l-209 -303h-186l110 303h-161z" />
<glyph unicode="&#x201e;" horiz-adv-x="1150" d="M63 0v387h447v-387l-209 -303h-186l110 303h-162zM637 0v387h446v-387l-209 -303h-186l111 303h-162z" />
<glyph unicode="&#x2022;" horiz-adv-x="1314" d="M74 688q0 159 78 293.5t213 213.5t294 79q156 0 290 -78.5t213 -214t79 -293.5t-79 -293.5t-213 -214t-290 -78.5q-159 0 -294 79t-213 213.5t-78 293.5z" />
<glyph unicode="&#x2026;" horiz-adv-x="1800" d="M80 0v387h446v-387h-446zM670 0v387h446v-387h-446zM1260 0v387h446v-387h-446z" />
<glyph unicode="&#x202f;" horiz-adv-x="369" />
<glyph unicode="&#x2039;" horiz-adv-x="655" d="M68 510l518 399v-288l-166 -111l166 -109v-288z" />
<glyph unicode="&#x203a;" horiz-adv-x="655" d="M68 113v288l165 109l-165 111v288l518 -399z" />
<glyph unicode="&#x205f;" horiz-adv-x="461" />
<glyph unicode="&#x20ac;" horiz-adv-x="1363" d="M-18 481l81 154h132q-5 73 -5 84v8h-170l91 164h96q22 118 73.5 216t131 172t193 115.5t249.5 41.5q239 0 401 -119l-122 -324q-50 121 -267 121q-156 0 -242 -55t-114 -168h584l-64 -164h-534q4 -60 10 -92h489l-59 -154h-383q94 -186 315 -186q82 0 137 28t121 97 l228 -242q-198 -198 -494 -198q-128 0 -236.5 38t-187 106t-133 158t-82.5 199h-239z" />
<glyph unicode="&#x2122;" horiz-adv-x="1398" d="M-2 1192v221h491v-221h-124v-315h-240v315h-127zM596 877v536h344l39 -178l29 178h346v-536h-242v358l-76 -287h-116l-84 273v-344h-240z" />
<glyph unicode="&#x25fc;" horiz-adv-x="1003" d="M0 0v1004h1004v-1004h-1004z" />
<glyph unicode="&#xfb03;" horiz-adv-x="1927" d="M2 764v235h186v74q0 171 85.5 255.5t273.5 84.5h192v-291h-133q-11 0 -18 -3t-10.5 -5.5t-5 -11.5t-1.5 -12v-15v-76h168h82v48q0 185 83.5 275.5t289.5 90.5h145v-285h-86q-31 0 -41 -12t-10 -47v-70h633v-999h-387v764h-246v-764h-385v764h-182h-64v-764h-387v764h-182 zM1448 1118v295h387v-295h-387z" />
<glyph unicode="&#xfb04;" horiz-adv-x="1984" d="M2 764v235h186v74q0 171 85.5 255.5t273.5 84.5h192v-291h-133q-11 0 -18 -3t-10.5 -5.5t-5 -11.5t-1.5 -12v-15v-76h168h97v48q0 185 82.5 275.5t287.5 90.5h180v-285h-139q-16 0 -23 -11.5t-7 -41.5v-76h169v-235h-169v-764h-386v764h-182h-78v-764h-387v764h-182z M1495 0v1413h387v-1413h-387z" />
</font>
</defs>
</svg>
