<?xml version="1.0" standalone="no"?>
<!DOCTYPE svg PUBLIC "-//W3C//DTD SVG 1.1//EN" "http://www.w3.org/Graphics/SVG/1.1/DTD/svg11.dtd" >
<svg xmlns="http://www.w3.org/2000/svg">
<metadata></metadata>
<defs>
<font id="hanken_sansextrabold" horiz-adv-x="1161" >
<font-face units-per-em="2048" ascent="1638" descent="-410" />
<missing-glyph horiz-adv-x="468" />
<glyph unicode="&#xfb01;" horiz-adv-x="1261" d="M6 784v215h187v68q0 172 82.5 259t269.5 87h151v-258h-116q-50 0 -50 -98v-58h625v-999h-342v784h-283v-784h-342v784h-182zM811 1137v276h346v-276h-346z" />
<glyph unicode="&#xfb02;" horiz-adv-x="1318" d="M6 784v215h187v68q0 172 82.5 259t269.5 87h172v-258h-137q-50 0 -50 -98v-58h187v-215h-187v-784h-342v784h-182zM862 0v1413h344v-1413h-344z" />
<glyph horiz-adv-x="0" />
<glyph horiz-adv-x="682" />
<glyph unicode=" "  horiz-adv-x="468" />
<glyph unicode="&#x09;" horiz-adv-x="468" />
<glyph unicode="&#xa0;" horiz-adv-x="468" />
<glyph unicode="!" horiz-adv-x="618" d="M141 0v336h336v-336h-336zM154 1413h311l-29 -940h-254z" />
<glyph unicode="&#x22;" horiz-adv-x="882" d="M100 827v586h275v-586h-275zM494 827v586h284v-586h-284z" />
<glyph unicode="#" horiz-adv-x="1339" d="M72 395v217h245l41 207h-208v211h251l80 383h226l-78 -369h215l78 369h223l-76 -379h199v-215h-244l-39 -207h207v-213h-252l-82 -399h-227l82 387h-215l-80 -387h-228l80 395h-198zM543 612h215l41 207h-215z" />
<glyph unicode="$" horiz-adv-x="1107" d="M23 395l276 56q17 -104 89.5 -157.5t182.5 -53.5q115 0 170.5 41t55.5 131q0 47 -37.5 84.5t-97.5 65t-132.5 55t-145 64t-132.5 82.5t-97.5 119.5t-37.5 166.5q0 148 91.5 246.5t233.5 129.5v234h232v-227q227 -35 342 -232l-242 -133q-62 121 -215 121 q-67 0 -113.5 -37.5t-46.5 -93.5q0 -35 23.5 -64t62.5 -50.5t90 -42t107.5 -43t113 -48.5t107.5 -62.5t90 -81.5t62.5 -110t23.5 -143q0 -175 -113.5 -289.5t-291.5 -140.5v-228h-232v234q-162 32 -277 138t-142 269z" />
<glyph unicode="%" horiz-adv-x="1617" d="M84 1081q0 43 8 87t30.5 93.5t56 87t89.5 62.5t127 25q65 0 118.5 -22.5t88.5 -58.5t59.5 -83.5t35 -96t10.5 -96.5q0 -60 -17.5 -118.5t-52 -110t-96 -83.5t-140.5 -32q-72 0 -129.5 25t-91.5 63t-56.5 86t-31 90.5t-8.5 81.5zM246 -45l823 1538h291l-825 -1538h-289z M322 1081q0 -52 21.5 -80t53.5 -28q25 0 46.5 29t21.5 79q0 57 -21 88t-49 31q-30 0 -51.5 -31t-21.5 -88zM911 336q0 43 8.5 88.5t30.5 96t55.5 89.5t90 64.5t127.5 25.5q81 0 143.5 -34.5t97.5 -90t52.5 -116.5t17.5 -123q0 -48 -10 -96t-34 -95t-58 -83t-86.5 -58 t-116.5 -22q-72 0 -129.5 24.5t-92 62.5t-57 87t-31 93.5t-8.5 86.5zM1149 336q0 -56 22.5 -87.5t55.5 -31.5q23 0 44 33.5t21 87.5q0 58 -21.5 90.5t-47.5 32.5q-29 0 -51.5 -32.5t-22.5 -92.5z" />
<glyph unicode="&#x26;" horiz-adv-x="1490" d="M49 381q0 81 31.5 155.5t80 123t108.5 72t114 9.5l4 23q-95 45 -144.5 112.5t-49.5 192.5q0 77 27 140t71.5 104t104 69t122 40t127.5 12q85 0 163 -21.5t143 -64.5t104 -115.5t39 -165.5q0 -108 -46.5 -184t-152.5 -146l-201 185q66 54 66 120q0 44 -30.5 75.5 t-80.5 31.5q-48 0 -80 -31.5t-32 -73.5q0 -38 18.5 -68t73.5 -85l332 -326l120 172h408l-311 -389l354 -348h-459l-115 117q-146 -146 -389 -146q-102 0 -194 25.5t-165.5 74.5t-117 129t-43.5 181zM416 412q0 -74 48 -114t120 -40q41 0 85 22t76 56l-213 221 q-116 -41 -116 -145z" />
<glyph unicode="'" horiz-adv-x="475" d="M100 856v586h275v-586h-275z" />
<glyph unicode="(" horiz-adv-x="702" d="M57 614q0 198 21.5 359t58 264.5t77.5 167t87 90.5h348q-115 -121 -180 -246t-95 -289t-30 -401q0 -88 4.5 -162.5t10 -134.5t20 -116.5t25 -96.5t35 -87t40 -75.5t49.5 -74.5t55 -72t64 -78h-336q-118 98 -186 338t-68 614z" />
<glyph unicode=")" horiz-adv-x="704" d="M92 -346q115 119 180 243t95 288.5t30 404.5q0 97 -4 177.5t-15.5 149t-22.5 120.5t-34 105.5t-41 89t-53 85t-59.5 81t-71.5 87.5h334q111 -79 183.5 -330.5t72.5 -619.5q0 -200 -21 -358.5t-58 -260t-77 -163.5t-88 -99h-350z" />
<glyph unicode="*" horiz-adv-x="739" d="M37 1085l55 191l213 -92l-29 229h193l-31 -229l213 92l51 -191l-223 -36l158 -187l-152 -117l-112 213l-115 -213l-149 117l159 187z" />
<glyph unicode="+" horiz-adv-x="1392" d="M113 496v258h456v389h254v-389h457v-258h-457v-390h-254v390h-456z" />
<glyph unicode="," horiz-adv-x="571" d="M78 0v356h403v-356l-194 -305h-170l106 305h-145z" />
<glyph unicode="-" horiz-adv-x="759" d="M53 362v316h654v-316h-654z" />
<glyph unicode="." horiz-adv-x="585" d="M88 0v356h404v-356h-404z" />
<glyph unicode="/" horiz-adv-x="1259" d="M166 -156l651 1565h301l-649 -1565h-303z" />
<glyph unicode="0" horiz-adv-x="1210" d="M31 707q0 341 144 535t419 194q282 0 433 -192.5t151 -536.5q0 -342 -147.5 -534.5t-422.5 -192.5q-189 0 -320 90.5t-194 252t-63 384.5zM379 707q0 -193 55 -305.5t168 -112.5q108 0 161.5 114t53.5 306t-55 302.5t-168 110.5q-108 0 -161.5 -111.5t-53.5 -303.5z" />
<glyph unicode="1" horiz-adv-x="970" d="M88 893v319l326 201h340v-1413h-346v1104z" />
<glyph unicode="2" horiz-adv-x="1269" d="M111 870q0 124 33 225t99 177t173.5 118t247.5 42q221 0 357 -125.5t136 -325.5q0 -94 -27.5 -172t-72 -130t-102 -96t-118 -71.5t-118.5 -53.5t-104.5 -45t-76 -44t-32.5 -52v-2h680v-315h-1036v240q0 87 28.5 157t74.5 115t105.5 83.5t121 64t121 55.5t105.5 58 t74.5 71t28.5 96q0 83 -43.5 129.5t-120.5 46.5q-93 0 -143.5 -70t-48.5 -196z" />
<glyph unicode="3" horiz-adv-x="1122" d="M33 492l338 14q0 -102 53.5 -161.5t140.5 -59.5q81 0 133 46t52 124q0 73 -49.5 115t-129.5 42h-71v275h71q52 0 82.5 31t30.5 86q0 57 -39 89.5t-104 32.5q-69 0 -112 -47.5t-44 -126.5l-334 17q0 110 39 199.5t105.5 146.5t154 88t185.5 31q127 0 237 -47.5t180 -142.5 t70 -218q0 -101 -48.5 -166t-125.5 -94v-4q44 -7 84.5 -29.5t76.5 -60t58.5 -97t24.5 -131.5q0 -115 -45 -205.5t-120 -146t-167.5 -84t-194.5 -28.5q-106 0 -200 32t-169 93t-119 161t-44 226z" />
<glyph unicode="4" horiz-adv-x="1210" d="M53 287v331l619 795h284v-846h150v-280h-150v-287h-350v287h-553zM348 567h258v332z" />
<glyph unicode="5" horiz-adv-x="1212" d="M27 389l333 96q29 -79 86.5 -127.5t133.5 -48.5q79 0 140.5 58t61.5 143q0 82 -59 135t-143 53q-114 0 -191 -88l-332 68l140 735h880v-297h-618l-35 -211l-12 -24l6 -7q121 109 291 109q87 0 166 -34t137.5 -94.5t93.5 -148.5t35 -190q0 -154 -75 -277.5t-200.5 -191 t-275.5 -67.5q-202 0 -351 111t-212 298z" />
<glyph unicode="6" horiz-adv-x="1138" d="M35 477q0 107 27.5 217.5t72.5 206t108 191t127.5 172.5t137.5 149h446q-87 -52 -253.5 -237.5t-204.5 -294.5l10 -7q80 54 186 54q110 0 205 -54.5t153 -152.5t58 -217q0 -105 -42 -201t-113.5 -167t-173.5 -113.5t-216 -42.5q-140 0 -262 66.5t-194 181.5t-72 249z M381 502q0 -80 52.5 -132.5t131.5 -52.5q84 0 138.5 52.5t54.5 132.5t-54 131t-139 51q-80 0 -132 -51.5t-52 -130.5z" />
<glyph unicode="7" horiz-adv-x="1003" d="M63 1085v328h910v-385q-125 -117 -211.5 -252.5t-128.5 -270.5t-56.5 -257.5t-7.5 -247.5h-409q2 132 42 294t106.5 315t163 280.5t200.5 183.5v12h-609z" />
<glyph unicode="8" horiz-adv-x="1181" d="M47 418q0 121 69 210.5t210 133.5v4q-89 15 -150 94t-61 191q0 166 134 274.5t339 108.5q207 0 341 -108.5t134 -274.5q0 -98 -59.5 -178.5t-151.5 -106.5v-4q135 -32 209 -124t74 -220q0 -197 -154 -317.5t-397 -120.5q-237 0 -387 121t-150 317zM387 453q0 -78 56 -126 t145 -48q87 0 142.5 48.5t55.5 125.5q0 72 -56 120t-142 48q-89 0 -145 -47.5t-56 -120.5zM442 1024q0 -51 41.5 -86t102.5 -35t102 35t41 88t-41 89t-102 36t-102.5 -36.5t-41.5 -90.5z" />
<glyph unicode="9" horiz-adv-x="1136" d="M31 909q0 140 70.5 260.5t196 192.5t277.5 72q140 0 261.5 -67t193.5 -182t72 -249q0 -132 -40.5 -267.5t-111 -256t-149 -220.5t-170.5 -192h-447q86 53 253.5 238.5t205.5 293.5l-10 7q-83 -54 -189 -54q-109 0 -203.5 54.5t-152 152.5t-57.5 217zM379 911 q0 -80 54.5 -131t139.5 -51q78 0 130.5 51.5t52.5 130.5t-52.5 132t-130.5 53q-84 0 -139 -52.5t-55 -132.5z" />
<glyph unicode=":" horiz-adv-x="571" d="M84 0v356h403v-356h-403zM86 702v357h403v-357h-403z" />
<glyph unicode=";" horiz-adv-x="577" d="M121 702v357h403v-357h-403zM139 0v356h404v-356l-195 -305h-170l107 305h-146z" />
<glyph unicode="&#x3c;" horiz-adv-x="1443" d="M113 674l1077 545l141 -242l-674 -303l674 -301l-141 -244z" />
<glyph unicode="=" horiz-adv-x="1124" d="M113 340v281h899v-281h-899zM113 723v281h899v-281h-899z" />
<glyph unicode="&#x3e;" horiz-adv-x="1443" d="M113 373l661 301l-661 303l139 242l1079 -545l-1079 -545z" />
<glyph unicode="?" horiz-adv-x="968" d="M47 922q0 109 24 199.5t74 161.5t133.5 111t194.5 40q67 0 128 -13.5t117 -44t97 -75.5t65.5 -113t24.5 -152q0 -73 -16 -127t-41.5 -85t-56.5 -54t-62.5 -42.5t-57 -42.5t-41.5 -62t-16 -93v-61h-272v63q0 76 16 133t41 90.5t56 58.5t61.5 44t55.5 39.5t41 53.5t16 77 q0 61 -36 97t-104 36q-89 0 -126 -61t-37 -178h-279zM317 0v336h324v-336h-324z" />
<glyph unicode="@" horiz-adv-x="1959" d="M72 543q0 181 70.5 345t191 283.5t290 190t359.5 70.5t363.5 -72t297.5 -192.5t197.5 -286.5t73.5 -346q0 -88 -17 -176t-55 -172t-93 -148.5t-137 -103.5t-181 -39q-116 0 -194.5 51.5t-115.5 148.5q-138 -82 -268 -82q-90 0 -160 36.5t-112.5 99.5t-64 141t-21.5 166 q0 127 44.5 243.5t117 198.5t167.5 131t193 49q148 0 231 -98l13 59h170q-194 160 -447 160q-140 0 -266.5 -53t-216 -141t-142.5 -208t-53 -249q0 -131 53.5 -251.5t143.5 -209t216.5 -141.5t264.5 -53q60 0 139 14l68 -232q-102 -24 -209 -24q-190 0 -360 71t-290.5 191 t-190.5 284t-70 345zM725 440q0 -88 35 -131t110 -43q91 0 162.5 61t107.5 152t36 191q0 87 -33.5 127.5t-106.5 40.5q-72 0 -132.5 -36.5t-98.5 -94.5t-59 -127.5t-21 -139.5zM1350 248q0 -75 26.5 -110t79.5 -23q36 5 73 30.5t71.5 71t56.5 121.5t22 168q0 275 -180 471 q-12 -52 -45.5 -189t-51.5 -214.5t-35 -174t-17 -151.5z" />
<glyph unicode="A" horiz-adv-x="1447" d="M-4 0l498 1413h458l500 -1413h-379l-100 313h-494l-102 -313h-381zM573 596h308l-123 385q-25 73 -25 109h-10q1 -15 -2 -32t-4.5 -24t-9.5 -29t-9 -24z" />
<glyph unicode="B" horiz-adv-x="1323" d="M137 0v1413h606q223 0 343 -101t120 -288q0 -100 -51 -174t-135 -107v-8q119 -22 187.5 -108t68.5 -217q0 -196 -126 -303t-355 -107h-658zM492 311h270q82 0 125 40t43 108q0 64 -45 100.5t-123 36.5h-270v-285zM492 852h253q60 0 100 35.5t40 91.5t-37.5 88.5 t-99.5 32.5h-256v-248z" />
<glyph unicode="C" horiz-adv-x="1318" d="M49 707q0 111 20 212t67.5 197t119.5 166t183.5 112t250.5 42q231 0 381 -108t225 -329l-340 -127q-22 126 -94 189t-174 63q-134 0 -211.5 -107t-77.5 -304q0 -195 79.5 -308.5t203.5 -113.5q101 0 173.5 66t107.5 196l337 -135q-146 -438 -612 -438q-138 0 -248.5 42 t-182 111.5t-119.5 165t-68.5 196.5t-20.5 212z" />
<glyph unicode="D" horiz-adv-x="1400" d="M137 0v1413h455q373 0 566.5 -186t193.5 -518q0 -342 -194.5 -525.5t-567.5 -183.5h-453zM489 311h76q218 0 328.5 102t110.5 298q0 190 -104 289.5t-312 99.5h-99v-789z" />
<glyph unicode="E" horiz-adv-x="1193" d="M137 0v1413h969v-313h-617v-234h584v-315h-584v-236h617v-315h-969z" />
<glyph unicode="F" horiz-adv-x="1159" d="M137 0v1413h1008v-313h-656v-234h568v-315h-568v-551h-352z" />
<glyph unicode="G" horiz-adv-x="1466" d="M49 715q0 145 43.5 274t125.5 229t211.5 159t289.5 59q239 0 414 -119t223 -289l-297 -117q-33 112 -114 173t-202 61q-91 0 -159 -35t-107.5 -96.5t-58.5 -137.5t-19 -167t19 -165.5t59 -133.5t108 -92t160 -33q146 0 227 75q77 73 77 165v7h-297v281h608v-813h-268 l-13 184q-120 -204 -409 -204q-144 0 -263.5 61t-196.5 164t-119 234.5t-42 275.5z" />
<glyph unicode="H" horiz-adv-x="1499" d="M137 0v1409h352v-545h521v545h352v-1409h-352v551h-521v-551h-352z" />
<glyph unicode="I" horiz-adv-x="626" d="M137 0v1413h352v-1413h-352z" />
<glyph unicode="J" horiz-adv-x="800" d="M23 0v324q117 -17 159 -17t70.5 7.5t52 27.5t34.5 59.5t11 100.5v907h355v-1003q0 -195 -122 -310.5t-341 -115.5q-151 0 -219 20z" />
<glyph unicode="K" horiz-adv-x="1507" d="M137 0v1409h352v-637l545 637h449l-613 -680l637 -729h-477l-491 604h-50v-604h-352z" />
<glyph unicode="L" horiz-adv-x="1105" d="M137 0v1413h352v-1100h605v-313h-957z" />
<glyph unicode="M" horiz-adv-x="1964" d="M137 0v1409h502l340 -860l342 860h508v-1409h-354v981h-13q-6 -39 -32 -109l-300 -749h-303l-297 741q-20 49 -30 117h-15v-981h-348z" />
<glyph unicode="N" horiz-adv-x="1568" d="M137 0v1413h357l512 -737q57 -89 65 -146h8v883h355v-1413h-361l-512 743q-57 77 -59 148h-13v-891h-352z" />
<glyph unicode="O" horiz-adv-x="1482" d="M49 707q0 333 185.5 530t500.5 197q321 0 510 -197t189 -530t-189 -530t-510 -197q-315 0 -500.5 197t-185.5 530zM436 707q0 -191 81.5 -304.5t217.5 -113.5q143 0 228.5 113.5t85.5 304.5t-85.5 304t-228.5 113q-136 0 -217.5 -113t-81.5 -304z" />
<glyph unicode="P" horiz-adv-x="1263" d="M137 0v1413h602q230 0 361 -131.5t131 -347.5q0 -218 -131 -342.5t-361 -124.5h-250v-467h-352zM489 778h220q80 0 126 47.5t46 120.5q0 70 -46.5 112t-125.5 42h-220v-322z" />
<glyph unicode="Q" horiz-adv-x="1517" d="M49 707q0 333 185.5 530t500.5 197q321 0 510 -197t189 -530q0 -283 -140 -471l176 -175l-190 -194l-190 192q-155 -79 -355 -79q-315 0 -500.5 197t-185.5 530zM436 707q0 -191 81.5 -304.5t217.5 -113.5q62 0 109 20l-133 135l184 189l123 -123q31 85 31 197 q0 191 -85.5 304t-228.5 113q-136 0 -217.5 -113t-81.5 -304z" />
<glyph unicode="R" horiz-adv-x="1310" d="M137 -2v1415h621q210 0 344.5 -114.5t134.5 -309.5q0 -266 -248 -387l330 -604h-428l-264 553h-138v-553h-352zM492 848h270q62 5 97.5 38t35.5 85q0 57 -37 90t-100 33h-266v-246z" />
<glyph unicode="S" horiz-adv-x="1142" d="M23 453h348q6 -72 69 -116t150 -44t136.5 37.5t49.5 97.5q0 24 -8.5 44t-30 37.5t-40 29t-56.5 26t-60 21.5t-70 22q-9 3 -13 4q-53 16 -85 27t-82 31.5t-81 40.5t-67.5 52t-57.5 67.5t-35 85t-14 106.5q0 131 66 226t173 140.5t242 45.5q133 0 250.5 -50.5t226.5 -166.5 l-192 -209q-67 68 -145.5 103.5t-143.5 35.5q-60 0 -98.5 -24.5t-38.5 -63.5q0 -21 11.5 -38.5t28 -29.5t48.5 -26t57 -22.5t70 -22.5q10 -3 16 -5q56 -17 92 -29t90.5 -35t89.5 -46t75.5 -59t64 -76.5t39.5 -97t16 -121.5q0 -214 -146 -340.5t-384 -126.5q-124 0 -230 37.5 t-178 101.5t-112.5 149.5t-40.5 180.5z" />
<glyph unicode="T" horiz-adv-x="1191" d="M12 1100v313h1168v-313h-408v-1100h-354v1100h-406z" />
<glyph unicode="U" horiz-adv-x="1445" d="M133 547v866h352v-876q0 -113 60.5 -173.5t173.5 -60.5q116 0 179 61t63 173v876h352v-856q0 -278 -147 -427.5t-447 -149.5q-295 0 -440.5 148t-145.5 419z" />
<glyph unicode="V" horiz-adv-x="1478" d="M0 1413h367l378 -1061l367 1061h367l-502 -1413h-475z" />
<glyph unicode="W" horiz-adv-x="2000" d="M8 1413h367l213 -1018q10 -55 10 -102h20q0 19 3 37.5t9.5 43.5t6.5 27l184 873h361l188 -873q14 -87 14 -108h19q0 48 12 102l211 1018h367l-332 -1413h-514l-150 831l-143 -831h-516z" />
<glyph unicode="X" horiz-adv-x="1454" d="M-10 0l479 707l-477 706h438l299 -471l297 471h436l-479 -706l481 -707h-436l-301 463l-299 -463h-438z" />
<glyph unicode="Y" horiz-adv-x="1423" d="M-6 1413h397l330 -539l313 539h398l-545 -864v-549h-350v549z" />
<glyph unicode="Z" horiz-adv-x="1253" d="M35 0v225l682 856h-637v332h1139v-244l-666 -856h666v-313h-1184z" />
<glyph unicode="[" horiz-adv-x="608" d="M125 -330v1825h467v-285h-178v-1249h178v-291h-467z" />
<glyph unicode="\" horiz-adv-x="1259" d="M141 1409h303l650 -1565h-301z" />
<glyph unicode="]" horiz-adv-x="608" d="M16 -39h177v1249h-177v285h467v-1825h-467v291z" />
<glyph unicode="^" horiz-adv-x="993" d="M2 768l496 801l493 -801h-338l-155 266l-160 -266h-336z" />
<glyph unicode="_" horiz-adv-x="903" d="M-8 0h919v-256h-919v256z" />
<glyph unicode="a" horiz-adv-x="1103" d="M53 795q76 98 201.5 159.5t282.5 61.5q96 0 178 -20t149 -60t105.5 -109.5t38.5 -160.5v-594l4 -72h-289l-35 94q-79 -65 -147 -89.5t-154 -24.5q-151 0 -240.5 72t-89.5 202q0 196 201 264q38 14 83.5 24t108.5 20.5t87 15.5q74 15 110.5 36t36.5 60q0 71 -133 71 q-67 0 -147.5 -38t-124.5 -93zM416 297q0 -72 92 -72q82 0 142.5 43t60.5 133v45h-11q-18 -15 -43.5 -27t-42 -17t-49 -13t-39.5 -10q-26 -7 -35.5 -9.5t-28.5 -10t-26 -14.5t-13.5 -19.5t-6.5 -28.5z" />
<glyph unicode="b" horiz-adv-x="1222" d="M104 0v1413h345v-543q39 67 119.5 108.5t176.5 41.5q187 0 304.5 -147t117.5 -373t-119 -373t-309 -147q-102 0 -184 45t-113 116h-2v-141h-336zM444 504q0 -92 51.5 -149.5t133.5 -57.5q87 0 138.5 57t51.5 150q0 95 -51.5 154t-138.5 59q-82 0 -133.5 -59.5 t-51.5 -153.5z" />
<glyph unicode="c" horiz-adv-x="1069" d="M57 498q0 108 33 201.5t95 164.5t161 111.5t223 40.5q352 0 480 -322l-297 -119q-30 80 -71.5 110t-98.5 30q-179 0 -179 -221q0 -213 175 -213q68 0 107 35t60 104l291 -111q-107 -329 -465 -329q-125 0 -224 41t-161.5 112t-95.5 164t-33 201z" />
<glyph unicode="d" horiz-adv-x="1222" d="M57 500q0 227 116.5 373.5t303.5 146.5q96 0 177 -41.5t120 -108.5v543h344v-1413h-336v141q-33 -71 -115 -116t-184 -45q-189 0 -307.5 147t-118.5 373zM403 504q0 -93 52 -150t139 -57q82 0 134 57.5t52 149.5q0 94 -52 153.5t-134 59.5q-87 0 -139 -59t-52 -154z" />
<glyph unicode="e" horiz-adv-x="1085" d="M57 479q0 129 39 231.5t107.5 167.5t158 99.5t193.5 34.5q96 0 181.5 -28t153.5 -81.5t108 -140.5t40 -197q0 -85 -12 -139h-620q4 -77 43.5 -117.5t107.5 -40.5q108 0 174 88l307 -75q-65 -137 -195.5 -215t-301.5 -78q-101 0 -187.5 30t-153.5 89t-105 154.5t-38 217.5 zM406 586h290q1 10 1 19q0 53 -30 89q-35 42 -114 43q-74 0 -109.5 -43t-37.5 -108z" />
<glyph unicode="f" horiz-adv-x="741" d="M6 784v215h187v84q0 164 84 247t262 83h178v-260h-129q-56 0 -56 -68v-86h185v-215h-185v-784h-344v784h-182z" />
<glyph unicode="g" horiz-adv-x="1224" d="M57 549q0 114 35.5 205.5t95 148t133.5 86t156 29.5q103 0 181 -40t112 -95v116h342v-866q0 -127 -42 -223t-117.5 -152.5t-172 -84t-213.5 -27.5q-153 0 -271 44.5t-224 131.5l176 225q123 -117 317 -117q38 0 72 10t65 32.5t49.5 63.5t18.5 97v72q-24 -51 -96.5 -90 t-167.5 -39q-94 0 -175 30.5t-142.5 88.5t-96.5 149t-35 205zM403 532q0 -89 51 -146.5t136 -57.5q86 0 138 56t52 144q0 87 -52 146t-138 59q-85 0 -136 -57t-51 -144z" />
<glyph unicode="h" horiz-adv-x="1216" d="M104 0v1413h345v-530h6q45 72 128 108.5t183 36.5q166 0 257 -103.5t91 -260.5v-664h-342v600q0 65 -44.5 107.5t-117.5 42.5q-80 0 -120.5 -44t-40.5 -112v-594h-345z" />
<glyph unicode="i" horiz-adv-x="557" d="M104 1137v276h349v-276h-349zM106 0v999h345v-999h-345z" />
<glyph unicode="j" horiz-adv-x="557" d="M-92 -53h108q38 0 64 23t26 63v966h345v-979q0 -151 -89.5 -252.5t-257.5 -101.5h-196v281zM104 1141v272h349v-272h-349z" />
<glyph unicode="k" horiz-adv-x="1187" d="M104 0v1413h345v-756l307 342h446l-385 -381l402 -618h-406l-336 563h-28v-563h-345z" />
<glyph unicode="l" horiz-adv-x="571" d="M113 0v1413h344v-1413h-344z" />
<glyph unicode="m" horiz-adv-x="1724" d="M104 0v999h338v-135h7q93 154 276 154q96 0 157.5 -42.5t102.5 -121.5h19q48 79 114 120.5t168 41.5q160 0 248 -104.5t88 -276.5v-635h-344v582q0 67 -30 105t-87 38q-63 0 -95 -40.5t-32 -111.5v-573h-344v582q0 68 -29.5 105.5t-87.5 37.5q-63 0 -93.5 -40t-30.5 -112 v-573h-345z" />
<glyph unicode="n" horiz-adv-x="1216" d="M104 0v999h338v-116h13q43 66 123 105.5t188 39.5q155 0 251.5 -101t96.5 -263v-664h-342v600q0 69 -40.5 107t-110.5 38q-77 0 -124.5 -41t-47.5 -110v-594h-345z" />
<glyph unicode="o" d="M57 496q0 165 70 283.5t187 175.5t268 57q152 0 268 -57t185 -175t69 -284q0 -246 -145 -381t-377 -135q-231 0 -378 135.5t-147 380.5zM403 496q0 -123 48.5 -178.5t130.5 -55.5q81 0 129.5 55.5t48.5 178.5t-48 178t-130 55t-130.5 -55t-48.5 -178z" />
<glyph unicode="p" horiz-adv-x="1222" d="M104 -334v1333h345v-133q36 68 118 111t181 43q183 0 300 -147t117 -373t-119 -373t-305 -147q-108 0 -193 49.5t-108 126.5v-490h-336zM442 506q0 -94 52.5 -151.5t136.5 -57.5t136 58t52 151t-52.5 153t-135.5 60t-136 -59.5t-53 -153.5z" />
<glyph unicode="q" horiz-adv-x="1222" d="M57 500q0 225 117 372.5t301 147.5q98 0 181 -42t118 -110v131h344v-1333h-336v488q-25 -76 -109 -125t-192 -49q-186 0 -305 147t-119 373zM403 506q0 -93 52.5 -151t136.5 -58t136 57t52 152q0 94 -52.5 153.5t-135.5 59.5t-136 -60t-53 -153z" />
<glyph unicode="r" horiz-adv-x="804" d="M104 0v999h332v-170h6q25 58 56 97t64.5 57t63 24.5t64.5 6.5q49 0 84 -13v-352q-91 25 -151 25q-94 0 -134 -56t-40 -176v-442h-345z" />
<glyph unicode="s" horiz-adv-x="989" d="M47 109l127 251q132 -92 275 -110q31 -4 57 -4q32 0 56 6q44 10 44 41t-50 50q-29 12 -130 36q-57 13 -100 26.5t-91.5 39t-79.5 57.5t-52 81.5t-21 110.5q0 87 33.5 152.5t93.5 103t134.5 56t164.5 18.5q132 0 229 -36t183 -95l-129 -225q-90 73 -234 106q-47 9 -81 9 q-64 0 -77 -33q-9 -17 1 -32t46.5 -29t60.5 -21t79 -21q6 -2 9 -2.5t8.5 -2t9.5 -2.5t8.5 -2.5t9 -2.5t8.5 -2q48 -13 87.5 -28.5t80.5 -41t69 -57.5t46 -79t18 -103q0 -163 -105 -253.5t-307 -90.5q-126 0 -260 34t-221 95z" />
<glyph unicode="t" horiz-adv-x="718" d="M6 784v215h31q137 0 137 144v164h342v-308h158v-215h-158v-467q0 -29 11.5 -40t33.5 -11h131v-266h-291q-104 0 -165.5 67.5t-61.5 180.5v536h-168z" />
<glyph unicode="u" horiz-adv-x="1234" d="M121 336v663h344v-571q0 -64 44.5 -106.5t117.5 -42.5q80 0 120.5 43.5t40.5 111.5v565h342v-999h-335v117h-15q-46 -72 -128.5 -109t-182.5 -37q-165 0 -256.5 104t-91.5 261z" />
<glyph unicode="v" horiz-adv-x="1130" d="M-10 999h370l205 -692l209 692h367l-383 -999h-385z" />
<glyph unicode="w" horiz-adv-x="1683" d="M-10 999h362l152 -706l180 706h311l179 -710l157 710h363l-279 -999h-442l-135 559l-131 -565h-441z" />
<glyph unicode="x" horiz-adv-x="1193" d="M-2 0l348 504l-348 495h422l178 -286l172 286h426l-356 -495l356 -504h-426l-172 295l-178 -295h-422z" />
<glyph unicode="y" horiz-adv-x="1046" d="M-35 999h367l141 -438q11 -38 23 -99t12 -89h18q0 27 12.5 89.5t24.5 98.5l148 438h366l-450 -1136q-72 -197 -265 -197h-280v285h121q101 0 125 51l32 76z" />
<glyph unicode="z" horiz-adv-x="1083" d="M51 0v238l510 497h-508v264h946v-249l-464 -486h497v-264h-981z" />
<glyph unicode="{" horiz-adv-x="733" d="M63 430v227q17 7 45 17.5t38.5 16t25 17.5t19 29t4.5 43v400q0 159 75.5 242t221.5 83h51q27 0 75 -5.5t60 -6.5v-268q-28 11 -61 18.5t-60.5 6t-28.5 -16.5q-24 -14 -24 -84v-389q0 -55 -18.5 -102t-40 -78t-23.5 -39q33 -30 57.5 -87t24.5 -108v-330q0 -47 8.5 -69 t30.5 -25q44 -28 135 10v-276q-21 3 -70.5 -1.5t-66.5 -4.5h-72q-74 0 -137.5 42.5t-95.5 100.5q-14 28 -20.5 43t-13.5 62.5t-7 117.5v326q0 20 -13.5 34.5t-29 21t-45.5 16.5t-44 16z" />
<glyph unicode="|" horiz-adv-x="540" d="M145 -156v1690h250v-1690h-250z" />
<glyph unicode="}" horiz-adv-x="714" d="M55 -68q118 -48 138 -12q36 16 36 96v330q0 51 25 107.5t57 87.5q-2 8 -23.5 39t-40 78t-18.5 102v389q0 79 -24 86q-39 34 -150 -10v268q12 1 61 6.5t77 5.5h51q146 0 220.5 -83t74.5 -242v-400q0 -26 4.5 -43t18.5 -29t24.5 -17t39 -16t44.5 -18v-227q-14 -6 -44 -16 t-45 -16.5t-28.5 -21t-13.5 -34.5v-326q0 -70 -6.5 -117t-12.5 -63t-20 -43q-33 -58 -97.5 -100.5t-136.5 -42.5h-71q-18 0 -68.5 4.5t-71.5 1.5v276z" />
<glyph unicode="~" horiz-adv-x="944" d="M104 389q-6 134 52 215.5t163 81.5q60 0 109 -17.5t79 -42.5t54.5 -50t49.5 -42.5t51 -17.5q45 0 62.5 37.5t14.5 126.5h160q6 -148 -59 -233t-185 -85q-49 0 -92 18t-73.5 43t-57 50.5t-54.5 43.5t-56 18q-76 0 -64 -146h-154z" />
<glyph unicode="&#xa1;" horiz-adv-x="618" d="M141 666v333h336v-333h-336zM154 -436l28 962h254l29 -962h-311z" />
<glyph unicode="&#xa2;" horiz-adv-x="1067" d="M57 498q0 187 97 333t282 187v182h250v-182q74 -14 128.5 -39.5t96 -69t71.5 -93t65 -126.5l-293 -112q-29 112 -64 149t-125 37q-105 0 -158 -71.5t-53 -194.5q0 -125 52 -196t159 -71q91 0 125 38t64 149l278 -109q-57 -150 -136 -226.5t-210 -105.5v-182h-250v182 q-96 21 -170.5 72.5t-119 122.5t-67 153.5t-22.5 172.5z" />
<glyph unicode="&#xa3;" horiz-adv-x="1261" d="M78 0v285q10 1 27 3.5t59.5 17t75 35.5t59.5 63.5t27 97.5q0 41 -17 76h-225v264h168q-33 77 -33 190q0 89 23 160t63 119t96 80t119.5 46.5t136.5 14.5q97 0 177 -28t133.5 -76.5t88.5 -102t58 -117.5l-248 -92q-40 88 -85 121t-128 33q-85 0 -122 -35t-37 -141 q0 -80 30 -172h342v-264h-280v-68q0 -63 -7 -110t-16.5 -71.5t-22 -39.5t-21 -19t-15.5 -4h747v-266h-1173z" />
<glyph unicode="&#xa4;" horiz-adv-x="1464" d="M78 1012l260 237l166 -192q114 50 215 53q101 -3 215 -53l160 198l260 -237l-217 -203q45 -69 45 -186q0 -62 -9 -106.5t-36 -90.5l194 -207l-264 -237l-139 215q-98 -53 -209 -56q-110 3 -207 54l-154 -213l-262 237l205 207q-27 46 -36 90.5t-9 106.5q0 115 45 186z M555 629q0 -90 42.5 -138t121.5 -53q79 5 122.5 53.5t43.5 137.5t-43.5 137t-122.5 53q-79 -5 -121.5 -52.5t-42.5 -137.5z" />
<glyph unicode="&#xa5;" horiz-adv-x="1460" d="M-6 1413h348l383 -637l393 637h348l-471 -700h172v-219h-299v-150h299v-221h-299v-170h-276v170h-299v221h299v150h-299v225h172z" />
<glyph unicode="&#xa6;" horiz-adv-x="587" d="M145 -156v588h297v-588h-297zM145 772v637h297v-637h-297z" />
<glyph unicode="&#xa7;" horiz-adv-x="1165" d="M129 297l307 68q13 -58 50.5 -87.5t119.5 -29.5q71 0 115.5 23t44.5 55q0 22 -25.5 36.5t-67.5 21.5t-96 17t-110 20.5t-110 34t-96 56t-67.5 88t-25.5 127.5q0 62 16 105t49 94q-63 84 -63 184q0 103 63.5 178.5t159.5 110.5t207 35q222 0 344 -174l-201 -154 q-44 78 -153 78q-43 0 -74 -12t-45 -30t-19.5 -33t-5.5 -26q0 -17 25.5 -28.5t67.5 -17t96 -14.5t110 -20t110 -36t96 -59t67.5 -92.5t25.5 -133.5q0 -102 -59 -193q59 -83 59 -182q0 -84 -41.5 -149.5t-108.5 -102t-142.5 -55t-153.5 -18.5q-164 0 -289.5 80t-179.5 235z M446 737q0 -42 63.5 -71t203.5 -56q26 7 39.5 23t13.5 53q0 23 -8.5 39t-20.5 26.5t-42 20t-56 16t-79 17.5q-42 9 -66 14q-20 -13 -34 -37.5t-14 -44.5z" />
<glyph unicode="&#xa9;" horiz-adv-x="1656" d="M49 711q0 155 62.5 298.5t167.5 247.5t249 166t301 62t301 -62t248.5 -166t167 -247.5t62.5 -298.5q0 -157 -62.5 -300.5t-167 -248t-248.5 -166.5t-301 -62t-301 62t-249 166.5t-167.5 248t-62.5 300.5zM180 711q0 -174 87.5 -322.5t237 -235.5t324.5 -87 q130 0 250.5 51.5t208 138t139.5 206t52 249.5q0 104 -33.5 202.5t-94 177.5t-140.5 138.5t-179 92t-203 32.5q-131 0 -251 -51t-207.5 -137.5t-139 -205.5t-51.5 -249zM401 705q0 93 26.5 177t78 152t136.5 108t192 40q145 0 236 -73t159 -230l-234 -93q-51 84 -77 108 t-80 24q-179 0 -179 -218q0 -101 42 -153.5t135 -52.5q20 0 34.5 2t27.5 8.5t20.5 11.5t18 20t16 23t19 31.5t21.5 36.5l236 -95q-69 -162 -160 -233.5t-231 -71.5q-109 0 -194.5 40t-137.5 108.5t-78.5 152.5t-26.5 177z" />
<glyph unicode="&#xaa;" horiz-adv-x="759" d="M35 1282q51 67 136.5 109.5t193.5 42.5q88 0 158 -23t116.5 -79t46.5 -138v-406l4 -49h-198l-25 64q-54 -43 -101 -60.5t-104 -17.5q-102 0 -163.5 49.5t-61.5 138.5q0 135 137 181q25 9 57 15.5t73.5 13t60.5 10.5q52 12 77 26t25 39q0 51 -92 51q-46 0 -101.5 -26 t-85.5 -64zM283 942q0 -49 63 -49q55 0 96 29.5t41 91.5v30h-6q-13 -11 -30.5 -19.5t-28.5 -11.5t-34 -9t-28 -7q-22 -5 -29.5 -7.5t-21 -9t-18 -15.5t-4.5 -23z" />
<glyph unicode="&#xab;" horiz-adv-x="1159" d="M68 508l491 389v-266l-170 -123l170 -117v-266zM602 508l490 389v-266l-170 -123l170 -117v-266z" />
<glyph unicode="&#xac;" horiz-adv-x="1243" d="M113 498v299h1017v-506h-331v207h-686z" />
<glyph unicode="&#xad;" horiz-adv-x="759" d="M53 362v316h654v-316h-654z" />
<glyph unicode="&#xae;" horiz-adv-x="1304" d="M123 893q0 147 70.5 271.5t192 197t265.5 72.5t266.5 -72.5t193.5 -197t71 -271.5t-71 -271.5t-193.5 -197t-266.5 -72.5t-265.5 72.5t-192 197t-70.5 271.5zM242 893q0 -171 120.5 -293.5t288.5 -122.5q160 0 275 109h-154l-121 209h-28v-209h-172v604h243 q102 0 159.5 -52t57.5 -143q0 -107 -86 -176l125 -209q113 119 113 283q0 170 -121.5 294t-290.5 124q-168 0 -288.5 -123.5t-120.5 -294.5zM614 942h80q56 0 56 53q0 54 -56 54h-80v-107z" />
<glyph unicode="&#xb0;" horiz-adv-x="815" d="M53 1087q0 153 99.5 250t257.5 97q155 0 253.5 -97.5t98.5 -249.5t-98.5 -248t-253.5 -96q-158 0 -257.5 96t-99.5 248zM279 1087q0 -56 35.5 -89t95.5 -33q57 0 92 33.5t35 88.5t-35 89t-92 34q-60 0 -95.5 -33.5t-35.5 -89.5z" />
<glyph unicode="&#xb1;" horiz-adv-x="1392" d="M113 496v258h456v389h254v-389h457v-258h-457v-390h-254v390h-456zM115 0h1163v-256h-1163v256z" />
<glyph unicode="&#xb5;" horiz-adv-x="1077" d="M113 -266v1265h299v-571q0 -83 31 -125.5t104 -42.5q87 0 156 58t69 135v546h299v-999h-280v131q-42 -73 -109 -113.5t-152 -40.5q-49 0 -124 11l-17 -254h-276z" />
<glyph unicode="&#xb6;" horiz-adv-x="1210" d="M74 1018q0 120 65 212t166.5 137.5t220.5 45.5h195v-1700h-195v910q-119 0 -220.5 45.5t-166.5 137.5t-65 212zM901 -287v1700h195v-1700h-195z" />
<glyph unicode="&#xb7;" horiz-adv-x="516" d="M88 772q0 76 50 126t126 50q69 0 117.5 -49.5t48.5 -126.5q0 -68 -48.5 -117t-117.5 -49q-78 0 -127 48.5t-49 117.5z" />
<glyph unicode="&#xba;" horiz-adv-x="829" d="M35 1077q0 151 107.5 256t279.5 105q162 0 267.5 -105.5t105.5 -255.5q0 -151 -105 -256.5t-268 -105.5q-173 0 -280 105t-107 257zM248 1071q0 -79 41.5 -124.5t132.5 -45.5q81 0 120.5 46t39.5 124t-39.5 125t-120.5 47q-90 0 -132 -46.5t-42 -125.5z" />
<glyph unicode="&#xbb;" horiz-adv-x="1177" d="M86 125v266l170 117l-170 123v266l489 -389zM618 125v266l173 117l-173 123v266l492 -389z" />
<glyph unicode="&#xbf;" horiz-adv-x="1015" d="M117 -37q0 73 16 127t41.5 85t56.5 54t62.5 42.5t57 42.5t41.5 62t16 93v61h272v-63q0 -76 -16 -133t-41.5 -90.5t-56 -58.5t-61.5 -44t-56.5 -39.5t-41.5 -53.5t-16 -77q0 -60 36 -96.5t103 -36.5q89 0 127.5 62.5t38.5 179.5h277q0 -110 -24 -200.5t-73.5 -162 t-133 -111.5t-195.5 -40q-84 0 -158.5 22t-136.5 67.5t-98.5 124.5t-36.5 183zM381 666v333h324v-333h-324z" />
<glyph unicode="&#xc0;" horiz-adv-x="1447" d="M-4 0l498 1413h458l500 -1413h-379l-100 313h-494l-102 -313h-381zM260 1823h328l235 -287h-200zM573 596h308l-123 385q-25 73 -25 109h-10q1 -15 -2 -32t-4.5 -24t-9.5 -29t-9 -24z" />
<glyph unicode="&#xc1;" horiz-adv-x="1447" d="M-4 0l498 1413h458l500 -1413h-379l-100 313h-494l-102 -313h-381zM573 596h308l-123 385q-25 73 -25 109h-10q1 -15 -2 -32t-4.5 -24t-9.5 -29t-9 -24zM608 1532l232 291h331l-331 -291h-232z" />
<glyph unicode="&#xc2;" horiz-adv-x="1447" d="M-4 0l498 1413h458l500 -1413h-379l-100 313h-494l-102 -313h-381zM383 1526l242 305h196l242 -305h-252l-90 164l-88 -164h-250zM573 596h308l-123 385q-25 73 -25 109h-10q1 -15 -2 -32t-4.5 -24t-9.5 -29t-9 -24z" />
<glyph unicode="&#xc3;" horiz-adv-x="1447" d="M-4 0l498 1413h458l500 -1413h-379l-100 313h-494l-102 -313h-381zM303 1528q0 159 77 237t212 78q53 0 94.5 -17t62.5 -37t44.5 -37t44.5 -17q28 0 48.5 25t20.5 79h240q0 -142 -71.5 -223.5t-196.5 -81.5q-57 0 -99 13t-64 31t-38 36.5t-32 31.5t-36 13 q-36 0 -53.5 -30t-21.5 -101h-232zM573 596h308l-123 385q-25 73 -25 109h-10q1 -15 -2 -32t-4.5 -24t-9.5 -29t-9 -24z" />
<glyph unicode="&#xc4;" horiz-adv-x="1447" d="M-4 0l498 1413h458l500 -1413h-379l-100 313h-494l-102 -313h-381zM416 1579v244h241v-244h-241zM573 596h308l-123 385q-25 73 -25 109h-10q1 -15 -2 -32t-4.5 -24t-9.5 -29t-9 -24zM791 1579v244h239v-244h-239z" />
<glyph unicode="&#xc5;" horiz-adv-x="1447" d="M-4 0l498 1413h18q-23 51 -23 103q0 96 67.5 164.5t166.5 68.5q97 0 165 -68t68 -165q0 -54 -22 -103h18l500 -1413h-379l-100 313h-494l-102 -313h-381zM573 596h308l-123 385q-25 73 -25 109h-10q1 -15 -2 -32t-4.5 -24t-9.5 -29t-9 -24zM625 1520q0 -44 28.5 -74.5 t69.5 -30.5q44 0 72 29.5t28 75.5q0 42 -27 68t-73 26q-44 0 -71 -27t-27 -67z" />
<glyph unicode="&#xc6;" horiz-adv-x="1923" d="M-4 0l588 1413h1251v-315h-748v-234h658v-313h-658v-240h748v-311h-1065v291h-326l-114 -291h-334zM553 567h217v545z" />
<glyph unicode="&#xc7;" horiz-adv-x="1318" d="M49 707q0 111 20 212t67.5 197t119.5 166t183.5 112t250.5 42q231 0 381 -108t225 -329l-340 -127q-22 126 -94 189t-174 63q-134 0 -211.5 -107t-77.5 -304q0 -195 79.5 -308.5t203.5 -113.5q101 0 173.5 66t107.5 196l337 -135q-65 -191 -185.5 -297.5t-303.5 -132.5 l-88 -111q66 -16 110 -64.5t44 -115.5q0 -91 -60 -144t-158 -53q-80 0 -148.5 44t-90.5 106l153 69q7 -26 27.5 -41.5t42.5 -15.5q18 -2 31.5 9t13.5 30q0 12 -12 25.5t-39 21.5l-172 47l113 191q-114 15 -205 64t-150.5 118.5t-99.5 159.5t-57 184t-17 195z" />
<glyph unicode="&#xc8;" horiz-adv-x="1193" d="M137 0v1413h969v-313h-617v-234h584v-315h-584v-236h617v-315h-969zM158 1823h327l236 -287h-201z" />
<glyph unicode="&#xc9;" horiz-adv-x="1193" d="M137 0v1413h969v-313h-617v-234h584v-315h-584v-236h617v-315h-969zM506 1532l231 291h332l-332 -291h-231z" />
<glyph unicode="&#xca;" horiz-adv-x="1193" d="M137 0v1413h969v-313h-617v-234h584v-315h-584v-236h617v-315h-969zM281 1526l241 305h197l242 -305h-252l-91 164l-88 -164h-249z" />
<glyph unicode="&#xcb;" horiz-adv-x="1193" d="M137 0v1413h969v-313h-617v-234h584v-315h-584v-236h617v-315h-969zM313 1579v244h242v-244h-242zM688 1579v244h240v-244h-240z" />
<glyph unicode="&#xcc;" horiz-adv-x="626" d="M-156 1823h328l236 -287h-201zM137 0v1413h352v-1413h-352z" />
<glyph unicode="&#xcd;" horiz-adv-x="626" d="M137 0v1413h352v-1413h-352zM193 1532l231 291h332l-332 -291h-231z" />
<glyph unicode="&#xce;" horiz-adv-x="626" d="M-33 1526l242 305h197l241 -305h-252l-90 164l-88 -164h-250zM137 0v1413h352v-1413h-352z" />
<glyph unicode="&#xcf;" horiz-adv-x="626" d="M0 1579v244h242v-244h-242zM137 0v1413h352v-1413h-352zM375 1579v244h239v-244h-239z" />
<glyph unicode="&#xd0;" horiz-adv-x="1398" d="M12 621v184h113v608h436q372 0 575 -186.5t203 -530.5q0 -330 -205.5 -513t-574.5 -183h-434v621h-113zM428 291h107q241 0 370 98.5t129 317.5q0 218 -112.5 318.5t-364.5 100.5h-129v-321h360v-184h-360v-330z" />
<glyph unicode="&#xd1;" horiz-adv-x="1568" d="M137 0v1413h357l512 -737q57 -89 65 -146h8v883h355v-1413h-361l-512 743q-57 77 -59 148h-13v-891h-352zM358 1528q0 159 77 237t212 78q53 0 94.5 -17t62.5 -37t44.5 -37t44.5 -17q29 0 49.5 25t20.5 79h239q0 -142 -71.5 -223.5t-196.5 -81.5q-57 0 -99 13t-63.5 31 t-37.5 36.5t-32 31.5t-36 13q-36 0 -54 -30t-22 -101h-232z" />
<glyph unicode="&#xd2;" horiz-adv-x="1482" d="M49 707q0 333 185.5 530t500.5 197q321 0 510 -197t189 -530t-189 -530t-510 -197q-315 0 -500.5 197t-185.5 530zM270 1823h328l236 -287h-201zM436 707q0 -191 81.5 -304.5t217.5 -113.5q143 0 228.5 113.5t85.5 304.5t-85.5 304t-228.5 113q-136 0 -217.5 -113 t-81.5 -304z" />
<glyph unicode="&#xd3;" horiz-adv-x="1482" d="M49 707q0 333 185.5 530t500.5 197q321 0 510 -197t189 -530t-189 -530t-510 -197q-315 0 -500.5 197t-185.5 530zM436 707q0 -191 81.5 -304.5t217.5 -113.5q143 0 228.5 113.5t85.5 304.5t-85.5 304t-228.5 113q-136 0 -217.5 -113t-81.5 -304zM621 1532l231 291h332 l-332 -291h-231z" />
<glyph unicode="&#xd4;" horiz-adv-x="1482" d="M49 707q0 333 185.5 530t500.5 197q321 0 510 -197t189 -530t-189 -530t-510 -197q-315 0 -500.5 197t-185.5 530zM393 1526l242 305h196l242 -305h-252l-90 164l-88 -164h-250zM436 707q0 -191 81.5 -304.5t217.5 -113.5q143 0 228.5 113.5t85.5 304.5t-85.5 304 t-228.5 113q-136 0 -217.5 -113t-81.5 -304z" />
<glyph unicode="&#xd5;" horiz-adv-x="1482" d="M49 707q0 333 185.5 530t500.5 197q321 0 510 -197t189 -530t-189 -530t-510 -197q-315 0 -500.5 197t-185.5 530zM313 1528q0 159 77 237t212 78q53 0 94.5 -17t62.5 -37t44.5 -37t44.5 -17q29 0 49.5 25t20.5 79h239q0 -142 -71.5 -223.5t-196.5 -81.5q-57 0 -99 13 t-63.5 31t-37.5 36.5t-32 31.5t-36 13q-36 0 -54 -30t-22 -101h-232zM436 707q0 -191 81.5 -304.5t217.5 -113.5q143 0 228.5 113.5t85.5 304.5t-85.5 304t-228.5 113q-136 0 -217.5 -113t-81.5 -304z" />
<glyph unicode="&#xd6;" horiz-adv-x="1482" d="M49 707q0 333 185.5 530t500.5 197q321 0 510 -197t189 -530t-189 -530t-510 -197q-315 0 -500.5 197t-185.5 530zM426 1579v244h242v-244h-242zM436 707q0 -191 81.5 -304.5t217.5 -113.5q143 0 228.5 113.5t85.5 304.5t-85.5 304t-228.5 113q-136 0 -217.5 -113 t-81.5 -304zM801 1579v244h239v-244h-239z" />
<glyph unicode="&#xd7;" horiz-adv-x="1013" d="M43 911l180 176l283 -280l278 278l177 -186l-273 -274l283 -287l-176 -176l-285 282l-283 -278l-176 186l275 277z" />
<glyph unicode="&#xd8;" horiz-adv-x="1482" d="M43 162l115 114q-109 174 -109 431q0 333 185.5 530t500.5 197q263 0 443 -138l96 97l147 -142l-104 -104q117 -180 117 -440q0 -333 -189 -530t-510 -197q-262 0 -442 141l-100 -101zM436 707q0 -77 15 -138l479 480q-78 75 -195 75q-136 0 -217.5 -113t-81.5 -304z M543 371q79 -82 192 -82q143 0 228.5 113.5t85.5 304.5q0 79 -19 153z" />
<glyph unicode="&#xd9;" horiz-adv-x="1445" d="M133 547v866h352v-876q0 -113 60.5 -173.5t173.5 -60.5q116 0 179 61t63 173v876h352v-856q0 -278 -147 -427.5t-447 -149.5q-295 0 -440.5 148t-145.5 419zM260 1823h328l235 -287h-200z" />
<glyph unicode="&#xda;" horiz-adv-x="1445" d="M133 547v866h352v-876q0 -113 60.5 -173.5t173.5 -60.5q116 0 179 61t63 173v876h352v-856q0 -278 -147 -427.5t-447 -149.5q-295 0 -440.5 148t-145.5 419zM608 1532l232 291h331l-331 -291h-232z" />
<glyph unicode="&#xdb;" horiz-adv-x="1445" d="M133 547v866h352v-876q0 -113 60.5 -173.5t173.5 -60.5q116 0 179 61t63 173v876h352v-856q0 -278 -147 -427.5t-447 -149.5q-295 0 -440.5 148t-145.5 419zM383 1526l242 305h196l242 -305h-252l-90 164l-88 -164h-250z" />
<glyph unicode="&#xdc;" horiz-adv-x="1445" d="M133 547v866h352v-876q0 -113 60.5 -173.5t173.5 -60.5q116 0 179 61t63 173v876h352v-856q0 -278 -147 -427.5t-447 -149.5q-295 0 -440.5 148t-145.5 419zM416 1579v244h241v-244h-241zM791 1579v244h239v-244h-239z" />
<glyph unicode="&#xdd;" horiz-adv-x="1423" d="M-6 1413h397l330 -539l313 539h398l-545 -864v-549h-350v549zM596 1532l231 291h332l-332 -291h-231z" />
<glyph unicode="&#xde;" d="M137 0v1413h301v-127h230q91 0 172.5 -30.5t146.5 -89t103 -154t38 -215.5q0 -103 -39 -188t-104.5 -138t-147 -82t-169.5 -29h-230v-360h-301zM438 651h230q78 0 118.5 43.5t40.5 122.5q0 83 -40 127.5t-119 44.5h-230v-338z" />
<glyph unicode="&#xdf;" horiz-adv-x="1196" d="M113 0v979q0 108 40 196t106.5 143.5t149.5 85.5t173 30q84 0 168 -27t155 -76.5t115.5 -130t44.5 -178.5q0 -72 -24.5 -124.5t-59 -78.5t-69 -42t-59 -24.5t-24.5 -15.5t23.5 -21t58.5 -32.5t76 -50.5t76 -71t58.5 -98.5t23.5 -127.5q0 -157 -116.5 -255.5t-297.5 -98.5 q-71 0 -156 18v326q66 -47 144 -47q52 0 79 24t27 51q0 21 -22 46t-55 48t-71.5 55t-71.5 66t-55 82.5t-22 102.5q0 55 22.5 95t55 62.5t65 40.5t55 39.5t22.5 48.5q0 15 -6.5 31.5t-21.5 35t-46.5 30.5t-75.5 12q-83 0 -124.5 -45.5t-41.5 -122.5v-981h-319z" />
<glyph unicode="&#xe0;" horiz-adv-x="1103" d="M53 795q76 98 201.5 159.5t282.5 61.5q96 0 178 -20t149 -60t105.5 -109.5t38.5 -160.5v-594l4 -72h-289l-35 94q-79 -65 -147 -89.5t-154 -24.5q-151 0 -240.5 72t-89.5 202q0 196 201 264q38 14 83.5 24t108.5 20.5t87 15.5q74 15 110.5 36t36.5 60q0 71 -133 71 q-67 0 -147.5 -38t-124.5 -93zM61 1413h328l236 -287h-201zM416 297q0 -72 92 -72q82 0 142.5 43t60.5 133v45h-11q-18 -15 -43.5 -27t-42 -17t-49 -13t-39.5 -10q-26 -7 -35.5 -9.5t-28.5 -10t-26 -14.5t-13.5 -19.5t-6.5 -28.5z" />
<glyph unicode="&#xe1;" horiz-adv-x="1103" d="M53 795q76 98 201.5 159.5t282.5 61.5q96 0 178 -20t149 -60t105.5 -109.5t38.5 -160.5v-594l4 -72h-289l-35 94q-79 -65 -147 -89.5t-154 -24.5q-151 0 -240.5 72t-89.5 202q0 196 201 264q38 14 83.5 24t108.5 20.5t87 15.5q74 15 110.5 36t36.5 60q0 71 -133 71 q-67 0 -147.5 -38t-124.5 -93zM410 1122l231 291h332l-332 -291h-231zM416 297q0 -72 92 -72q82 0 142.5 43t60.5 133v45h-11q-18 -15 -43.5 -27t-42 -17t-49 -13t-39.5 -10q-26 -7 -35.5 -9.5t-28.5 -10t-26 -14.5t-13.5 -19.5t-6.5 -28.5z" />
<glyph unicode="&#xe2;" horiz-adv-x="1103" d="M53 795q76 98 201.5 159.5t282.5 61.5q96 0 178 -20t149 -60t105.5 -109.5t38.5 -160.5v-594l4 -72h-289l-35 94q-79 -65 -147 -89.5t-154 -24.5q-151 0 -240.5 72t-89.5 202q0 196 201 264q38 14 83.5 24t108.5 20.5t87 15.5q74 15 110.5 36t36.5 60q0 71 -133 71 q-67 0 -147.5 -38t-124.5 -93zM184 1116l242 305h197l241 -305h-252l-90 164l-88 -164h-250zM416 297q0 -72 92 -72q82 0 142.5 43t60.5 133v45h-11q-18 -15 -43.5 -27t-42 -17t-49 -13t-39.5 -10q-26 -7 -35.5 -9.5t-28.5 -10t-26 -14.5t-13.5 -19.5t-6.5 -28.5z" />
<glyph unicode="&#xe3;" horiz-adv-x="1103" d="M53 795q76 98 201.5 159.5t282.5 61.5q96 0 178 -20t149 -60t105.5 -109.5t38.5 -160.5v-594l4 -72h-289l-35 94q-79 -65 -147 -89.5t-154 -24.5q-151 0 -240.5 72t-89.5 202q0 196 201 264q38 14 83.5 24t108.5 20.5t87 15.5q74 15 110.5 36t36.5 60q0 71 -133 71 q-67 0 -147.5 -38t-124.5 -93zM104 1118q0 159 77.5 237.5t211.5 78.5q53 0 94.5 -17t62.5 -37.5t44.5 -37.5t44.5 -17q29 0 49.5 25.5t20.5 79.5h239q0 -142 -71.5 -224t-196.5 -82q-57 0 -99 13t-63.5 31t-37.5 36.5t-32 31.5t-36 13q-36 0 -54 -30t-22 -101h-232z M416 297q0 -72 92 -72q82 0 142.5 43t60.5 133v45h-11q-18 -15 -43.5 -27t-42 -17t-49 -13t-39.5 -10q-26 -7 -35.5 -9.5t-28.5 -10t-26 -14.5t-13.5 -19.5t-6.5 -28.5z" />
<glyph unicode="&#xe4;" horiz-adv-x="1103" d="M53 795q76 98 201.5 159.5t282.5 61.5q96 0 178 -20t149 -60t105.5 -109.5t38.5 -160.5v-594l4 -72h-289l-35 94q-79 -65 -147 -89.5t-154 -24.5q-151 0 -240.5 72t-89.5 202q0 196 201 264q38 14 83.5 24t108.5 20.5t87 15.5q74 15 110.5 36t36.5 60q0 71 -133 71 q-67 0 -147.5 -38t-124.5 -93zM217 1169v244h242v-244h-242zM416 297q0 -72 92 -72q82 0 142.5 43t60.5 133v45h-11q-18 -15 -43.5 -27t-42 -17t-49 -13t-39.5 -10q-26 -7 -35.5 -9.5t-28.5 -10t-26 -14.5t-13.5 -19.5t-6.5 -28.5zM592 1169v244h239v-244h-239z" />
<glyph unicode="&#xe5;" horiz-adv-x="1103" d="M53 795q76 98 201.5 159.5t282.5 61.5q96 0 178 -20t149 -60t105.5 -109.5t38.5 -160.5v-594l4 -72h-289l-35 94q-79 -65 -147 -89.5t-154 -24.5q-151 0 -240.5 72t-89.5 202q0 196 201 264q38 14 83.5 24t108.5 20.5t87 15.5q74 15 110.5 36t36.5 60q0 71 -133 71 q-67 0 -147.5 -38t-124.5 -93zM293 1335q0 97 66.5 165.5t164.5 68.5q97 0 166.5 -68.5t69.5 -165.5q0 -99 -68.5 -166t-167.5 -67q-100 0 -165.5 68t-65.5 165zM416 297q0 -72 92 -72q82 0 142.5 43t60.5 133v45h-11q-18 -15 -43.5 -27t-42 -17t-49 -13t-39.5 -10 q-26 -7 -35.5 -9.5t-28.5 -10t-26 -14.5t-13.5 -19.5t-6.5 -28.5zM426 1339q0 -44 28.5 -74t69.5 -30q44 0 72.5 29t28.5 75q0 42 -27.5 68.5t-73.5 26.5q-44 0 -71 -27t-27 -68z" />
<glyph unicode="&#xe6;" horiz-adv-x="1699" d="M55 248q0 100 54 158.5t151 97.5q40 15 121 36.5t140.5 42.5t90.5 48q16 9 25 23t10.5 21t1.5 11q0 35 -33.5 53t-89.5 13q-69 -5 -133.5 -44t-89.5 -100l-246 162q86 126 196.5 186t262.5 60q218 0 320 -123q131 119 333 119q96 0 181.5 -28t154 -81.5t108.5 -140.5 t40 -197q0 -77 -11 -139h-622q6 -78 45.5 -118t108.5 -40q109 0 172 88l307 -75q-65 -137 -195.5 -215t-302.5 -78q-230 0 -364 143q-133 -151 -383 -151q-156 0 -254.5 68.5t-98.5 199.5zM375 303q-3 -38 18 -63t58 -31q62 -12 117.5 20.5t84.5 89.5q23 14 8.5 58.5 t-57.5 81.5q-37 -28 -97.5 -56t-94 -49.5t-37.5 -50.5zM1020 586h293q6 66 -29.5 108.5t-114.5 42.5q-76 0 -111 -42.5t-38 -108.5z" />
<glyph unicode="&#xe7;" horiz-adv-x="1069" d="M57 498q0 108 33 201.5t95 164.5t161 111.5t223 40.5q352 0 480 -322l-297 -119q-30 80 -71.5 110t-98.5 30q-179 0 -179 -221q0 -213 175 -213q68 0 107 35t60 104l291 -111q-79 -246 -303 -309l-98 -123q66 -16 109.5 -64.5t43.5 -115.5q0 -91 -59.5 -144t-157.5 -53 q-80 0 -148.5 44t-90.5 106l153 69q7 -26 27.5 -41.5t42.5 -15.5q18 -2 31.5 9t13.5 30q0 12 -12 25.5t-39 21.5l-172 47l110 189q-207 25 -318.5 167.5t-111.5 346.5z" />
<glyph unicode="&#xe8;" horiz-adv-x="1085" d="M57 479q0 129 39 231.5t107.5 167.5t158 99.5t193.5 34.5q96 0 181.5 -28t153.5 -81.5t108 -140.5t40 -197q0 -85 -12 -139h-620q4 -77 43.5 -117.5t107.5 -40.5q108 0 174 88l307 -75q-65 -137 -195.5 -215t-301.5 -78q-101 0 -187.5 30t-153.5 89t-105 154.5t-38 217.5 zM74 1413h327l236 -287h-201zM406 586h290q6 66 -29 108.5t-114 42.5q-74 0 -109.5 -43t-37.5 -108z" />
<glyph unicode="&#xe9;" horiz-adv-x="1085" d="M57 479q0 129 39 231.5t107.5 167.5t158 99.5t193.5 34.5q96 0 181.5 -28t153.5 -81.5t108 -140.5t40 -197q0 -85 -12 -139h-620q4 -77 43.5 -117.5t107.5 -40.5q108 0 174 88l307 -75q-65 -137 -195.5 -215t-301.5 -78q-101 0 -187.5 30t-153.5 89t-105 154.5t-38 217.5 zM406 586h290q6 66 -29 108.5t-114 42.5q-74 0 -109.5 -43t-37.5 -108zM424 1122l231 291h332l-332 -291h-231z" />
<glyph unicode="&#xea;" horiz-adv-x="1085" d="M57 479q0 129 39 231.5t107.5 167.5t158 99.5t193.5 34.5q96 0 181.5 -28t153.5 -81.5t108 -140.5t40 -197q0 -85 -12 -139h-620q4 -77 43.5 -117.5t107.5 -40.5q108 0 174 88l307 -75q-65 -137 -195.5 -215t-301.5 -78q-101 0 -187.5 30t-153.5 89t-105 154.5t-38 217.5 zM197 1116l241 305h197l242 -305h-252l-90 164l-89 -164h-249zM406 586h290q6 66 -29 108.5t-114 42.5q-74 0 -109.5 -43t-37.5 -108z" />
<glyph unicode="&#xeb;" horiz-adv-x="1085" d="M57 479q0 129 39 231.5t107.5 167.5t158 99.5t193.5 34.5q96 0 181.5 -28t153.5 -81.5t108 -140.5t40 -197q0 -85 -12 -139h-620q4 -77 43.5 -117.5t107.5 -40.5q108 0 174 88l307 -75q-65 -137 -195.5 -215t-301.5 -78q-101 0 -187.5 30t-153.5 89t-105 154.5t-38 217.5 zM229 1169v244h242v-244h-242zM406 586h290q6 66 -29 108.5t-114 42.5q-74 0 -109.5 -43t-37.5 -108zM604 1169v244h240v-244h-240z" />
<glyph unicode="&#xec;" horiz-adv-x="569" d="M-178 1413h328l235 -287h-201zM113 0v999h344v-999h-344z" />
<glyph unicode="&#xed;" horiz-adv-x="569" d="M113 0v999h344v-999h-344zM170 1122l231 291h332l-332 -291h-231z" />
<glyph unicode="&#xee;" horiz-adv-x="569" d="M-55 1116l241 305h197l242 -305h-252l-90 164l-88 -164h-250zM113 0v999h344v-999h-344z" />
<glyph unicode="&#xef;" horiz-adv-x="569" d="M-23 1169v244h242v-244h-242zM113 0v999h344v-999h-344zM352 1169v244h240v-244h-240z" />
<glyph unicode="&#xf0;" horiz-adv-x="1175" d="M53 516q0 140 58.5 260t175 196.5t268.5 76.5q82 0 147.5 -28.5t100.5 -74.5q-89 157 -271 258l-73 -112l-117 73l66 97q-57 22 -132 41l127 213q64 -25 136 -58l90 131l112 -69l-84 -127q467 -292 467 -877q0 -104 -37 -199.5t-103.5 -170t-169.5 -118.5t-226 -44 q-126 0 -229.5 44t-169 118.5t-101 169.5t-35.5 200zM406 516q0 -115 48 -186.5t134 -71.5q84 0 132 71.5t48 186.5q0 116 -47.5 187t-132.5 71q-86 0 -134 -71.5t-48 -186.5z" />
<glyph unicode="&#xf1;" horiz-adv-x="1216" d="M104 0v999h338v-116h13q43 66 123 105.5t188 39.5q155 0 251.5 -101t96.5 -263v-664h-342v600q0 69 -40.5 107t-110.5 38q-77 0 -124.5 -41t-47.5 -110v-594h-345zM190 1104q0 159 77 237t212 78q53 0 94.5 -17t62.5 -37t44.5 -37t44.5 -17q29 0 49.5 25t20.5 79h239 q0 -142 -71.5 -223.5t-196.5 -81.5q-57 0 -99 13t-63.5 31t-37.5 36.5t-32 31.5t-36 13q-36 0 -54 -30t-22 -101h-232z" />
<glyph unicode="&#xf2;" d="M57 496q0 165 70 283.5t187 175.5t268 57q152 0 268 -57t185 -175t69 -284q0 -246 -145 -381t-377 -135q-231 0 -378 135.5t-147 380.5zM117 1413h327l236 -287h-201zM403 496q0 -123 48.5 -178.5t130.5 -55.5q81 0 129.5 55.5t48.5 178.5t-48 178t-130 55t-130.5 -55 t-48.5 -178z" />
<glyph unicode="&#xf3;" d="M57 496q0 165 70 283.5t187 175.5t268 57q152 0 268 -57t185 -175t69 -284q0 -246 -145 -381t-377 -135q-231 0 -378 135.5t-147 380.5zM403 496q0 -123 48.5 -178.5t130.5 -55.5q81 0 129.5 55.5t48.5 178.5t-48 178t-130 55t-130.5 -55t-48.5 -178zM465 1122l231 291 h332l-332 -291h-231z" />
<glyph unicode="&#xf4;" d="M57 496q0 165 70 283.5t187 175.5t268 57q152 0 268 -57t185 -175t69 -284q0 -246 -145 -381t-377 -135q-231 0 -378 135.5t-147 380.5zM240 1116l241 305h197l242 -305h-252l-90 164l-89 -164h-249zM403 496q0 -123 48.5 -178.5t130.5 -55.5q81 0 129.5 55.5t48.5 178.5 t-48 178t-130 55t-130.5 -55t-48.5 -178z" />
<glyph unicode="&#xf5;" d="M57 496q0 165 70 283.5t187 175.5t268 57q152 0 268 -57t185 -175t69 -284q0 -246 -145 -381t-377 -135q-231 0 -378 135.5t-147 380.5zM160 1118q0 159 77.5 237.5t211.5 78.5q53 0 94.5 -17t62 -37.5t44 -37.5t44.5 -17q29 0 49.5 25.5t20.5 79.5h240q0 -142 -72 -224 t-197 -82q-57 0 -99 13t-63.5 31t-37.5 36.5t-32 31.5t-36 13q-36 0 -54 -30t-22 -101h-231zM403 496q0 -123 48.5 -178.5t130.5 -55.5q81 0 129.5 55.5t48.5 178.5t-48 178t-130 55t-130.5 -55t-48.5 -178z" />
<glyph unicode="&#xf6;" d="M57 496q0 165 70 283.5t187 175.5t268 57q152 0 268 -57t185 -175t69 -284q0 -246 -145 -381t-377 -135q-231 0 -378 135.5t-147 380.5zM272 1169v244h242v-244h-242zM403 496q0 -123 48.5 -178.5t130.5 -55.5q81 0 129.5 55.5t48.5 178.5t-48 178t-130 55t-130.5 -55 t-48.5 -178zM647 1169v244h240v-244h-240z" />
<glyph unicode="&#xf7;" horiz-adv-x="1738" d="M113 557v258h1513v-258h-1513zM700 -2v336h340v-336h-340zM700 1026v336h340v-336h-340z" />
<glyph unicode="&#xf8;" d="M57 496q0 165 70 283.5t187 175.5t268 57q183 0 319 -88l62 61l104 -100l-61 -62q98 -132 98 -327q0 -246 -145 -381t-377 -135q-192 0 -328 92l-57 -58l-105 101l60 59q-95 128 -95 322zM403 496q0 -16 5 -66l272 272q-43 27 -98 27q-82 0 -130.5 -55t-48.5 -178z M475 293q42 -31 107 -31q81 0 129.5 55.5t48.5 178.5q0 40 -6 75z" />
<glyph unicode="&#xf9;" horiz-adv-x="1234" d="M121 336v663h344v-571q0 -64 44.5 -106.5t117.5 -42.5q80 0 120.5 43.5t40.5 111.5v565h342v-999h-335v117h-15q-46 -72 -128.5 -109t-182.5 -37q-165 0 -256.5 104t-91.5 261zM160 1413h327l236 -287h-201z" />
<glyph unicode="&#xfa;" horiz-adv-x="1234" d="M121 336v663h344v-571q0 -64 44.5 -106.5t117.5 -42.5q80 0 120.5 43.5t40.5 111.5v565h342v-999h-335v117h-15q-46 -72 -128.5 -109t-182.5 -37q-165 0 -256.5 104t-91.5 261zM510 1122l231 291h332l-332 -291h-231z" />
<glyph unicode="&#xfb;" horiz-adv-x="1234" d="M121 336v663h344v-571q0 -64 44.5 -106.5t117.5 -42.5q80 0 120.5 43.5t40.5 111.5v565h342v-999h-335v117h-15q-46 -72 -128.5 -109t-182.5 -37q-165 0 -256.5 104t-91.5 261zM283 1116l241 305h197l242 -305h-252l-90 164l-89 -164h-249z" />
<glyph unicode="&#xfc;" horiz-adv-x="1234" d="M121 336v663h344v-571q0 -64 44.5 -106.5t117.5 -42.5q80 0 120.5 43.5t40.5 111.5v565h342v-999h-335v117h-15q-46 -72 -128.5 -109t-182.5 -37q-165 0 -256.5 104t-91.5 261zM315 1169v244h242v-244h-242zM690 1169v244h240v-244h-240z" />
<glyph unicode="&#xfd;" horiz-adv-x="1046" d="M-35 999h367l141 -438q11 -38 23 -99t12 -89h18q0 27 12.5 89.5t24.5 98.5l148 438h366l-450 -1136q-72 -197 -265 -197h-280v285h121q101 0 125 51l32 76zM410 1122l231 291h332l-332 -291h-231z" />
<glyph unicode="&#xfe;" horiz-adv-x="1183" d="M113 -334v1743h348v-526h2q15 37 47.5 65t70.5 43t73 22t65 7q141 0 246.5 -75t157 -191.5t51.5 -253.5t-51.5 -253.5t-157 -191.5t-246.5 -75q-29 0 -60 5.5t-68.5 18.5t-71 41t-54.5 66h-10v-445h-342zM453 500q0 -199 188 -199q86 0 135 51.5t49 147.5t-50 155.5 t-134 59.5q-93 0 -140.5 -57t-47.5 -158z" />
<glyph unicode="&#xff;" horiz-adv-x="1046" d="M-35 999h367l141 -438q11 -38 23 -99t12 -89h18q0 27 12.5 89.5t24.5 98.5l148 438h366l-450 -1136q-72 -197 -265 -197h-280v285h121q101 0 125 51l32 76zM217 1169v244h242v-244h-242zM592 1169v244h239v-244h-239z" />
<glyph unicode="&#x152;" horiz-adv-x="2357" d="M57 707q0 115 27 220.5t85 198.5t142 161t205.5 107.5t267.5 39.5q66 0 133 -18t115 -42.5t90 -54t62.5 -48.5t29.5 -30h7v168h1048v-313h-747v-232h659v-313h-659v-240h747v-311h-1048v174h-4q-8 -10 -29 -29t-63 -49t-90.5 -55t-116 -43t-134.5 -18q-146 0 -267.5 39.5 t-205.5 107.5t-142 160.5t-85 198t-27 221.5zM412 707q0 -180 90.5 -284t281.5 -104q192 0 287.5 105t95.5 283t-95.5 282.5t-287.5 104.5q-191 0 -281.5 -103.5t-90.5 -283.5z" />
<glyph unicode="&#x153;" horiz-adv-x="1867" d="M57 496q0 165 70 283.5t187 175.5t268 57q247 0 391 -150q135 150 364 150q96 0 181.5 -28t154 -81.5t108.5 -140.5t40 -197q0 -77 -11 -139h-622q12 -158 153 -158q109 0 172 88l308 -75q-65 -137 -195.5 -215t-302.5 -78q-227 0 -356 135q-143 -143 -385 -143 q-231 0 -378 135.5t-147 380.5zM403 496q0 -123 48.5 -178.5t130.5 -55.5q81 0 129.5 55.5t48.5 178.5t-48 178t-130 55t-130.5 -55t-48.5 -178zM1188 586h293q6 66 -29.5 108.5t-114.5 42.5q-76 0 -111 -42.5t-38 -108.5z" />
<glyph unicode="&#x178;" horiz-adv-x="1423" d="M-6 1413h397l330 -539l313 539h398l-545 -864v-549h-350v549zM403 1579v244h242v-244h-242zM778 1579v244h240v-244h-240z" />
<glyph unicode="&#x2000;" horiz-adv-x="921" />
<glyph unicode="&#x2001;" horiz-adv-x="1843" />
<glyph unicode="&#x2002;" horiz-adv-x="921" />
<glyph unicode="&#x2003;" horiz-adv-x="1843" />
<glyph unicode="&#x2004;" horiz-adv-x="614" />
<glyph unicode="&#x2005;" horiz-adv-x="460" />
<glyph unicode="&#x2006;" horiz-adv-x="307" />
<glyph unicode="&#x2007;" horiz-adv-x="307" />
<glyph unicode="&#x2008;" horiz-adv-x="230" />
<glyph unicode="&#x2009;" horiz-adv-x="368" />
<glyph unicode="&#x200a;" horiz-adv-x="102" />
<glyph unicode="&#x2010;" horiz-adv-x="759" d="M53 362v316h654v-316h-654z" />
<glyph unicode="&#x2011;" horiz-adv-x="759" d="M53 362v316h654v-316h-654z" />
<glyph unicode="&#x2012;" horiz-adv-x="759" d="M53 362v316h654v-316h-654z" />
<glyph unicode="&#x2013;" horiz-adv-x="903" d="M33 362v316h837v-316h-837z" />
<glyph unicode="&#x2014;" horiz-adv-x="2031" d="M-8 362v316h2048v-316h-2048z" />
<glyph unicode="&#x2018;" horiz-adv-x="481" d="M23 752v356l194 305h170l-106 -305h145v-356h-403z" />
<glyph unicode="&#x2019;" horiz-adv-x="538" d="M72 1059v356h403v-356l-194 -305h-170l106 305h-145z" />
<glyph unicode="&#x201a;" horiz-adv-x="571" d="M78 0v356h403v-356l-194 -305h-170l106 305h-145z" />
<glyph unicode="&#x201c;" horiz-adv-x="1024" d="M23 754v356l194 305h170l-106 -305h145v-356h-403zM567 754v356l195 305h170l-107 -305h146v-356h-404z" />
<glyph unicode="&#x201d;" horiz-adv-x="1081" d="M72 1059v356h403v-356l-194 -305h-170l106 305h-145zM614 1059v356h404v-356l-195 -305h-170l107 305h-146z" />
<glyph unicode="&#x201e;" horiz-adv-x="1114" d="M78 0v356h403v-356l-194 -305h-170l106 305h-145zM621 0v356h403v-356l-195 -305h-170l107 305h-145z" />
<glyph unicode="&#x2022;" horiz-adv-x="1214" d="M74 692q0 145 71.5 268.5t194.5 195t268 71.5q107 0 205.5 -42.5t170.5 -114t114.5 -170.5t42.5 -208q0 -144 -72 -267t-195 -195t-266 -72q-145 0 -268 72t-194.5 195t-71.5 267z" />
<glyph unicode="&#x2026;" horiz-adv-x="1765" d="M88 0v356h404v-356h-404zM678 0v356h403v-356h-403zM1268 0v356h403v-356h-403z" />
<glyph unicode="&#x202f;" horiz-adv-x="368" />
<glyph unicode="&#x2039;" horiz-adv-x="638" d="M74 510l491 387v-266l-172 -121l172 -119v-266z" />
<glyph unicode="&#x203a;" horiz-adv-x="638" d="M74 125v266l170 119l-170 121v266l491 -387z" />
<glyph unicode="&#x205f;" horiz-adv-x="460" />
<glyph unicode="&#x20ac;" horiz-adv-x="1355" d="M-16 485l75 146h140q-4 54 -4 86v20h-185l82 154h119q21 118 72 216t129.5 172t190.5 115.5t247 41.5q237 0 395 -119l-108 -289q-70 123 -277 123q-312 0 -373 -260h596l-61 -154h-551q0 -36 8 -106h502l-57 -146h-406q45 -104 131.5 -163.5t212.5 -59.5q85 0 146 29 t125 96l204 -213q-194 -194 -483 -194q-250 0 -412 139t-221 366h-237z" />
<glyph unicode="&#x2122;" horiz-adv-x="1359" d="M0 1214v199h483v-199h-133v-337h-215v337h-135zM586 877v536h305l57 -207l47 207h308v-536h-216v364l-86 -289h-110l-92 279v-354h-213z" />
<glyph unicode="&#x25fc;" horiz-adv-x="1003" d="M0 0v1004h1004v-1004h-1004z" />
<glyph unicode="&#xfb03;" horiz-adv-x="1884" d="M6 784v215h187v84q0 164 84 247t262 83h178v-260h-129q-56 0 -56 -68v-86h185h98v68q0 172 82.5 259t271.5 87h144v-258h-92q-38 0 -53 -15t-15 -55v-86h625v-999h-344v784h-281v-784h-342v784h-182h-97v-784h-344v784h-182zM1432 1137v276h348v-276h-348z" />
<glyph unicode="&#xfb04;" horiz-adv-x="1923" d="M6 784v215h187v84q0 164 84 247t262 83h178v-260h-129q-56 0 -56 -68v-86h185h104v68q0 172 83 259t272 87h172v-258h-138q-25 0 -37 -14.5t-12 -48.5v-93h187v-215h-187v-784h-342v784h-182h-105v-784h-344v784h-182zM1464 0v1413h344v-1413h-344z" />
</font>
</defs>
</svg>
