<?xml version="1.0" standalone="no"?>
<!DOCTYPE svg PUBLIC "-//W3C//DTD SVG 1.1//EN" "http://www.w3.org/Graphics/SVG/1.1/DTD/svg11.dtd" >
<svg xmlns="http://www.w3.org/2000/svg">
<metadata></metadata>
<defs>
<font id="hanken_sanslight_italic" horiz-adv-x="1089" >
<font-face units-per-em="2048" ascent="1638" descent="-410" />
<missing-glyph horiz-adv-x="468" />
<glyph unicode="&#xfb01;" horiz-adv-x="1026" d="M104 0l191 891h-182l22 108h182l37 177q25 112 115.5 174.5t196.5 62.5h114l-26 -121h-101q-69 0 -114.5 -35.5t-57.5 -95.5l-35 -162h508l-213 -999h-127l191 891h-381l-191 -891h-129zM864 1231l39 182h150l-39 -182h-150z" />
<glyph unicode="&#xfb02;" horiz-adv-x="1017" d="M104 0l191 891h-182l22 108h182l37 177q25 112 115.5 174.5t196.5 62.5h135l-27 -121h-121q-69 0 -114.5 -35.5t-57.5 -95.5l-35 -162h267l-23 -108h-266l-191 -891h-129zM616 0l302 1413h126l-301 -1413h-127z" />
<glyph horiz-adv-x="0" />
<glyph horiz-adv-x="682" />
<glyph unicode=" "  horiz-adv-x="468" />
<glyph unicode="&#x09;" horiz-adv-x="468" />
<glyph unicode="&#xa0;" horiz-adv-x="468" />
<glyph unicode="!" horiz-adv-x="518" d="M63 0l37 176h179l-37 -176h-179zM184 371l197 1065h154l-254 -1065h-97z" />
<glyph unicode="&#x22;" horiz-adv-x="692" d="M225 874l115 539h117l-115 -539h-117zM516 874l115 539h114l-114 -539h-115z" />
<glyph unicode="#" horiz-adv-x="1280" d="M59 446l21 95h262l145 352h-249l18 90h270l191 451h100l-184 -437h338l184 437h100l-184 -447h242l-21 -94h-262l-145 -352h250l-19 -90h-270l-189 -451h-102l184 436h-338l-182 -436h-102l184 446h-242zM444 541h338l146 352h-338z" />
<glyph unicode="$" horiz-adv-x="1050" d="M43 367l133 30q-13 -142 67.5 -214t217.5 -72q135 0 233.5 72t128.5 208q16 75 -9.5 132t-77.5 94t-117.5 69.5t-131 67t-116 77t-74 109.5t-4.5 154q29 137 138 227.5t255 108.5l51 229h82l-53 -227q111 -8 188.5 -65t112.5 -161l-109 -59q-25 84 -87 126t-146 42 q-101 0 -191 -66t-112 -168q-11 -51 -0.5 -93.5t36.5 -72t64 -57t82.5 -48t91 -44.5t90 -47.5t80 -56.5t61 -71.5t32 -93t-6.5 -120.5q-36 -171 -170 -278t-311 -113l-55 -232h-82l55 234q-158 16 -256.5 115.5t-89.5 263.5z" />
<glyph unicode="%" horiz-adv-x="1507" d="M193 2l1056 1409h137l-1054 -1409h-139zM215.5 1045q1.5 44 11.5 88q10 51 31.5 100t56.5 96.5t89.5 77t119.5 29.5q63 0 108.5 -29t66 -76t27 -106.5t-8.5 -120.5q-12 -56 -38 -108.5t-63 -96t-89.5 -70t-110.5 -26.5q-57 0 -98 21t-62.5 55t-31.5 78t-8.5 88z M325 1013.5q0 -44.5 23 -76.5t66 -32q69 0 121.5 70.5t72.5 159.5q7 47 6 89.5t-25 72.5t-67 30q-68 0 -119.5 -67t-70.5 -156q-7 -46 -7 -90.5zM872.5 243q1.5 43 10.5 87q11 51 33 100t57 97t89.5 77t119.5 29q51 0 90 -19t62 -51t36.5 -74.5t12 -90t-10.5 -97.5 q-12 -56 -37.5 -108t-62.5 -95.5t-89 -69.5t-110 -26q-57 0 -98 21t-62.5 54.5t-31.5 78t-8.5 87.5zM987 301q-16 -77 3 -136t83 -59q68 0 121 69t72 157q7 48 6.5 91.5t-24.5 74t-68 30.5q-68 0 -121 -69t-72 -158z" />
<glyph unicode="&#x26;" horiz-adv-x="1323" d="M68 379q22 98 98 190.5t168.5 143.5t163.5 41l20 24q-49 12 -87 62t-52.5 119.5t0.5 148.5q31 148 143 232.5t252 84.5q142 0 218 -89.5t42 -245.5q-20 -95 -96 -174.5t-182 -135.5l-68 94q198 97 230 248q17 85 -24 141t-122 56q-92 0 -167.5 -65.5t-96.5 -168.5 q-13 -61 15 -132.5t71 -129.5l311 -411l258 329h156l-340 -424l231 -317h-184l-147 197q-108 -114 -216 -168t-245 -54q-182 0 -285 109.5t-65 294.5zM199 346q-24 -111 44 -184.5t177 -73.5q113 0 202.5 52t184.5 163l-277 377q-141 -58 -223 -135.5t-108 -198.5z" />
<glyph unicode="'" horiz-adv-x="407" d="M231 903l115 539h117l-115 -539h-117z" />
<glyph unicode="(" horiz-adv-x="507" d="M96 298q8 165 37 302q46 218 156 463t270 438l100 -12q-153 -190 -264.5 -425.5t-163.5 -481.5q-31 -149 -40.5 -304.5t9.5 -314t68 -278.5l-86 12q-52 102 -73 269t-13 332z" />
<glyph unicode=")" horiz-adv-x="503" d="M-115 -301q151 184 262.5 424t163.5 481q49 222 39.5 468.5t-82.5 430.5l94 -12q52 -130 72.5 -290.5t12 -313t-40.5 -301.5q-44 -206 -164.5 -476.5t-261.5 -422.5z" />
<glyph unicode="*" horiz-adv-x="692" d="M207 1161l49 99l215 -103l25 256h94l-90 -256l258 103l6 -99l-260 -39l135 -211l-84 -59l-78 240l-176 -240l-68 59l224 211z" />
<glyph unicode="+" horiz-adv-x="1308" d="M166 578l20 94h457l100 471h97l-101 -471h457l-20 -94h-457l-101 -472h-96l101 472h-457z" />
<glyph unicode="," horiz-adv-x="534" d="M-45 -313l149 313h-67l43 197h190l-41 -197l-182 -313h-92z" />
<glyph unicode="-" horiz-adv-x="618" d="M55 469l19 84h495l-18 -84h-496z" />
<glyph unicode="." horiz-adv-x="415" d="M18 0l43 197h191l-43 -197h-191z" />
<glyph unicode="/" horiz-adv-x="1046" d="M25 -156l938 1569h139l-940 -1569h-137z" />
<glyph unicode="0" horiz-adv-x="1085" d="M91.5 432q0.5 75 9 145t24.5 144q22 102 52.5 194.5t82 190.5t115 168.5t155 116t197.5 45.5q100 0 172.5 -41.5t112 -112.5t56.5 -167.5t11.5 -203t-30.5 -223.5q-30 -140 -82 -262.5t-125 -224.5t-173.5 -161.5t-215.5 -59.5q-81 0 -144.5 24t-104 65.5t-66.5 100 t-36.5 123t-10 139.5zM250 692q-126 -586 203 -586q80 0 149.5 41.5t117 103.5t87.5 148.5t63 163t41 160.5q124 582 -190 582q-83 0 -154.5 -40t-120.5 -101t-89.5 -146.5t-64 -162.5t-42.5 -163z" />
<glyph unicode="1" horiz-adv-x="774" d="M205 1071l26 141l392 201h120l-301 -1413h-135l271 1262z" />
<glyph unicode="2" horiz-adv-x="1081" d="M6 0l31 147q19 90 59.5 165t93 128t115.5 98t129.5 80t132.5 68.5t127 69.5t110.5 77t85.5 97t50 123q25 114 -32 187t-171 73q-141 0 -245 -101t-127 -258l-132 25q44 213 180 333t330 120q180 0 273 -117t55 -297q-20 -95 -76 -171.5t-130.5 -128.5t-160.5 -97.5 t-172 -89t-159 -91t-127 -115.5t-72 -151l-12 -55h745l-24 -119h-877z" />
<glyph unicode="3" horiz-adv-x="1103" d="M55 395l125 2q-29 -142 52.5 -221.5t222.5 -79.5q93 0 181.5 35t158 109.5t90.5 173.5q29 134 -50 203t-219 69h-114l28 127h103q113 0 199.5 69t113.5 191q23 112 -43 177t-192 65q-131 0 -234.5 -73.5t-130.5 -192.5l-117 28q36 167 169.5 262t318.5 95 q188 0 287.5 -100.5t62.5 -274.5q-24 -109 -102 -191.5t-166 -103.5l-13 -19q130 -24 187 -116t28 -246q-28 -131 -110 -223.5t-194.5 -136t-245.5 -43.5q-101 0 -182.5 27t-136.5 78t-76.5 131t-0.5 179z" />
<glyph unicode="4" horiz-adv-x="1081" d="M39 389l18 98l844 926h127l-192 -905h241l-24 -119h-242l-84 -389h-131l84 389h-641zM217 508h488l151 702z" />
<glyph unicode="5" horiz-adv-x="1081" d="M88 381l123 27q-1 -140 71 -229t185 -89q144 0 260.5 107t151.5 272q31 145 -36.5 238.5t-203.5 93.5q-84 0 -179.5 -48.5t-152.5 -119.5l-100 67l272 713h678l-27 -119h-571l-168 -450l-26 -41l6 4q46 46 132.5 77t158.5 31q198 0 296 -135t54 -344 q-41 -199 -195 -327.5t-354 -128.5q-163 0 -271 115t-104 286z" />
<glyph unicode="6" horiz-adv-x="1079" d="M70 463q51 236 233.5 479t482.5 475l207 -8q-110 -69 -235.5 -171.5t-241 -224t-170.5 -218.5q56 49 133.5 79.5t165.5 30.5q184 0 284.5 -133.5t57.5 -341.5q-25 -119 -104 -221.5t-197 -165.5t-246 -63q-129 0 -224 64.5t-134.5 175.5t-11.5 243zM197 428 q-31 -145 38 -237.5t211 -92.5q148 0 266 101t152 258q31 146 -39 237.5t-211 91.5q-150 0 -267.5 -100t-149.5 -258z" />
<glyph unicode="7" horiz-adv-x="903" d="M158 6q38 114 71.5 205t83.5 211t106.5 226t127 219t160 222t190.5 205h-694l26 119h832l-23 -119q-125 -123 -232 -261t-181.5 -262.5t-140.5 -268.5t-108 -257t-85 -251z" />
<glyph unicode="8" d="M53 397q28 128 128 230.5t227 130.5l12 10q-87 32 -129 124.5t-17 201.5q31 148 160 244t299 96q177 0 270.5 -104.5t59.5 -264.5q-22 -102 -98 -187t-172 -114l-13 -10q118 -32 176 -140.5t29 -244.5q-35 -169 -187.5 -279t-351.5 -110q-208 0 -319.5 118t-73.5 299z M182 381q-28 -128 46 -210.5t216 -82.5q149 0 267 91.5t149 230.5q26 126 -48 208t-216 82q-149 0 -267 -90.5t-147 -228.5zM397 1051q-23 -109 34.5 -179.5t172.5 -70.5q119 0 214.5 77.5t121.5 196.5q23 107 -34.5 176.5t-170.5 69.5q-122 0 -217.5 -76.5t-120.5 -193.5z " />
<glyph unicode="9" horiz-adv-x="1079" d="M174 4q110 69 235.5 171.5t241 224t170.5 218.5q-56 -49 -133.5 -79.5t-165.5 -30.5q-184 0 -284.5 133.5t-57.5 341.5q19 89 70.5 171t123 144t164.5 99t189 37q129 0 224.5 -64.5t135 -176t11.5 -243.5q-51 -236 -234 -479t-483 -475zM303 956q-31 -146 39 -237.5 t211 -91.5q150 0 267 100t151 258q31 145 -38.5 237.5t-211.5 92.5q-148 0 -266 -101t-152 -258z" />
<glyph unicode=":" horiz-adv-x="448" d="M-84 0l43 197h191l-44 -197h-190zM80 776l43 197h190l-43 -197h-190z" />
<glyph unicode=";" horiz-adv-x="544" d="M-164 -313l150 313h-68l43 197h191l-41 -197l-183 -313h-92zM86 776l43 197h190l-43 -197h-190z" />
<glyph unicode="&#x3c;" horiz-adv-x="1232" d="M186 674l981 497l39 -98l-807 -399l637 -400l-78 -98z" />
<glyph unicode="=" horiz-adv-x="1040" d="M137 442l25 119h741l-24 -119h-742zM209 782l27 119h741l-27 -119h-741z" />
<glyph unicode="&#x3e;" horiz-adv-x="1232" d="M102 274l809 400l-639 399l76 98l772 -497l-981 -498z" />
<glyph unicode="?" horiz-adv-x="952" d="M195 1085q36 159 167 254t291 95q116 0 200.5 -41.5t123.5 -126.5t14 -201q-19 -90 -67.5 -151t-105 -92t-111.5 -57t-98.5 -64.5t-55.5 -94.5l-51 -239h-119l55 254q11 51 33 89.5t50.5 62t63 44.5t69 35.5t69 36.5t63.5 47t52 66.5t34 95.5q16 74 -9.5 125t-78.5 73.5 t-127 22.5q-113 0 -213 -67.5t-125 -178.5zM279 0l36 176h179l-37 -176h-178z" />
<glyph unicode="@" horiz-adv-x="1976" d="M119 317q-8 115 20 240q50 238 204.5 438.5t375.5 318.5t457 118q144 0 270.5 -46t217 -128t151.5 -194.5t75 -246t-14 -282.5q-23 -108 -71 -209t-116.5 -185t-164 -135t-201.5 -51q-139 0 -191 79.5t-4 203.5q-73 -81 -165 -122.5t-185 -41.5q-77 0 -132 30.5 t-81.5 82.5t-34 121t10.5 147q20 93 69.5 192t121 186t171 143t205.5 56q111 0 179 -57.5t61 -151.5l63 158l135 -6q-22 -56 -96.5 -217.5t-130 -299t-74.5 -229.5q-17 -70 -1 -99t79 -30q73 -1 138 30.5t111.5 81t84 115t59.5 127t35 121.5q22 97 13.5 189t-37.5 173 t-84 148t-125 115.5t-160.5 75.5t-190.5 27q-204 0 -396 -104t-326.5 -281t-178.5 -386q-42 -202 15 -372t199.5 -269.5t340.5 -99.5q121 0 262 41l29 -131q-146 -49 -297 -49q-119 0 -225.5 32.5t-188.5 91.5t-145.5 141.5t-96 183.5t-40.5 216zM662 422q-45 -215 141 -215 q70 0 138 30.5t120.5 80t96.5 112.5t71.5 128t40.5 126q23 100 -12 156.5t-132 56.5q-86 0 -167.5 -45.5t-140 -117t-99 -153t-57.5 -159.5z" />
<glyph unicode="A" horiz-adv-x="1140" d="M-96 0l768 1413h188l164 -1413h-141l-33 322h-629l-170 -322h-147zM283 436h555l-84 819q-3 39 -3 56q0 11 1 14l-11 -12q-8 -23 -32 -70z" />
<glyph unicode="B" horiz-adv-x="1271" d="M98 0l301 1413h465q201 1 297 -105q69 -76 69 -189q0 -45 -11 -95q-13 -62 -48 -117.5t-76 -89.5q-41 -35 -81 -53q-36 -17 -61 -16h-5l-16 -21h9q67 -1 121 -43q58 -46 84 -130q14 -45 13 -95q0 -43 -10 -90q-35 -170 -170 -269.5t-322 -99.5h-559zM260 129h397 q151 0 243.5 73.5t119.5 203.5q6 30 6 57q0 75 -52 125q-72 66 -194 67h-409zM397 782h305q84 0 162 31.5t137.5 95.5t77.5 150q8 36 8 67q1 70 -41 108q-60 54 -202 54h-338z" />
<glyph unicode="C" horiz-adv-x="1347" d="M140 320q-24 82 -23 181q0 101 24 220q71 336 285.5 525.5t497.5 189.5q186 0 321 -105.5t160 -271.5l-117 -41q-21 135 -116.5 212t-256.5 77q-235 0 -411 -165t-234 -440q-21 -98 -21 -182q1 -148 65 -250q100 -161 331 -161q150 0 288.5 83.5t221.5 217.5l100 -64 q-91 -164 -263.5 -265t-354.5 -101q-191 0 -320 88t-177 252z" />
<glyph unicode="D" horiz-adv-x="1355" d="M98 0l301 1413h346q340 0 485 -188q96 -124 96 -321q0 -102 -26 -224q-70 -328 -290 -504t-555 -176h-357zM260 127h184q300 0 480.5 147t244.5 447q23 105 23 190q0 149 -70 238q-108 139 -395 139h-219z" />
<glyph unicode="E" horiz-adv-x="1224" d="M98 0l301 1413h910l-27 -123h-774l-111 -522h676l-26 -123h-676l-111 -522h774l-26 -123h-910z" />
<glyph unicode="F" horiz-adv-x="1179" d="M98 0l301 1413h901l-26 -123h-766l-111 -522h678l-26 -123h-678l-138 -645h-135z" />
<glyph unicode="G" horiz-adv-x="1497" d="M118 527q1 95 23 198q25 116 70.5 220.5t114.5 194.5t155 155.5t197.5 103t236.5 37.5q401 0 498 -377l-129 -39q-43 149 -137 216t-242 67q-129 0 -238.5 -48t-187 -132t-130.5 -190.5t-79 -230.5q-22 -98 -22 -186q0 -85 22 -158q23 -75 67 -129.5t117 -86t169 -31.5 q198 0 359.5 125t225.5 352h-327l24 117h455l-150 -705h-108l61 299l-6 -6q-36 -62 -84.5 -114.5t-114.5 -99t-155 -73t-191 -26.5q-100 0 -182.5 26.5t-140.5 75t-97.5 116.5t-57.5 151q-17 77 -17 163q0 8 1 15z" />
<glyph unicode="H" horiz-adv-x="1417" d="M98 0l301 1413h136l-138 -647h738l137 647h135l-301 -1413h-135l137 647h-737l-138 -647h-135z" />
<glyph unicode="I" horiz-adv-x="544" d="M98 0l301 1413h136l-302 -1413h-135z" />
<glyph unicode="J" horiz-adv-x="739" d="M-72 2l19 123q77 -29 139 -29q80 0 144 32.5t106.5 90t70 123t44.5 145.5l196 926h135l-196 -924q-108 -509 -510 -509q-73 0 -148 22z" />
<glyph unicode="K" horiz-adv-x="1214" d="M98 0l301 1413h136l-144 -670l758 670h172l-713 -620l488 -793h-174l-428 707h-109l-152 -707h-135z" />
<glyph unicode="L" horiz-adv-x="964" d="M98 0l301 1413h136l-275 -1290h604l-26 -123h-740z" />
<glyph unicode="M" horiz-adv-x="1695" d="M98 0l301 1413h215l172 -1186l680 1186h220l-302 -1413h-137l279 1303l-8 -7q-11 -43 -48 -108l-616 -1065h-168l-160 1102q-1 6 -3.5 28.5t-3 31.5t0.5 22l-8 -7l-276 -1300h-138z" />
<glyph unicode="N" horiz-adv-x="1480" d="M98 0l301 1413h203l420 -1194l29 -84l14 6l270 1272h135l-301 -1413h-204l-414 1176q-18 54 -33 116l-8 -6l-274 -1286h-138z" />
<glyph unicode="O" horiz-adv-x="1449" d="M141 721q69 327 278 520t496 193q291 0 423 -202q85 -130 85 -317q0 -103 -26 -223q-69 -327 -277.5 -519.5t-492.5 -192.5q-294 0 -426 201q-85 130 -85 318q0 102 25 222zM264 692q-21 -98 -20 -182q0 -146 62 -246q99 -158 327 -158q232 0 406.5 167t234.5 448 q21 99 21 182q-1 145 -63 245q-98 158 -323 159q-235 0 -410 -167t-235 -448z" />
<glyph unicode="P" horiz-adv-x="1175" d="M98 0l301 1413h439q216 -1 318 -117q70 -81 70 -207q0 -56 -14 -122q-40 -194 -179.5 -298t-362.5 -104h-314l-120 -565h-138zM383 688h313q323 0 387 303q10 47 10 88q-1 81 -41 133q-60 78 -216 78h-326z" />
<glyph unicode="Q" horiz-adv-x="1564" d="M141 721q69 327 278 520t496 193q291 0 423 -202q84 -130 84 -317q0 -103 -25 -223q-64 -298 -244 -487l201 -252l-92 -82l-199 254q-190 -145 -436 -145q-294 0 -426 201q-85 130 -85 318q0 102 25 222zM264 692q-21 -98 -21 -182q0 -145 63 -246q99 -158 327 -158 q192 0 352 119l-174 224l86 77l174 -219q147 159 203 414q21 99 21 182q0 145 -63 245q-98 159 -323 159q-235 0 -410 -167t-235 -448z" />
<glyph unicode="R" horiz-adv-x="1220" d="M98 -2l301 1415h459q200 0 301 -109q73 -79 73 -196q0 -45 -11 -96q-29 -139 -130.5 -232t-246.5 -121l196 -661h-147l-191 647h-329l-137 -647h-138zM401 768h353q139 6 225.5 76.5t112.5 195.5q8 36 8 66q0 74 -44 120q-62 64 -210 64h-334z" />
<glyph unicode="S" horiz-adv-x="1052" d="M50 269q-6 30 -5 63q0 53 14 114l127 -12q-11 -48 -11 -88q0 -21 3 -40q9 -55 32.5 -93t64 -62t86 -34.5t98.5 -10.5q135 0 236 71t128 194q7 26 7 50q0 13 -2 25q-6 36 -18.5 63t-37.5 52t-52 43.5t-62.5 39t-68.5 37.5l-18 9q-37 16 -60 26t-57 27.5t-55.5 31.5 t-48.5 35t-42.5 41.5t-31.5 48t-22 56.5t-6 65.5t8 76.5q32 151 156.5 243.5t296.5 92.5q249 0 360 -220l-94 -67q-92 168 -273 168q-116 0 -206 -65.5t-113 -170.5q-4 -20 -4 -39q0 -46 25 -86q36 -56 77.5 -83t133.5 -75q17 -9 26 -14q34 -15 59.5 -27t57.5 -29t54.5 -33 t48 -37.5t42 -43.5t31 -50t20.5 -58t6 -66.5t-8 -77.5q-35 -165 -177.5 -270.5t-328.5 -105.5q-69 0 -132 16t-120.5 50t-93.5 88t-50 131z" />
<glyph unicode="T" horiz-adv-x="1148" d="M188 1292l27 121h1108l-27 -121h-483l-274 -1292h-140l275 1292h-486z" />
<glyph unicode="U" horiz-adv-x="1323" d="M178 494l197 919h135l-199 -930q-13 -62 -13 -114q0 -97 44 -161q68 -98 229 -97q163 0 281 104t156 281l194 917h135l-196 -921q-52 -243 -206 -377.5t-372 -134.5q-227 0 -331 138q-70 93 -71 231q0 67 17 145z" />
<glyph unicode="V" horiz-adv-x="1157" d="M217 1413h135l135 -1319l701 1319h145l-762 -1413h-192z" />
<glyph unicode="W" horiz-adv-x="1808" d="M217 1413h135l27 -1243q-1 -3 -2.5 -11t-3 -14t-2.5 -8l18 6l-4 25l582 1106h196l109 -1118q3 -6 -4 -19l16 13q0 16 4 32l551 1231h146l-644 -1413h-163l-127 1161l-631 -1161h-162z" />
<glyph unicode="X" horiz-adv-x="1118" d="M-88 0l616 707l-309 706h158l246 -596l503 596h166l-616 -706l313 -707h-158l-251 586l-502 -586h-166z" />
<glyph unicode="Y" horiz-adv-x="1325" d="M207 1413h158l325 -739l656 739h165l-768 -860l-120 -553h-138l121 553z" />
<glyph unicode="Z" horiz-adv-x="1150" d="M-72 0l23 115l1159 1175h-862l26 123h1037l-25 -119l-1167 -1171h917l-26 -123h-1082z" />
<glyph unicode="[" horiz-adv-x="550" d="M-16 -326l387 1821h352l-12 -63h-248l-361 -1692h248l-14 -66h-352z" />
<glyph unicode="\" horiz-adv-x="1046" d="M338 1413h129l272 -1569h-131z" />
<glyph unicode="]" horiz-adv-x="550" d="M-137 -326l14 66h248l360 1692h-247l12 63h352l-387 -1821h-352z" />
<glyph unicode="^" horiz-adv-x="743" d="M96 850l465 561l230 -561h-129l-140 342l-286 -342h-140z" />
<glyph unicode="_" horiz-adv-x="761" d="M-127 -96l21 96h761l-20 -96h-762z" />
<glyph unicode="a" d="M64 304q-1 18 -1 38q0 81 21 172q23 109 65.5 199t103 159.5t145 108.5t184.5 39q183 0 278 -146h17l24 125h127l-213 -999h-127l23 113h-2q-143 -133 -330 -133q-103 0 -173.5 41.5t-103 113t-38.5 169.5zM209 485q-17 -82 -17 -148q0 -83 28 -139q50 -102 196 -102 q138 0 244.5 113.5t146.5 304.5q16 74 16 134q1 86 -31 147q-54 104 -186 104q-153 0 -254.5 -110t-142.5 -304z" />
<glyph unicode="b" d="M61 0l301 1413h127l-110 -526h4q143 133 326 133q83 0 145.5 -27t100 -75t55.5 -116q17 -62 17 -134q-1 -6 -1 -12q-2 -80 -20 -171q-49 -226 -175.5 -365.5t-320.5 -139.5q-188 0 -283 145h-14l-25 -125h-127zM283 485q-16 -76 -16 -138q1 -86 31 -147q52 -104 183 -104 q154 0 256.5 111t143.5 307q17 79 17 143q0 83 -28 141q-50 102 -198 101q-138 0 -243.5 -112.5t-145.5 -301.5z" />
<glyph unicode="c" horiz-adv-x="958" d="M69 310q-3 28 -3 55q0 71 18 147q22 102 67 192t110 160t154 111t189 41q133 0 219.5 -70t114.5 -192l-113 -33q-15 87 -75 134.5t-150 47.5q-64 0 -121.5 -25.5t-100.5 -67.5t-78.5 -97.5t-57.5 -113t-35 -116.5q-12 -57 -14 -109v-17q0 -44 8 -87q10 -52 33.5 -91 t68 -63t105.5 -24q97 0 184 55.5t141 139.5l98 -56q-80 -123 -188 -187t-237 -64q-104 0 -179.5 43.5t-111.5 117t-46 169.5z" />
<glyph unicode="d" d="M64 304q-1 18 -1 38q0 81 21 172q23 109 65.5 199t103 159.5t145 108.5t184.5 39q183 0 278 -146h17l112 539h127l-301 -1413h-127l23 113h-2q-143 -133 -330 -133q-103 0 -173.5 41.5t-103 113t-38.5 169.5zM209 485q-17 -82 -17 -148q0 -83 28 -139q50 -102 196 -102 q138 0 244.5 113.5t146.5 304.5q16 74 16 134q1 86 -31 147q-54 104 -186 104q-153 0 -254.5 -110t-142.5 -304z" />
<glyph unicode="e" horiz-adv-x="1011" d="M68 356q2 76 16 158q17 76 45.5 145t75 134.5t104.5 113t138 76.5t171 29q96 0 164.5 -32.5t103.5 -84.5q36 -52 50 -124q11 -56 11 -113q0 -14 -1 -30q-4 -72 -20 -151l-8 -35l-717 7q-8 -40 -8 -78q0 -27 4 -53q9 -62 34.5 -109t82.5 -75t141 -28q171 0 297 95l61 -95 q-158 -118 -362 -118q-99 0 -174 29t-119 79q-44 49 -68 116q-23 63 -23 135q1 5 1 9zM221 555h598q12 59 12 109q0 82 -32 139q-51 92 -191 92q-79 0 -146.5 -29t-114 -79t-77.5 -108t-49 -124z" />
<glyph unicode="f" horiz-adv-x="630" d="M104 0l191 891h-182l22 108h182l29 136q26 130 117 204t223 74h115l-25 -110h-100q-73 0 -130.5 -48t-74.5 -125l-27 -131h269l-23 -108h-268l-191 -891h-127z" />
<glyph unicode="g" d="M-29 -100l144 22q5 -75 68.5 -121.5t166.5 -46.5q128 0 223.5 78t120.5 197l31 129q-136 -148 -336 -148q-81 0 -143 28t-98.5 76.5t-57.5 114.5q-19 60 -19 129v14q2 76 17 160q21 100 63 185.5t104 154t151.5 107.5t195.5 39q186 0 252 -144h20l25 125h129l-209 -983 q-37 -170 -163 -270t-308 -100q-155 0 -261.5 71t-115.5 183zM196 357q5 -69 26 -121.5t72.5 -83.5t127.5 -31q80 0 145.5 29.5t112 83.5t78 122.5t49.5 153.5q13 63 16 119q1 13 1 26q0 42 -8 81q-10 52 -34 89.5t-68.5 59.5t-105.5 22q-79 0 -146.5 -32.5t-116 -89 t-82.5 -128t-52 -155.5q-15 -61 -15 -118v-27z" />
<glyph unicode="h" horiz-adv-x="1071" d="M61 0l301 1413h127l-122 -567h14q123 168 313 168q154 0 224 -102q47 -68 48 -166q0 -49 -12 -105l-137 -641h-127l137 641q11 54 11 96q0 60 -23 95q-39 59 -143 59q-125 0 -228 -88.5t-131 -220.5l-125 -582h-127z" />
<glyph unicode="i" horiz-adv-x="485" d="M74 0l213 999h127l-213 -999h-127zM324 1231l38 182h150l-39 -182h-149z" />
<glyph unicode="j" horiz-adv-x="487" d="M-215 -334l25 111h102q115 0 145 133l232 1089h127l-232 -1083q-28 -136 -92 -193t-196 -57h-111zM326 1229l39 184h149l-39 -184h-149z" />
<glyph unicode="k" horiz-adv-x="964" d="M61 0l301 1413h127l-182 -856l553 442h164l-510 -409l360 -590h-159l-309 516h-107l-111 -516h-127z" />
<glyph unicode="l" horiz-adv-x="462" d="M61 0l301 1413h127l-301 -1413h-127z" />
<glyph unicode="m" horiz-adv-x="1615" d="M61 0l213 999h127l-32 -139h8q116 158 295 158q94 0 159 -48.5t82 -144.5h15q69 104 146.5 147.5t182.5 43.5q165 0 222 -98q35 -60 34 -148q0 -57 -14 -127l-137 -643h-127l139 651q10 50 10 90q0 160 -163 160q-127 0 -210.5 -90.5t-111.5 -228.5l-125 -582h-127 l139 655q11 51 11 93q0 52 -18 88q-32 64 -140 65q-130 0 -214 -90.5t-112 -228.5l-125 -582h-127z" />
<glyph unicode="n" horiz-adv-x="1071" d="M61 0l213 999h129l-34 -153h10q123 168 311 168q158 0 228 -101q47 -67 48 -166q0 -49 -12 -106l-137 -641h-127l137 641q12 59 12 103q0 60 -22 95q-38 60 -137 60q-131 0 -234.5 -89t-132.5 -228l-125 -582h-127z" />
<glyph unicode="o" horiz-adv-x="1052" d="M84 510q51 240 197 371t342 131q203 0 301 -140q63 -90 62 -227q0 -75 -19 -164q-51 -239 -199 -370t-344 -131q-203 0 -298 140q-61 90 -61 225q0 75 19 165zM203 481q-16 -76 -16 -137q1 -92 37 -151q60 -97 206 -97q153 0 264 106t154 308q16 76 16 137q0 93 -36 152 q-60 98 -207 98q-153 0 -264 -106.5t-154 -309.5z" />
<glyph unicode="p" horiz-adv-x="1087" d="M-10 -334l284 1333h123l-28 -125h12q130 146 328 146q95 0 164.5 -41.5t104 -114t43.5 -170.5q2 -25 2 -51q0 -75 -19 -158q-48 -221 -180.5 -363t-315.5 -142q-193 0 -281 151h-12l-98 -465h-127zM279 485q-17 -80 -17 -145q0 -85 30 -145q52 -105 185 -105 q143 0 253 115t151 309q17 76 17 139q0 88 -33 149q-56 105 -193 105q-140 0 -246 -113.5t-147 -308.5z" />
<glyph unicode="q" horiz-adv-x="1087" d="M67 304q-2 26 -2 52q0 75 19 158q47 220 180.5 363t313.5 143q107 0 172 -40t108 -112h19l26 131h123l-285 -1333h-127l101 459h-6q-135 -145 -332 -145q-94 0 -162.5 41.5t-103.5 113.5t-44 169zM207 485q-17 -77 -17 -141q0 -88 32 -149q56 -105 192 -105 q140 0 247 114t148 310q17 78 17 142q0 86 -31 146q-54 105 -187 105q-143 0 -251.5 -114t-149.5 -308z" />
<glyph unicode="r" horiz-adv-x="714" d="M61 0l213 999h132l-39 -174h6q48 86 126.5 137.5t176.5 51.5q49 0 108 -19l-16 -118q-40 18 -90 18q-56 0 -113.5 -24t-111 -71t-96.5 -126.5t-64 -181.5l-105 -492h-127z" />
<glyph unicode="s" horiz-adv-x="921" d="M14 225l123 49q9 -71 69.5 -123.5t176.5 -52.5q107 0 194.5 50t106.5 141q4 18 4 34q0 19 -6 35q-11 28 -50.5 48.5t-66.5 29.5t-91 25q-20 5 -30 8q-28 6 -49 11t-47 12.5t-45 15t-41 18t-37.5 22.5t-30 26.5t-23.5 32.5t-14.5 38.5t-5 46t6.5 53.5q25 123 139.5 195 t253.5 72q122 0 206 -58.5t113 -140.5l-96 -51q-66 143 -225 143q-99 0 -179.5 -49.5t-97.5 -124.5q-6 -26 3 -48t24 -36t49 -28.5t57 -21.5t69 -20l42 -12q29 -7 50.5 -12.5t48 -13.5t46.5 -16t42 -19t37 -23.5t30.5 -28t24 -34.5t14 -40.5t4.5 -47.5t-6 -56 q-20 -94 -91.5 -162.5t-161 -100t-183.5 -31.5q-143 0 -243 73t-114 172z" />
<glyph unicode="t" horiz-adv-x="643" d="M119 891l22 108h76q34 0 59.5 21t34.5 55l49 236h127l-65 -312h276l-22 -108h-277l-129 -604q-11 -52 -11 -87q-1 -36 11 -56q24 -38 113 -38h96l-22 -106h-107q-220 0 -220 182q0 41 11 92l131 617h-153z" />
<glyph unicode="u" horiz-adv-x="1071" d="M117 358l137 641h127l-137 -641q-11 -54 -12 -96q0 -59 24 -93q38 -58 137 -58q130 0 233.5 87.5t131.5 219.5l125 581h127l-213 -999h-129l32 154h-14q-123 -168 -305 -168q-159 0 -229 100q-47 67 -47 166q0 49 12 106z" />
<glyph unicode="v" horiz-adv-x="878" d="M150 999h135l59 -936l461 936h141l-514 -999h-194z" />
<glyph unicode="w" horiz-adv-x="1349" d="M147 2l3 997h135l-29 -921l465 921h115l77 -921l365 921h137l-424 -999h-182l-64 831l-413 -829h-185z" />
<glyph unicode="x" horiz-adv-x="817" d="M-88 0l442 504l-225 495h133l166 -385l336 385h141l-440 -495l223 -504h-133l-166 391l-336 -391h-141z" />
<glyph unicode="y" horiz-adv-x="851" d="M-113 -334l25 111h133q101 0 154 102l69 123l-129 997h135l78 -737q2 -26 2 -53t-2 -55h8q1 10 4.5 21t6 18.5t9.5 21t9.5 19t11.5 22t11 20.5l387 723h141l-616 -1134q-58 -105 -130.5 -152t-173.5 -47h-133z" />
<glyph unicode="z" horiz-adv-x="864" d="M-55 0l18 98l782 787h-589l24 114h746l-23 -110l-774 -774h602l-24 -115h-762z" />
<glyph unicode="{" horiz-adv-x="548" d="M86 -111l104 498q17 82 -98 121l10 100q70 17 114 60t56 102l119 555q20 98 72.5 145.5t161.5 47.5h51q4 0 11.5 0.5t14 0.5t11.5 -1l-2 -64q-27 0 -47 4q-63 1 -101.5 -14.5t-44.5 -44.5l-137 -654q-15 -71 -68 -115.5t-168 -84.5q87 -30 128 -69t28 -97l-104 -494 q-15 -79 11.5 -118t96.5 -27h29l-2 -64q-7 -2 -13.5 -2t-13 1t-10.5 1h-72q-98 0 -129 84q-29 37 -8 129z" />
<glyph unicode="|" horiz-adv-x="501" d="M66 -156l358 1690h92l-358 -1690h-92z" />
<glyph unicode="}" horiz-adv-x="552" d="M-121 -260q4 0 12 -1t11 -1q75 -3 124.5 39.5t67.5 120.5l105 493q11 58 64.5 93.5t162.5 68.5q-93 37 -129 86t-21 119l140 653q6 29 -19.5 39.5t-83.5 3.5h-57l4 64q2 2 18 1l17 -1h51q110 0 146 -53.5t14 -151.5l-117 -555q-25 -121 92 -154l-12 -100 q-56 -16 -104 -50t-58 -79l-106 -498q-17 -89 -54 -141q-37 -30 -71.5 -45t-85.5 -15h-72q-24 0 -39 5v59z" />
<glyph unicode="~" horiz-adv-x="845" d="M33 412q23 109 82 174t149 65q55 0 96.5 -17.5t65.5 -42t44 -49t44.5 -42t54.5 -17.5q116 0 150 168l104 -12q-26 -126 -94 -193t-168 -67q-46 0 -83 17.5t-61 43t-46 51t-49 43t-58 17.5q-56 0 -88.5 -43t-44.5 -109z" />
<glyph unicode="&#xa1;" horiz-adv-x="518" d="M-16 -436l254 1065h96l-197 -1065h-153zM240 823l36 176h179l-37 -176h-178z" />
<glyph unicode="&#xa2;" horiz-adv-x="954" d="M68.5 322q-7.5 91 15.5 190q20 95 61 179.5t100 153t141 112.5t177 53l47 190h92l-47 -190q106 -10 184 -80t101 -174l-135 -41q-3 80 -60.5 127t-144.5 47q-78 0 -145 -36.5t-113.5 -97t-77.5 -129t-47 -143.5q-17 -65 -14.5 -132t20 -121.5t66.5 -89t125 -34.5 q89 0 174 53.5t125 135.5l106 -64q-60 -108 -156.5 -173t-211.5 -72l-48 -191h-92l45 191q-90 10 -154.5 56.5t-95 117.5t-38 162z" />
<glyph unicode="&#xa3;" horiz-adv-x="1091" d="M-45 0l18 90q12 8 31.5 23t71.5 60.5t94 91.5t82 110t53 121q14 84 8 153l-219 -6l25 117l188 6q0 2 -3 19.5t-5 30.5t-3.5 38t-1 48t4 54t10.5 62q24 112 86.5 205t160.5 151t212 58q137 0 216 -80.5t99 -208.5l-110 -25q-13 92 -64.5 145.5t-144.5 53.5 q-122 0 -218 -89.5t-128 -240.5q-26 -121 0 -233l477 6l-25 -117l-446 -6q12 -63 -10 -170q-13 -62 -44.5 -121t-66.5 -99.5t-68 -72t-55 -46.5l-22 -15l831 4l-24 -117h-1010z" />
<glyph unicode="&#xa4;" horiz-adv-x="1177" d="M12 217l234 174q-56 111 -27 252q27 127 127 238l-176 145l149 133l117 -209q109 78 248 78q136 0 223 -84l219 201l105 -131l-258 -146q53 -107 24 -254q-29 -134 -125 -235l191 -162l-152 -131l-127 219q-118 -76 -249 -76q-140 0 -226 86l-192 -229zM350 614 q-24 -112 28 -185t163 -73q117 0 207.5 81.5t117.5 205.5q24 113 -27 185.5t-161 72.5q-118 0 -210 -81.5t-118 -205.5z" />
<glyph unicode="&#xa5;" horiz-adv-x="1148" d="M145 188l21 101h303l53 252h-303l21 96h276l-309 776h119l288 -711l594 711h127l-643 -774h273l-21 -98h-301l-53 -252h301l-21 -101h-301l-37 -170h-120l37 170h-304z" />
<glyph unicode="&#xa6;" horiz-adv-x="495" d="M61 -156l138 643h94l-137 -643h-95zM256 758l139 655h94l-139 -655h-94z" />
<glyph unicode="&#xa7;" horiz-adv-x="1026" d="M84 266l104 25q7 -107 71 -150t175 -43q66 0 124.5 15.5t108.5 58t64 107.5q9 43 -5 73.5t-45 47.5t-73 30.5t-89.5 22t-95 21.5t-88 30t-69.5 47.5t-39.5 72.5t2.5 107q27 136 156 223q-42 28 -59 82t-2 125q27 125 140 199t249 74q134 0 222.5 -76t92.5 -215l-123 -2 q-5 174 -198 174q-102 0 -180 -51.5t-97 -133.5q-9 -45 10 -75.5t58 -45.5t90 -28t105.5 -22.5t104 -29t85.5 -48t51 -78.5t0 -121q-28 -136 -148 -217q86 -67 56 -211q-19 -92 -84 -155.5t-148.5 -90t-179.5 -26.5q-150 0 -242 73.5t-104 210.5zM344 719q-8 -38 5.5 -68 t39.5 -47.5t65 -31.5t73 -21t72 -15t56 -14q139 52 166 183q9 41 -4 72t-37.5 49.5t-63 32.5t-71.5 20t-72.5 13.5t-56.5 12.5q-71 -25 -116 -76.5t-56 -109.5z" />
<glyph unicode="&#xa9;" horiz-adv-x="1710" d="M156 707q0 205 99.5 379t270 275t371.5 101q202 0 373.5 -101t271.5 -275t100 -379q0 -154 -59 -294t-159 -241t-238 -161t-289 -60q-150 0 -287.5 60t-236.5 161t-158 241t-59 294zM256 707q0 -174 87.5 -325.5t235.5 -241t318 -89.5q129 0 248.5 53t205.5 142 t137.5 210t51.5 251q0 174 -86.5 325t-235 240.5t-321.5 89.5q-127 0 -245.5 -53t-205 -141.5t-138.5 -209.5t-52 -251zM571 705q0 172 89.5 283.5t254.5 111.5q96 0 177 -46.5t120 -127.5l-96 -43q-24 55 -79 85.5t-122 30.5q-121 0 -183 -85t-62 -209q0 -79 24 -143 t80.5 -107t138.5 -43q65 0 121 30t80 86l98 -43q-39 -81 -120 -128.5t-177 -47.5q-165 0 -254.5 111.5t-89.5 284.5z" />
<glyph unicode="&#xaa;" horiz-adv-x="700" d="M109 1090q33 156 119.5 251t220.5 95q125 0 190 -99h10l19 84h86l-146 -682h-88l17 78h-2q-99 -92 -226 -92q-136 0 -185 102t-15 263zM195 1071q-27 -127 7 -196.5t134 -69.5q94 0 166 77.5t100 207.5q26 122 -10.5 193t-126.5 71q-104 0 -173.5 -75.5t-96.5 -207.5z " />
<glyph unicode="&#xab;" horiz-adv-x="1028" d="M156 512l419 317l-26 -147l-236 -170l158 -172l-27 -150zM518 512l420 317l-27 -147l-235 -170l158 -172l-27 -150z" />
<glyph unicode="&#xac;" horiz-adv-x="1159" d="M188 682l25 115h860l-108 -506h-115l84 391h-746z" />
<glyph unicode="&#xad;" horiz-adv-x="618" d="M55 469l19 84h495l-18 -84h-496z" />
<glyph unicode="&#xae;" horiz-adv-x="1259" d="M100 893q0 147 70.5 271.5t192.5 197t266 72.5t266 -72.5t193 -197t71 -271.5t-71 -271.5t-193 -197t-266 -72.5t-266 72.5t-192.5 197t-70.5 271.5zM172 893q0 -123 62 -230t167.5 -170t227.5 -63t227.5 63t168 170t62.5 230t-62.5 230.5t-168 171t-227.5 63.5 t-227.5 -63.5t-167.5 -171t-62 -230.5zM451 606v563h217q94 0 143 -42t49 -119q0 -68 -33.5 -107t-83.5 -51l144 -244h-109l-127 236h-106v-236h-94zM537 922h131q106 0 106 86t-106 86h-131v-172z" />
<glyph unicode="&#xb0;" horiz-adv-x="747" d="M221 1157q25 115 124 196t216 81q125 0 195.5 -89.5t42.5 -216.5q-25 -117 -124 -197.5t-218 -80.5q-124 0 -194 89.5t-42 217.5zM315 1128q-15 -75 27 -126.5t117 -51.5q83 0 155 60t91 147q15 74 -27 126t-117 52q-82 0 -154.5 -60.5t-91.5 -146.5z" />
<glyph unicode="&#xb1;" horiz-adv-x="1308" d="M25 -96l20 96h1008l-21 -96h-1007zM166 578l20 94h457l100 471h97l-101 -471h457l-20 -94h-457l-101 -472h-96l101 472h-457z" />
<glyph unicode="&#xb5;" horiz-adv-x="995" d="M6 -266l268 1265h140l-129 -604q-64 -295 141 -295q129 0 244 100.5t143 231.5l121 567h139l-213 -999h-139l41 180q-48 -78 -148.5 -140.5t-210.5 -62.5q-108 0 -188 62l-90 -305h-119z" />
<glyph unicode="&#xb6;" horiz-adv-x="1101" d="M195 1032q25 117 107.5 205.5t192 132t228.5 43.5h115l-363 -1700h-108l200 910q-88 0 -164 28t-130 79t-76 129.5t-2 172.5zM655 -287l363 1700h110l-362 -1700h-111z" />
<glyph unicode="&#xb7;" horiz-adv-x="489" d="M199 846q9 43 46 72.5t83 29.5q54 0 85 -38t19 -93q-9 -44 -48.5 -76t-86.5 -32q-51 0 -80.5 40t-17.5 97z" />
<glyph unicode="&#xba;" horiz-adv-x="784" d="M188 1092q31 145 142 245.5t250 100.5q147 0 220.5 -109t39.5 -266q-31 -147 -142.5 -247.5t-251.5 -100.5q-146 0 -218.5 109t-39.5 268zM283.5 966.5q2.5 -47.5 17 -84t51.5 -58t92 -21.5q115 0 190.5 83t102.5 208q12 50 9 97t-17.5 83t-51.5 58t-93 22 q-113 0 -188.5 -83.5t-100.5 -205.5q-14 -51 -11.5 -98.5z" />
<glyph unicode="&#xbb;" horiz-adv-x="1028" d="M90 190l27 150l235 172l-157 170l26 147l289 -317zM453 190l26 150l236 172l-158 170l27 147l288 -317z" />
<glyph unicode="&#xbf;" horiz-adv-x="882" d="M-39.5 -225q-17.5 69 0.5 159q19 90 67.5 151t105 92t111.5 57t98.5 64.5t55.5 94.5l52 240h118l-55 -254q-12 -57 -39 -99t-62 -67t-74.5 -45t-80 -41t-75.5 -47t-62.5 -71.5t-40.5 -106.5q-16 -74 9.5 -125t78.5 -73.5t127 -22.5q121 0 218 69.5t124 188.5l123 -13 q-36 -166 -165.5 -263t-295.5 -97q-87 0 -157 24t-117 70t-64.5 115zM459 823l37 176h178l-37 -176h-178z" />
<glyph unicode="&#xc0;" horiz-adv-x="1140" d="M-96 0l768 1413h188l164 -1413h-141l-33 322h-629l-170 -322h-147zM283 436h555l-84 819q-5 62 -2 70l-11 -12q-8 -23 -32 -70zM520 1827h185l157 -271h-125z" />
<glyph unicode="&#xc1;" horiz-adv-x="1140" d="M-96 0l768 1413h188l164 -1413h-141l-33 322h-629l-170 -322h-147zM283 436h555l-84 819q-5 62 -2 70l-11 -12q-8 -23 -32 -70zM743 1559l275 268h190l-352 -268h-113z" />
<glyph unicode="&#xc2;" horiz-adv-x="1140" d="M-96 0l768 1413h188l164 -1413h-141l-33 322h-629l-170 -322h-147zM283 436h555l-84 819q-5 62 -2 70l-11 -12q-8 -23 -32 -70zM516 1497l326 322h22l193 -322h-113l-113 186l-192 -186h-123z" />
<glyph unicode="&#xc3;" horiz-adv-x="1140" d="M-96 0l768 1413h188l164 -1413h-141l-33 322h-629l-170 -322h-147zM283 436h555l-84 819q-5 62 -2 70l-11 -12q-8 -23 -32 -70zM465 1614q20 97 72 155t133 58q55 0 96.5 -16.5t65.5 -40t44.5 -47t44 -40t52.5 -16.5q59 0 91.5 42.5t49.5 119.5l88 -12 q-51 -232 -239 -232q-43 0 -78.5 16t-60 38.5t-47 45t-49 38.5t-56.5 16q-53 0 -86 -40t-43 -97z" />
<glyph unicode="&#xc4;" horiz-adv-x="1140" d="M-96 0l768 1413h188l164 -1413h-141l-33 322h-629l-170 -322h-147zM283 436h555l-84 819q-5 62 -2 70l-11 -12q-8 -23 -32 -70zM588 1642l39 185h141l-39 -185h-141zM907 1642l39 185h141l-38 -185h-142z" />
<glyph unicode="&#xc5;" horiz-adv-x="1140" d="M-96 0l739 1360q-34 28 -47.5 73t-3.5 99q17 74 81 125t140 51q83 0 130.5 -59.5t27.5 -145.5q-19 -91 -105 -145l158 -1358h-141l-33 322h-629l-170 -322h-147zM283 436h555l-84 819q-5 59 -2 68h-2l-9 -10q-8 -23 -32 -70zM680 1501q-7 -38 13 -61t59 -23q44 0 84 33.5 t49 79.5q8 36 -12.5 61t-59.5 25q-48 0 -85.5 -31.5t-47.5 -83.5z" />
<glyph unicode="&#xc6;" horiz-adv-x="1757" d="M-96 0l825 1413h1112l-26 -119h-748l-111 -528h662l-27 -119h-661l-111 -520h748l-27 -127h-889l66 311h-471l-178 -311h-164zM315 432h428l181 850h-121z" />
<glyph unicode="&#xc7;" horiz-adv-x="1347" d="M141 721q71 336 285.5 525.5t497.5 189.5q186 0 321 -105.5t160 -271.5l-117 -41q-21 135 -116.5 212t-256.5 77q-235 0 -411 -165t-234 -440q-57 -271 43.5 -432t331.5 -161q150 0 288.5 83.5t221.5 217.5l100 -64q-84 -149 -235.5 -247t-317.5 -115l-102 -117 q97 -28 137 -71.5t27 -108.5q-18 -79 -83.5 -133t-135.5 -54q-62 0 -102.5 36.5t-51.5 90.5l82 31q0 -31 18 -51.5t50 -20.5q43 0 83 33.5t50 83.5q12 54 -72 86l-110 35l114 156q-278 11 -407.5 207.5t-57.5 533.5z" />
<glyph unicode="&#xc8;" horiz-adv-x="1224" d="M98 0l301 1413h910l-27 -123h-774l-111 -522h676l-26 -123h-676l-111 -522h774l-26 -123h-910zM606 1827h185l157 -271h-125z" />
<glyph unicode="&#xc9;" horiz-adv-x="1224" d="M98 0l301 1413h910l-27 -123h-774l-111 -522h676l-26 -123h-676l-111 -522h774l-26 -123h-910zM829 1559l275 268h190l-352 -268h-113z" />
<glyph unicode="&#xca;" horiz-adv-x="1224" d="M98 0l301 1413h910l-27 -123h-774l-111 -522h676l-26 -123h-676l-111 -522h774l-26 -123h-910zM602 1497l326 322h22l193 -322h-113l-112 186l-193 -186h-123z" />
<glyph unicode="&#xcb;" horiz-adv-x="1224" d="M98 0l301 1413h910l-27 -123h-774l-111 -522h676l-26 -123h-676l-111 -522h774l-26 -123h-910zM674 1642l39 185h141l-39 -185h-141zM993 1642l39 185h142l-39 -185h-142z" />
<glyph unicode="&#xcc;" horiz-adv-x="544" d="M98 0l301 1413h136l-302 -1413h-135zM219 1827h184l158 -271h-125z" />
<glyph unicode="&#xcd;" horiz-adv-x="544" d="M98 0l301 1413h136l-302 -1413h-135zM442 1559l275 268h190l-352 -268h-113z" />
<glyph unicode="&#xce;" horiz-adv-x="544" d="M98 0l301 1413h136l-302 -1413h-135zM215 1497l326 322h22l193 -322h-113l-113 186l-192 -186h-123z" />
<glyph unicode="&#xcf;" horiz-adv-x="544" d="M98 0l301 1413h136l-302 -1413h-135zM287 1642l39 185h141l-39 -185h-141zM606 1642l39 185h141l-38 -185h-142z" />
<glyph unicode="&#xd0;" horiz-adv-x="1327" d="M74 0l139 657h-113l25 111h113l137 645h348q342 0 485 -188t68 -543q-71 -330 -288.5 -506t-555.5 -176h-358zM248 131h176q126 0 238.5 35t208 105.5t165 185t101.5 264.5q120 563 -435 563h-210l-109 -516h360l-24 -111h-361z" />
<glyph unicode="&#xd1;" horiz-adv-x="1480" d="M98 0l301 1413h203l420 -1194l29 -84l14 6l270 1272h135l-301 -1413h-204l-414 1176q-18 54 -33 116l-8 -6l-274 -1286h-138zM633 1614q20 97 72 155t133 58q55 0 96.5 -16.5t65.5 -40t44.5 -47t44 -40t52.5 -16.5q59 0 91.5 42.5t49.5 119.5l88 -12q-51 -232 -240 -232 q-43 0 -78.5 16t-59.5 38.5t-46.5 45t-49 38.5t-56.5 16q-53 0 -86 -40t-43 -97z" />
<glyph unicode="&#xd2;" horiz-adv-x="1449" d="M141 721q69 327 278 520t496 193q291 0 422.5 -201.5t59.5 -540.5q-69 -327 -277.5 -519.5t-492.5 -192.5q-294 0 -426 201t-60 540zM264 692q-57 -269 42 -427.5t327 -158.5q232 0 406.5 167t234.5 448q57 269 -41.5 427.5t-323.5 158.5q-235 0 -410 -167t-235 -448z M672 1827h184l158 -271h-125z" />
<glyph unicode="&#xd3;" horiz-adv-x="1449" d="M141 721q69 327 278 520t496 193q291 0 422.5 -201.5t59.5 -540.5q-69 -327 -277.5 -519.5t-492.5 -192.5q-294 0 -426 201t-60 540zM264 692q-57 -269 42 -427.5t327 -158.5q232 0 406.5 167t234.5 448q57 269 -41.5 427.5t-323.5 158.5q-235 0 -410 -167t-235 -448z M895 1559l274 268h191l-352 -268h-113z" />
<glyph unicode="&#xd4;" horiz-adv-x="1449" d="M141 721q69 327 278 520t496 193q291 0 422.5 -201.5t59.5 -540.5q-69 -327 -277.5 -519.5t-492.5 -192.5q-294 0 -426 201t-60 540zM264 692q-57 -269 42 -427.5t327 -158.5q232 0 406.5 167t234.5 448q57 269 -41.5 427.5t-323.5 158.5q-235 0 -410 -167t-235 -448z M668 1497l325 322h23l192 -322h-112l-113 186l-192 -186h-123z" />
<glyph unicode="&#xd5;" horiz-adv-x="1449" d="M141 721q69 327 278 520t496 193q291 0 422.5 -201.5t59.5 -540.5q-69 -327 -277.5 -519.5t-492.5 -192.5q-294 0 -426 201t-60 540zM264 692q-57 -269 42 -427.5t327 -158.5q232 0 406.5 167t234.5 448q57 269 -41.5 427.5t-323.5 158.5q-235 0 -410 -167t-235 -448z M616 1614q20 97 72 155t133 58q55 0 96.5 -16.5t65.5 -40t44.5 -47t44 -40t52.5 -16.5q107 0 142 162l88 -12q-51 -232 -240 -232q-43 0 -78.5 16t-60 38.5t-47 45t-49 38.5t-56.5 16q-53 0 -86 -40t-43 -97z" />
<glyph unicode="&#xd6;" horiz-adv-x="1449" d="M141 721q69 327 278 520t496 193q291 0 422.5 -201.5t59.5 -540.5q-69 -327 -277.5 -519.5t-492.5 -192.5q-294 0 -426 201t-60 540zM264 692q-57 -269 42 -427.5t327 -158.5q232 0 406.5 167t234.5 448q57 269 -41.5 427.5t-323.5 158.5q-235 0 -410 -167t-235 -448z M739 1642l39 185h142l-39 -185h-142zM1059 1642l39 185h141l-39 -185h-141z" />
<glyph unicode="&#xd7;" horiz-adv-x="970" d="M39 295l399 330l-256 323l84 74l258 -324l400 330l61 -74l-399 -329l254 -324l-86 -74l-256 324l-398 -330z" />
<glyph unicode="&#xd8;" horiz-adv-x="1449" d="M2 123l160 131q-79 190 -21 467q69 327 278 520t496 193q145 0 252.5 -53t171.5 -152l152 125l51 -64l-164 -135q77 -190 19 -463q-69 -327 -277.5 -519.5t-492.5 -192.5q-294 0 -426 202l-150 -123zM264 692q-44 -206 4 -348l969 799q-99 164 -328 164q-235 0 -410 -167 t-235 -448zM303 268q98 -162 330 -162t406.5 167t234.5 448q44 203 -4 344z" />
<glyph unicode="&#xd9;" horiz-adv-x="1323" d="M178 494l197 919h135l-199 -930q-37 -177 31.5 -274.5t228.5 -97.5q163 0 281 104t156 281l194 917h135l-196 -921q-52 -243 -206 -377.5t-372 -134.5q-227 0 -331.5 138t-53.5 376zM606 1827h185l157 -271h-125z" />
<glyph unicode="&#xda;" horiz-adv-x="1323" d="M178 494l197 919h135l-199 -930q-37 -177 31.5 -274.5t228.5 -97.5q163 0 281 104t156 281l194 917h135l-196 -921q-52 -243 -206 -377.5t-372 -134.5q-227 0 -331.5 138t-53.5 376zM829 1559l275 268h190l-352 -268h-113z" />
<glyph unicode="&#xdb;" horiz-adv-x="1323" d="M178 494l197 919h135l-199 -930q-37 -177 31.5 -274.5t228.5 -97.5q163 0 281 104t156 281l194 917h135l-196 -921q-52 -243 -206 -377.5t-372 -134.5q-227 0 -331.5 138t-53.5 376zM602 1497l326 322h22l193 -322h-113l-112 186l-193 -186h-123z" />
<glyph unicode="&#xdc;" horiz-adv-x="1323" d="M178 494l197 919h135l-199 -930q-37 -177 31.5 -274.5t228.5 -97.5q163 0 281 104t156 281l194 917h135l-196 -921q-52 -243 -206 -377.5t-372 -134.5q-227 0 -331.5 138t-53.5 376zM674 1642l39 185h141l-39 -185h-141zM993 1642l39 185h142l-39 -185h-142z" />
<glyph unicode="&#xdd;" horiz-adv-x="1325" d="M207 1413h158l325 -739l656 739h165l-768 -860l-120 -553h-138l121 553zM831 1559l275 268h190l-352 -268h-113z" />
<glyph unicode="&#xde;" horiz-adv-x="1099" d="M98 0l301 1413h144l-47 -215h225q213 0 317 -105t66 -286q-38 -176 -177 -270.5t-354 -94.5h-237l-94 -442h-144zM362 569h226q154 0 252.5 67t124.5 195q25 115 -41 177.5t-217 62.5h-238z" />
<glyph unicode="&#xdf;" horiz-adv-x="1118" d="M66 0l229 1079q36 164 162.5 259.5t285.5 95.5q163 0 264 -95t70 -237q-11 -54 -43.5 -94.5t-71.5 -65.5t-77.5 -48t-69.5 -57t-41 -79q-9 -39 7 -74t45.5 -61.5t63.5 -59.5t61.5 -68.5t39.5 -89t-2 -120.5q-29 -133 -138.5 -218t-246.5 -85q-83 0 -201 41l21 131 q97 -50 184 -50q84 0 149.5 53.5t84.5 139.5q9 44 1 82.5t-27.5 65t-45 55.5t-51 54.5t-44.5 61.5t-26 76t4 99q12 59 43 100t68 64.5t73.5 46t66 59t40.5 88.5q17 80 -32.5 127t-151.5 47q-129 0 -219 -72.5t-115 -187.5l-225 -1063h-135z" />
<glyph unicode="&#xe0;" d="M64 304.5q-6 97.5 20 209.5q23 109 65.5 199t103 159.5t145 108.5t184.5 39q183 0 278 -146h17l24 125h127l-213 -999h-127l23 113h-2q-143 -133 -330 -133q-103 0 -173.5 41.5t-103 113.5t-38.5 169.5zM209 485q-39 -186 10.5 -287.5t196.5 -101.5q138 0 244.5 113.5 t146.5 304.5q38 177 -15.5 281t-185.5 104q-153 0 -254.5 -110t-142.5 -304zM406 1413h184l158 -270h-125z" />
<glyph unicode="&#xe1;" d="M64 304.5q-6 97.5 20 209.5q23 109 65.5 199t103 159.5t145 108.5t184.5 39q183 0 278 -146h17l24 125h127l-213 -999h-127l23 113h-2q-143 -133 -330 -133q-103 0 -173.5 41.5t-103 113.5t-38.5 169.5zM209 485q-39 -186 10.5 -287.5t196.5 -101.5q138 0 244.5 113.5 t146.5 304.5q38 177 -15.5 281t-185.5 104q-153 0 -254.5 -110t-142.5 -304zM629 1145l274 268h191l-353 -268h-112z" />
<glyph unicode="&#xe2;" d="M64 304.5q-6 97.5 20 209.5q23 109 65.5 199t103 159.5t145 108.5t184.5 39q183 0 278 -146h17l24 125h127l-213 -999h-127l23 113h-2q-143 -133 -330 -133q-103 0 -173.5 41.5t-103 113.5t-38.5 169.5zM209 485q-39 -186 10.5 -287.5t196.5 -101.5q138 0 244.5 113.5 t146.5 304.5q38 177 -15.5 281t-185.5 104q-153 0 -254.5 -110t-142.5 -304zM401 1083l326 322h23l192 -322h-113l-112 187l-193 -187h-123z" />
<glyph unicode="&#xe3;" d="M64 304.5q-6 97.5 20 209.5q23 109 65.5 199t103 159.5t145 108.5t184.5 39q183 0 278 -146h17l24 125h127l-213 -999h-127l23 113h-2q-143 -133 -330 -133q-103 0 -173.5 41.5t-103 113.5t-38.5 169.5zM209 485q-39 -186 10.5 -287.5t196.5 -101.5q138 0 244.5 113.5 t146.5 304.5q38 177 -15.5 281t-185.5 104q-153 0 -254.5 -110t-142.5 -304zM350 1200q20 97 72 155t133 58q55 0 96.5 -16.5t65.5 -40t44.5 -47t44 -40t52.5 -16.5q59 0 91.5 42.5t49.5 119.5l88 -12q-51 -232 -239 -232q-43 0 -78.5 16t-60 38.5t-47 45t-49 38.5t-56.5 16 q-53 0 -86 -40t-43 -97z" />
<glyph unicode="&#xe4;" d="M64 304.5q-6 97.5 20 209.5q23 109 65.5 199t103 159.5t145 108.5t184.5 39q183 0 278 -146h17l24 125h127l-213 -999h-127l23 113h-2q-143 -133 -330 -133q-103 0 -173.5 41.5t-103 113.5t-38.5 169.5zM209 485q-39 -186 10.5 -287.5t196.5 -101.5q138 0 244.5 113.5 t146.5 304.5q38 177 -15.5 281t-185.5 104q-153 0 -254.5 -110t-142.5 -304zM473 1229l39 184h141l-39 -184h-141zM793 1229l38 184h142l-39 -184h-141z" />
<glyph unicode="&#xe5;" d="M64 304.5q-6 97.5 20 209.5q23 109 65.5 199t103 159.5t145 108.5t184.5 39q183 0 278 -146h17l24 125h127l-213 -999h-127l23 113h-2q-143 -133 -330 -133q-103 0 -173.5 41.5t-103 113.5t-38.5 169.5zM209 485q-39 -186 10.5 -287.5t196.5 -101.5q138 0 244.5 113.5 t146.5 304.5q38 177 -15.5 281t-185.5 104q-153 0 -254.5 -110t-142.5 -304zM520 1284q17 74 81 125t140 51q83 0 130.5 -59.5t27.5 -145.5q-15 -74 -79 -127t-140 -53q-85 0 -132 61t-28 148zM608 1253q-7 -38 13 -61t59 -23q44 0 84 33.5t49 79.5q8 36 -12.5 61t-59.5 25 q-48 0 -85.5 -31.5t-47.5 -83.5z" />
<glyph unicode="&#xe6;" horiz-adv-x="1718" d="M35 283q20 89 79 152.5t150 96.5q47 14 98 20t114.5 9t92.5 6q44 3 77 10.5t66 25t56 50.5t33 82q19 81 -22.5 130.5t-151.5 49.5q-107 0 -202.5 -46.5t-148.5 -108.5l-77 82q107 91 205 134.5t223 43.5q140 0 207.5 -57.5t70.5 -176.5q158 226 420 226q96 0 164.5 -32.5 t103 -84.5t49 -124t10.5 -143.5t-20 -150.5l-8 -35l-717 7q-13 -68 -4 -130.5t34.5 -109.5t82.5 -75t141 -28q171 0 297 95l62 -95q-158 -118 -363 -118q-170 0 -262.5 79.5t-114.5 213.5q-192 -304 -465 -301h-6q-160 3 -230.5 86.5t-43.5 216.5zM154 248q-8 -63 25.5 -108 t107.5 -48q104 -4 206 51.5t176.5 145.5t116.5 198q0 7 5 27q2 12 10 41q-40 -38 -104 -58.5t-121 -25t-127 -12t-109 -19.5q-76 -18 -126.5 -72.5t-59.5 -119.5zM928 555h598q31 156 -20 248t-191 92q-79 0 -146.5 -29t-114 -79t-77.5 -108t-49 -124z" />
<glyph unicode="&#xe7;" horiz-adv-x="958" d="M67.5 353.5q1.5 75.5 16.5 158.5q22 102 67 192t110 160t154 111t189 41q133 0 219.5 -70t114.5 -192l-113 -33q-15 87 -75 134.5t-150 47.5q-64 0 -121.5 -25.5t-100.5 -67.5t-78.5 -97.5t-57.5 -113t-35 -116.5q-12 -56 -14 -108.5t8 -104.5t33.5 -91t68 -63t105.5 -24 q97 0 184 55.5t141 139.5l98 -56q-139 -216 -360 -247l-102 -117q96 -28 136 -71.5t27 -108.5q-18 -79 -83.5 -133t-135.5 -54q-62 0 -102 36.5t-51 90.5l82 31q0 -31 17.5 -51.5t49.5 -20.5q43 0 83 33.5t50 83.5q13 54 -71 86l-111 35l115 156q-77 5 -136.5 36t-95.5 80.5 t-56.5 115.5t-19 141.5z" />
<glyph unicode="&#xe8;" horiz-adv-x="1011" d="M67.5 355.5q1.5 76.5 16.5 158.5q17 76 45.5 145t75 134.5t104.5 113t138 76.5t171 29q96 0 164.5 -32.5t103.5 -84.5t49.5 -124t10.5 -143.5t-20 -150.5l-8 -35l-717 7q-13 -68 -4 -130.5t34.5 -109.5t82.5 -75t141 -28q171 0 297 95l61 -95q-158 -118 -362 -118 q-99 0 -174 29t-118.5 78.5t-68 116.5t-23 143.5zM221 555h598q31 156 -20 248t-191 92q-79 0 -146.5 -29t-114 -79t-77.5 -108t-49 -124zM358 1413h185l157 -270h-125z" />
<glyph unicode="&#xe9;" horiz-adv-x="1011" d="M67.5 355.5q1.5 76.5 16.5 158.5q17 76 45.5 145t75 134.5t104.5 113t138 76.5t171 29q96 0 164.5 -32.5t103.5 -84.5t49.5 -124t10.5 -143.5t-20 -150.5l-8 -35l-717 7q-13 -68 -4 -130.5t34.5 -109.5t82.5 -75t141 -28q171 0 297 95l61 -95q-158 -118 -362 -118 q-99 0 -174 29t-118.5 78.5t-68 116.5t-23 143.5zM221 555h598q31 156 -20 248t-191 92q-79 0 -146.5 -29t-114 -79t-77.5 -108t-49 -124zM582 1145l274 268h191l-353 -268h-112z" />
<glyph unicode="&#xea;" horiz-adv-x="1011" d="M67.5 355.5q1.5 76.5 16.5 158.5q17 76 45.5 145t75 134.5t104.5 113t138 76.5t171 29q96 0 164.5 -32.5t103.5 -84.5t49.5 -124t10.5 -143.5t-20 -150.5l-8 -35l-717 7q-13 -68 -4 -130.5t34.5 -109.5t82.5 -75t141 -28q171 0 297 95l61 -95q-158 -118 -362 -118 q-99 0 -174 29t-118.5 78.5t-68 116.5t-23 143.5zM221 555h598q31 156 -20 248t-191 92q-79 0 -146.5 -29t-114 -79t-77.5 -108t-49 -124zM354 1083l326 322h22l193 -322h-113l-112 187l-193 -187h-123z" />
<glyph unicode="&#xeb;" horiz-adv-x="1011" d="M67.5 355.5q1.5 76.5 16.5 158.5q17 76 45.5 145t75 134.5t104.5 113t138 76.5t171 29q96 0 164.5 -32.5t103.5 -84.5t49.5 -124t10.5 -143.5t-20 -150.5l-8 -35l-717 7q-13 -68 -4 -130.5t34.5 -109.5t82.5 -75t141 -28q171 0 297 95l61 -95q-158 -118 -362 -118 q-99 0 -174 29t-118.5 78.5t-68 116.5t-23 143.5zM221 555h598q31 156 -20 248t-191 92q-79 0 -146.5 -29t-114 -79t-77.5 -108t-49 -124zM426 1229l39 184h141l-39 -184h-141zM745 1229l39 184h142l-39 -184h-142z" />
<glyph unicode="&#xec;" horiz-adv-x="460" d="M61 0l213 999h125l-213 -999h-125zM86 1413h184l158 -270h-125z" />
<glyph unicode="&#xed;" horiz-adv-x="460" d="M61 0l213 999h125l-213 -999h-125zM309 1145l275 268h190l-352 -268h-113z" />
<glyph unicode="&#xee;" horiz-adv-x="460" d="M61 0l213 999h125l-213 -999h-125zM82 1083l326 322h22l193 -322h-113l-113 187l-192 -187h-123z" />
<glyph unicode="&#xef;" horiz-adv-x="460" d="M61 0l213 999h125l-213 -999h-125zM154 1229l39 184h141l-39 -184h-141zM473 1229l39 184h141l-39 -184h-141z" />
<glyph unicode="&#xf0;" horiz-adv-x="1118" d="M79.5 362q-1.5 80 14.5 168q22 103 72.5 196t123.5 165.5t171 115t205 42.5q81 0 148 -36.5t91 -82.5q6 128 -45 213t-155 153l-121 -143l-66 43l121 139q-53 30 -154 80l82 98q112 -47 162 -75l105 121l61 -39l-102 -121q141 -93 208.5 -217.5t70.5 -291.5t-46 -388 q-22 -103 -72 -196t-121.5 -165t-169 -114.5t-204.5 -42.5q-89 0 -160.5 29t-116.5 80t-73 120t-29.5 149zM208 385.5q0 -55.5 14.5 -106.5t44 -88.5t80 -59.5t118.5 -22q87 0 163 35.5t129.5 95.5t90 134t53.5 156q11 62 13 119.5t-14 107.5t-45 87t-79.5 58.5t-116.5 21.5 q-87 0 -163.5 -35.5t-130 -96t-90.5 -134.5t-54 -156q-13 -61 -13 -116.5z" />
<glyph unicode="&#xf1;" horiz-adv-x="1071" d="M61 0l213 999h129l-34 -153h10q123 168 311 168q158 0 228.5 -101t35.5 -272l-137 -641h-127l137 641q28 138 -10 198t-137 60q-131 0 -234.5 -89t-132.5 -228l-125 -582h-127zM324 1202q20 97 71.5 155t132.5 58q55 0 96.5 -16.5t65.5 -40t44.5 -47t44 -40t52.5 -16.5 q107 0 142 162l88 -12q-51 -231 -240 -231q-43 0 -78.5 16t-60 38t-47 44.5t-49 38.5t-56.5 16q-53 0 -86 -40t-43 -97z" />
<glyph unicode="&#xf2;" horiz-adv-x="1052" d="M84 510q51 240 197 371t342 131q203 0 300.5 -140.5t43.5 -390.5q-51 -239 -199 -370t-344 -131q-203 0 -298 139.5t-42 390.5zM203 481q-40 -191 20.5 -288t206.5 -97q153 0 264 106t154 308q40 191 -20.5 289t-206.5 98q-153 0 -264 -106.5t-154 -309.5zM381 1413h184 l158 -270h-125z" />
<glyph unicode="&#xf3;" horiz-adv-x="1052" d="M84 510q51 240 197 371t342 131q203 0 300.5 -140.5t43.5 -390.5q-51 -239 -199 -370t-344 -131q-203 0 -298 139.5t-42 390.5zM203 481q-40 -191 20.5 -288t206.5 -97q153 0 264 106t154 308q40 191 -20.5 289t-206.5 98q-153 0 -264 -106.5t-154 -309.5zM604 1145 l275 268h190l-352 -268h-113z" />
<glyph unicode="&#xf4;" horiz-adv-x="1052" d="M84 510q51 240 197 371t342 131q203 0 300.5 -140.5t43.5 -390.5q-51 -239 -199 -370t-344 -131q-203 0 -298 139.5t-42 390.5zM203 481q-40 -191 20.5 -288t206.5 -97q153 0 264 106t154 308q40 191 -20.5 289t-206.5 98q-153 0 -264 -106.5t-154 -309.5zM377 1083 l325 322h23l193 -322h-113l-113 187l-192 -187h-123z" />
<glyph unicode="&#xf5;" horiz-adv-x="1052" d="M84 510q51 240 197 371t342 131q203 0 300.5 -140.5t43.5 -390.5q-51 -239 -199 -370t-344 -131q-203 0 -298 139.5t-42 390.5zM203 481q-40 -191 20.5 -288t206.5 -97q153 0 264 106t154 308q40 191 -20.5 289t-206.5 98q-153 0 -264 -106.5t-154 -309.5zM326 1200 q20 97 71.5 155t132.5 58q55 0 96.5 -16.5t66 -40t44.5 -47t44 -40t53 -16.5q59 0 91.5 42.5t49.5 119.5l88 -12q-51 -232 -240 -232q-43 0 -78.5 16t-60 38.5t-47 45t-49 38.5t-56.5 16q-53 0 -86 -40t-43 -97z" />
<glyph unicode="&#xf6;" horiz-adv-x="1052" d="M84 510q51 240 197 371t342 131q203 0 300.5 -140.5t43.5 -390.5q-51 -239 -199 -370t-344 -131q-203 0 -298 139.5t-42 390.5zM203 481q-40 -191 20.5 -288t206.5 -97q153 0 264 106t154 308q40 191 -20.5 289t-206.5 98q-153 0 -264 -106.5t-154 -309.5zM449 1229 l38 184h142l-39 -184h-141zM768 1229l39 184h141l-39 -184h-141z" />
<glyph unicode="&#xf7;" horiz-adv-x="897" d="M135 428l21 96h598l-21 -96h-598zM250 -10l37 176h178l-37 -176h-178zM416 768l37 176h178l-37 -176h-178z" />
<glyph unicode="&#xf8;" horiz-adv-x="1052" d="M-14 88l110 90q-55 134 -12 332q51 240 197 371t342 131q210 0 303 -146l106 88l35 -45l-115 -94q57 -134 15 -334q-51 -239 -199 -370t-344 -131q-210 0 -303 147l-101 -84zM197 262l637 526q-57 109 -213 109q-153 0 -264 -106.5t-154 -309.5q-27 -133 -6 -219z M217 205q55 -109 213 -109q153 0 264 106t154 308q27 135 6 223z" />
<glyph unicode="&#xf9;" horiz-adv-x="1071" d="M117 358l137 641h127l-137 -641q-27 -131 11.5 -189t137.5 -58q130 0 233.5 87.5t131.5 219.5l125 581h127l-213 -999h-129l32 154h-14q-123 -168 -305 -168q-158 0 -228.5 100.5t-35.5 271.5zM383 1413h184l158 -270h-125z" />
<glyph unicode="&#xfa;" horiz-adv-x="1071" d="M117 358l137 641h127l-137 -641q-27 -131 11.5 -189t137.5 -58q130 0 233.5 87.5t131.5 219.5l125 581h127l-213 -999h-129l32 154h-14q-123 -168 -305 -168q-158 0 -228.5 100.5t-35.5 271.5zM606 1145l275 268h190l-352 -268h-113z" />
<glyph unicode="&#xfb;" horiz-adv-x="1071" d="M117 358l137 641h127l-137 -641q-27 -131 11.5 -189t137.5 -58q130 0 233.5 87.5t131.5 219.5l125 581h127l-213 -999h-129l32 154h-14q-123 -168 -305 -168q-158 0 -228.5 100.5t-35.5 271.5zM379 1083l326 322h22l193 -322h-113l-113 187l-192 -187h-123z" />
<glyph unicode="&#xfc;" horiz-adv-x="1071" d="M117 358l137 641h127l-137 -641q-27 -131 11.5 -189t137.5 -58q130 0 233.5 87.5t131.5 219.5l125 581h127l-213 -999h-129l32 154h-14q-123 -168 -305 -168q-158 0 -228.5 100.5t-35.5 271.5zM451 1229l38 184h142l-39 -184h-141zM770 1229l39 184h141l-39 -184h-141z " />
<glyph unicode="&#xfd;" horiz-adv-x="851" d="M-113 -334l25 111h133q101 0 154 102l69 123l-129 997h135l78 -737q5 -53 0 -108h8q1 10 4.5 21t6 18.5t9.5 21t9.5 19t11.5 22t11 20.5l387 723h141l-616 -1134q-58 -105 -130.5 -152t-173.5 -47h-133zM510 1145l274 268h191l-352 -268h-113z" />
<glyph unicode="&#xfe;" horiz-adv-x="1112" d="M-10 -334l372 1747h127l-116 -539l10 7q139 139 330 139q95 0 163.5 -41.5t103 -114t43.5 -170t-17 -209.5q-31 -144 -98.5 -256.5t-171 -180.5t-224.5 -68q-195 0 -283 151l-12 -6l-98 -459h-129zM264.5 336q2.5 -71 22.5 -126t69 -87.5t123 -32.5q78 0 146.5 34.5 t119 94t85.5 134.5t53 161q20 77 15.5 148t-25.5 125.5t-72.5 87t-126.5 32.5q-77 0 -144 -34.5t-115.5 -94t-82.5 -134t-51 -159.5q-19 -78 -16.5 -149z" />
<glyph unicode="&#xff;" horiz-adv-x="851" d="M-113 -334l25 111h133q101 0 154 102l69 123l-129 997h135l78 -737q5 -53 0 -108h8q1 10 4.5 21t6 18.5t9.5 21t9.5 19t11.5 22t11 20.5l387 723h141l-616 -1134q-58 -105 -130.5 -152t-173.5 -47h-133zM354 1229l39 184h142l-39 -184h-142zM674 1229l39 184h141 l-39 -184h-141z" />
<glyph unicode="&#x152;" horiz-adv-x="2195" d="M114.5 526q2.5 93 24.5 195q25 118 70.5 223.5t113.5 195.5t153.5 155t195 102t233.5 37q172 0 271.5 -62t146.5 -192l39 6l49 227h868l-26 -119h-748l-110 -528h659l-26 -119h-660l-111 -520h748l-27 -127h-868l47 219l-43 -6q-99 -124 -216 -178.5t-282 -54.5 q-105 0 -190.5 27t-144 76t-97.5 116.5t-55.5 150.5t-14 176zM246.5 513q-1.5 -85 19.5 -161t64 -131.5t118 -88t175 -32.5q127 0 235 51t184.5 139.5t128.5 197t78 233.5q20 94 22 179t-18.5 161t-63 131.5t-116.5 88t-174 32.5q-103 0 -194 -34t-161 -92t-126 -137.5 t-92.5 -169t-57.5 -188.5q-20 -94 -21.5 -179z" />
<glyph unicode="&#x153;" horiz-adv-x="1785" d="M84 510q51 240 197 371t342 131q130 0 220.5 -61t123.5 -175q157 236 426 236q96 0 164.5 -32.5t103 -84.5t49 -124t10.5 -143.5t-20 -150.5l-8 -35l-717 7q-13 -68 -4 -130.5t34.5 -109.5t82.5 -75t141 -28q171 0 297 95l61 -95q-158 -118 -362 -118q-150 0 -240.5 62.5 t-122.5 170.5q-77 -117 -191.5 -179t-246.5 -62q-203 0 -298 139.5t-42 390.5zM203 481q-40 -191 20.5 -288t206.5 -97q153 0 264 106t154 308q40 191 -20.5 289t-206.5 98q-153 0 -264 -106.5t-154 -309.5zM995 555h598q31 156 -20 248t-191 92q-79 0 -146.5 -29t-114 -79 t-77.5 -108t-49 -124z" />
<glyph unicode="&#x178;" horiz-adv-x="1325" d="M207 1413h158l325 -739l656 739h165l-768 -860l-120 -553h-138l121 553zM676 1642l39 185h141l-39 -185h-141zM995 1642l39 185h142l-39 -185h-142z" />
<glyph unicode="&#x2000;" horiz-adv-x="914" />
<glyph unicode="&#x2001;" horiz-adv-x="1829" />
<glyph unicode="&#x2002;" horiz-adv-x="914" />
<glyph unicode="&#x2003;" horiz-adv-x="1829" />
<glyph unicode="&#x2004;" horiz-adv-x="609" />
<glyph unicode="&#x2005;" horiz-adv-x="457" />
<glyph unicode="&#x2006;" horiz-adv-x="304" />
<glyph unicode="&#x2007;" horiz-adv-x="304" />
<glyph unicode="&#x2008;" horiz-adv-x="228" />
<glyph unicode="&#x2009;" horiz-adv-x="365" />
<glyph unicode="&#x200a;" horiz-adv-x="101" />
<glyph unicode="&#x2010;" horiz-adv-x="618" d="M55 469l19 84h495l-18 -84h-496z" />
<glyph unicode="&#x2011;" horiz-adv-x="618" d="M55 469l19 84h495l-18 -84h-496z" />
<glyph unicode="&#x2012;" horiz-adv-x="618" d="M55 469l19 84h495l-18 -84h-496z" />
<glyph unicode="&#x2013;" horiz-adv-x="761" d="M35 469l18 84h680l-18 -84h-680z" />
<glyph unicode="&#x2014;" horiz-adv-x="2048" d="M-6 469l18 84h2048l-18 -84h-2048z" />
<glyph unicode="&#x2018;" horiz-adv-x="495" d="M248 903l41 197l182 313h92l-149 -313h67l-43 -197h-190z" />
<glyph unicode="&#x2019;" horiz-adv-x="534" d="M213 903l149 314h-67l43 196h190l-41 -196l-182 -314h-92z" />
<glyph unicode="&#x201a;" horiz-adv-x="534" d="M-45 -313l149 313h-67l43 197h190l-41 -197l-182 -313h-92z" />
<glyph unicode="&#x201c;" horiz-adv-x="860" d="M248 903l41 197l182 313h92l-149 -313h67l-43 -197h-190zM612 903l41 197l183 313h92l-150 -313h68l-43 -197h-191z" />
<glyph unicode="&#x201d;" horiz-adv-x="923" d="M213 903l149 314h-67l43 196h190l-41 -196l-182 -314h-92zM602 903l150 314h-68l43 196h191l-41 -196l-183 -314h-92z" />
<glyph unicode="&#x201e;" horiz-adv-x="923" d="M-45 -313l149 313h-67l43 197h190l-41 -197l-182 -313h-92zM344 -313l150 313h-68l43 197h190l-41 -197l-182 -313h-92z" />
<glyph unicode="&#x2022;" horiz-adv-x="602" d="M123 516q14 69 74.5 118.5t132.5 49.5q78 0 123 -58t28 -139q-15 -69 -76 -118.5t-133 -49.5q-79 0 -123.5 58t-25.5 139z" />
<glyph unicode="&#x2026;" horiz-adv-x="1595" d="M18 0l43 197h191l-43 -197h-191zM608 0l43 197h191l-43 -197h-191zM1198 0l43 197h191l-43 -197h-191z" />
<glyph unicode="&#x202f;" horiz-adv-x="365" />
<glyph unicode="&#x2039;" horiz-adv-x="557" d="M104 510l420 321l-26 -149l-236 -172l158 -170l-27 -150z" />
<glyph unicode="&#x203a;" horiz-adv-x="557" d="M39 190l27 150l235 170l-158 172l27 149l289 -321z" />
<glyph unicode="&#x205f;" horiz-adv-x="457" />
<glyph unicode="&#x20ac;" horiz-adv-x="1312" d="M-10 506l69 100h185q6 56 18 111q2 15 17 71l-267 3l72 100h227q44 118 110 215t153.5 172t200.5 116.5t241 41.5q214 0 344 -127l-55 -103q-115 123 -293 123q-186 0 -329.5 -121.5t-227.5 -316.5h657l-72 -105l-622 2q-22 -67 -31 -110q-1 -5 -6 -31t-6 -41h555 l-62 -100h-501q-2 -89 17 -161t61.5 -129t117 -88.5t176.5 -31.5q97 0 193.5 32t169.5 95l76 -76q-184 -167 -451 -167q-125 0 -220 39t-154 110t-88 166t-27 211h-248z" />
<glyph unicode="&#x2122;" horiz-adv-x="1167" d="M188 1331l19 82h434l-18 -82h-174l-97 -454h-86l96 454h-174zM612 877l115 536h113l63 -352l225 352h111l-115 -536h-86l86 397l-190 -301h-82l-66 313l-88 -409h-86z" />
<glyph unicode="&#x25fc;" horiz-adv-x="1003" d="M0 0v1004h1004v-1004h-1004z" />
<glyph unicode="&#xfb03;" horiz-adv-x="1665" d="M104 0l191 891h-182l22 108h182l29 136q26 130 117 204t223 74h115l-25 -110h-100q-73 0 -130.5 -48t-74.5 -125l-27 -131h269h180l37 177q25 112 114.5 174.5t194.5 62.5h137l-26 -121h-121q-69 0 -114.5 -35.5t-57.5 -95.5l-35 -162h571l-213 -999h-127l191 891h-445 l-190 -891h-129l190 891h-182h-266l-191 -891h-127zM1503 1231l39 182h150l-39 -182h-150z" />
<glyph unicode="&#xfb04;" horiz-adv-x="1609" d="M104 0l191 891h-182l22 108h182l29 136q26 130 117 204t223 74h115l-25 -110h-100q-73 0 -130.5 -48t-74.5 -125l-27 -131h269h151l37 177q25 112 115 174.5t196 62.5h136l-27 -121h-121q-69 0 -114.5 -35.5t-57.5 -95.5l-35 -162h267l-23 -108h-266l-191 -891h-129 l191 891h-183h-237l-191 -891h-127zM1208 0l301 1413h127l-301 -1413h-127z" />
</font>
</defs>
</svg>
